<?xml version="1.0" encoding="UTF-8"?>
<svg version="1.1" xmlns="http://www.w3.org/2000/svg" width="30" height="30">
<path d="M0 0 C3.625 0.375 3.625 0.375 7 1 C7 1.66 7 2.32 7 3 C7.763125 2.79375 8.52625 2.5875 9.3125 2.375 C12 2 12 2 15 4 C14.67 5.32 14.34 6.64 14 8 C13.34 8 12.68 8 12 8 C11.855625 8.804375 11.71125 9.60875 11.5625 10.4375 C11 13 11 13 10 14 C7.64686445 14.07271741 5.29166332 14.08370868 2.9375 14.0625 C1.64714844 14.05347656 0.35679688 14.04445313 -0.97265625 14.03515625 C-1.97167969 14.02355469 -2.97070312 14.01195312 -4 14 C-4.66 12.68 -5.32 11.36 -6 10 C-1.66666667 10 2.66666667 10 7 10 C4.25831978 10 1.68857258 9.51483305 -1 9 C-2 8 -2 8 -2.1875 5.0625 C-2 2 -2 2 0 0 Z M1 4 C1.33 4.66 1.66 5.32 2 6 C2.66 6 3.32 6 4 6 C4 5.34 4 4.68 4 4 C3.01 4 2.02 4 1 4 Z " fill="#FBFBFB" transform="translate(12,11)"/>
<path d="M0 0 C1.27617187 0.02320313 2.55234375 0.04640625 3.8671875 0.0703125 C5.78917969 0.09738281 5.78917969 0.09738281 7.75 0.125 C9.23113281 0.15980469 9.23113281 0.15980469 10.7421875 0.1953125 C11.4021875 1.5153125 12.0621875 2.8353125 12.7421875 4.1953125 C10.8046875 4.7578125 10.8046875 4.7578125 8.7421875 5.1953125 C8.4121875 4.8653125 8.0821875 4.5353125 7.7421875 4.1953125 C6.22290712 4.12351286 4.70051268 4.11139243 3.1796875 4.1328125 C2.35339844 4.14183594 1.52710938 4.15085937 0.67578125 4.16015625 C-0.28134766 4.17755859 -0.28134766 4.17755859 -1.2578125 4.1953125 C-1.5878125 6.8353125 -1.9178125 9.4753125 -2.2578125 12.1953125 C-3.9078125 11.8653125 -5.5578125 11.5353125 -7.2578125 11.1953125 C-7.5878125 9.5453125 -7.9178125 7.8953125 -8.2578125 6.1953125 C-7.5978125 6.1953125 -6.9378125 6.1953125 -6.2578125 6.1953125 C-6.1340625 5.5765625 -6.0103125 4.9578125 -5.8828125 4.3203125 C-4.81097261 0.67605688 -3.75605333 0.22518305 0 0 Z " fill="#FCFCFC" transform="translate(11.2578125,6.8046875)"/>
<path d="M0 0 C3.625 0.375 3.625 0.375 7 1 C8.32278481 6.41139241 8.32278481 6.41139241 6.9375 8.9375 C4.06369928 10.51345523 2.08587291 9.80501033 -1 9 C-2 8 -2 8 -2.1875 5.0625 C-2 2 -2 2 0 0 Z M1 4 C1.33 4.66 1.66 5.32 2 6 C2.66 6 3.32 6 4 6 C4 5.34 4 4.68 4 4 C3.01 4 2.02 4 1 4 Z " fill="#B71355" transform="translate(12,11)"/>
</svg>
