<svg width="40" height="40" viewBox="0 0 40 40" fill="none" xmlns="http://www.w3.org/2000/svg">
<path d="M15 5C14.08 5 13.3333 5.74667 13.3333 6.66667C13.3333 7.58667 14.08 8.33333 15 8.33333H30C30.92 8.33333 31.6667 9.08 31.6667 10V25H28.3333C27.66 25 27.052 25.4053 26.7936 26.0286C26.7086 26.2353 26.6667 26.4517 26.6667 26.6667C26.6667 27.1 26.8366 27.5267 27.1549 27.8451L32.1549 32.8451C32.8066 33.4967 33.8617 33.4967 34.5117 32.8451L39.5117 27.8451C39.9884 27.3684 40.1297 26.6536 39.873 26.0286C39.6147 25.4053 39.0067 25 38.3333 25H35V10C35 7.23833 32.7617 5 30 5H15ZM6.66667 6.66667C6.24021 6.66667 5.81328 6.82911 5.48828 7.15495L0.488282 12.1549C0.0116152 12.6316 -0.129713 13.3464 0.126954 13.9714C0.385287 14.5947 0.993334 15 1.66667 15H5V30C5 32.7617 7.23833 35 10 35H25C25.92 35 26.6667 34.2533 26.6667 33.3333C26.6667 32.4133 25.92 31.6667 25 31.6667H10C9.08 31.6667 8.33333 30.92 8.33333 30V15H11.6667C12.34 15 12.948 14.5947 13.2064 13.9714C13.2914 13.7647 13.3333 13.5483 13.3333 13.3333C13.3333 12.9 13.1634 12.4733 12.8451 12.1549L7.84505 7.15495C7.51922 6.82911 7.09313 6.66667 6.66667 6.66667Z" fill="white"/>
<circle cx="19.5" cy="20.5" r="7.5" stroke="#FF229F" stroke-width="2"/>
</svg>
