<svg viewBox="0 0 22 22" fill="none" xmlns="http://www.w3.org/2000/svg">
    <path d="M11 15.583V10.083" stroke="currentColor" stroke-width="1.5" stroke-linecap="round" />
    <circle cx="0.916667" cy="0.916667" r="0.916667" transform="matrix(1 0 0 -1 10.083 8.25)" fill="currentColor" />
    <path d="M1.83301 10.9997C1.83301 6.67847 1.83301 4.51786 3.17544 3.17544C4.51786 1.83301 6.67847 1.83301 10.9997 1.83301C15.3209 1.83301 17.4815 1.83301 18.8239 3.17544C20.1663 4.51786 20.1663 6.67847 20.1663 10.9997C20.1663 15.3209 20.1663 17.4815 18.8239 18.8239C17.4815 20.1663 15.3209 20.1663 10.9997 20.1663C6.67847 20.1663 4.51786 20.1663 3.17544 18.8239C1.83301 17.4815 1.83301 15.3209 1.83301 10.9997Z" stroke="currentColor" stroke-width="1.5" />
</svg>