<svg viewBox="0 0 24 24" fill="none" xmlns="http://www.w3.org/2000/svg">
  <path clip-rule="evenodd" d="M21.838 12.802v.813c-.005.643-.38 1.025-1.026 1.041a21.13 21.13 0 0 1-1.192-.002c-.226-.007-.354.058-.417.293-.101.383-.25.757-.458 1.095-.16.257-.112.423.108.613.245.213.47.447.696.68l.13.135c.42.435.424.96.004 1.39-.352.36-.71.715-1.067 1.07l-.268.265c-.233.23-.433.257-.61.094-.17-.157-.157-.425.054-.643.242-.25.49-.496.738-.742.157-.157.315-.313.471-.471.25-.248.247-.28-.007-.535l-.391-.392h-.001a91.614 91.614 0 0 1-.653-.656c-.288-.293-.306-.41-.097-.766a7.33 7.33 0 0 0 .725-1.764c.103-.371.229-.468.621-.472h.003c.504-.005 1.006-.01 1.51 0 .238.004.357-.072.354-.332-.009-.754-.006-1.508 0-2.26.003-.222-.09-.316-.312-.314-.513.004-1.027.002-1.541 0-.404-.002-.514-.087-.624-.464-.188-.63-.406-1.251-.76-1.813-.171-.269-.117-.488.096-.699.152-.15.303-.301.453-.453.218-.22.435-.438.658-.652.186-.18.195-.325.004-.51a78.795 78.795 0 0 1-1.562-1.561c-.197-.204-.347-.182-.531.013-.348.363-.707.716-1.068 1.068-.297.289-.413.298-.766.092a7.303 7.303 0 0 0-1.74-.719c-.414-.116-.495-.224-.501-.658-.005-.493-.01-.987 0-1.48.004-.246-.09-.35-.341-.347-.745.009-1.492.007-2.237 0-.252-.002-.346.1-.342.347.01.493.007.985 0 1.48-.004.43-.094.542-.504.656a6.976 6.976 0 0 0-1.764.739c-.27.163-.476.13-.691-.099-.284-.303-.58-.593-.877-.884l-.21-.206c-.228-.226-.331-.226-.558-.002-.516.51-1.03 1.023-1.542 1.538-.249.25-.246.338.014.6l.24.242c.281.283.563.568.853.841.213.202.23.403.083.645a6.895 6.895 0 0 0-.761 1.813c-.099.365-.218.462-.597.468-.282.006-.564.005-.846.004h-.637c-.355.003-.393.039-.395.375v.777c.002.466.003.933-.004 1.399-.003.26.09.37.356.363.379-.01.76-.007 1.14-.004l.285.001c.494.003.588.072.72.535.173.607.398 1.194.734 1.731.168.269.135.488-.078.7l-.35.352a39.69 39.69 0 0 1-.761.755c-.2.19-.202.34-.002.53.325.31.64.629.958.948l.238.239c.229.23.267.468.11.634-.17.179-.386.154-.63-.088l-.269-.266a93.146 93.146 0 0 1-1.067-1.068c-.402-.412-.395-.958.011-1.372.305-.312.61-.623.927-.92.137-.13.153-.242.063-.406a6.222 6.222 0 0 1-.525-1.256c-.052-.177-.155-.248-.34-.244a33.72 33.72 0 0 1-1.19 0c-.725-.018-1.082-.383-1.084-1.106v-.594c-.001-.595-.002-1.19.002-1.784.002-.626.336-.951.956-.994.444-.03.888-.042 1.335-.038.173.003.267-.067.316-.232.135-.446.312-.876.536-1.283.086-.153.07-.26-.058-.38a34.73 34.73 0 0 1-.779-.775l-.085-.086c-.496-.506-.498-1.025-.002-1.52.561-.562 1.122-1.124 1.685-1.681.433-.428.98-.437 1.42-.018.31.293.613.593.905.902.137.146.258.161.43.065a6.856 6.856 0 0 1 1.233-.513c.188-.06.264-.16.258-.358-.018-.443.01-.886.038-1.33l.004-.06c.032-.481.366-.85.848-.86a92.672 92.672 0 0 1 2.734-.002c.44.007.758.291.854.734.08.374.064.753.049 1.13a11.12 11.12 0 0 0-.01.258c-.01.307.092.455.39.531.395.1.765.275 1.122.475.164.091.276.071.406-.065.3-.316.61-.62.925-.925.415-.403.964-.41 1.375-.009a137.43 137.43 0 0 1 1.809 1.805c.392.398.39.949.002 1.352-.303.313-.608.622-.927.922-.141.135-.18.246-.076.426.222.387.395.797.514 1.226.058.207.175.271.381.267a25.16 25.16 0 0 1 1.162-.002c.723.015 1.082.38 1.084 1.099.002.26.001.518 0 .777v.792ZM11.574 16.05c.248.015.503.009.761.003.416-.01.84-.02 1.26.056a3.697 3.697 0 0 1 3.034 3.638v.002c.002.457.004.912 0 1.37-.006.63-.428 1.094-1.054 1.182-.396.055-.791.042-1.187.03-1.858-.058-3.715-.044-5.573-.03l-1.003.008c-.896.006-1.401-.62-1.35-1.355.016-.24.01-.483.005-.725-.008-.355-.016-.711.046-1.064.29-1.634 1.488-2.828 3.126-3.078.393-.06.792-.05 1.2-.04.242.005.486.011.735.003Zm-.037 5.549v-.002h.951c.951 0 1.901 0 2.852-.002.404 0 .58-.173.584-.578.006-.448.01-.895 0-1.343-.037-1.591-1.367-2.906-2.96-2.92-.958-.008-1.918-.01-2.879 0-1.382.014-2.643 1.105-2.869 2.462-.067.401-.06.804-.052 1.206.003.176.006.353.003.53-.008.49.153.645.647.647h3.723ZM8.32 11.686c0 1.756 1.45 3.199 3.216 3.2a3.221 3.221 0 0 0 3.237-3.206c0-1.762-1.467-3.23-3.229-3.23-1.754 0-3.224 1.475-3.224 3.235Zm5.755-.008a2.546 2.546 0 0 1-2.537 2.513c-1.378-.002-2.524-1.148-2.524-2.523 0-1.371 1.162-2.523 2.537-2.517 1.378.008 2.532 1.164 2.524 2.527Z" fill="currentColor"/>
  <path d="M21.838 12.803h-.3.3Zm0 0h.3v-.001h-.3Zm0 .812.3.002-.3-.002Zm-1.026 1.041.007.3-.007-.3Zm-1.192-.002.01-.3-.01.3Zm-.417.293-.29-.077.29.077Zm-.458 1.095L19 16.2l-.255-.158Zm.108.613.196-.226-.196.226Zm.696.68-.216.21.004.003.212-.212Zm0 0 .216-.207-.004-.004-.212.212Zm.13.135.216-.208-.216.208Zm.004 1.39.215.21-.215-.21Zm-1.067 1.07-.21-.214h-.001l.211.213Zm-.268.265.211.213-.21-.213Zm-.61.094.203-.22-.203.22Zm.054-.643.215.21-.215-.21Zm.738-.742.211.213v-.001l-.211-.212Zm0 0-.212-.213.212.213Zm.471-.471-.212-.212h-.001l.213.212Zm-.007-.535.213-.212-.213.212Zm-.391-.392.211-.212-.211.212Zm-.001 0-.212.212.212-.212Zm0 0 .212-.213-.212.212Zm-.653-.656-.215.21.215-.21Zm-.097-.766.259.152-.259-.152Zm.725-1.764-.29-.08.29.08Zm.621-.472-.002-.3.002.3Zm.003 0-.003-.3.003.3Zm1.51 0 .006-.3-.006.3Zm.354-.332.3-.002v-.001l-.3.004Zm0-2.26-.3-.004.3.003Zm-.312-.314.003.3-.003-.3Zm-1.541 0-.002.3.002-.3Zm-.624-.464.288-.084v-.001l-.288.085Zm-.76-1.813.253-.16-.253.16Zm.096-.699-.21-.213.21.213Zm.453-.453.213.211-.213-.211Zm.658-.652-.208-.217.208.216Zm.004-.51.21-.216-.21.215ZM17.477 4.79l-.215.208.215-.208Zm-.531.013.216.208.002-.002-.218-.206Zm-1.068 1.068-.21-.215.21.215Zm-.766.092-.151.259.151-.26Zm-1.74-.719-.082.289.081-.289Zm-.501-.658-.3.003v.001l.3-.004Zm0-1.48.3.005-.3-.005Zm-.341-.347-.003-.3.003.3Zm-2.237 0 .002-.3-.002.3Zm-.342.347-.3.005.3-.005Zm0 1.48-.3-.004.3.004Zm-.504.656-.08-.29.08.29Zm-1.764.739-.156-.257.156.257Zm-.691-.099-.22.205.002.001.218-.206Zm-.877-.884.21-.215-.21.215Zm-.21-.206-.21.213.21-.213Zm-.558-.002-.21-.214h-.001l.211.214ZM3.805 6.328l-.212-.212.212.212Zm.014.6-.213.211.213-.211Zm.24.242-.213.21.001.002.212-.212Zm0 0 .213-.211v-.001l-.213.212Zm.853.841.206-.218-.206.218Zm.083.645-.256-.157.256.157Zm-.761 1.813.29.079-.29-.079Zm-.597.468-.005-.3.005.3Zm-.846.004v-.3.3Zm0 0-.001.3v-.3Zm-.637 0 .002.3-.002-.3Zm-.395.375-.3-.002.3.002Zm0 .777h.3-.3Zm-.004 1.399-.3-.005v.002l.3.003Zm.356.363-.007-.3.007.3Zm1.14-.004-.002.3.002-.3Zm0 0 .003-.3-.002.3Zm.285.001-.001.3.001-.3Zm.72.535.289-.082-.289.082Zm.734 1.731-.254.16.254-.16Zm-.078.7.212.213-.212-.212Zm-.35.352.212.212h.001l-.213-.212Zm0 0-.212-.212-.001.001.213.211Zm-.761.755.207.217-.207-.217Zm-.002.53.207-.217-.207.217Zm.958.948.212-.212-.212.212Zm.238.239.213-.211-.213.211Zm.11.634.217.206-.217-.206Zm-.63-.088-.212.213.211-.213Zm-.269-.266.211-.213-.211.213Zm-1.067-1.068-.215.21.215-.21Zm.011-1.372.214.21.001-.001-.215-.21Zm0 0-.214-.21.214.21Zm.927-.92.206.218v-.001l-.206-.218Zm.063-.406.263-.144-.001-.002-.262.146ZM3.615 14.9l-.288.084v.002l.288-.086Zm-.34-.244.006.3h.002l-.007-.3Zm-1.19 0-.008.3h.002l.005-.3ZM1 13.55H.7v.001H1Zm0-.594h.3H1Zm.002-1.784.3.002-.3-.002Zm.956-.994.02.3-.02-.3Zm1.335-.038.004-.3h-.001l-.003.3Zm.316-.232-.287-.087.287.087Zm.536-1.283-.261-.147-.001.002.262.145Zm-.058-.38-.207.216.001.001.206-.218ZM3.31 7.47l.214-.21-.214.21Zm-.085-.086-.214.21v.001l.214-.21Zm-.002-1.52.212.213-.212-.213Zm1.685-1.681-.21-.214.21.214Zm1.42-.018-.206.217.207-.217Zm.905.902.218-.205-.218.205Zm.43.065-.145-.262.146.262Zm1.233-.513-.092-.285.092.285Zm.258-.358.3-.01V4.25l-.3.011Zm.038-1.33.3.02-.3-.02Zm.004-.06-.3-.02v.001l.3.019Zm.848-.86-.005-.3.005.3Zm2.734-.002.004-.3-.005.3Zm.854.734.294-.063-.294.063Zm.049 1.13-.3-.013.3.013Zm-.01.258.3.01-.3-.01Zm.39.531.074-.29-.074.29Zm1.122.475.147-.262-.147.262Zm.406-.065.217.207-.217-.207Zm.925-.925.208.215-.208-.215Zm1.375-.009.21-.214-.21.214Zm1.809 1.805-.214.21.214-.21Zm.002 1.352.216.208-.216-.208Zm-.927.922L18.567 8h-.002l.207.218Zm-.076.426.26-.15-.26.15Zm.514 1.226-.29.08.001.002.289-.082Zm.381.267.007.3h.002l-.009-.3Zm1.162-.002.007-.3h-.001l-.006.3Zm1.084 1.099h-.3v.002l.3-.002Zm0 .777h-.3.3Zm0 0h.3-.3Zm-9.502 4.043-.007-.3.007.3Zm-.761-.003.018-.3h-.028l.01.3Zm2.02.06.055-.296-.054.295Zm3.035 3.637-.3.001h.3Zm0 .002.3-.001-.3.001Zm0 1.37.3.002-.3-.002ZM15.575 22.3l.041.297-.041-.297Zm-1.187.03.01-.3h-.01v.3Zm0 0-.01.3h.01v-.3Zm-5.573-.03-.003-.3.003.3Zm-1.003.008-.002-.3.002.3Zm-1.35-1.355.299.02-.3-.02Zm.005-.725.3-.007-.3.007Zm.046-1.064-.296-.052.296.052Zm3.126-3.078-.046-.297.046.297Zm1.2-.04-.007.3h.007v-.3Zm0 0 .008-.3h-.008v.3Zm.698 5.55v-.3h-.3v.3h.3Zm0 .002v.3h.3v-.3h-.3Zm.951-.002v.3-.3Zm0 0v-.3.3Zm2.852-.002v-.3.3Zm.584-.578-.3-.004.3.004Zm0-1.343.3-.007-.3.007Zm-2.96-2.92.003-.3-.002.3Zm-2.879 0 .003.3-.003-.3Zm-2.869 2.462-.296-.05v.001l.296.05Zm-.052 1.206.3-.006-.3.006Zm.003.53-.3-.006.3.006Zm.647.647-.002.3h.001v-.3Zm2.48 0v-.3.3Zm.001 0v.3-.3Zm.01 0v-.3.3Zm1.231-6.712v.3-.3Zm3.237-3.207h.3-.3Zm-3.229-3.23v-.3.3Zm-.006 5.741v.3-.3Zm2.537-2.513.3.002-.3-.002ZM11.551 9.15l.001-.3-.002.3Zm10.587 3.652h-.6.6Zm0 .814v-.815l-.6.001v.81l.6.004Zm-1.319 1.339c.381-.01.718-.129.96-.375s.356-.585.358-.964l-.6-.004c-.002.263-.078.438-.186.547-.107.11-.281.19-.546.196l.014.6Zm-1.209-.002c.405.013.808.011 1.209.002l-.014-.6c-.394.01-.785.011-1.174-.002l-.02.6Zm-.117.07c.02-.076.037-.073.022-.063-.008.005.006-.01.096-.007l.018-.6a.751.751 0 0 0-.444.105.678.678 0 0 0-.272.41l.58.156ZM19 16.2c.227-.368.385-.77.492-1.176l-.58-.153a3.75 3.75 0 0 1-.423 1.013l.51.316Zm.048.229a.52.52 0 0 1-.096-.108l-.002-.006v-.003c0-.002 0-.007.003-.015A.38.38 0 0 1 19 16.2l-.51-.316c-.1.16-.168.346-.127.548.038.196.166.34.294.45l.392-.454Zm.716.699a11.064 11.064 0 0 0-.716-.7l-.393.454c.233.202.45.426.677.662l.432-.416Zm-.004-.004-.424.424.424-.424Zm.133.137a27.959 27.959 0 0 1-.129-.133l-.432.416.13.135.431-.418Zm.004 1.81c.253-.26.4-.572.398-.905-.002-.333-.15-.644-.401-.904l-.432.417c.168.174.232.343.233.49 0 .146-.062.312-.228.482l.43.42Zm-1.07 1.071c.357-.354.716-.71 1.07-1.072l-.43-.42c-.35.359-.705.712-1.063 1.066l.422.426Zm-.269.266.268-.266-.422-.426-.268.266.422.426Zm-1.025.102c.14.129.323.208.532.176.192-.028.356-.142.493-.278l-.422-.426c-.096.095-.148.11-.16.111h-.001a.115.115 0 0 1-.035-.025l-.407.442Zm.042-1.073c-.285.295-.377.764-.041 1.073l.406-.442c-.015-.013-.022-.028-.02-.056.002-.031.02-.089.086-.157l-.43-.418Zm.742-.746c-.247.246-.497.494-.742.747l.431.417c.24-.248.486-.492.734-.738l-.423-.426Zm0 0 .424.425-.424-.424Zm0 0 .424.425-.424-.424Zm.47-.47c-.155.157-.312.313-.47.47l.423.425c.158-.156.316-.313.473-.472l-.426-.422Zm-.006-.112a3.226 3.226 0 0 1 .115.125c.018.023-.01-.004-.01-.061-.002-.06.026-.09.012-.07a2.764 2.764 0 0 1-.11.118l.424.424c.06-.06.123-.124.17-.187a.482.482 0 0 0 .103-.295.493.493 0 0 0-.108-.288 1.9 1.9 0 0 0-.17-.189l-.426.423Zm-.391-.39.39.39.426-.423-.393-.392-.423.425Zm0 0 .423-.425v-.001l-.424.425Zm-.002-.002.425-.424-.425.425Zm-.654-.656c.217.22.437.44.655.657l.423-.425a90.932 90.932 0 0 1-.65-.653l-.428.42Zm-.142-1.128c-.102.174-.205.374-.176.596.029.221.178.389.317.531l.429-.42a1.176 1.176 0 0 1-.131-.15c-.021-.032-.02-.042-.02-.038 0 .002-.007-.034.099-.216l-.518-.303Zm.695-1.693a7.033 7.033 0 0 1-.695 1.693l.518.303c.342-.583.58-1.201.755-1.836l-.578-.16Zm.907-.692c-.207.002-.422.026-.598.16s-.254.335-.31.532l.579.16c.048-.174.084-.207.095-.215.012-.009.056-.035.24-.037l-.006-.6Zm.003 0h-.002l.005.6h.002l-.005-.6Zm1.518 0a56.907 56.907 0 0 0-1.518 0l.005.6a56.56 56.56 0 0 1 1.503 0l.01-.6Zm.05-.029a.231.231 0 0 1-.006.065l.005-.01a.09.09 0 0 1 .017-.02c.016-.013.026-.014.016-.011a.348.348 0 0 1-.081.005l-.012.6c.137.002.323-.013.469-.14.157-.134.193-.327.191-.494l-.6.005Zm0-2.266c-.007.753-.01 1.51 0 2.267l.6-.007a99.71 99.71 0 0 1 0-2.255l-.6-.005Zm-.01-.011c.018 0 .03 0 .04.002.009 0 .013.002.014.002 0 0-.003 0-.009-.004a.098.098 0 0 1-.036-.037l-.004-.008.003.015.002.04.6.006c0-.143-.026-.32-.16-.455-.133-.135-.31-.163-.456-.161l.007.6Zm-1.545 0c.513.002 1.029.004 1.545 0l-.005-.6c-.512.004-1.024.002-1.538 0l-.002.6Zm-.91-.68c.055.193.132.396.31.529.175.131.393.15.6.15l.003-.6c-.198 0-.237-.026-.244-.03-.007-.006-.04-.033-.094-.217l-.576.169Zm-.727-1.737c.332.526.54 1.114.727 1.74l.575-.172c-.19-.638-.418-1.29-.795-1.888l-.507.32Zm.14-1.072a.905.905 0 0 0-.278.492.822.822 0 0 0 .138.58l.507-.32c-.057-.09-.057-.139-.053-.163.005-.03.026-.082.107-.162l-.422-.427Zm.45-.451c-.15.151-.3.302-.45.45l.42.428c.154-.151.306-.304.456-.456l-.426-.422Zm.663-.658c-.226.217-.446.439-.663.658l.426.422c.218-.22.433-.436.653-.647l-.416-.433Zm.003-.08a.293.293 0 0 1 .051.062c.003.005-.003-.005-.003-.024 0-.02.007-.028.003-.02a.32.32 0 0 1-.054.062l.416.433c.111-.108.231-.26.235-.463.005-.206-.112-.365-.23-.479l-.418.43ZM17.262 5c.516.53 1.039 1.052 1.568 1.566l.418-.43a78.848 78.848 0 0 1-1.556-1.555l-.43.419Zm-.098.01a.389.389 0 0 1 .071-.063c.01-.007.005 0-.013 0-.02.001-.03-.005-.025-.002a.294.294 0 0 1 .065.054l.43-.417c-.12-.126-.287-.245-.501-.234-.205.011-.357.138-.463.25l.436.412Zm-1.077 1.077c.362-.352.724-.709 1.075-1.075l-.433-.416c-.344.36-.7.71-1.06 1.06l.418.431Zm-1.126.136c.17.1.368.204.59.178.222-.025.39-.173.536-.314l-.419-.43c-.15.147-.188.149-.186.148.004 0-.005.003-.04-.01a1.172 1.172 0 0 1-.178-.09l-.303.518Zm-1.67-.689c.59.165 1.15.384 1.67.689l.303-.518a7.601 7.601 0 0 0-1.812-.749l-.161.578Zm-.72-.943c.003.216.02.444.159.626.138.182.353.259.56.317l.163-.578c-.207-.058-.239-.094-.245-.102-.008-.01-.034-.053-.037-.272l-.6.01Zm0-1.49c-.01.498-.005.997 0 1.489l.6-.006a53.877 53.877 0 0 1 0-1.472l-.6-.01Zm-.039-.041c.044 0 .065.004.072.006.003.001-.009-.002-.023-.017-.015-.015-.017-.027-.016-.021.003.008.007.03.006.074l.6.01c.002-.15-.021-.338-.16-.48-.139-.145-.328-.173-.484-.172l.005.6Zm-2.242 0c.746.007 1.495.009 2.243 0l-.007-.6c-.742.009-1.487.007-2.23 0l-.006.6Zm-.039.042c0-.044.004-.066.006-.074.001-.006-.001.006-.015.02-.015.016-.027.02-.024.018a.266.266 0 0 1 .072-.006l.005-.6c-.156-.001-.345.027-.485.172-.138.142-.161.33-.159.48l.6-.01Zm0 1.489c.007-.497.01-.993 0-1.49l-.6.011c.01.489.007.978 0 1.47l.6.009Zm-.724.94c.207-.057.421-.133.562-.314.14-.182.16-.41.162-.627l-.6-.006c-.002.212-.029.255-.037.266-.008.01-.044.047-.248.104l.16.578Zm-1.688.707a6.677 6.677 0 0 1 1.688-.706l-.16-.578c-.64.178-1.26.42-1.84.771l.311.513Zm-1.065-.149c.133.141.296.257.5.287.205.03.395-.035.565-.138l-.312-.513c-.1.06-.147.06-.166.058-.02-.004-.069-.019-.151-.106l-.436.412Zm-.869-.876c.298.292.59.578.868.875l.438-.41c-.289-.308-.59-.603-.886-.894l-.42.429Zm-.21-.207.21.207.42-.429-.209-.205-.42.427Zm-.137-.002a.636.636 0 0 1 .098-.084c.013-.009 0 .003-.032.003-.03 0-.043-.012-.029-.003a.64.64 0 0 1 .1.086l.422-.427c-.11-.107-.272-.255-.49-.256-.22 0-.383.147-.49.254l.42.427ZM4.018 6.54a248.89 248.89 0 0 1 1.54-1.536l-.422-.427c-.517.511-1.031 1.025-1.543 1.54l.425.423Zm.014.177a.972.972 0 0 1-.111-.125c-.015-.022 0-.01 0 .026 0 .037-.014.053-.003.036a.82.82 0 0 1 .1-.114l-.425-.423a1.48 1.48 0 0 0-.18.211.531.531 0 0 0-.092.303.55.55 0 0 0 .102.296 1.5 1.5 0 0 0 .183.213l.426-.423Zm.24.243-.24-.243-.426.423.24.242.426-.422Zm0-.001-.425.424.424-.424Zm.846.835c-.286-.27-.564-.55-.846-.834l-.426.422c.28.283.566.57.86.848l.412-.436Zm.133 1.02a.823.823 0 0 0 .136-.53.808.808 0 0 0-.27-.49l-.411.436c.074.07.083.11.085.125.002.016.001.059-.052.145l.512.314Zm-.727 1.735a6.597 6.597 0 0 1 .727-1.736L4.739 8.5a7.195 7.195 0 0 0-.795 1.891l.58.157Zm-.882.69c.202-.004.413-.03.584-.165.17-.134.246-.333.298-.525l-.58-.157c-.046.173-.08.204-.089.211-.008.006-.045.032-.223.035l.01.6Zm-.852.003c.282 0 .567.002.853-.004l-.011-.6a39.11 39.11 0 0 1-.84.004l-.002.6Zm0 0v-.6.6Zm0 0v-.6.6Zm-.633 0h.633l.001-.6h-.64l.006.6Zm-.098.077a1.912 1.912 0 0 1 .008-.147c.003-.018 0 .016-.036.05-.035.034-.065.033-.039.029a2.214 2.214 0 0 1 .163-.008l-.003-.6a1.64 1.64 0 0 0-.258.016.514.514 0 0 0-.276.128.493.493 0 0 0-.141.275c-.015.08-.017.169-.018.253l.6.004Zm0 .774v-.775l-.6-.002v.779l.6-.002Zm-.005 1.404c.008-.469.007-.938.005-1.404l-.6.002c.002.466.003.93-.004 1.393l.6.01Zm.05.059a.282.282 0 0 1-.078-.006c-.004 0 .009.002.023.018.014.014.015.024.013.015a.35.35 0 0 1-.007-.088l-.6-.005c-.002.152.02.345.16.49.143.152.34.18.504.176l-.015-.6Zm1.149-.004c-.38-.003-.765-.005-1.149.004l.014.6c.374-.01.75-.007 1.13-.004l.005-.6Zm0 0-.004.6h.001l.004-.6Zm.285.001-.284-.001-.004.6.285.001.003-.6Zm1.007.753c-.063-.221-.14-.455-.334-.599-.192-.142-.439-.153-.673-.154l-.003.6c.259.002.306.027.318.036.01.007.046.04.115.282l.577-.165Zm.7 1.654c-.317-.505-.532-1.063-.7-1.654l-.577.165c.177.622.411 1.238.768 1.807l.508-.318Zm-.121 1.072a.865.865 0 0 0 .268-.505.864.864 0 0 0-.148-.567l-.508.318c.06.097.063.15.06.176-.003.027-.02.077-.096.153l.424.425Zm-.349.35.349-.35-.424-.425-.35.353.425.422Zm0 .001-.425-.424.424.424Zm-.767.76c.262-.25.516-.507.767-.76l-.426-.423c-.252.255-.5.506-.755.749l.414.434Zm-.002.096a.329.329 0 0 1-.058-.067c-.004-.007.002.002.002.021 0 .02-.006.027-.002.019a.343.343 0 0 1 .06-.069l-.414-.434c-.118.112-.243.271-.244.48-.001.21.122.37.242.485l.414-.435Zm.963.953c-.316-.318-.635-.64-.963-.953l-.414.434c.321.307.634.622.952.942l.425-.423Zm.238.24-.238-.24-.425.423.238.24.425-.424Zm.115 1.051a.63.63 0 0 0 .168-.55.958.958 0 0 0-.282-.501l-.426.422c.087.088.112.152.117.18.002.013 0 .018 0 .019 0 0-.002.007-.012.017l.435.413Zm-1.059-.08c.144.142.317.259.515.285a.625.625 0 0 0 .544-.205l-.435-.413a.098.098 0 0 1-.03.024h.002-.003c-.013-.002-.07-.019-.171-.118l-.422.427Zm-.268-.267.268.266.422-.426-.268-.266-.422.427Zm-1.07-1.071c.353.362.713.718 1.07 1.072l.422-.427a92.768 92.768 0 0 1-1.063-1.065l-.43.42Zm.011-1.793c-.25.255-.391.567-.394.895-.003.328.133.642.382.897l.43-.418a.668.668 0 0 1-.212-.474c.001-.151.066-.32.222-.48l-.428-.42Zm0 .001.43.419-.43-.419Zm.935-.93c-.321.303-.63.619-.935.93l.428.42c.306-.312.607-.62.919-.912l-.412-.437Zm.006-.041c.014.025.018.039.02.043 0 .002-.002-.005 0-.018.002-.012.006-.019.005-.017a.201.201 0 0 1-.032.035l.413.435a.633.633 0 0 0 .207-.363.636.636 0 0 0-.087-.404l-.526.288Zm-.55-1.315c.136.455.317.897.55 1.316l.525-.292a5.922 5.922 0 0 1-.5-1.196l-.575.172Zm-.044-.03a.24.24 0 0 1 .045.003c.004 0 0 0-.007-.005-.008-.005-.01-.01-.01-.008a.159.159 0 0 1 .016.038l.576-.168a.633.633 0 0 0-.234-.35.647.647 0 0 0-.4-.11l.014.6Zm-1.204 0c.4.007.801.007 1.202 0l-.01-.6a34.72 34.72 0 0 1-1.182 0l-.01.6ZM.701 13.551c0 .407.102.767.356 1.027.254.259.612.368 1.02.378l.015-.6c-.317-.008-.5-.09-.606-.198-.106-.109-.184-.293-.185-.609l-.6.002Zm0-.595v.594h.6v-.594H.7Zm.002-1.785C.699 11.766.7 12.36.7 12.956h.6c0-.595 0-1.188.003-1.782l-.6-.003Zm1.235-1.292c-.355.025-.674.133-.903.367-.232.237-.33.56-.332.925l.6.003c0-.261.07-.415.16-.508.094-.095.252-.17.516-.188l-.04-.599Zm1.359-.039c-.454-.004-.906.007-1.36.04l.043.598c.435-.031.871-.042 1.31-.038l.007-.6Zm.026-.018a.153.153 0 0 1-.014.034s.003-.005.011-.01c.009-.007.015-.008.014-.008a.152.152 0 0 1-.036.002l-.008.6a.623.623 0 0 0 .386-.111.623.623 0 0 0 .222-.336l-.575-.171Zm.56-1.342c-.235.427-.42.877-.56 1.34l.574.174A6.33 6.33 0 0 1 4.41 8.77l-.525-.289Zm0-.018a.258.258 0 0 1 .025.028l-.003-.006A.082.082 0 0 1 3.9 8.45v-.006l-.003.009a.255.255 0 0 1-.012.025l.523.293a.612.612 0 0 0 .086-.393.612.612 0 0 0-.2-.352l-.412.436Zm-.787-.78c.256.259.517.523.785.78l.414-.435a34.51 34.51 0 0 1-.772-.767l-.427.421Zm-.085-.087.085.086.427-.421-.085-.086-.427.421Zm0-1.943c-.285.283-.46.609-.46.969.001.359.177.686.459.973l.429-.42c-.215-.218-.287-.404-.288-.555 0-.15.07-.33.283-.542l-.424-.425ZM4.695 3.97a381.89 381.89 0 0 0-1.686 1.682l.424.424c.561-.562 1.122-1.123 1.684-1.68l-.422-.426Zm1.838-.022c-.266-.254-.586-.396-.923-.391-.337.004-.653.154-.915.412l.422.427c.172-.17.346-.237.5-.24.156-.002.33.061.503.226l.413-.434Zm.916.913a23.185 23.185 0 0 0-.916-.914l-.413.436c.307.29.606.586.893.89l.436-.412Zm.067.01c-.058.031-.063.02-.04.022.01.002.016.005.012.004a.214.214 0 0 1-.039-.035l-.437.41c.093.1.215.191.377.215a.658.658 0 0 0 .419-.093l-.292-.524Zm1.286-.537c-.433.14-.871.305-1.286.536l.292.524a6.516 6.516 0 0 1 1.178-.489l-.184-.571Zm.05-.063a.2.2 0 0 1-.003.05c-.001.005 0 0 .004-.006.01-.014.012-.001-.051.019l.183.571a.676.676 0 0 0 .353-.237.653.653 0 0 0 .113-.417l-.6.02Zm.039-1.359c-.028.441-.057.9-.04 1.36l.6-.022c-.016-.426.01-.854.039-1.3l-.599-.038Zm.004-.06-.004.06.599.038.004-.06-.6-.038Zm1.142-1.14c-.661.012-1.102.526-1.142 1.14l.599.038c.022-.349.25-.573.554-.579l-.011-.6Zm2.742-.003a92.964 92.964 0 0 0-2.742.002l.01.6a92.373 92.373 0 0 1 2.725-.002l.007-.6Zm1.145.97c-.123-.564-.55-.96-1.144-.97l-.01.6c.287.004.497.176.567.498l.587-.128Zm.054 1.206c.016-.37.035-.788-.054-1.205l-.587.126c.071.33.058.67.042 1.054l.6.025Zm-.01.255.01-.255-.6-.025-.01.263.6.017Zm.165.231c-.116-.03-.138-.06-.142-.064-.004-.007-.026-.041-.023-.167l-.6-.017c-.005.18.02.373.138.536.12.165.297.247.479.294l.148-.582Zm1.194.504a4.999 4.999 0 0 0-1.194-.504l-.148.582c.359.091.703.252 1.05.446l.292-.524Zm.043-.01a.217.217 0 0 1-.037.033c-.003.002.002-.002.015-.004s.02 0 .02 0a.186.186 0 0 1-.04-.02l-.294.524a.626.626 0 0 0 .411.088.643.643 0 0 0 .36-.207l-.435-.414Zm.933-.933c-.315.305-.628.613-.933.933l.434.414c.297-.312.603-.613.916-.917l-.417-.43Zm1.794-.009a1.267 1.267 0 0 0-.898-.382 1.306 1.306 0 0 0-.896.39l.418.431c.16-.155.329-.22.482-.22a.67.67 0 0 1 .475.21l.419-.429Zm1.813 1.81a137.842 137.842 0 0 0-1.813-1.81l-.42.43a137.5 137.5 0 0 1 1.805 1.8l.427-.42Zm.004 1.77c.242-.252.376-.563.376-.886 0-.324-.134-.635-.38-.885l-.428.421a.66.66 0 0 1 .208.464.678.678 0 0 1-.208.47l.432.416Zm-.937.933c.323-.305.632-.618.937-.933l-.432-.417c-.301.312-.603.618-.916.913l.41.437Zm-.022.057c-.016-.027-.019-.04-.02-.041l.001.007-.001.017c-.003.011-.006.015-.002.008a.333.333 0 0 1 .045-.05L18.566 8a.69.69 0 0 0-.217.35.615.615 0 0 0 .087.442l.52-.3Zm.543 1.296a5.6 5.6 0 0 0-.543-1.296l-.52.299c.21.366.373.753.485 1.157l.578-.16Zm.086.047c-.077.002-.085-.012-.074-.004.006.004.009.008.007.005a.194.194 0 0 1-.02-.05l-.577.164a.65.65 0 0 0 .258.38c.136.09.289.108.419.105l-.013-.6Zm1.174-.002c-.39-.007-.782-.01-1.176.002l.017.6c.381-.011.762-.01 1.148-.002l.01-.6Zm1.378 1.398c0-.406-.103-.765-.358-1.023-.254-.258-.612-.366-1.019-.375l-.013.6c.315.006.498.088.605.196.106.108.184.291.185.604l.6-.002Zm0 .779a67.6 67.6 0 0 0 0-.78l-.6.004c.002.258.001.516 0 .774l.6.002Zm0 0v-.001h-.6.6Zm0 .386v-.386l-.6-.001v.387h.6Zm0 .405v-.405h-.6v.406l.6-.001Zm-9.809 2.95c-.26.007-.502.013-.736-.001l-.036.599c.263.015.53.009.786.003l-.014-.6Zm1.32.062c-.455-.083-.91-.071-1.32-.061l.014.6c.42-.01.814-.019 1.199.051l.108-.59Zm3.281 3.932a3.997 3.997 0 0 0-3.28-3.932l-.109.59a3.397 3.397 0 0 1 2.79 3.344l.6-.002Zm0 .002v-.002l-.6.003v.001l.6-.002Zm0 1.373c.004-.46.002-.916 0-1.373l-.6.002c.002.458.004.911 0 1.366l.6.005Zm-1.313 1.477c.768-.107 1.306-.692 1.313-1.477l-.6-.005c-.004.476-.311.82-.796.887l.083.595Zm-1.237.033c.391.012.812.026 1.237-.033l-.082-.595c-.367.051-.737.04-1.137.028l-.018.6Zm.01 0v-.6.6Zm-5.572-.03c1.859-.014 3.71-.028 5.562.03l.019-.6c-1.865-.058-3.729-.044-5.586-.03l.005.6Zm-1.004.008 1.004-.008-.005-.6-1.002.008.003.6Zm-1.65-1.676c-.031.442.105.867.4 1.181.296.316.73.498 1.25.495l-.004-.6c-.374.002-.64-.126-.808-.305a.952.952 0 0 1-.24-.73l-.599-.041Zm.004-.697c.006.244.01.473-.005.697l.599.041c.017-.256.011-.512.006-.752l-.6.014Zm.05-1.123c-.068.387-.058.772-.05 1.123l.6-.014c-.008-.36-.015-.687.041-1.005l-.591-.104Zm3.376-3.323c-1.767.27-3.064 1.565-3.376 3.323l.59.105c.269-1.51 1.37-2.604 2.877-2.835l-.09-.593Zm1.254-.043c-.404-.01-.83-.021-1.254.043l.091.593c.363-.055.735-.047 1.148-.037l.015-.6Zm-.008 0v.6-.6Zm0 0v.6-.6Zm.725.003c-.239.008-.475.003-.717-.003l-.015.6c.24.005.493.012.752.003l-.02-.6Zm-.327 5.847v.002h.6v-.002h-.6Zm1.251-.3h-.95v.6h.95v-.6Zm0 0v.6-.6Zm2.851-.002c-.95.003-1.9.002-2.85.002v.6c.95 0 1.9 0 2.852-.002l-.002-.6Zm.285-.281c-.002.167-.04.217-.053.23-.014.014-.064.05-.23.05v.6c.236 0 .476-.049.652-.223.176-.174.228-.414.23-.651l-.6-.006Zm0-1.333c.01.441.006.884 0 1.332l.6.008c.006-.448.01-.9 0-1.354l-.6.014Zm-2.662-2.627c1.43.013 2.629 1.197 2.662 2.627l.6-.014c-.04-1.753-1.502-3.197-3.257-3.213l-.005.6Zm-2.874 0c.958-.01 1.917-.008 2.874 0l.005-.6c-.96-.008-1.922-.01-2.885 0l.006.6Zm-2.576 2.212c.203-1.215 1.34-2.2 2.576-2.212l-.006-.6c-1.53.016-2.912 1.213-3.162 2.713l.592.098Zm-.048 1.15c-.007-.406-.013-.781.048-1.15l-.592-.099c-.072.433-.063.862-.056 1.26l.6-.01Zm.003.541c.003-.183 0-.365-.003-.54l-.6.01c.003.178.006.35.003.52l.6.01Zm.348.342c-.235-.001-.29-.043-.301-.054-.009-.008-.05-.059-.047-.288l-.6-.01c-.004.26.03.532.224.724.19.19.462.227.721.228l.003-.6Zm2.48 0h-2.48l-.001.6h2.482v-.6Zm0 0v.6-.6Zm.01 0h-.01v.6h.01v-.6Zm1.232 0h-1.232v.6h1.232v-.6Zm0-6.712c-1.603-.002-2.917-1.312-2.917-2.9h-.6c0 1.923 1.586 3.498 3.516 3.5v-.6Zm2.935-2.907a2.921 2.921 0 0 1-2.935 2.907l-.001.6c1.95.002 3.534-1.567 3.537-3.506l-.6-.001Zm-2.928-2.93c1.596 0 2.928 1.334 2.928 2.93h.6c0-1.927-1.6-3.53-3.528-3.53v.6ZM8.62 11.685c0-1.595 1.335-2.935 2.925-2.937l-.001-.6C9.622 8.15 8.02 9.761 8.02 11.685h.6Zm2.918 2.805a2.846 2.846 0 0 0 2.837-2.81l-.6-.005a2.246 2.246 0 0 1-2.236 2.215l-.001.6Zm-2.824-2.823c0 1.542 1.28 2.82 2.824 2.823v-.6c-1.213-.002-2.224-1.014-2.224-2.223h-.6Zm2.838-2.817c-1.54-.007-2.838 1.278-2.838 2.817h.6c0-1.204 1.026-2.222 2.235-2.217l.003-.6Zm2.823 2.829c.01-1.532-1.282-2.82-2.823-2.829l-.003.6c1.216.007 2.233 1.03 2.226 2.225l.6.004Z" fill="currentColor"/>
</svg>
