<svg viewBox="0 0 24 24" fill="none" xmlns="http://www.w3.org/2000/svg">
    <path d="M10.45 19.345c-.655 0-1.271-.005-1.889.002-1.135.01-2.037.717-2.267 1.807-.124.594-.163.85.646.846 3.426-.018 6.853-.008 10.278-.008.49 0 .596-.126.523-.625-.174-1.2-1.072-2.001-2.277-2.02-.548-.01-1.096-.002-1.643-.002h-.275v-.26c0-1.134.003-2.268-.003-3.402a.373.373 0 0 1 .179-.35 75.891 75.891 0 0 0 1.7-1.237c.287-.217.555-.456.85-.7.284.31.677.441 1.127.419.216-.011.361-.14.366-.324.006-.191-.148-.336-.371-.349-.047-.003-.094 0-.142-.001-.441-.024-.683-.288-.58-.727.076-.325.205-.665.403-.923.35-.456.762-.865 1.17-1.273.741-.743 1.515-1.455 2.244-2.21a5.875 5.875 0 0 0 1.242-1.873 3.36 3.36 0 0 0 .2-1.99c-.26-1.256-1.13-2.022-2.39-2.123a6.305 6.305 0 0 0-1.908.156 2.692 2.692 0 0 1-.577.074c-3.199.004-6.398-.007-9.597.012-.618.004-1.207-.126-1.81-.211-.56-.079-1.122-.077-1.676.059-1.074.263-1.755 1.034-1.93 2.149-.188 1.19.248 2.175.919 3.09.632.861 1.42 1.569 2.185 2.3a47.28 47.28 0 0 1 1.668 1.683c.272.289.465.638.518 1.052.063.472-.149.737-.614.756-.04.002-.079 0-.118 0-.216.008-.36.132-.37.32-.009.194.14.341.364.351.443.02.834-.103 1.144-.441.758.773 1.69 1.306 2.534 1.958.124.096.182.186.18.35-.007 1.142-.002 2.283-.002 3.426v.24Zm6.61-16.403-.08.69c-.312 2.797-.628 5.596-.933 8.395-.063.58-.315 1.022-.778 1.354-.697.501-1.384 1.016-2.085 1.51a.643.643 0 0 0-.303.593c.012 1.189.005 2.378.005 3.57v.264h-1.777v-.281c0-1.205-.003-2.41.003-3.617a.525.525 0 0 0-.242-.479c-.735-.528-1.463-1.065-2.194-1.598-.396-.289-.646-.674-.708-1.167-.106-.863-.194-1.728-.292-2.592l-.54-4.827c-.068-.6-.133-1.2-.2-1.814l10.125-.001Zm-9.934 7.682c-.964-.927-1.894-1.804-2.798-2.707A9.347 9.347 0 0 1 3.36 6.75c-.432-.602-.726-1.266-.703-2.037.032-1.023.546-1.72 1.46-1.945.675-.167 1.351-.098 2.02.065.053.012.122.093.13.15.055.403.097.808.143 1.212l.544 4.874c.056.5.11 1.006.17 1.555Zm9.744-.001c.037-.313.068-.586.098-.859.25-2.242.503-4.486.745-6.728.016-.149.07-.22.204-.23.536-.038 1.076-.127 1.607-.095 1.015.059 1.617.682 1.78 1.707.098.628-.045 1.202-.323 1.754-.34.676-.811 1.252-1.34 1.775-.785.779-1.59 1.535-2.385 2.302-.118.11-.235.224-.386.374ZM6.928 21.298c.045-.131.07-.239.118-.337.324-.664.866-.95 1.578-.95 2.245.002 4.49 0 6.734.002.14 0 .282.01.42.032.63.098 1.207.674 1.251 1.253H6.928Z" fill="currentColor"/>
    <path d="M13.878 10.19c-.075-.453-.15-.94-.24-1.427-.029-.15.001-.249.113-.355.327-.308.64-.634.963-.947.123-.119.227-.266.137-.417a.557.557 0 0 0-.341-.23c-.445-.088-.894-.149-1.342-.21a.32.32 0 0 1-.279-.208 20.04 20.04 0 0 0-.605-1.243c-.061-.114-.21-.245-.32-.247-.11-.001-.268.125-.33.238-.222.41-.41.842-.625 1.258a.382.382 0 0 1-.234.178c-.46.085-.93.135-1.388.228-.124.026-.292.135-.324.242-.031.111.046.296.134.392.297.327.613.639.938.939.134.123.165.244.13.417-.083.422-.152.847-.224 1.271-.029.167-.065.366.113.45a.534.534 0 0 0 .407-.004c.41-.194.81-.415 1.206-.638.13-.074.228-.082.363-.004.409.235.824.456 1.242.671.275.143.514-.013.506-.354Zm-.087-2.814c-.223.24-.407.47-.622.661-.217.193-.275.4-.21.68.065.288.097.583.152.924-.316-.169-.59-.3-.849-.46-.21-.13-.398-.136-.612-.007-.267.16-.546.297-.863.465.062-.356.107-.67.169-.979.045-.231.003-.412-.178-.578-.231-.212-.435-.452-.676-.704.283-.045.547-.11.814-.122.33-.015.533-.156.653-.472.099-.262.239-.506.382-.802.16.333.308.605.424.89.1.246.267.35.517.374.294.03.587.084.9.13Z" fill="currentColor"/>
    <path d="m12.5 6.5-.5-1-.5 1-.5.5H9.5l.5.5.5 1V10h.5l.5-.5h1l1 .5V8l1-.5-1-.5-1-.5Z" fill="currentColor"/>
</svg>
