<svg viewBox="0 0 24 24" fill="none" xmlns="http://www.w3.org/2000/svg">
    <path d="M12.04 2.152c.325.098.562.32.794.552 1.067 1.071 2.133 2.143 3.205 3.204.283.278.412.598.412.995-.01 2.133-.005 4.266-.005 6.404v.232c2.066-.624 3.782-.16 4.894 1.741.804 1.37.722 2.818-.21 4.106-1.175 1.623-2.793 1.99-4.627 1.407-.098.221-.16.464-.289.66-.211.314-.536.448-.912.448h-3.2c-2.9 0-5.8-.01-8.696.005-.716.01-1.252-.5-1.252-1.247.015-5.703.015-11.402 0-17.105 0-.69.221-1.175.901-1.402h8.986Zm-.308.773H3.426c-.391 0-.49.093-.49.484v17.24c0 .38.099.484.475.484h11.803c.191 0 .366-.026.444-.227.087-.211.01-.592-.13-.706a3.88 3.88 0 0 1 .027-6.095.312.312 0 0 0 .128-.273c-.005-2.251 0-4.498 0-6.749 0-.067-.005-.134-.01-.216h-2.952c-.654 0-.979-.33-.984-.984-.005-.974-.005-1.953-.005-2.958Zm9.34 14.246a3.118 3.118 0 0 0-3.116-3.133 3.128 3.128 0 0 0-3.123 3.112 3.12 3.12 0 0 0 3.102 3.128 3.104 3.104 0 0 0 3.138-3.107ZM15.03 6.089l-2.524-2.525c0 .752.005 1.54-.006 2.329 0 .165.057.206.212.206.736-.005 1.478 0 2.215-.005.051 0 .098-.005.103-.005Z" fill="currentColor"/>
    <path d="M9.305 12.915H5.024c-.057 0-.119.005-.176 0a.395.395 0 0 1-.36-.387c0-.19.15-.355.345-.38.052-.006.103-.006.155-.006h8.655c.057 0 .119-.005.175.005a.379.379 0 0 1 .315.402.377.377 0 0 1-.34.36c-.062.006-.13.006-.191.006H9.305ZM8.321 9.86h3.318c.062 0 .129-.004.19.006.186.02.32.154.34.335.016.19-.077.345-.257.402a.797.797 0 0 1-.247.03H4.972a.984.984 0 0 1-.247-.025.373.373 0 0 1-.268-.397.385.385 0 0 1 .356-.345c.061-.005.128-.005.19-.005h3.318Zm-.077 4.594h3.277c.257 0 .417.124.443.335a.38.38 0 0 1-.34.433c-.057.005-.114.005-.176.005H4.854a.395.395 0 0 1-.366-.381c0-.201.16-.381.376-.386.355-.01.706-.006 1.061-.006h2.319Zm-.011 2.316c1.087 0 2.175-.004 3.262.006.113 0 .262.026.335.098.082.082.144.247.118.355-.026.114-.16.217-.263.294-.056.041-.16.026-.242.026H4.905c-.242-.01-.417-.18-.412-.397.005-.216.175-.376.427-.376 1.103-.005 2.21-.005 3.313-.005Zm-.664-8.483H4.905c-.324 0-.515-.304-.366-.567.088-.16.237-.2.407-.2h5.23c.268 0 .433.128.448.35.02.242-.144.417-.417.417-.876.005-1.757 0-2.638 0Zm6.141 1.576a.38.38 0 0 1 .381.376.384.384 0 0 1-.376.387.391.391 0 0 1-.391-.392.383.383 0 0 1 .386-.37Z" fill="currentColor"/>
    <path d="m19.487 16.102-2.065 2.05-.704-.698" stroke="currentColor" stroke-width=".8" stroke-linecap="round" stroke-linejoin="round"/>
</svg>
