<svg viewBox="0 0 24 24" fill="none" xmlns="http://www.w3.org/2000/svg">
    <path d="M15.218 21.285c.021-.399.093-.776.05-1.139-.09-.761-.628-1.27-1.453-1.442a2.804 2.804 0 0 0-.545-.062 346.8 346.8 0 0 0-2.849-.003c-.276 0-.426.126-.427.347-.003.224.143.354.423.354.893.004 1.787-.01 2.68.009.283.006.575.051.842.14.472.159.663.48.654.985-.002.057-.002.113-.008.17-.067.602-.107.64-.689.64h-7.9c-.51 0-.848-.215-1-.633-.16-.434-.045-.886.35-1.198a9.05 9.05 0 0 1 .997-.67c1.07-.63 2.145-1.252 3.22-1.87a.491.491 0 0 0 .273-.492c-.065-1.813-.123-3.627-.184-5.44-.011-.302-.132-.45-.36-.444-.224.007-.339.173-.33.47.057 1.678.108 3.353.169 5.027.007.218-.046.348-.246.461-1.018.575-2.03 1.162-3.034 1.762-.35.209-.695.436-1.005.7a1.748 1.748 0 0 0-.498 1.968c.254.67.858 1.075 1.615 1.075 4.03.002 8.059.002 12.088 0 .732 0 1.34-.414 1.59-1.075.259-.677.09-1.458-.462-1.934a7.5 7.5 0 0 0-1.04-.732c-1.018-.608-2.046-1.2-3.074-1.789-.151-.087-.212-.179-.206-.36.06-1.674.111-3.35.163-5.024.003-.081.01-.164-.001-.243-.032-.195-.15-.306-.347-.298-.194.008-.312.12-.329.318-.018.21-.026.422-.032.634-.05 1.624-.097 3.25-.157 4.877-.01.27.081.434.313.567 1.147.655 2.292 1.318 3.428 1.992.295.175.579.377.837.603.327.286.41.741.257 1.138-.15.388-.492.61-.946.611h-2.827Z" fill="currentColor"/>
    <path d="M12.018 8.721c.75 0 1.502-.023 2.25.011.333.016.683.097.988.235.706.321.92.964.888 1.692a249.187 249.187 0 0 1-.255 4.652c-.019.298.067.482.324.636 1.368.818 2.73 1.65 4.092 2.477.075.045.16.124.23.115.136-.017.297-.053.39-.142.12-.117.085-.29-.032-.416a.903.903 0 0 0-.193-.141c-1.3-.792-2.6-1.584-3.905-2.368-.165-.098-.205-.204-.194-.39.084-1.453.17-2.906.226-4.36a3.244 3.244 0 0 0-.127-1.057c-.293-.967-1.013-1.438-1.95-1.607a4.087 4.087 0 0 0-.691-.05c-1.42-.005-2.841-.02-4.26.01a3.571 3.571 0 0 0-1.23.247c-.898.36-1.373 1.092-1.392 2.059-.018.958.063 1.917.107 2.875.03.658.07 1.317.116 1.972.011.156-.07.214-.177.28-1.275.772-2.548 1.544-3.821 2.32-.097.058-.198.11-.28.187-.134.123-.162.282-.061.44.098.152.238.211.414.143.06-.024.114-.057.17-.09 1.39-.845 2.778-1.692 4.172-2.529.222-.132.308-.294.292-.554-.091-1.543-.17-3.086-.26-4.628-.068-1.21.653-2.006 1.849-2.017.771-.008 1.546-.003 2.32-.002Zm.136-1.802c1.34.005 2.418-1.086 2.422-2.453.003-1.35-1.072-2.46-2.39-2.466-1.34-.006-2.43 1.09-2.434 2.445-.003 1.373 1.06 2.47 2.402 2.474Zm-1.702-2.458c.002-.974.76-1.745 1.714-1.746.951-.002 1.71.776 1.71 1.75 0 .973-.759 1.745-1.713 1.745-.955-.001-1.713-.775-1.711-1.749Z" fill="currentColor"/>
    <ellipse cx="12.2" cy="4.25" rx="2.2" ry="2.25" fill="currentColor"/>
</svg>
