<svg viewBox="0 0 22 22" fill="none" xmlns="http://www.w3.org/2000/svg">
    <path d="M1.46689 10.9779C1.46689 8.60974 1.46689 6.24159 1.46689 3.87344C1.46689 2.43929 2.43072 1.47109 3.86256 1.46895C6.11719 1.46895 8.37181 1.47322 10.6243 1.46681C11.353 1.46467 11.9578 1.71474 12.4643 2.23838C13.6931 3.50582 14.9262 4.76897 16.1658 6.02572C16.6616 6.52799 16.903 7.11789 16.9009 7.82107C16.8966 8.75722 16.903 9.69337 16.8966 10.6274C16.8966 10.7749 16.9415 10.8518 17.074 10.9202C17.9481 11.3797 18.8627 11.7366 19.8095 12.0124C20.2882 12.1513 20.5169 12.4697 20.5275 12.9635C20.551 13.9744 20.4891 14.9726 20.1407 15.9365C19.6492 17.2894 18.8307 18.3923 17.6553 19.2237C17.1339 19.5913 16.5996 19.9397 16.0653 20.2859C15.9435 20.365 15.796 20.4291 15.655 20.442C15.157 20.4847 14.6548 20.5232 14.1548 20.5232C10.7098 20.5296 7.2648 20.5275 3.81982 20.5253C2.68503 20.5253 1.78105 19.835 1.53314 18.7727C1.48399 18.5611 1.47117 18.3367 1.47117 18.1187C1.46476 15.742 1.46689 13.361 1.46689 10.9779ZM10.9961 2.39868C10.8786 2.39013 10.7739 2.37304 10.6692 2.37304C8.38677 2.3709 6.10436 2.3709 3.82196 2.37304C2.94576 2.37517 2.37088 2.95225 2.37088 3.83069C2.36874 8.60974 2.36874 13.3867 2.37088 18.1657C2.37088 19.0442 2.94576 19.6234 3.81982 19.6255C7.13658 19.6276 10.4555 19.6276 13.7722 19.6255C13.8235 19.6255 13.8727 19.6148 13.971 19.6063C13.8299 19.5122 13.7316 19.446 13.6333 19.3797C12.4344 18.5868 11.5646 17.5224 11.0218 16.1908C10.6157 15.1927 10.5132 14.1518 10.5345 13.0853C10.5474 12.4377 10.7482 12.1577 11.3659 11.9803C12.584 11.6319 13.7359 11.1254 14.8066 10.4457C15.1699 10.2149 15.5289 10.0482 15.952 10.2576C15.967 10.2298 15.9777 10.217 15.9777 10.2042C15.9777 9.32575 15.9734 8.44517 15.9777 7.56673C15.9777 7.40429 15.905 7.36796 15.7554 7.3701C14.9476 7.37651 14.1398 7.37865 13.332 7.37223C12.2015 7.36368 11.2718 6.66051 11.0624 5.60039C10.9748 5.15369 11.0047 4.68348 10.9983 4.22396C10.9897 3.62123 10.9961 3.02064 10.9961 2.39868ZM15.5332 19.5614C16.0525 19.213 16.5483 18.886 17.0398 18.5526C17.8754 17.9819 18.5208 17.2424 18.9846 16.3426C19.5231 15.2974 19.6599 14.1775 19.6278 13.0233C19.6236 12.8758 19.5231 12.8716 19.4334 12.8459C18.1041 12.4655 16.8582 11.9055 15.6935 11.1617C15.5695 11.0826 15.4883 11.0933 15.3729 11.1681C14.3535 11.82 13.2679 12.3287 12.1203 12.7049C11.9065 12.7754 11.6074 12.7882 11.5048 12.9357C11.3936 13.096 11.4599 13.3845 11.4599 13.6175C11.4556 15.2461 12.0198 16.6482 13.1503 17.8195C13.8406 18.5312 14.7275 18.9822 15.5332 19.5614ZM11.9151 2.98004C11.9065 3.05698 11.9023 3.08263 11.9023 3.10827C11.9023 3.77512 11.8894 4.44196 11.9065 5.10667C11.9258 5.89107 12.4985 6.44464 13.285 6.45532C13.894 6.46387 14.5052 6.45746 15.1143 6.45532C15.1635 6.45532 15.2148 6.4425 15.2917 6.43181C14.159 5.27766 13.052 4.14488 11.9151 2.98004Z" fill="currentColor" />
    <path d="M8.28212 11.4592C7.1281 11.4592 5.97194 11.4592 4.81791 11.4592C4.72602 11.4592 4.63198 11.457 4.54436 11.4378C4.32852 11.3908 4.18747 11.207 4.19174 10.9932C4.19602 10.788 4.33279 10.6149 4.54009 10.5679C4.6213 10.5487 4.70892 10.5465 4.79227 10.5465C7.11527 10.5444 9.43828 10.5444 11.7613 10.5465C11.8532 10.5465 11.9472 10.5529 12.0348 10.5764C12.2293 10.6277 12.3554 10.803 12.3554 11.0018C12.3554 11.2005 12.2315 11.3779 12.037 11.4292C11.9429 11.4549 11.8404 11.4592 11.7442 11.4592C10.5902 11.4592 9.43615 11.4592 8.28212 11.4592Z" fill="currentColor" />
    <path d="M7.80554 7.81836C8.81211 7.81836 9.81867 7.81836 10.8252 7.81836C10.9107 7.81836 10.9962 7.81836 11.0796 7.83546C11.2975 7.8782 11.445 8.0556 11.4514 8.2672C11.4557 8.4852 11.3039 8.67329 11.0774 8.71817C11.0026 8.73313 10.9235 8.73313 10.8445 8.73313C8.83134 8.73313 6.81821 8.73313 4.80507 8.73313C4.73455 8.73313 4.66189 8.73527 4.5935 8.72458C4.35201 8.68611 4.19173 8.50444 4.19387 8.27575C4.19387 8.04705 4.35629 7.86538 4.59778 7.82905C4.67471 7.81836 4.75378 7.8205 4.83072 7.8205C5.82019 7.81836 6.81393 7.81836 7.80554 7.81836Z" fill="currentColor" />
    <path d="M6.925 13.2662C7.62597 13.2662 8.32693 13.2662 9.02789 13.2683C9.11979 13.2683 9.21382 13.2726 9.30144 13.2939C9.5066 13.3452 9.63696 13.5248 9.63483 13.7321C9.63055 13.9309 9.50446 14.1019 9.30785 14.1531C9.22023 14.1767 9.1262 14.1809 9.03431 14.1809C7.61742 14.1831 6.20267 14.1831 4.78578 14.1809C4.70244 14.1809 4.61482 14.1767 4.53361 14.1574C4.32631 14.1083 4.19168 13.933 4.19168 13.7278C4.18954 13.5226 4.32417 13.3431 4.5272 13.2939C4.61482 13.2726 4.70885 13.2683 4.80074 13.2683C5.50812 13.264 6.21763 13.2662 6.925 13.2662Z" fill="currentColor" />
    <path d="M6.91224 16.9058C6.22623 16.9058 5.53809 16.9058 4.85209 16.9058C4.79439 16.9058 4.73882 16.9079 4.68326 16.9058C4.38834 16.8908 4.196 16.7134 4.19387 16.4548C4.19173 16.1962 4.38407 16.0102 4.67471 15.9931C4.71745 15.991 4.76019 15.9931 4.80293 15.9931C6.21127 15.9931 7.62175 15.9931 9.03008 15.9931C9.07283 15.9931 9.11557 15.991 9.15831 15.9931C9.44895 16.0102 9.64129 16.1962 9.63702 16.4548C9.63274 16.707 9.44682 16.8844 9.16686 16.9058C9.11129 16.91 9.05359 16.9079 8.99803 16.9079C8.2992 16.9058 7.60465 16.9058 6.91224 16.9058Z" fill="currentColor" />
    <path d="M6.44408 6.01082C5.86921 6.01082 5.29647 6.01082 4.72159 6.01082C4.54422 6.01082 4.38394 5.96807 4.27494 5.81419C4.09757 5.55984 4.21083 5.21574 4.50789 5.1281C4.59337 5.10246 4.68954 5.09818 4.78143 5.09818C5.90126 5.09604 7.0211 5.09605 8.14093 5.09605C8.19008 5.09605 8.24137 5.09391 8.29052 5.10032C8.55125 5.13024 8.7329 5.3226 8.72863 5.56198C8.72221 5.79495 8.54911 5.98517 8.2948 6.00441C8.07681 6.01937 7.8567 6.01082 7.63658 6.01082C7.23694 6.01296 6.84158 6.01082 6.44408 6.01082Z" fill="currentColor" />
    <path d="M15.0738 15.3659C15.5739 14.8637 16.0355 14.3849 16.5185 13.9254C16.6253 13.8249 16.807 13.733 16.9416 13.7501C17.0741 13.7651 17.2216 13.9019 17.3028 14.0258C17.4011 14.1776 17.3455 14.3592 17.2195 14.4939C17.0293 14.6948 16.8305 14.8872 16.636 15.0817C16.2449 15.4728 15.856 15.8639 15.4628 16.2529C15.202 16.5115 14.967 16.5137 14.7062 16.2593C14.4327 15.99 14.1634 15.7207 13.8941 15.4471C13.6762 15.2249 13.6655 14.962 13.86 14.7696C14.048 14.5815 14.3194 14.5965 14.5395 14.8124C14.7169 14.9855 14.8836 15.1672 15.0738 15.3659Z" fill="currentColor" />
</svg>