<svg viewBox="0 0 24 24" fill="none" xmlns="http://www.w3.org/2000/svg">
    <path d="m23.912 10.012-.01-.023.006-.005-.075-.141-3.982-7.583c-.109-.198-.487-.78-1.215-.78H5.295c-.813 0-1.22.8-1.228.82L.156 9.746l-.002.003-.028.052c-.065.13-.21.483-.066.83a5.629 5.629 0 0 0 4.798 2.696c1.989 0 3.723-1.037 4.728-2.59.154-.353-.06-.795-.06-.795l-3.7-7.047-.037-.069c-.05-.114-.094-.333.303-.333h4.852c.137.005.52.073.52.715v16.694a.876.876 0 0 1-.415.713L8.62 22.118s-.637.402 0 .402h6.893c.47 0 0-.326 0-.326l-2.502-1.531c-.002 0-.002-.002-.003-.002-.411-.252-.488-.57-.5-.73V3.138c0-.58.417-.64.563-.644h4.744c.124.002.503.044.265.5l-3.715 7.071s-.117.278.014.584a5.624 5.624 0 0 0 4.787 2.68 5.628 5.628 0 0 0 4.796-2.688c.099-.26-.013-.547-.05-.629ZM8.324 9.79l.052.099c.078.162.197.472-.051.472H1.272c-.234 0-.188-.215-.113-.388l.111-.212.002-.002 3.362-6.402s.172-.265.311 0l3.38 6.433Zm7.268.078.05-.095.001-.004 3.288-6.259c.004-.007.227-.431.454.001l3.278 6.24c.068.134.275.61-.211.61h-6.546c-.478 0-.392-.325-.314-.493Z" fill="currentColor"/>
</svg>
