<svg viewBox="0 0 24 24" fill="none" xmlns="http://www.w3.org/2000/svg">
    <path d="M6.093 22.906h1.372c.058 0 .12-.002.175.014.122.035.202.131.161.248-.028.082-.123.148-.2.205-.031.023-.09.004-.138.004h-3.11c-.84 0-1.405-.582-1.35-1.421.09-1.395.244-2.786.599-4.142.108-.416.278-.816.438-1.217.084-.207.256-.334.463-.43a69.922 69.922 0 0 0 4.978-2.52c.117-.065.166-.137.162-.274-.01-.303.002-.609-.008-.914a.366.366 0 0 0-.082-.215 6.763 6.763 0 0 1-1.438-2.45.28.28 0 0 0-.16-.153c-.692-.213-1.13-.762-1.164-1.483-.014-.306-.022-.61.103-.9.129-.297.321-.518.672-.532.119-.006.106-.08.106-.158v-1.09c0-1.665 1.06-3.058 2.665-3.498.127-.035.17-.093.164-.217a5.636 5.636 0 0 1 0-.492c.006-.178.082-.264.258-.266.703-.007 1.406-.007 2.108 0 .176.002.248.09.254.268.006.164.01.328 0 .492-.008.129.045.18.168.213 1.002.278 1.75.876 2.245 1.786.273.502.412 1.042.418 1.614.005.393.005.784 0 1.178-.002.108.019.164.146.182.295.043.477.244.58.506.286.727.15 2.055-1.033 2.397a.214.214 0 0 0-.12.125 6.782 6.782 0 0 1-1.474 2.507.297.297 0 0 0-.063.186c-.006.31.002.62-.006.932-.004.121.035.19.143.248 1.153.598 2.299 1.209 3.454 1.8.535.275 1.088.519 1.633.775.209.098.327.279.424.475.268.545.405 1.133.528 1.72.246 1.164.375 2.344.457 3.528.057.846-.504 1.442-1.35 1.442-1.024 0-11.246 0-12.27-.002-.074 0-.175.002-.216-.04-.06-.062-.114-.17-.106-.25.014-.132.133-.18.262-.18H17.53c.006-.052.016-.091.016-.13 0-1.077.002-2.155 0-3.232a.64.64 0 0 0-.752-.637c0 .186.004.378 0 .569-.008.322.017.65-.04.96-.099.527-.63.892-1.156.853-.586-.045-1.035-.453-1.073-1.014-.027-.391-.02-.785-.015-1.176.002-.162-.035-.221-.21-.219a588.61 588.61 0 0 1-5.026 0c-.166 0-.21.051-.207.209.01.363.009.727.002 1.09-.012.592-.444 1.044-1.038 1.104a1.124 1.124 0 0 1-1.22-.885c-.036-.187-.02-.385-.022-.578-.002-.258-.006-.516.002-.772.005-.152-.055-.178-.192-.145-.301.073-.52.307-.52.604-.005 1.112 0 2.226 0 3.339-.002.008.002.02.014.06Zm2.309-15.75c0 .614-.076 1.217.014 1.792.235 1.512 1.002 2.735 2.243 3.632.789.572 1.491.555 2.309.002.75-.508 1.284-1.204 1.702-1.997.307-.584.543-1.194.565-1.862.017-.492.007-.983.007-1.475 0-.027-.017-.051-.027-.09-1.114.35-2.258.432-3.405.432-1.149.002-2.29-.084-3.408-.434Zm5.402 6.842c-.05.053-.093.098-.136.147-.538.608-1.077 1.219-1.618 1.827-.176.199-.301.197-.477-.002-.273-.305-.543-.614-.816-.92-.309-.35-.62-.698-.934-1.052-.205.114-.395.229-.594.325-.12.06-.164.137-.162.275.006 1.194.004 2.388.004 3.582 0 .24 0 .242.238.242h4.972c.067 0 .137-.006.217-.01.004-.078.01-.14.01-.203 0-1.213.002-2.423-.002-3.636 0-.074-.02-.18-.07-.213-.202-.135-.415-.242-.633-.362Zm3.005 4.406c.13.018.254.026.372.055.51.131.84.567.842 1.114.003 1.037 0 2.073 0 3.11v.194c.033.013.046.02.056.02.403.003.809.005 1.212.005.541 0 .883-.34.859-.88a20.236 20.236 0 0 0-.482-3.682c-.11-.481-.282-.948-.438-1.42-.057-.171-.186-.28-.36-.356-.466-.205-.922-.43-1.381-.65-.22-.104-.439-.212-.678-.329-.002.955-.002 1.876-.002 2.819ZM5.599 22.9v-.234c0-1.03-.002-2.06 0-3.09.002-.617.41-1.078 1.014-1.142.131-.014.176-.061.174-.196-.006-.82-.002-1.639-.004-2.458 0-.05-.01-.099-.018-.168l-.193.09c-.616.295-1.237.586-1.848.89a.641.641 0 0 0-.295.275c-.139.314-.282.635-.35.97a55.06 55.06 0 0 0-.49 2.756c-.073.49-.094.99-.118 1.485-.02.41.278.791.67.816.477.028.956.006 1.458.006Zm5.376-21.41v4.318h1.671V1.49h-1.671Zm3.994 13.153v5.378c0 .048-.002.095.002.142.027.279.156.488.416.604.264.117.504.064.719-.116.184-.156.231-.367.23-.6-.003-1.465-.007-2.93.004-4.392.002-.228-.054-.357-.273-.453-.36-.164-.707-.36-1.098-.563Zm-6.367.028-.18.09c-.338.175-.672.357-1.014.52-.133.064-.17.144-.17.284.004 1.468.002 2.94.002 4.408 0 .063-.002.129.002.192a.68.68 0 0 0 .516.633.636.636 0 0 0 .728-.286.98.98 0 0 0 .122-.447c.009-1.74.007-3.478.005-5.215 0-.047-.005-.092-.01-.178Zm4.54-12.239c-.006.054-.016.093-.016.131 0 1.055 0 2.108-.003 3.163 0 .127.06.152.168.166.342.047.682.094 1.02.166.388.08.769.184 1.152.279.233-1.807-.49-3.384-2.321-3.905Zm-2.655-.012c-1.022.305-1.729.92-2.126 1.878a2.807 2.807 0 0 0-.218 1.145c.007.295.003.59.003.902.083-.023.139-.04.196-.051.645-.134 1.289-.279 1.938-.392.17-.03.223-.071.221-.243-.008-1.006-.004-2.014-.004-3.02 0-.063-.004-.125-.01-.219Zm1.317 13.1c.035-.031.057-.05.076-.07l1.56-1.76c.032-.034.07-.077.07-.116.007-.254.005-.508.005-.807-1.146.917-2.264.909-3.413-.009 0 .267-.01.482.004.695a.48.48 0 0 0 .102.264c.338.395.689.782 1.033 1.172l.563.63Zm3.165-8.784c-1.364-.602-5.371-.594-6.367.014 2.157.504 4.263.51 6.367-.014ZM7.92 9.133v-.838c0-.275.001-.551-.003-.826a.237.237 0 0 0-.05-.125c-.173-.231-.407-.202-.526.074-.13.301-.118.617-.049.93.082.36.277.633.627.785Zm7.788-.02c.063-.04.127-.07.18-.111.422-.324.594-1.154.334-1.62a.445.445 0 0 0-.123-.146c-.148-.107-.387.006-.39.188-.005.553-.001 1.108-.001 1.688Z" fill="currentColor"/>
    <path d="M6.093 22.906h1.372c.058 0 .12-.002.175.014.122.035.202.131.161.248-.028.082-.123.148-.2.205-.031.023-.09.004-.138.004h-3.11c-.84 0-1.405-.582-1.35-1.421.09-1.395.244-2.786.599-4.142.108-.416.278-.816.438-1.217.084-.207.256-.334.463-.43a69.922 69.922 0 0 0 4.978-2.52c.117-.065.166-.137.162-.274-.01-.303.002-.609-.008-.914a.366.366 0 0 0-.082-.215 6.763 6.763 0 0 1-1.438-2.45.28.28 0 0 0-.16-.153c-.692-.213-1.13-.762-1.164-1.483-.014-.306-.022-.61.103-.9.129-.297.321-.518.672-.532.119-.006.106-.08.106-.158v-1.09c0-1.665 1.06-3.058 2.665-3.498.127-.035.17-.093.164-.217a5.636 5.636 0 0 1 0-.492c.006-.178.082-.264.258-.266.703-.007 1.406-.007 2.108 0 .176.002.248.09.254.268.006.164.01.328 0 .492-.008.129.045.18.168.213 1.002.278 1.75.876 2.245 1.786.273.502.412 1.042.418 1.614.005.393.005.784 0 1.178-.002.108.019.164.146.182.295.043.477.244.58.506.286.727.15 2.055-1.033 2.397a.214.214 0 0 0-.12.125 6.782 6.782 0 0 1-1.474 2.507.297.297 0 0 0-.063.186c-.006.31.002.62-.006.932-.004.121.035.19.143.248 1.153.598 2.299 1.209 3.454 1.8.535.275 1.088.519 1.633.775.209.098.327.279.424.475.268.545.405 1.133.528 1.72.246 1.164.375 2.344.457 3.528.057.846-.504 1.442-1.35 1.442-1.024 0-11.246 0-12.27-.002-.074 0-.175.002-.216-.04-.06-.062-.114-.17-.106-.25.014-.132.133-.18.262-.18H17.53c.006-.052.016-.091.016-.13 0-1.077.002-2.155 0-3.232a.64.64 0 0 0-.752-.637c0 .186.004.378 0 .569-.008.322.017.65-.04.96-.099.527-.63.892-1.156.853-.586-.045-1.035-.453-1.073-1.014-.027-.391-.02-.785-.015-1.176.002-.162-.035-.221-.21-.219a588.61 588.61 0 0 1-5.026 0c-.166 0-.21.051-.207.209.01.363.009.727.002 1.09-.012.592-.444 1.044-1.038 1.104a1.124 1.124 0 0 1-1.22-.885c-.036-.187-.02-.385-.022-.578-.002-.258-.006-.516.002-.772.005-.152-.055-.178-.192-.145-.301.073-.52.307-.52.604-.005 1.112 0 2.226 0 3.339-.002.008.002.02.014.06Zm2.309-15.75c0 .614-.076 1.217.014 1.792.235 1.512 1.002 2.735 2.243 3.632.789.572 1.491.555 2.309.002.75-.508 1.284-1.204 1.702-1.997.307-.584.543-1.194.565-1.862.017-.492.007-.983.007-1.475 0-.027-.017-.051-.027-.09-1.114.35-2.258.432-3.405.432-1.149.002-2.29-.084-3.408-.434Zm5.402 6.842c-.05.053-.093.098-.136.147-.538.608-1.077 1.219-1.618 1.827-.176.199-.301.197-.477-.002-.273-.305-.543-.614-.816-.92-.309-.35-.62-.698-.934-1.052-.205.114-.395.229-.594.325-.12.06-.164.137-.162.275.006 1.194.004 2.388.004 3.582 0 .24 0 .242.238.242h4.972c.067 0 .137-.006.217-.01.004-.078.01-.14.01-.203 0-1.213.002-2.423-.002-3.636 0-.074-.02-.18-.07-.213-.202-.135-.415-.242-.633-.362Zm3.005 4.406c.13.018.254.026.372.055.51.131.84.567.842 1.114.003 1.037 0 2.073 0 3.11v.194c.033.013.046.02.056.02.403.003.809.005 1.212.005.541 0 .883-.34.859-.88a20.236 20.236 0 0 0-.482-3.682c-.11-.481-.282-.948-.438-1.42-.057-.171-.186-.28-.36-.356-.466-.205-.922-.43-1.381-.65-.22-.104-.439-.212-.678-.329-.002.955-.002 1.876-.002 2.819ZM5.599 22.9v-.234c0-1.03-.002-2.06 0-3.09.002-.617.41-1.078 1.014-1.142.131-.014.176-.061.174-.196-.006-.82-.002-1.639-.004-2.458 0-.05-.01-.099-.018-.168l-.193.09c-.616.295-1.237.586-1.848.89a.641.641 0 0 0-.295.275c-.139.314-.282.635-.35.97a55.06 55.06 0 0 0-.49 2.756c-.073.49-.094.99-.118 1.485-.02.41.278.791.67.816.477.028.956.006 1.458.006Zm5.376-21.41v4.318h1.671V1.49h-1.671Zm3.994 13.153v5.378c0 .048-.002.095.002.142.027.279.156.488.416.604.264.117.504.064.719-.116.184-.156.231-.367.23-.6-.003-1.465-.007-2.93.004-4.392.002-.228-.054-.357-.273-.453-.36-.164-.707-.36-1.098-.563Zm-6.367.028-.18.09c-.338.175-.672.357-1.014.52-.133.064-.17.144-.17.284.004 1.468.002 2.94.002 4.408 0 .063-.002.129.002.192a.68.68 0 0 0 .516.633.636.636 0 0 0 .728-.286.98.98 0 0 0 .122-.447c.009-1.74.007-3.478.005-5.215 0-.047-.005-.092-.01-.178Zm4.54-12.239c-.006.054-.016.093-.016.131 0 1.055 0 2.108-.003 3.163 0 .127.06.152.168.166.342.047.682.094 1.02.166.388.08.769.184 1.152.279.233-1.807-.49-3.384-2.321-3.905Zm-2.655-.012c-1.022.305-1.729.92-2.126 1.878a2.807 2.807 0 0 0-.218 1.145c.007.295.003.59.003.902.083-.023.139-.04.196-.051.645-.134 1.289-.279 1.938-.392.17-.03.223-.071.221-.243-.008-1.006-.004-2.014-.004-3.02 0-.063-.004-.125-.01-.219Zm1.317 13.1c.035-.031.057-.05.076-.07l1.56-1.76c.032-.034.07-.077.07-.116.007-.254.005-.508.005-.807-1.146.917-2.264.909-3.413-.009 0 .267-.01.482.004.695a.48.48 0 0 0 .102.264c.338.395.689.782 1.033 1.172l.563.63Zm3.165-8.784c-1.364-.602-5.371-.594-6.367.014 2.157.504 4.263.51 6.367-.014ZM7.92 9.133v-.838c0-.275.001-.551-.003-.826a.237.237 0 0 0-.05-.125c-.173-.231-.407-.202-.526.074-.13.301-.118.617-.049.93.082.36.277.633.627.785Zm7.788-.02c.063-.04.127-.07.18-.111.422-.324.594-1.154.334-1.62a.445.445 0 0 0-.123-.146c-.148-.107-.387.006-.39.188-.005.553-.001 1.108-.001 1.688Z" stroke="currentColor" stroke-width=".413"/>
</svg>
