<svg viewBox="0 0 24 24" fill="none" xmlns="http://www.w3.org/2000/svg">
  <path d="M21.597 6.224c-.327-.177-.66-.348-.969-.508l-.11-.059-.06-.035-2.04-1.086-.013-.006a1.657 1.657 0 0 1-.339-.342c-.236-.343-.581-.538-1.023-.579-.242-.024-.37-.142-.424-.384a59.568 59.568 0 0 0-.448-1.971.312.312 0 0 0-.303-.254.287.287 0 0 0-.218.106c-.54.62-1.181 1.464-1.345 2.533-.084.549-.175 1.009-.375 1.47-.176.407-.345.832-.503 1.245-.133.336-.266.679-.412 1.027-.09.213-.193.407-.308.614-.03.047-.509.85-.8 1.269a12.973 12.973 0 0 1-3.7 3.47c-1.114.697-1.992 1.589-2.61 2.64-.182.306-.333.62-.497.962-.078.159-.157.318-.236.484l-.145.289-.158-.29c-.078-.135-.151-.277-.23-.412-.17-.302-.345-.608-.496-.927-.424-.868-.63-1.7-.63-2.539-.006-1.05.37-2.042 1.108-2.95.206-.255.218-.514.036-.733a.532.532 0 0 0-.418-.206.765.765 0 0 0-.339.088 4.187 4.187 0 0 0-1.35 1.045c-.915 1.092-1.32 2.373-1.23 3.931a8.376 8.376 0 0 0 .479 2.462l.006.023a6.53 6.53 0 0 0 .345.785l.049.089a4.82 4.82 0 0 0 2.047 2.013c.436.224.6.502.563.974-.043.643.17 1.24.63 1.77.314.367.732.614 1.271.756h7.389c.03-.017.109-.053.139-.07a.605.605 0 0 0 .321-.367.628.628 0 0 0-.06-.507c-.334-.602-.849-1.01-1.557-1.24l-.333-.106.29-.189c.612-.396 1-.962 1.23-1.794l.151-.543.249.743c.042.13.085.248.12.366.086.26.164.526.25.785.241.756.49 1.54.726 2.32.097.325.236.508.466.614h2.889c.436-.254.478-.443.218-.909-.285-.502-.715-.809-1.29-.927-.145-.03-.303-.094-.345-.342-.14-.88-.29-1.76-.436-2.586-.164-.938-.024-1.747.43-2.467.303-.49.405-1.057.303-1.647-.11-.614-.249-1.234-.376-1.83l-.006-.035c-.049-.224-.097-.455-.145-.68-.012-.07-.03-.14-.049-.212-.109-.501-.224-1.02-.127-1.564.109-.626.612-1.062 1.254-1.104a117.971 117.971 0 0 1 2.192-.124c.551-.023.969-.253 1.272-.702a4.43 4.43 0 0 0 .375-.726c.145-.372.012-.726-.345-.921ZM4.627 17.988a7.66 7.66 0 0 0-.114.797 7.514 7.514 0 0 1-.043.366l-.03.248-.315-.17c-.06-.03-.115-.06-.163-.095a4.815 4.815 0 0 1-1.757-1.795c-.012-.018-.018-.035-.03-.047l-.012-.024a3.603 3.603 0 0 1-.17-.342c-.563-1.281-.641-2.957-.654-3.282.007-.39.043-.744.122-1.092.29-1.346 1.011-2.361 2.143-3.022.061-.036.122-.06.194-.089.03-.012.055-.024.085-.035l.285-.124-.043.3c0 .018-.006.036-.006.048 0 .03-.006.07-.036.112l-.103.136-.036.047c-.89 1.169-1.23 2.45-1.012 3.813.194 1.199.685 2.32 1.502 3.436.206.271.26.508.194.814Zm8.364-9.415a.29.29 0 0 1 .103.018c1.006.401 2.041.815 3.162 1.275.108.047.2.177.205.29.007.17.007.342.007.525v.46l-4.234-1.706.11-.165c.03-.053.06-.1.096-.148l.006-.006c.091-.141.176-.277.267-.407.06-.1.188-.136.278-.136Zm4.21 5.52c.108.56.005 1.11-.291 1.576-.467.743-.606 1.564-.43 2.591l.157.92c.109.662.224 1.317.333 1.978.049.295.049.295.364.313.617.041 1.053.343 1.332.933l.103.218-.242.018c-.03 0-.055.006-.08.006-.054.006-.102.012-.15.012H17.14c-.279 0-.642 0-1.012.005h-.012c-.236 0-.375-.1-.448-.336-.49-1.57-1.011-3.193-1.465-4.622l-.394-1.24-.018-.058V16.4c-.012-.03-.018-.06-.03-.089-.025-.059-.073-.13-.158-.13-.018 0-.036 0-.054.006-.061.018-.134.06-.116.236.012.124.03.248.049.372v.018c.054.378.109.767.09 1.157-.036.985-.387 1.7-1.065 2.184-.376.271-.83.442-1.423.537l-.097.018a.975.975 0 0 0-.14.023c-.09.018-.181.071-.17.171.02.113.074.166.189.166h.048c.164 0 .327-.006.485-.012.145-.006.302-.012.46-.012.86 0 1.52.354 1.968 1.05.06.095.115.249.067.379-.055.153-.285.17-.382.17H6.905c-1.066 0-1.89-.684-2.005-1.664a10.884 10.884 0 0 1-.03-2.184c.206-2.49 1.435-4.462 3.646-5.856a13.173 13.173 0 0 0 3.282-2.957c.03-.041.06-.077.097-.118l.133-.165.776.313 1.41.566.219.089c.648.26 1.32.531 1.974.803.09.041.26.147.297.295.17.75.345 1.54.496 2.326Zm4.39-7.019-.055.112-.012.03c-.079.165-.163.33-.266.49-.224.33-.557.507-.981.53-.594.025-1.193.066-1.78.095l-.43.024c-.419.024-.758.165-1.018.42-.133.129-.242.282-.363.448-.055.07-.116.153-.182.236l-.079.1-3.403-1.375.078-.16c.037-.076.073-.147.11-.218a4.88 4.88 0 0 0 .193-.407c.4-.968.793-1.936 1.2-2.928a.293.293 0 0 0 .017-.1c-.066-.963.334-1.742.951-2.61a.253.253 0 0 1 .11-.082c.005 0 .011-.006.017-.012l.206-.118.182.791c.09.39.176.78.266 1.163.043.189.067.295.122.336.048.042.157.053.357.071.303.024.733.106 1.023.525.067.095.134.19.206.242.182.119.333.219.479.302l.024.011a5.2 5.2 0 0 0 .32.172h.007l1.193.637s.018.012.024.012l.273.142c.303.159.66.342 1.011.525.242.142.321.354.2.596Z" fill="currentColor"/>
  <path d="M21.597 6.224c-.327-.177-.66-.348-.969-.508l-.11-.059-.06-.035-2.04-1.086-.013-.006a1.657 1.657 0 0 1-.339-.342c-.236-.343-.581-.538-1.023-.579-.242-.024-.37-.142-.424-.384a59.568 59.568 0 0 0-.448-1.971.312.312 0 0 0-.303-.254.287.287 0 0 0-.218.106c-.54.62-1.181 1.464-1.345 2.533-.084.549-.175 1.009-.375 1.47-.176.407-.345.832-.503 1.245-.133.336-.266.679-.412 1.027-.09.213-.193.407-.308.614-.03.047-.509.85-.8 1.269a12.973 12.973 0 0 1-3.7 3.47c-1.114.697-1.992 1.589-2.61 2.64-.182.306-.333.62-.497.962-.078.159-.157.318-.236.484l-.145.289-.158-.29c-.078-.135-.151-.277-.23-.412-.17-.302-.345-.608-.496-.927-.424-.868-.63-1.7-.63-2.539-.006-1.05.37-2.042 1.108-2.95.206-.255.218-.514.036-.733a.532.532 0 0 0-.418-.206.765.765 0 0 0-.339.088 4.187 4.187 0 0 0-1.35 1.045c-.915 1.092-1.32 2.373-1.23 3.931a8.376 8.376 0 0 0 .479 2.462l.006.023a6.53 6.53 0 0 0 .345.785l.049.089a4.82 4.82 0 0 0 2.047 2.013c.436.224.6.502.563.974-.043.643.17 1.24.63 1.77.314.367.732.614 1.271.756h7.389c.03-.017.109-.053.139-.07a.605.605 0 0 0 .321-.367.628.628 0 0 0-.06-.507c-.334-.602-.849-1.01-1.557-1.24l-.333-.106.29-.189c.612-.396 1-.962 1.23-1.794l.151-.543.249.743c.042.13.085.248.12.366.086.26.164.526.25.785.241.756.49 1.54.726 2.32.097.325.236.508.466.614h2.889c.436-.254.478-.443.218-.909-.285-.502-.715-.809-1.29-.927-.145-.03-.303-.094-.345-.342-.14-.88-.29-1.76-.436-2.586-.164-.938-.024-1.747.43-2.467.303-.49.405-1.057.303-1.647-.11-.614-.249-1.234-.376-1.83l-.006-.035c-.049-.224-.097-.455-.145-.68-.012-.07-.03-.14-.049-.212-.109-.501-.224-1.02-.127-1.564.109-.626.612-1.062 1.254-1.104a117.971 117.971 0 0 1 2.192-.124c.551-.023.969-.253 1.272-.702a4.43 4.43 0 0 0 .375-.726c.145-.372.012-.726-.345-.921ZM4.627 17.988a7.66 7.66 0 0 0-.114.797 7.514 7.514 0 0 1-.043.366l-.03.248-.315-.17c-.06-.03-.115-.06-.163-.095a4.815 4.815 0 0 1-1.757-1.795c-.012-.018-.018-.035-.03-.047l-.012-.024a3.603 3.603 0 0 1-.17-.342c-.563-1.281-.641-2.957-.654-3.282.007-.39.043-.744.122-1.092.29-1.346 1.011-2.361 2.143-3.022.061-.036.122-.06.194-.089.03-.012.055-.024.085-.035l.285-.124-.043.3c0 .018-.006.036-.006.048 0 .03-.006.07-.036.112l-.103.136-.036.047c-.89 1.169-1.23 2.45-1.012 3.813.194 1.199.685 2.32 1.502 3.436.206.271.26.508.194.814Zm8.364-9.415a.29.29 0 0 1 .103.018c1.006.401 2.041.815 3.162 1.275.108.047.2.177.205.29.007.17.007.342.007.525v.46l-4.234-1.706.11-.165c.03-.053.06-.1.096-.148l.006-.006c.091-.141.176-.277.267-.407.06-.1.188-.136.278-.136Zm4.21 5.52c.108.56.005 1.11-.291 1.576-.467.743-.606 1.564-.43 2.591l.157.92c.109.662.224 1.317.333 1.978.049.295.049.295.364.313.617.041 1.053.343 1.332.933l.103.218-.242.018c-.03 0-.055.006-.08.006-.054.006-.102.012-.15.012H17.14c-.279 0-.642 0-1.012.005h-.012c-.236 0-.375-.1-.448-.336-.49-1.57-1.011-3.193-1.465-4.622l-.394-1.24-.018-.058V16.4c-.012-.03-.018-.06-.03-.089-.025-.059-.073-.13-.158-.13-.018 0-.036 0-.054.006-.061.018-.134.06-.116.236.012.124.03.248.049.372v.018c.054.378.109.767.09 1.157-.036.985-.387 1.7-1.065 2.184-.376.271-.83.442-1.423.537l-.097.018a.975.975 0 0 0-.14.023c-.09.018-.181.071-.17.171.02.113.074.166.189.166h.048c.164 0 .327-.006.485-.012.145-.006.302-.012.46-.012.86 0 1.52.354 1.968 1.05.06.095.115.249.067.379-.055.153-.285.17-.382.17H6.905c-1.066 0-1.89-.684-2.005-1.664a10.884 10.884 0 0 1-.03-2.184c.206-2.49 1.435-4.462 3.646-5.856a13.173 13.173 0 0 0 3.282-2.957c.03-.041.06-.077.097-.118l.133-.165.776.313 1.41.566.219.089c.648.26 1.32.531 1.974.803.09.041.26.147.297.295.17.75.345 1.54.496 2.326Zm4.39-7.019-.055.112-.012.03c-.079.165-.163.33-.266.49-.224.33-.557.507-.981.53-.594.025-1.193.066-1.78.095l-.43.024c-.419.024-.758.165-1.018.42-.133.129-.242.282-.363.448-.055.07-.116.153-.182.236l-.079.1-3.403-1.375.078-.16c.037-.076.073-.147.11-.218a4.88 4.88 0 0 0 .193-.407c.4-.968.793-1.936 1.2-2.928a.293.293 0 0 0 .017-.1c-.066-.963.334-1.742.951-2.61a.253.253 0 0 1 .11-.082c.005 0 .011-.006.017-.012l.206-.118.182.791c.09.39.176.78.266 1.163.043.189.067.295.122.336.048.042.157.053.357.071.303.024.733.106 1.023.525.067.095.134.19.206.242.182.119.333.219.479.302l.024.011a5.2 5.2 0 0 0 .32.172h.007l1.193.637s.018.012.024.012l.273.142c.303.159.66.342 1.011.525.242.142.321.354.2.596Z" stroke="currentColor" stroke-width=".4"/>
</svg>
