<svg viewBox="0 0 24 24" fill="none" xmlns="http://www.w3.org/2000/svg">
  <path d="M22 22H2" stroke="currentColor" stroke-linecap="round"/>
  <path d="m2 11 8.126-6.5a3 3 0 0 1 3.748 0L22 11m-6.5-5.5v-2A.5.5 0 0 1 16 3h2.5a.5.5 0 0 1 .5.5v5M4 22V9.5M20 22V9.5" stroke="currentColor" stroke-width="1.2" stroke-linecap="round"/>
  <path d="M15 22v-5c0-1.414 0-2.121-.44-2.56C14.122 14 13.415 14 12 14c-1.414 0-2.121 0-2.56.44C9 14.878 9 15.585 9 17v5m5-12.5a2 2 0 1 1-4 0 2 2 0 0 1 4 0Z" stroke="currentColor" stroke-width="1.2"/>
</svg>
