<svg viewBox="0 0 24 24" fill="none" xmlns="http://www.w3.org/2000/svg">
    <path d="M20.082 3.01775L20.1029 3.61738L20.082 3.01775ZM16.5 3.48744L16.3279 2.91265V2.91265L16.5 3.48744ZM13.6738 4.80275L13.3733 4.28345V4.28345L13.6738 4.80275ZM3.9824 3.07489L3.9456 3.67376L3.9824 3.07489ZM7 3.48744L7.15309 2.9073V2.9073L7 3.48744ZM10.2823 4.87546L10.0018 5.40587H10.0018L10.2823 4.87546ZM13.6276 20.0692L13.9098 20.5987L13.6276 20.0692ZM17 18.6334L16.8469 18.0532H16.8469L17 18.6334ZM19.9851 18.2228L20.0226 18.8216L19.9851 18.2228ZM10.3724 20.0692L10.0902 20.5987L10.3724 20.0692ZM7 18.6334L7.15309 18.0532L7 18.6334ZM4.01486 18.2228L3.9774 18.8216H3.9774L4.01486 18.2228ZM2.6 16.1436V4.9978H1.4V16.1436H2.6ZM22.6 16.1436V4.93319H21.4V16.1436H22.6ZM20.0611 2.41811C18.9247 2.45769 17.453 2.57582 16.3279 2.91265L16.6721 4.06224C17.6408 3.77223 18.9821 3.65642 20.1029 3.61738L20.0611 2.41811ZM16.3279 2.91265C15.3504 3.2053 14.2436 3.77978 13.3733 4.28345L13.9744 5.32205C14.827 4.82859 15.8344 4.31302 16.6721 4.06224L16.3279 2.91265ZM3.9456 3.67376C4.91366 3.73326 6.01984 3.84934 6.84691 4.06758L7.15309 2.9073C6.20714 2.65768 5.00389 2.53654 4.01921 2.47602L3.9456 3.67376ZM6.84691 4.06758C7.82645 4.32607 9.02311 4.88837 10.0018 5.40587L10.5627 4.34505C9.56911 3.81965 8.27197 3.20255 7.15309 2.9073L6.84691 4.06758ZM13.9098 20.5987C14.9025 20.0695 16.1427 19.4801 17.1531 19.2135L16.8469 18.0532C15.6943 18.3574 14.3516 19.0034 13.3453 19.5398L13.9098 20.5987ZM17.1531 19.2135C17.9708 18.9977 19.0617 18.8817 20.0226 18.8216L19.9477 17.624C18.9697 17.6852 17.7826 17.8063 16.8469 18.0532L17.1531 19.2135ZM10.6547 19.5398C9.6484 19.0034 8.30565 18.3574 7.15309 18.0532L6.84691 19.2135C7.85725 19.4801 9.09747 20.0695 10.0902 20.5987L10.6547 19.5398ZM7.15309 18.0532C6.2174 17.8063 5.03026 17.6852 4.05231 17.624L3.9774 18.8216C4.9383 18.8817 6.02919 18.9977 6.84691 19.2135L7.15309 18.0532ZM21.4 16.1436C21.4 16.9144 20.7641 17.5729 19.9477 17.624L20.0226 18.8216C21.4238 18.734 22.6 17.5947 22.6 16.1436H21.4ZM22.6 4.93319C22.6 3.54806 21.4985 2.36804 20.0611 2.41811L20.1029 3.61738C20.809 3.59278 21.4 4.17343 21.4 4.93319H22.6ZM1.4 16.1436C1.4 17.5947 2.57624 18.734 3.9774 18.8216L4.05231 17.624C3.23585 17.5729 2.6 16.9144 2.6 16.1436H1.4ZM13.3453 19.5398C12.509 19.9856 11.491 19.9856 10.6547 19.5398L10.0902 20.5987C11.2794 21.2326 12.7206 21.2326 13.9098 20.5987L13.3453 19.5398ZM13.3733 4.28345C12.5112 4.7824 11.4379 4.80781 10.5627 4.34505L10.0018 5.40587C11.2477 6.06467 12.7599 6.02493 13.9744 5.32205L13.3733 4.28345ZM2.6 4.9978C2.6 4.22042 3.2192 3.62911 3.9456 3.67376L4.01921 2.47602C2.5534 2.38593 1.4 3.57884 1.4 4.9978H2.6Z" fill="currentColor"/>
    <path d="M12 5V20" stroke="currentColor" stroke-width="1.2"/>
    <path d="M5 9L9 10" stroke="currentColor" stroke-width="1.2" stroke-linecap="round"/>
    <path d="M19 9L15 10" stroke="currentColor" stroke-width="1.2" stroke-linecap="round"/>
    <path d="M5 13L9 14" stroke="currentColor" stroke-width="1.2" stroke-linecap="round"/>
    <path d="M19 13L15 14" stroke="currentColor" stroke-width="1.2" stroke-linecap="round"/>
</svg>