<svg viewBox="0 0 24 24" fill="none" xmlns="http://www.w3.org/2000/svg">
  <path d="M22.75 22.793c-.104.155-.31.207-.518.207H1.466C1.052 23 1 22.896 1 22.534V20.41c0-.311.104-.467.466-.467h.57c-.052-.051-.052-.103-.104-.155-.103-.259-.207-.57-.207-.829v-3.47a3.69 3.69 0 0 1 3.677-3.676h1.243c.051-.155 0-.259-.104-.362A3.41 3.41 0 0 1 5.35 9.484c-.466 0-.88-.156-1.14-.57-.155-.207-.258-.466-.258-.673 0-.829-.052-1.709.103-2.538.26-1.916 1.968-3.47 3.936-3.676 2.486-.26 4.713 1.398 5.075 3.832.104.621.052 1.243.052 1.864v.57c-.104.673-.622 1.087-1.398 1.19 0 .104-.052.156-.052.26-.207.673-.57 1.294-1.088 1.709-.155.155-.155.155-.155.362h1.036c.31 0 .57.052.88.052h.155a8.466 8.466 0 0 1 1.14-.104h7.043c.932 0 1.501.57 1.501 1.502v5.748c0 .311-.051.622-.103.932.207.052.57-.103.777.208-.104.88-.104 1.76-.104 2.64Zm-10.512-2.849h8.44c.466 0 .725-.258.725-.776v-5.904c0-.518-.26-.777-.777-.777h-7.56c-.57 0-.83.26-.83.829v6.628Zm-4.765-1.709H4.47c-.26 0-.415-.155-.415-.31 0-.207.156-.363.415-.363h3.417c.467 0 .88.052 1.243.363.415.31.88.362 1.347.31h1.087v-4.401c0-.466-.052-.932.156-1.347h-1.347c-.31 1.088-.88 1.658-1.76 1.71-.415 0-.777-.052-1.088-.26a1.809 1.809 0 0 1-.88-1.398h-1.14c-1.76 0-3.107 1.347-3.107 3.107v3.21c0 .726.414 1.14 1.14 1.14h3.935v-1.76Zm-5.8 4.092h20.404v-1.658H1.673v1.658Zm2.9-15.536c.31-.052.622-.104.932-.104h.57c1.45 0 2.693-.518 3.677-1.501.259-.26.414-.26.673.051.362.466.673.88 1.036 1.347l.155.155c.259.052.518.104.777.104.155-2.279-1.657-4.247-3.988-4.195-2.226 0-4.039 1.968-3.832 4.143Zm1.398.57c0 .673-.051 1.346 0 1.967.156 1.192 1.243 2.124 2.486 2.124s2.382-.932 2.486-2.124c.052-.725.052-1.398.052-2.123 0-.052 0-.103-.052-.103l-.932-1.243C8.87 6.894 7.525 7.36 5.97 7.36Zm1.347 4.557c-.052.57.052 1.087.57 1.398.414.259.88.207 1.294-.052.466-.31.518-.829.466-1.346-1.087.31-1.553.207-2.33 0Zm2.486 8.026c-.052-.776-.933-1.657-1.658-1.605v1.605h1.658Zm1.708 0v-.983h-1.346c.104.362.207.673.31.983h1.036Zm.208-11.237c.414 0 .673-.31.673-.673a.685.685 0 0 0-.673-.673v1.346Zm-6.474 0V7.361c-.414 0-.673.362-.673.673 0 .362.26.621.673.673Z" fill="currentColor"/>
  <path d="M22.75 22.793c-.104.155-.31.207-.518.207H1.466C1.052 23 1 22.896 1 22.534V20.41c0-.311.104-.467.466-.467h.57c-.052-.051-.052-.103-.104-.155-.103-.259-.207-.57-.207-.829v-3.47a3.69 3.69 0 0 1 3.677-3.676h1.243c.051-.155 0-.259-.104-.362A3.41 3.41 0 0 1 5.35 9.484c-.466 0-.88-.156-1.14-.57-.155-.207-.258-.466-.258-.673 0-.829-.052-1.709.103-2.538.26-1.916 1.968-3.47 3.936-3.676 2.486-.26 4.713 1.398 5.075 3.832.104.621.052 1.243.052 1.864v.57c-.104.673-.622 1.087-1.398 1.19 0 .104-.052.156-.052.26-.207.673-.57 1.294-1.088 1.709-.155.155-.155.155-.155.362h1.036c.31 0 .57.052.88.052h.155a8.466 8.466 0 0 1 1.14-.104h7.043c.932 0 1.501.57 1.501 1.502v5.748c0 .311-.051.622-.103.932.207.052.57-.103.777.208-.104.88-.104 1.76-.104 2.64Zm-10.512-2.849h8.44c.466 0 .725-.258.725-.776v-5.904c0-.518-.26-.777-.777-.777h-7.56c-.57 0-.83.26-.83.829v6.628Zm-4.765-1.709H4.47c-.26 0-.415-.155-.415-.31 0-.207.156-.363.415-.363h3.417c.467 0 .88.052 1.243.363.415.31.88.362 1.347.31h1.087v-4.401c0-.466-.052-.932.156-1.347h-1.347c-.31 1.088-.88 1.658-1.76 1.71-.415 0-.777-.052-1.088-.26a1.809 1.809 0 0 1-.88-1.398h-1.14c-1.76 0-3.107 1.347-3.107 3.107v3.21c0 .726.414 1.14 1.14 1.14h3.935v-1.76Zm-5.8 4.092h20.404v-1.658H1.673v1.658Zm2.9-15.536c.31-.052.622-.104.932-.104h.57c1.45 0 2.693-.518 3.677-1.501.259-.26.414-.26.673.051.362.466.673.88 1.036 1.347l.155.155c.259.052.518.104.777.104.155-2.279-1.657-4.247-3.988-4.195-2.226 0-4.039 1.968-3.832 4.143Zm1.398.57c0 .673-.051 1.346 0 1.967.156 1.192 1.243 2.124 2.486 2.124s2.382-.932 2.486-2.124c.052-.725.052-1.398.052-2.123 0-.052 0-.103-.052-.103l-.932-1.243C8.87 6.894 7.525 7.36 5.97 7.36Zm1.347 4.557c-.052.57.052 1.087.57 1.398.414.259.88.207 1.294-.052.466-.31.518-.829.466-1.346-1.087.31-1.553.207-2.33 0Zm2.486 8.026c-.052-.776-.933-1.657-1.658-1.605v1.605h1.658Zm1.708 0v-.983h-1.346c.104.362.207.673.31.983h1.036Zm.208-11.237c.414 0 .673-.31.673-.673a.685.685 0 0 0-.673-.673v1.346Zm-6.474 0V7.361c-.414 0-.673.362-.673.673 0 .362.26.621.673.673Z" stroke="currentColor" stroke-width=".2"/>
  <path d="M18.504 16.216c0 .932-.777 1.709-1.71 1.709a1.724 1.724 0 0 1-1.708-1.71c0-.931.777-1.708 1.709-1.708a1.69 1.69 0 0 1 1.709 1.709Zm-2.693 0c0 .57.466 1.035 1.036 1.035.57 0 .984-.466.984-1.035 0-.57-.466-1.036-1.036-1.036-.518 0-.984.466-.984 1.036Z" fill="currentColor"/>
</svg>
