<svg viewBox="0 0 24 24" fill="none" xmlns="http://www.w3.org/2000/svg">
    <path d="M6.62771 2.85363C6.81004 2.94282 7.01167 3.00229 7.1747 3.1235C7.7367 3.5466 8.28584 3.98799 8.83282 4.43168C8.96153 4.53459 9.06449 4.51629 9.21035 4.4797C9.70372 4.3562 9.90106 4.04059 9.93324 3.50543C9.96756 2.93139 10.0963 2.36421 10.1864 1.79474C10.2657 1.30074 10.5896 1.00572 11.0594 1.00343C11.9389 0.998856 12.8183 0.998856 13.6957 1.00343C14.1483 1.00572 14.4808 1.30532 14.5537 1.78559C14.6631 2.50829 14.7682 3.23328 14.8583 3.96055C14.8797 4.13436 14.9462 4.22584 15.0964 4.27158C15.1543 4.28988 15.2187 4.3036 15.268 4.34019C15.6176 4.59405 15.9094 4.50715 16.2225 4.22813C16.6322 3.86449 17.0827 3.55117 17.516 3.21727C17.9579 2.87879 18.3676 2.91081 18.7494 3.31561C19.3457 3.94911 19.9399 4.58262 20.5341 5.21841C20.9138 5.6255 20.946 6.07376 20.6285 6.53573C20.2531 7.08005 19.8777 7.62664 19.4938 8.16409C19.3929 8.3036 19.3565 8.4271 19.4487 8.58262C19.4916 8.65809 19.5345 8.74271 19.5495 8.82733C19.6267 9.27787 19.8949 9.42653 20.3003 9.46541C20.8173 9.51572 21.3256 9.63007 21.8383 9.71698C22.3402 9.8016 22.6212 10.1492 22.6234 10.689C22.6255 11.6015 22.6255 12.514 22.6234 13.4265C22.6234 13.9754 22.3274 14.3299 21.8211 14.4077C21.1862 14.5037 20.5513 14.5998 19.9185 14.7141C19.8284 14.7301 19.7276 14.8308 19.6804 14.9222C19.5774 15.1212 19.5173 15.3431 19.423 15.5466C19.3522 15.6975 19.365 15.8119 19.4616 15.9491C19.8305 16.4797 20.1888 17.0172 20.5513 17.5523C20.8687 18.0234 20.8387 18.458 20.459 18.8674C19.867 19.5031 19.2707 20.1366 18.6743 20.7702C18.2904 21.1772 17.8764 21.2115 17.4409 20.8708C16.9368 20.4751 16.4306 20.0818 15.933 19.6747C15.7871 19.5535 15.6627 19.5283 15.4975 19.6244C15.3645 19.7021 15.2208 19.7684 15.0728 19.8027C14.839 19.8599 14.766 20.0154 14.736 20.2487C14.6524 20.8937 14.5515 21.5363 14.4529 22.179C14.3756 22.6867 14.056 22.9886 13.5691 22.9931C12.6982 23.0023 11.8252 23.0023 10.9543 22.9931C10.4481 22.9886 10.1263 22.6684 10.0555 22.1401C9.96327 21.4471 9.86245 20.7541 9.77236 20.0612C9.75091 19.8874 9.65867 19.8188 9.52568 19.725C9.04733 19.3934 8.66336 19.4871 8.25366 19.8828C7.89972 20.2258 7.48144 20.4934 7.08889 20.7907C6.65559 21.1201 6.25232 21.0835 5.87479 20.6832C5.27847 20.0497 4.68429 19.4162 4.0901 18.7827C3.70185 18.3665 3.67396 17.9251 4.00645 17.4494C4.39685 16.8868 4.78296 16.3173 5.18623 15.7639C5.31279 15.5901 5.34067 15.4414 5.23342 15.2584C5.22913 15.2516 5.22698 15.2424 5.22484 15.2356C5.14762 14.7278 4.828 14.5906 4.39041 14.5449C3.83699 14.4877 3.28785 14.3665 2.73872 14.2659C2.29684 14.1858 2.01798 13.8771 2.01155 13.4014C1.99653 12.4248 1.99653 11.446 2.0094 10.4671C2.01584 10.0029 2.30542 9.68039 2.74301 9.6072C3.44444 9.48828 4.14588 9.3785 4.84945 9.2733C5.00175 9.25043 5.07254 9.17038 5.15405 9.03088C5.42004 8.57576 5.33853 8.21441 5.01677 7.81875C4.66712 7.39108 4.38183 6.90166 4.0708 6.43968C3.75762 5.97313 3.78551 5.55003 4.16089 5.14523C4.76365 4.498 5.3707 3.85535 5.97561 3.20812C6.1515 3.01601 6.35314 2.90166 6.62771 2.85363ZM21.9155 12.0772C21.9155 11.6449 21.9048 11.2127 21.9198 10.7804C21.9284 10.5495 21.8362 10.4694 21.6345 10.4397C21.0296 10.3482 20.429 10.2338 19.8241 10.1378C19.4122 10.0738 19.1441 9.84277 19.0068 9.42196C18.9425 9.22298 18.8631 9.02859 18.7794 8.83648C18.6121 8.45226 18.6465 8.10234 18.891 7.76158C19.2792 7.21727 19.6546 6.66152 20.0429 6.11492C20.1523 5.96169 20.1459 5.85649 20.015 5.72155C19.4315 5.11092 18.8524 4.49342 18.2797 3.87135C18.1509 3.73185 18.0566 3.72499 17.9107 3.84162C17.3766 4.26472 16.8339 4.67181 16.2955 5.08805C15.9973 5.31904 15.6841 5.35563 15.3452 5.19325C15.1436 5.09491 14.9377 5.01029 14.7317 4.92338C14.4143 4.78616 14.2298 4.53917 14.1783 4.17782C14.0775 3.45283 13.9681 2.73013 13.8759 2.00286C13.8523 1.81761 13.7793 1.75357 13.6099 1.75586C12.784 1.76043 11.9582 1.76043 11.1323 1.75586C10.9607 1.75357 10.8921 1.8199 10.8663 2.00515C10.7612 2.74614 10.6411 3.48485 10.5274 4.22356C10.4716 4.58719 10.2786 4.82733 9.96327 4.96226C9.80024 5.03316 9.63293 5.09262 9.47634 5.17496C9.10096 5.37621 8.75989 5.3259 8.42955 5.05374C7.89543 4.61921 7.3463 4.20297 6.81218 3.76615C6.64701 3.63122 6.54619 3.65409 6.40891 3.80503C5.85978 4.40652 5.30421 5.00114 4.73791 5.58662C4.57274 5.75586 4.55344 5.87936 4.69501 6.07833C5.10043 6.65009 5.48225 7.24014 5.88123 7.81875C6.10646 8.1458 6.14507 8.48428 5.98633 8.85249C5.9134 9.02173 5.84691 9.19554 5.78255 9.36935C5.64313 9.74671 5.38786 9.94797 5.01033 10.0051C4.31534 10.1081 3.62034 10.2293 2.92534 10.3322C2.76231 10.3573 2.70654 10.4305 2.70654 10.6021C2.71083 11.4894 2.71298 12.3791 2.70654 13.2664C2.7044 13.4403 2.7666 13.5089 2.92748 13.534C3.62892 13.6484 4.33035 13.7764 5.02964 13.8999C5.3707 13.9594 5.59379 14.1675 5.71606 14.506C5.78255 14.689 5.84476 14.8719 5.91984 15.0503C6.08286 15.4368 6.04425 15.7867 5.80186 16.1252C5.39001 16.7015 4.99317 17.2916 4.58132 17.8702C4.47192 18.0234 4.47621 18.1286 4.60706 18.2659C5.18623 18.8719 5.75896 19.4803 6.32525 20.1001C6.46683 20.2556 6.57408 20.2579 6.73281 20.1298C7.25406 19.7158 7.78604 19.3202 8.30943 18.9085C8.63119 18.6547 8.96153 18.6249 9.31975 18.8079C9.49136 18.8971 9.66725 18.9794 9.84529 19.0503C10.2014 19.1944 10.3987 19.4666 10.4523 19.8645C10.5467 20.5575 10.6475 21.2504 10.7333 21.9434C10.7591 22.1492 10.8256 22.2384 11.0358 22.2338C11.838 22.2224 12.6403 22.2201 13.4447 22.2338C13.6635 22.2384 13.7343 22.1469 13.7643 21.932C13.8608 21.239 13.9702 20.5483 14.0796 19.8576C14.1333 19.526 14.3156 19.2996 14.6073 19.1761C14.8261 19.0823 15.0513 19 15.2658 18.8948C15.6369 18.7141 15.9694 18.753 16.2955 19.0183C16.7931 19.4254 17.3058 19.8096 17.8013 20.2167C17.9643 20.3516 18.0694 20.331 18.2089 20.1801C18.7644 19.574 19.3243 18.9726 19.897 18.3825C20.0622 18.2133 20.0536 18.0943 19.9249 17.9091C19.5517 17.3831 19.1977 16.8411 18.8331 16.3059C18.6143 15.9857 18.5843 15.6541 18.7387 15.295C18.8438 15.0503 18.9382 14.8033 19.0326 14.554C19.1634 14.2041 19.408 14.012 19.7533 13.9571C20.3882 13.8588 21.021 13.7536 21.6581 13.6621C21.849 13.6346 21.9177 13.5432 21.9112 13.3419C21.9091 12.9234 21.9155 12.5003 21.9155 12.0772Z" fill="currentColor"/>
    <path d="M12.3012 17.5C8.88426 17.496 6.1205 15.0338 6.12501 11.997C6.12951 8.96225 8.91129 6.49401 12.317 6.50001C15.725 6.50802 18.5067 8.98627 18.5 12.011C18.4955 15.0418 15.716 17.502 12.3012 17.5ZM10.6524 16.5892C10.6524 15.8365 10.6569 15.1018 10.6457 14.3672C10.6434 14.2971 10.5556 14.209 10.4813 14.163C8.58919 13.0059 8.61622 10.5137 10.5376 9.39864C10.6885 9.31056 10.8371 9.25451 11.0083 9.33458C11.184 9.41466 11.2043 9.56079 11.2043 9.71893C11.202 10.2254 11.1998 10.7319 11.2065 11.2383C11.2065 11.3024 11.2268 11.4045 11.2719 11.4225C11.8034 11.6327 12.3125 12.041 12.9387 11.6026C13.0243 11.5426 13.1391 11.5106 13.245 11.4785C13.3824 11.4385 13.4162 11.3604 13.4139 11.2383C13.4072 10.7459 13.4139 10.2534 13.4094 9.76097C13.4072 9.58882 13.4207 9.42667 13.6122 9.33458C13.8059 9.2405 13.9658 9.32658 14.1235 9.42066C15.984 10.5317 16.0155 12.9899 14.173 14.1349C14.0221 14.229 13.9681 14.3211 13.9703 14.4813C13.9793 15.1098 13.9748 15.7364 13.9748 16.365C13.9748 16.439 13.9748 16.5111 13.9748 16.5952C16.0516 16.0587 18.1509 14.0228 17.6891 11.2643C17.2837 8.84614 14.86 7.06052 12.0625 7.17062C9.42035 7.27471 7.035 9.13841 6.87733 11.7488C6.71515 14.3431 8.80092 16.1408 10.6524 16.5892ZM13.2202 16.7994C13.2202 15.9166 13.2292 15.0898 13.2157 14.2651C13.2112 13.9908 13.3081 13.8247 13.5829 13.6805C14.8217 13.0379 15.1709 11.5826 14.3532 10.5377C14.3082 10.4796 14.2519 10.4276 14.1573 10.3255C14.1573 10.7739 14.1528 11.1502 14.1595 11.5286C14.164 11.7408 14.0672 11.8749 13.8464 11.961C13.4207 12.1251 12.9995 12.2993 12.5805 12.4774C12.3913 12.5575 12.2201 12.5535 12.0309 12.4714C11.6345 12.2993 11.2358 12.1331 10.8281 11.985C10.5601 11.8869 10.4452 11.7388 10.461 11.4785C10.4813 11.1142 10.4655 10.7479 10.4655 10.3175C10.3686 10.4256 10.3168 10.4776 10.2718 10.5337C9.43161 11.5906 9.80101 13.064 11.0827 13.7146C11.3079 13.8287 11.3957 13.9688 11.3912 14.193C11.38 14.7995 11.3867 15.4041 11.3867 16.0106C11.3867 16.2589 11.3867 16.5071 11.3867 16.8014C12.0039 16.7994 12.5986 16.7994 13.2202 16.7994Z" fill="currentColor"/>
</svg>