<svg viewBox="0 0 24 24" fill="none" xmlns="http://www.w3.org/2000/svg">
    <path d="m11.362 22.222-1.143-.158a2.736 2.736 0 0 1-.196-.038c-.258-.057-.388-.235-.346-.471.04-.228.239-.338.497-.313.661.065 1.323.173 1.982.17 3.715-.017 7.209-2.392 8.56-5.856 1.273-3.262.852-6.336-1.163-9.196-.035-.048-.073-.095-.088-.115-.298.055-.574.142-.852.147-.747.016-1.409-.506-1.604-1.228a1.675 1.675 0 0 1 .739-1.868 1.67 1.67 0 0 1 2.015.196c.547.501.702 1.311.359 1.973-.08.155-.06.246.04.38a10.12 10.12 0 0 1 2.027 5.374c.005.057.023.115.033.173v1.238a1.789 1.789 0 0 0-.033.155c-.07.474-.112.953-.21 1.42-.817 3.968-4.208 7.212-8.196 7.859-.379.063-.762.105-1.143.158h-1.278Zm7.26-16.617a.877.877 0 1 0 .01-1.754.877.877 0 0 0-.01 1.754Z" fill="currentColor"/>
    <path d="M17.505 8.789c.203.524.378.98.564 1.434a.227.227 0 0 0 .163.118c.198.015.398.002.599.007.283.005.434.153.436.431.003.805.003 1.612 0 2.417 0 .288-.153.436-.449.441-.2.003-.398-.007-.599.005-.052.003-.128.06-.15.11-.188.462-.366.926-.566 1.437.127.123.3.278.463.441.23.231.23.442-.002.675-.554.556-1.108 1.113-1.667 1.667-.22.22-.434.218-.66-.008-.162-.165-.318-.338-.438-.468-.516.203-.98.378-1.439.569a.235.235 0 0 0-.115.165c-.015.206-.002.414-.007.62-.008.255-.158.413-.412.416-.817.005-1.636.005-2.456 0-.265-.003-.413-.158-.418-.43a11.97 11.97 0 0 1 0-.598c.002-.1-.028-.146-.13-.183-.46-.17-.915-.354-1.424-.554-.12.127-.276.298-.441.463-.234.234-.444.234-.675.003-.556-.554-1.11-1.11-1.664-1.667-.223-.223-.22-.434 0-.66.153-.158.308-.31.464-.468.01-.01.012-.023-.003.005-.193-.5-.37-.968-.561-1.434-.02-.048-.103-.096-.158-.098-.198-.013-.399-.003-.6-.005-.28-.005-.433-.156-.435-.434a324.55 324.55 0 0 1 0-2.417c0-.283.15-.43.428-.438.2-.005.401.007.6-.008.06-.005.145-.06.167-.113.188-.458.366-.922.57-1.444-.129-.12-.304-.273-.467-.436-.223-.223-.223-.436-.002-.66.554-.556 1.107-1.112 1.666-1.666.233-.231.439-.229.675.002.132.13.258.27.398.391.045.038.14.053.196.03.426-.168.85-.343 1.268-.526.055-.025.118-.103.12-.16.015-.206.003-.412.008-.62.007-.258.155-.414.41-.414a201.23 201.23 0 0 1 2.457 0c.266.003.414.158.419.43.005.2-.005.398.005.598.002.058.047.143.095.16.466.189.937.367 1.461.57.12-.128.276-.304.439-.466.223-.224.433-.221.659.002.556.554 1.113 1.108 1.667 1.665.228.228.225.44-.008.674-.153.16-.323.308-.451.429Zm-1.582 8.353 1.231-1.22c-.13-.124-.278-.257-.419-.397-.192-.193-.212-.356-.067-.589a5.84 5.84 0 0 0 .714-1.722c.068-.279.19-.371.481-.374.198-.002.394 0 .594 0v-1.692c-.208 0-.406.002-.604 0-.278-.005-.403-.103-.468-.366a5.766 5.766 0 0 0-.725-1.74c-.137-.22-.117-.391.068-.574.145-.146.303-.276.439-.401-.429-.426-.823-.818-1.241-1.236-.12.13-.246.276-.381.41-.21.212-.371.232-.622.074a5.62 5.62 0 0 0-1.684-.702c-.3-.073-.394-.19-.394-.507-.002-.19 0-.378 0-.569h-1.691v.567c-.003.313-.093.436-.394.509a5.672 5.672 0 0 0-1.702.71c-.233.145-.4.127-.589-.069-.14-.145-.268-.305-.396-.45-.438.44-.827.829-1.248 1.255.138.126.29.253.431.391.203.2.22.366.073.607a5.683 5.683 0 0 0-.707 1.705c-.07.29-.193.383-.494.386-.19.002-.383 0-.581 0v1.692h.591c.291.003.414.095.482.374.147.611.383 1.188.714 1.722.145.233.125.399-.068.59-.145.142-.306.27-.43.383.433.436.826.827 1.237 1.238.128-.135.266-.288.411-.433.178-.176.346-.199.56-.066.54.336 1.117.58 1.739.725.278.065.37.195.376.481.002.198 0 .396 0 .6h1.692c0-.206-.003-.404 0-.602.002-.289.097-.412.378-.48a5.735 5.735 0 0 0 1.722-.716c.23-.146.393-.123.589.07.138.145.27.293.383.416Z" fill="currentColor"/>
    <path d="M4.577 17.78c.967-.462 1.832-.016 2.208.576a1.677 1.677 0 0 1-2.429 2.239 1.674 1.674 0 0 1-.408-2.224c-.354-.582-.732-1.133-1.038-1.72-2.18-4.187-1.135-9.414 2.48-12.45 2.033-1.71 4.384-2.51 7.033-2.416.516.017 1.03.11 1.544.183.276.04.424.235.386.46-.04.242-.253.37-.529.317-1.837-.346-3.634-.203-5.361.524-2.777 1.17-4.652 3.204-5.494 6.097-.865 2.97-.321 5.736 1.474 8.255.03.043.062.086.097.128.008.008.018.015.038.03Zm.807.609a.881.881 0 0 0-.887.864.884.884 0 0 0 .88.893.881.881 0 0 0 .874-.877.874.874 0 0 0-.867-.88Zm10.69-15.514a.403.403 0 0 1-.399.406.412.412 0 0 1-.396-.394.396.396 0 0 1 .401-.4.393.393 0 0 1 .394.388ZM8.735 21.12a.387.387 0 0 1-.391.392.398.398 0 0 1-.401-.386.406.406 0 0 1 .406-.406.396.396 0 0 1 .386.4Z" fill="currentColor"/>
    <path d="M15.302 11.999a3.314 3.314 0 0 1-3.304 3.299A3.314 3.314 0 0 1 8.7 11.994a3.312 3.312 0 0 1 3.303-3.3A3.314 3.314 0 0 1 15.302 12Zm-3.299-2.505a2.514 2.514 0 0 0-2.504 2.5A2.517 2.517 0 0 0 12 14.5a2.518 2.518 0 0 0 2.506-2.502 2.52 2.52 0 0 0-2.502-2.505Z" fill="currentColor"/>
</svg>
