<svg viewBox="0 0 24 24" fill="none" xmlns="http://www.w3.org/2000/svg">
    <path d="M9.972 3.26c.643-.547.964-.821 1.3-.982a2.849 2.849 0 0 1 2.456 0c.336.161.658.435 1.3.982.256.218.384.327.52.419.313.21.665.355 1.034.428.162.032.329.045.664.072.841.067 1.262.1 1.613.225.812.286 1.45.925 1.737 1.737.124.35.158.772.225 1.613.027.335.04.502.072.664.073.37.219.72.428 1.034.092.136.2.264.419.52.547.643.821.964.982 1.3.37.777.37 1.68 0 2.456-.161.336-.435.658-.982 1.3a6.039 6.039 0 0 0-.419.52 2.85 2.85 0 0 0-.428 1.034c-.032.162-.045.329-.072.664-.067.841-.1 1.262-.225 1.613a2.848 2.848 0 0 1-1.737 1.737c-.35.124-.772.158-1.613.225-.335.027-.502.04-.664.072a2.85 2.85 0 0 0-1.034.428c-.136.092-.264.2-.52.419-.643.547-.964.821-1.3.982a2.849 2.849 0 0 1-2.456 0c-.336-.161-.658-.435-1.3-.982a6.03 6.03 0 0 0-.52-.419 2.85 2.85 0 0 0-1.034-.428c-.162-.032-.329-.045-.664-.072-.841-.067-1.262-.1-1.613-.225a2.848 2.848 0 0 1-1.737-1.737c-.124-.35-.158-.772-.225-1.613-.027-.335-.04-.502-.072-.664a2.848 2.848 0 0 0-.428-1.034 6.02 6.02 0 0 0-.419-.52c-.547-.643-.821-.964-.982-1.3a2.849 2.849 0 0 1 0-2.456c.161-.336.435-.658.982-1.3.218-.256.327-.384.419-.52.21-.313.355-.665.428-1.034.032-.162.045-.329.072-.664.067-.841.1-1.262.225-1.613A2.849 2.849 0 0 1 6.14 4.404c.35-.124.772-.158 1.613-.225.335-.027.502-.04.664-.072.37-.073.72-.219 1.034-.428.136-.092.264-.2.52-.419Z" stroke="currentColor" stroke-width="1.2"/>
    <path d="m9.082 15.918 6.836-6.836" stroke="currentColor" stroke-width="1.2" stroke-linecap="round"/>
    <path d="M16.488 15.349a1.14 1.14 0 1 1-2.278 0 1.14 1.14 0 0 1 2.278 0Zm-5.697-5.697a1.14 1.14 0 1 1-2.279 0 1.14 1.14 0 0 1 2.279 0Z" fill="currentColor"/>
</svg>
