<svg width="38" height="38" viewBox="0 0 38 38" fill="none" xmlns="http://www.w3.org/2000/svg">
    <path d="M25.932 1.584c.57.27.624.36.543 1.153-.154 1.53-.308 3.062-.48 4.584-.044.414-.352.657-.74.612-.37-.036-.633-.37-.588-.766.065-.637.133-1.275.201-1.912.102-.957.204-1.913.296-2.87.036-.432.235-.684.633-.801h.135Z" fill="currentColor"/>
    <path d="M25.932 1.584c.57.27.624.36.543 1.153-.154 1.53-.308 3.062-.48 4.584-.044.414-.352.657-.74.612-.37-.036-.633-.37-.588-.766.065-.637.133-1.275.201-1.912.102-.957.204-1.913.296-2.87.036-.432.235-.684.633-.801h.135Z" stroke="currentColor" stroke-width=".156"/>
    <path d="m15.15 25.459.774 1.138a546.444 546.444 0 0 0 1.824 2.673c.57.829 1.138 1.655 1.686 2.502 1.012 1.54.361 3.458-1.356 4.088-1.184.432-2.494-.027-3.271-1.153a4312.319 4312.319 0 0 0-4.656-6.836c-.038-.054-.074-.104-.098-.143-.186.064-.367.135-.547.205-.35.138-.694.273-1.053.344-2.657.514-4.672-1.296-5.17-3.43-.415-1.775.3-3.486 1.817-4.521.365-.25.73-.495 1.096-.74.532-.356 1.064-.711 1.589-1.08.198-.144.388-.35.497-.567 1.708-3.431 3.407-6.871 5.106-10.311.524-1.063 1.59-1.612 2.774-1.495 1.455.153 2.703.792 3.814 1.657 3.733 2.908 6.245 6.637 7.411 11.23.29 1.152.38 2.332.027 3.494-.325 1.08-.976 1.882-2.142 2.09-.405.071-.818.095-1.234.12-.206.011-.412.023-.619.041l-5.585.46c-.402.031-.806.06-1.21.09-.405.029-.81.058-1.212.09a1.466 1.466 0 0 0-.19.037l-.072.017Zm-.967-15.553a.771.771 0 0 0-.016.006c-.019.006-.035.012-.056.012.048.241.09.485.132.728.102.585.204 1.171.383 1.73 1.103 3.549 3.127 6.52 5.902 8.98.894.792 1.888 1.467 3.054 1.818.325.1.696.19 1.021.135.796-.117 1.257-.675 1.464-1.414.29-1.035.19-2.08-.108-3.088-1.193-4.044-3.497-7.349-6.814-9.943-.796-.621-1.672-1.098-2.675-1.314-1.13-.253-1.97.297-2.178 1.422-.043.2-.061.409-.08.62a8.204 8.204 0 0 1-.029.308Zm7.04 13.697c-4.22-3.08-6.968-7.096-8.25-12.112-.028.036-.046.063-.064.09-1.139 2.306-2.269 4.61-3.398 6.916a.463.463 0 0 0 .036.379c.578.86 1.163 1.72 1.749 2.58.585.86 1.17 1.72 1.748 2.58.109.17.226.198.416.189 1.307-.11 2.61-.211 3.914-.312.626-.05 1.252-.098 1.88-.147l.389-.033 1.58-.13Zm-12.77-3.926a41.1 41.1 0 0 0-.668.45c-.21.142-.42.282-.632.42-.54.356-1.083.713-1.583 1.12-1.238 1-1.373 2.747-.38 4.107.95 1.297 2.64 1.666 3.977.828a50.924 50.924 0 0 0 1.92-1.285c.245-.17.49-.339.737-.507a.131.131 0 0 0 .038-.049.341.341 0 0 1 .026-.04l-1.453-2.132c-.66-.967-1.32-1.936-1.982-2.912Zm2.684 7.232c.082.135.145.234.217.333.33.486.662.972.995 1.459.332.486.664.972.994 1.459.433.634.865 1.27 1.296 1.904l1.297 1.905c.37.54.922.792 1.465.675 1.048-.225 1.482-1.314.858-2.224-.946-1.4-1.896-2.793-2.847-4.187l-1.645-2.414c-.198-.288-.506-.37-.795-.18-.596.423-1.202.837-1.835 1.27Z" fill="currentColor"/>
    <path d="m15.15 25.459.774 1.138a546.444 546.444 0 0 0 1.824 2.673c.57.829 1.138 1.655 1.686 2.502 1.012 1.54.361 3.458-1.356 4.088-1.184.432-2.494-.027-3.271-1.153a4312.319 4312.319 0 0 0-4.656-6.836c-.038-.054-.074-.104-.098-.143-.186.064-.367.135-.547.205-.35.138-.694.273-1.053.344-2.657.514-4.672-1.296-5.17-3.43-.415-1.775.3-3.486 1.817-4.521.365-.25.73-.495 1.096-.74.532-.356 1.064-.711 1.589-1.08.198-.144.388-.35.497-.567 1.708-3.431 3.407-6.871 5.106-10.311.524-1.063 1.59-1.612 2.774-1.495 1.455.153 2.703.792 3.814 1.657 3.733 2.908 6.245 6.637 7.411 11.23.29 1.152.38 2.332.027 3.494-.325 1.08-.976 1.882-2.142 2.09-.405.071-.818.095-1.234.12-.206.011-.412.023-.619.041l-5.585.46c-.402.031-.806.06-1.21.09-.405.029-.81.058-1.212.09a1.466 1.466 0 0 0-.19.037l-.072.017Zm-.967-15.553a.771.771 0 0 0-.016.006c-.019.006-.035.012-.056.012.048.241.09.485.132.728.102.585.204 1.171.383 1.73 1.103 3.549 3.127 6.52 5.902 8.98.894.792 1.888 1.467 3.054 1.818.325.1.696.19 1.021.135.796-.117 1.257-.675 1.464-1.414.29-1.035.19-2.08-.108-3.088-1.193-4.044-3.497-7.349-6.814-9.943-.796-.621-1.672-1.098-2.675-1.314-1.13-.253-1.97.297-2.178 1.422-.043.2-.061.409-.08.62a8.204 8.204 0 0 1-.029.308Zm7.04 13.697c-4.22-3.08-6.968-7.096-8.25-12.112-.028.036-.046.063-.064.09-1.139 2.306-2.269 4.61-3.398 6.916a.463.463 0 0 0 .036.379c.578.86 1.163 1.72 1.749 2.58.585.86 1.17 1.72 1.748 2.58.109.17.226.198.416.189 1.307-.11 2.61-.211 3.914-.312.626-.05 1.252-.098 1.88-.147l.389-.033 1.58-.13Zm-12.77-3.926a41.1 41.1 0 0 0-.668.45c-.21.142-.42.282-.632.42-.54.356-1.083.713-1.583 1.12-1.238 1-1.373 2.747-.38 4.107.95 1.297 2.64 1.666 3.977.828a50.924 50.924 0 0 0 1.92-1.285c.245-.17.49-.339.737-.507a.131.131 0 0 0 .038-.049.341.341 0 0 1 .026-.04l-1.453-2.132c-.66-.967-1.32-1.936-1.982-2.912Zm2.684 7.232c.082.135.145.234.217.333.33.486.662.972.995 1.459.332.486.664.972.994 1.459.433.634.865 1.27 1.296 1.904l1.297 1.905c.37.54.922.792 1.465.675 1.048-.225 1.482-1.314.858-2.224-.946-1.4-1.896-2.793-2.847-4.187l-1.645-2.414c-.198-.288-.506-.37-.795-.18-.596.423-1.202.837-1.835 1.27Z" stroke="currentColor" stroke-width=".156"/>
    <path d="M34.103 7.303c-.002.274-.263.45-.425.559a398.462 398.462 0 0 1-4.564 2.999c-.353.234-.768.144-.985-.172-.217-.315-.127-.72.244-.954 1.509-1 3.018-1.99 4.546-2.963.18-.117.515-.126.714-.045.19.072.471.269.47.576Z" fill="currentColor"/>
    <path d="M34.103 7.303c-.002.274-.263.45-.425.559a398.462 398.462 0 0 1-4.564 2.999c-.353.234-.768.144-.985-.172-.217-.315-.127-.72.244-.954 1.509-1 3.018-1.99 4.546-2.963.18-.117.515-.126.714-.045.19.072.471.269.47.576Z" stroke="currentColor" stroke-width=".156"/>
    <path d="M29.936 14.058a609.654 609.654 0 0 1 2.852.51c.804.148 1.602.295 2.407.435.452.081.724.379.67.766-.064.396-.444.648-.887.567l-1.509-.27-1.509-.27c-.623-.115-1.246-.224-1.864-.331l-.323-.056c-.434-.082-.696-.388-.65-.766.035-.378.334-.603.813-.585Z" fill="currentColor"/>
    <path d="M29.936 14.058a609.654 609.654 0 0 1 2.852.51c.804.148 1.602.295 2.407.435.452.081.724.379.67.766-.064.396-.444.648-.887.567l-1.509-.27-1.509-.27c-.623-.115-1.246-.224-1.864-.331l-.323-.056c-.434-.082-.696-.388-.65-.766.035-.378.334-.603.813-.585Z" stroke="currentColor" stroke-width=".156"/>
    <path d="M19 12.633c1.636 0 3.001.99 3.489 2.522a3.598 3.598 0 0 1-1.32 3.998c-.298.216-.623.234-.876.045s-.343-.46-.226-.747c.063-.162.217-.306.361-.424.723-.603 1.013-1.377.823-2.278-.199-.918-.805-1.513-1.735-1.72-.597-.135-1.148-.009-1.69.28-.208.107-.515.161-.723.09-.172-.064-.37-.334-.38-.523-.009-.207.127-.495.298-.612.57-.442 1.247-.64 1.98-.63Z" fill="currentColor"/>
    <path d="M19 12.633c1.636 0 3.001.99 3.489 2.522a3.598 3.598 0 0 1-1.32 3.998c-.298.216-.623.234-.876.045s-.343-.46-.226-.747c.063-.162.217-.306.361-.424.723-.603 1.013-1.377.823-2.278-.199-.918-.805-1.513-1.735-1.72-.597-.135-1.148-.009-1.69.28-.208.107-.515.161-.723.09-.172-.064-.37-.334-.38-.523-.009-.207.127-.495.298-.612.57-.442 1.247-.64 1.98-.63Z" stroke="currentColor" stroke-width=".156"/>
</svg>
