<svg viewBox="0 0 24 24" fill="none" xmlns="http://www.w3.org/2000/svg">
    <path fill="currentColor" d="M16.7861 5.45047C14.9895 5.45047 13.1929 5.45047 11.4029 5.45047C10.8905 5.45047 10.5273 5.04744 10.5792 4.54193C10.6116 4.17305 10.9034 3.85882 11.2602 3.81784C11.3185 3.811 11.3704 3.811 11.4288 3.811C15.0025 3.811 18.5762 3.811 22.1499 3.811C22.6947 3.811 23.0644 4.22087 22.9996 4.74004C22.9477 5.15674 22.6169 5.44364 22.1758 5.44364C20.3728 5.45047 18.5827 5.45047 16.7861 5.45047Z" />
    <path fill="currentColor" d="M16.7862 11.175C18.5828 11.175 20.3793 11.175 22.1694 11.175C22.7661 11.175 23.1488 11.7214 22.9477 12.2816C22.831 12.6095 22.5521 12.8076 22.1954 12.8144C21.5792 12.8213 20.9696 12.8144 20.3534 12.8144C17.3764 12.8144 14.3994 12.8144 11.4289 12.8144C10.8646 12.8144 10.4819 12.3636 10.5922 11.8307C10.67 11.4345 10.9878 11.1818 11.4094 11.175C13.193 11.175 14.9896 11.175 16.7862 11.175Z" />
    <path fill="currentColor" d="M16.7797 18.5389C18.5698 18.5389 20.3534 18.5389 22.1435 18.5389C22.4418 18.5389 22.6818 18.6345 22.8569 18.8873C23.1942 19.3791 22.8958 20.0964 22.3186 20.1715C22.2732 20.1784 22.2213 20.1784 22.1759 20.1784C18.5828 20.1784 14.9961 20.1784 11.4029 20.1784C10.8841 20.1784 10.5273 19.7822 10.5727 19.2767C10.6117 18.8531 10.9489 18.5457 11.3964 18.5457C13.193 18.5389 14.9896 18.5389 16.7797 18.5389Z" />
    <path fill="currentColor" d="M3.10751 5.88766C3.19832 5.82618 3.27615 5.77153 3.34749 5.72372C4.56034 4.86983 5.7732 4.0091 6.99254 3.16205C7.48546 2.81366 8.08216 3.05275 8.21836 3.63339C8.29619 3.98178 8.15999 4.30284 7.82273 4.54193C6.44773 5.50512 5.07273 6.47514 3.69124 7.44516C3.53558 7.55446 3.38641 7.66375 3.22426 7.76622C2.80916 8.03263 2.3357 7.90284 2.10869 7.44516C1.75846 6.72789 1.41471 6.01062 1.08393 5.27969C0.889354 4.85616 1.04501 4.39165 1.42768 4.19354C1.81034 3.98861 2.25138 4.1389 2.46542 4.54876C2.68593 4.98595 2.887 5.42998 3.10751 5.88766Z" />
    <path fill="currentColor" d="M3.12067 12.425C3.21147 12.3636 3.28281 12.3157 3.35416 12.2679C4.56052 11.4277 5.76041 10.5806 6.96677 9.73358C7.20026 9.56964 7.44024 9.48083 7.71913 9.57647C8.2834 9.76774 8.44555 10.5328 8.00451 10.9564C7.94614 11.011 7.87479 11.0588 7.80994 11.1066C6.33116 12.145 4.85239 13.1833 3.37361 14.2216C2.81583 14.611 2.36831 14.488 2.06996 13.8596C1.75864 13.2038 1.44732 12.5548 1.136 11.899C0.915477 11.4277 1.04519 10.9564 1.44732 10.7378C1.85593 10.5192 2.29696 10.6968 2.53045 11.1749C2.71854 11.5916 2.91312 12.0015 3.12067 12.425Z" />
    <path fill="currentColor" d="M3.12043 18.9761C3.21123 18.9146 3.28258 18.8668 3.36041 18.8121C4.56677 17.9651 5.76666 17.1248 6.96654 16.2778C7.1676 16.1343 7.38163 16.0455 7.62809 16.1002C7.93941 16.1685 8.15345 16.3734 8.23128 16.6945C8.30911 17.0156 8.23128 17.3025 7.98482 17.5211C7.92644 17.5757 7.8551 17.6235 7.79024 17.6713C6.31795 18.7028 4.85215 19.7275 3.38635 20.759C2.80262 21.1689 2.36807 21.0459 2.05026 20.3833C1.73246 19.7138 1.40817 19.0444 1.10333 18.3749C0.941185 18.0197 1.01901 17.644 1.28493 17.3981C1.53788 17.1658 1.92703 17.118 2.20593 17.3298C2.32916 17.4254 2.43942 17.5689 2.51076 17.7123C2.72479 18.1154 2.91288 18.5389 3.12043 18.9761Z" />
</svg>