<svg viewBox="0 0 24 24" fill="none" xmlns="http://www.w3.org/2000/svg">
    <path d="M3 5.37499C3 4.06332 4.06332 3 5.37499 3H8.22499C9.53666 3 10.6 4.06332 10.6 5.37499V8.22499C10.6 9.53666 9.53666 10.6 8.22499 10.6H5.37499C4.06332 10.6 3 9.53666 3 8.22499V5.37499Z" stroke="currentColor" stroke-width="1.2"/>
    <path d="M3 15.9748C3 14.6632 4.06332 13.5999 5.37499 13.5999H8.22499C9.53666 13.5999 10.6 14.6632 10.6 15.9748V18.8248C10.6 20.1365 9.53666 21.1998 8.22499 21.1998H5.37499C4.06332 21.1998 3 20.1365 3 18.8248V15.9748Z" stroke="currentColor" stroke-width="1.2"/>
    <path d="M13.5999 5.37499C13.5999 4.06332 14.6632 3 15.9748 3H18.8248C20.1365 3 21.1998 4.06332 21.1998 5.37499V8.22499C21.1998 9.53666 20.1365 10.6 18.8248 10.6H15.9748C14.6632 10.6 13.5999 9.53666 13.5999 8.22499V5.37499Z" stroke="currentColor" stroke-width="1.2"/>
    <path d="M13.5999 15.9748C13.5999 14.6632 14.6632 13.5999 15.9748 13.5999H18.8248C20.1365 13.5999 21.1998 14.6632 21.1998 15.9748V18.8248C21.1998 20.1365 20.1365 21.1998 18.8248 21.1998H15.9748C14.6632 21.1998 13.5999 20.1365 13.5999 18.8248V15.9748Z" stroke="currentColor" stroke-width="1.2"/>
</svg>