<svg width="38" height="38" viewBox="0 0 38 38" fill="none" xmlns="http://www.w3.org/2000/svg">
  <path d="M5.043 36.417c-.622-.247-.87-.715-.818-1.363.008-.102-.009-.205 0-.307.051-.596 0-1.116-.512-1.576-.434-.392-.58-.997-.58-1.593a806.505 806.505 0 0 1 0-6.425c0-.622.214-1.176.58-1.67.478-.665.947-1.33 1.424-1.994.06-.085.12-.18.213-.332h-.418c-.733 0-1.474.008-2.207 0-.503-.009-.674-.18-.682-.674V18.61c0-.477.179-.656.665-.656.818-.009 1.636 0 2.446 0 .358 0 .57.153.656.51.094.41.205.81.333 1.305.375-1.074.724-2.045 1.073-3.025.452-1.295.912-2.582 1.364-3.877.477-1.347 1.398-2.003 2.821-2.003h15.035c1.423 0 2.352.665 2.82 2.003.768 2.164 1.526 4.328 2.293 6.501.035.102.077.205.145.384.12-.47.222-.861.324-1.253.12-.435.247-.537.69-.537.793-.008 1.586-.008 2.379 0 .528 0 .698.17.698.69v1.84c0 .495-.179.674-.681.683-.733.008-1.475 0-2.208 0h-.435c.188.264.324.468.47.664l1.2 1.687a2.97 2.97 0 0 1 .563 1.781 735.964 735.964 0 0 0 0 6.127c0 .869-.298 1.585-.937 2.172a.52.52 0 0 0-.145.35 9.82 9.82 0 0 0 0 1.125c.043.656-.196 1.116-.818 1.363h-3.742c-.613-.222-.878-.673-.835-1.32.017-.282 0-.563 0-.836H9.594c0 .298-.017.571 0 .835.051.648-.213 1.09-.826 1.32-1.228-.025-2.472-.025-3.725-.025Zm25.688-16.3c-.042-.162-.068-.264-.11-.366-.776-2.19-1.543-4.38-2.319-6.562-.34-.954-.87-1.329-1.892-1.329H11.444c-1.032 0-1.56.375-1.9 1.355-.725 2.037-1.441 4.073-2.166 6.118-.085.239-.162.486-.264.784h18.001c.145 0 .298 0 .443.025.264.035.409.213.417.46.009.265-.119.46-.4.512a2.925 2.925 0 0 1-.477.034c-5.992 0-11.975.009-17.967-.008-.375 0-.596.119-.801.417-.563.844-1.168 1.67-1.764 2.488-.281.383-.41.792-.41 1.27.01 1.79 0 3.587 0 5.376v.324h9.342v-.417c.017-1.261-.009-2.514.06-3.775.06-1.176 1.159-2.275 2.343-2.3 2.02-.043 4.04-.052 6.052 0 1.184.025 2.284 1.124 2.343 2.308.06 1.253.043 2.514.052 3.775v.41h9.315c.009-.069.017-.112.017-.154 0-1.909.017-3.81-.017-5.718-.008-.34-.153-.715-.34-1.005-.632-.954-1.313-1.875-1.995-2.795-.077-.102-.256-.179-.392-.188-.554-.016-1.108-.008-1.67-.008-.512 0-1.023.009-1.535 0-.409-.008-.64-.239-.596-.57.042-.333.28-.444.58-.444h1.976c.35-.017.674-.017 1.04-.017Zm2.821 11.963H4.276c.026.086.043.137.068.188.358.69.955.946 1.705.946 8.582-.009 17.165 0 25.748 0 .127 0 .247 0 .375-.009.681-.077 1.261-.545 1.38-1.125ZM23.308 29.9h-8.762v1.116h8.762V29.9Zm-8.762-1.074h8.762V27.71h-8.762v1.116Zm8.642-2.172c-.119-.614-.724-1.108-1.406-1.134-.852-.025-1.704-.017-2.548-.017-1.04 0-2.088-.008-3.128.009-.708.017-1.321.51-1.44 1.133 2.846.009 5.684.009 8.522.009ZM5.282 34.245v1.124h3.29v-1.124h-3.29Zm23.992 1.116h3.307v-1.108h-3.307v1.108ZM5.17 20.1a67.81 67.81 0 0 0-.256-1.014c-.017-.051-.085-.12-.136-.12-.563-.008-1.117-.008-1.688-.008v1.133c.69.009 1.364.009 2.08.009Zm29.6-1.142c-.57 0-1.108-.008-1.653.009-.069 0-.162.076-.188.145-.094.315-.17.647-.255.98h2.088c.008-.375.008-.725.008-1.134Zm1.646-7.448c-.136.23-.324.34-.605.375-.963.128-1.458.648-1.577 1.61-.042.358-.23.554-.528.546-.282-.009-.452-.188-.503-.537-.128-.989-.614-1.483-1.602-1.636-.384-.06-.563-.213-.571-.503-.009-.298.196-.486.58-.528.928-.11 1.474-.648 1.584-1.568.051-.392.23-.605.52-.605.29 0 .478.213.52.605.094.895.673 1.457 1.543 1.576.221.034.63.324.63.324s.09.205.01.341Zm-2.165-.136-.528-.554-.486.486c.162.204.324.409.477.596.188-.188.375-.375.537-.528ZM22.225 4.796c.009.29-.187.494-.545.52-.69.06-1.304.29-1.688.877a3.217 3.217 0 0 0-.443 1.108c-.102.503-.221.724-.545.733-.333.008-.478-.213-.554-.716a2.454 2.454 0 0 0-.205-.741c-.34-.699-.912-1.108-1.679-1.219-.102-.017-.204-.025-.307-.034-.307-.034-.486-.204-.486-.511 0-.307.197-.46.486-.511.29-.051.597-.068.861-.18.784-.34 1.244-.945 1.338-1.814.009-.077.026-.154.034-.239.043-.298.213-.485.512-.477.28.009.451.179.494.469.025.187.043.383.085.57.256.972.989 1.568 2.029 1.67.4.026.605.197.613.495Zm-3.988 0c.221.239.528.554.75.792.247-.247.562-.553.767-.767-.222-.238-.512-.553-.742-.792-.247.247-.562.545-.775.767ZM6.952 11.357c-.025.264-.162.443-.451.494-.248.042-.503.068-.725.162-.622.281-.937.784-1.006 1.465-.034.375-.213.554-.51.554-.3 0-.47-.196-.512-.562-.103-.92-.614-1.457-1.526-1.594a.748.748 0 0 0-.136-.017c-.307-.025-.486-.187-.512-.494-.025-.273.188-.469.512-.528 1.116-.188 1.483-.554 1.662-1.679.05-.298.213-.494.511-.494.298 0 .46.188.503.494.162 1.09.545 1.483 1.67 1.679.299.051.495.187.52.52Zm-2.71.502c.188-.162.392-.34.554-.477-.179-.204-.358-.4-.511-.562-.188.187-.375.366-.554.554l.511.485Z" fill="currentColor"/>
  <path d="M18.927 19.502H8.819c-.529-.025-.733-.315-.563-.818.281-.81.571-1.619.86-2.437.342-.963.683-1.925 1.024-2.88.238-.664.562-.894 1.27-.894h15.043c.707 0 1.03.23 1.27.903.605 1.721 1.218 3.434 1.823 5.155.256.716.077.971-.681.971h-9.938Zm-9.486-1.04h18.955c-.017-.084-.017-.152-.043-.22-.528-1.509-1.065-3.009-1.585-4.517-.077-.213-.205-.23-.384-.23H11.486c-.239 0-.332.077-.409.29-.46 1.338-.937 2.667-1.406 4.005-.077.213-.154.426-.23.673Zm-.324 11.401c-.818-.034-1.55-.17-2.224-.579-1.262-.758-1.355-2.096-.196-3.008 1.193-.929 3.596-.937 4.807-.017 1.176.895 1.082 2.275-.196 3.025-.69.426-1.45.562-2.19.58ZM9.11 28.85c.639-.025 1.253-.127 1.781-.502.554-.392.554-.86.008-1.253-.903-.647-2.633-.656-3.554-.025-.605.417-.596.903.026 1.312.537.35 1.134.443 1.739.468Zm19.627-3.272c.878.009 1.722.17 2.429.716 1.1.843 1.082 2.02-.026 2.863-1.21.929-3.622.92-4.806-.009-1.16-.903-1.074-2.258.195-3.008.682-.4 1.424-.562 2.208-.562Zm.017 3.272c.597-.025 1.185-.11 1.705-.452.647-.417.656-.92.017-1.346-.904-.596-2.557-.596-3.47.009-.613.409-.621.903-.016 1.312.528.358 1.133.452 1.764.477ZM9.142 23.942c.512 0 1.015-.008 1.526 0 .366.009.571.18.58.477.008.307-.196.529-.571.537-1.04.009-2.08.009-3.12 0-.366 0-.597-.23-.588-.528.008-.298.23-.486.614-.494.511.008 1.03.008 1.56.008Zm19.621-.001c.511 0 1.014-.008 1.525 0 .375.009.597.205.597.503 0 .298-.23.511-.605.511-1.031.009-2.063.009-3.085 0-.384 0-.589-.204-.589-.511 0-.315.205-.494.597-.503.52-.008 1.04 0 1.56 0Z" fill="currentColor"/>
</svg>
