<svg viewBox="0 0 20 20" fill="none" xmlns="http://www.w3.org/2000/svg">
    <path d="M17.5 13.4104V9.24923C17.5 5.67539 17.5 3.88847 16.4017 2.77822C15.3033 1.66797 13.5355 1.66797 10 1.66797C6.46447 1.66797 4.6967 1.66797 3.59835 2.77822C2.5 3.88847 2.5 5.67539 2.5 9.24923V13.4104C2.5 15.9909 2.5 17.2811 3.11176 17.8449C3.40351 18.1138 3.77179 18.2827 4.1641 18.3276C4.98668 18.4217 5.94728 17.5721 7.86847 15.8728C8.71768 15.1217 9.14229 14.7461 9.63356 14.6472C9.87548 14.5985 10.1245 14.5985 10.3664 14.6472C10.8577 14.7461 11.2823 15.1217 12.1315 15.8728C14.0527 17.5721 15.0133 18.4217 15.8359 18.3276C16.2282 18.2827 16.5965 18.1138 16.8882 17.8449C17.5 17.2811 17.5 15.9909 17.5 13.4104Z" stroke="currentColor" stroke-width="1.5"/>
    <path d="M12.5 5H7.5" stroke="currentColor" stroke-width="1.5" stroke-linecap="round"/>
</svg>
