<svg viewBox="0 0 20 20" fill="none" xmlns="http://www.w3.org/2000/svg">
    <path d="M11.6666 5H8.33329C7.2034 5 6.27662 5 5.50758 5.04537C4.13762 5.1262 3.26823 5.35101 2.64294 5.97631C1.66663 6.95262 1.66663 8.52397 1.66663 11.6667C1.66663 14.8094 1.66663 16.3807 2.64294 17.357C3.61925 18.3333 5.1906 18.3333 8.33329 18.3333H11.6666C14.8093 18.3333 16.3807 18.3333 17.357 17.357C18.3333 16.3807 18.3333 14.8094 18.3333 11.6667C18.3333 8.52397 18.3333 6.95262 17.357 5.97631C16.7317 5.35101 15.8623 5.1262 14.4923 5.04537C13.7233 5 12.7965 5 11.6666 5Z" stroke="currentColor" stroke-width="1.2"/>
    <path d="M5.50781 5.04537C6.19402 5.02798 6.79937 4.54576 7.03287 3.90027C7.04005 3.88041 7.04741 3.85832 7.06214 3.81415L7.08352 3.75C7.11868 3.64453 7.13626 3.59178 7.15507 3.545C7.39523 2.9476 7.95801 2.54197 8.6007 2.50305C8.65103 2.5 8.70662 2.5 8.8178 2.5H11.1826C11.2938 2.5 11.3493 2.5 11.3997 2.50305C12.0424 2.54197 12.6051 2.9476 12.8453 3.545C12.8641 3.59179 12.8817 3.64452 12.9169 3.75L12.9382 3.81415C12.9529 3.85826 12.9603 3.88042 12.9675 3.90027C13.201 4.54576 13.8064 5.02798 14.4926 5.04537" stroke="currentColor" stroke-width="1.2"/>
    <path d="M18.0514 7.26562C15.5432 8.89595 14.2891 9.71112 12.9671 10.1219C11.0346 10.7223 8.96545 10.7223 7.03299 10.1219C5.7109 9.71112 4.45681 8.89595 1.94861 7.26562" stroke="currentColor" stroke-width="1.2" stroke-linecap="round"/>
    <path d="M6.66663 9.16797V10.8346" stroke="currentColor" stroke-width="1.2" stroke-linecap="round"/>
    <path d="M13.3334 9.16797V10.8346" stroke="currentColor" stroke-width="1.2" stroke-linecap="round"/>
</svg>