<svg viewBox="0 0 22 22" fill="none" xmlns="http://www.w3.org/2000/svg">
    <path d="M20.1666 4.80433V18.4306C20.1356 18.5484 20.1087 18.6683 20.0735 18.7862C19.8067 19.6409 19.0829 20.1636 18.1584 20.1657C15.5981 20.1679 13.0377 20.1657 10.4794 20.1657C8.26445 20.1657 6.05154 20.1679 3.83657 20.1657C2.67634 20.1636 1.83461 19.3174 1.83461 18.1457C1.83254 13.6857 1.83254 9.23002 1.83668 4.77219C1.83668 4.55369 1.86977 4.32663 1.93388 4.11884C2.20067 3.25983 2.92452 2.75214 3.85311 2.75C6.98634 2.75 10.1196 2.75 13.2528 2.75C14.8887 2.75 16.5225 2.75214 18.1584 2.75C18.8409 2.75 19.4179 2.99635 19.8026 3.59187C19.9225 3.77823 19.9949 3.99459 20.0694 4.21095C20.1335 4.4016 20.1666 4.60296 20.1666 4.80433ZM2.59362 7.4863H19.4055C19.4055 7.41347 19.4055 7.35349 19.4055 7.29351C19.4055 6.47735 19.4055 5.66119 19.4055 4.84503C19.4055 4.01816 18.9154 3.5276 18.1088 3.54902C13.3583 3.67541 8.60363 3.58116 3.85104 3.54902C3.06929 3.5426 2.59569 4.03101 2.59362 4.84288C2.59155 5.65905 2.59362 6.47521 2.59362 7.29137C2.59362 7.35135 2.59362 7.41133 2.59362 7.4863ZM2.60603 15.4037H6.40726V12.2569H2.60603V15.4037ZM19.3952 12.259H15.5939V15.4037H19.3952V12.259ZM6.4052 11.4514V8.30889H2.60603V11.4514H6.4052ZM15.5898 11.445H19.3931V8.30889H15.5898V11.445ZM2.60396 16.2156C2.59982 16.2798 2.59569 16.3334 2.59569 16.387C2.59569 16.9546 2.59362 17.5223 2.59569 18.09C2.59775 18.8697 3.07343 19.3624 3.82416 19.3645C4.62866 19.3667 5.43317 19.3645 6.23768 19.3645C6.29352 19.3645 6.35142 19.3581 6.40726 19.3538V16.2156H2.60396ZM15.5898 19.3581C15.6477 19.3624 15.6891 19.3667 15.7304 19.3667C16.5598 19.3667 17.387 19.371 18.2163 19.3667C18.9216 19.3624 19.3993 18.8633 19.4076 18.1285C19.4117 17.6851 19.4076 17.2395 19.4076 16.794C19.4076 16.6033 19.4076 16.4148 19.4076 16.2199H15.5898V19.3581ZM7.19109 12.2547V15.4058H10.5994V12.2547H7.19109ZM14.8142 12.259H11.3956V15.3994H14.8142V12.259ZM7.18488 11.4471H10.6056V8.31103H7.18488V11.4471ZM14.8101 11.4471V8.30675H11.3956V11.4471H14.8101ZM10.6014 19.3581V16.2156H7.18902V19.3581H10.6014ZM11.3977 16.2113V19.3517H14.808V16.2113H11.3977Z" fill="currentColor" />
</svg>