<svg width="48" height="48" viewBox="0 0 48 48" fill="none" xmlns="http://www.w3.org/2000/svg">
    <circle class="rotating" cx="24" cy="24" r="23.25" stroke="#FF22A1" stroke-width="1.5" stroke-dasharray="5 5"/>
    <g clip-path="url(#clip0_0_1)">
        <path d="M36.8001 29.2303C36.5305 29.7495 36.2484 29.8513 35.6941 29.6302C33.7219 28.8453 31.7472 28.0603 29.7749 27.2729C29.705 27.2456 29.6351 27.2207 29.5303 27.181C29.5253 27.2729 29.5178 27.3424 29.5178 27.412C29.5178 27.9386 29.5203 28.4627 29.5178 28.9894C29.5103 30.2835 28.6141 31.1952 27.3109 31.1977C23.4838 31.2051 19.6541 31.2051 15.827 31.1977C14.5038 31.1952 13.6001 30.2761 13.6001 28.9571C13.6001 25.6508 13.6001 22.347 13.6001 19.0408C13.6001 17.7143 14.5088 16.8051 15.847 16.8026C19.6541 16.8002 23.4588 16.8002 27.266 16.8026C28.6091 16.8026 29.5103 17.7019 29.5153 19.0358C29.5178 19.5475 29.5153 20.0567 29.5153 20.5685C29.5153 20.6405 29.5153 20.715 29.5153 20.8218C29.6227 20.7821 29.7 20.7572 29.7724 20.7274C31.7447 19.9425 33.7194 19.155 35.6917 18.3701C36.2484 18.149 36.5305 18.2508 36.7976 18.77C36.8001 22.2576 36.8001 25.7427 36.8001 29.2303ZM21.5589 18.154C19.6641 18.154 17.7693 18.154 15.8744 18.154C15.2553 18.154 14.9607 18.4496 14.9607 19.0656C14.9607 22.347 14.9607 25.6309 14.9607 28.9124C14.9607 29.5582 15.2478 29.8439 15.8994 29.8439C19.6741 29.8439 23.4488 29.8439 27.221 29.8439C27.8726 29.8439 28.1547 29.5607 28.1547 28.9074C28.1547 25.6334 28.1547 22.357 28.1547 19.083C28.1547 18.4297 27.8726 18.1515 27.2185 18.1515C25.3312 18.154 23.4463 18.154 21.5589 18.154ZM35.4345 19.94C35.3821 19.9574 35.3546 19.9648 35.3272 19.9773C33.4373 20.7274 31.55 21.4826 29.6576 22.2278C29.5128 22.2849 29.5153 22.3744 29.5153 22.4886C29.5178 23.4947 29.5203 24.5007 29.5103 25.5092C29.5078 25.6756 29.5727 25.7402 29.7175 25.7974C31.4351 26.473 33.1477 27.1561 34.8628 27.8392C35.0476 27.9138 35.2348 27.9858 35.4345 28.0653C35.4345 25.3453 35.4345 22.6575 35.4345 19.94Z" fill="url(#paint1_linear_0_1)"/>
    </g>
    <defs>
        <linearGradient id="paint1_linear_0_1" x1="25.2001" y1="16.8008" x2="25.2001" y2="31.2033" gradientUnits="userSpaceOnUse">
            <stop stop-color="#FF22A1"/>
            <stop offset="1" stop-color="#FFA3D8"/>
        </linearGradient>
        <clipPath id="clip0_0_1">
            <rect width="23.2" height="14.4" fill="white" transform="translate(13.6001 16.8008)"/>
        </clipPath>
    </defs>
</svg>