<svg viewBox="0 0 45 45" fill="none" xmlns="http://www.w3.org/2000/svg">
    <path d="m33.232 5.625-2.65-3.435A5.668 5.668 0 0 0 26.129 0h-7.245a5.668 5.668 0 0 0-4.455 2.19l-2.65 3.435h21.454ZM22.5 33.75a7.5 7.5 0 1 0 0-15 7.5 7.5 0 0 0 0 15Z" fill="currentColor"/>
    <path d="M35.624 9.375H9.374A9.386 9.386 0 0 0-.001 18.75v16.875A9.386 9.386 0 0 0 9.374 45h26.25a9.387 9.387 0 0 0 9.375-9.375V18.75a9.386 9.386 0 0 0-9.375-9.375ZM22.499 37.5a11.25 11.25 0 1 1 11.25-11.25 11.262 11.262 0 0 1-11.25 11.25Z" fill="currentColor"/>
</svg>
