<svg width="60" height="60" viewBox="0 0 60 60" fill="none" xmlns="http://www.w3.org/2000/svg">
    <circle class="rotating" cx="30" cy="30" r="29.25" stroke="#FF22A1" stroke-width="1.5" stroke-dasharray="5 5"/>
    <g clip-path="url(#clip0_0_1)">
        <path d="M46 36.5379C45.663 37.1868 45.3103 37.3142 44.6176 37.0378C42.1523 36.0566 39.6838 35.0754 37.2186 34.0911C37.1312 34.057 37.0438 34.0259 36.9127 33.9762C36.9065 34.0911 36.8971 34.1781 36.8971 34.265C36.8971 34.9233 36.9002 35.5784 36.8971 36.2367C36.8878 37.8544 35.7675 38.994 34.1385 38.9971C29.3546 39.0064 24.5675 39.0064 19.7836 38.9971C18.1297 38.994 17 37.8451 17 36.1963C17 32.0635 17 27.9338 17 23.801C17 22.1429 18.1359 21.0064 19.8086 21.0033C24.5675 21.0002 29.3234 21.0002 34.0823 21.0033C35.7612 21.0033 36.8878 22.1273 36.894 23.7947C36.8971 24.4344 36.894 25.0709 36.894 25.7106C36.894 25.8006 36.894 25.8938 36.894 26.0273C37.0282 25.9776 37.1249 25.9466 37.2154 25.9093C39.6807 24.9281 42.1491 23.9438 44.6144 22.9626C45.3103 22.6862 45.663 22.8136 45.9969 23.4625C46 27.822 46 32.1784 46 36.5379ZM26.9486 22.6925C24.58 22.6925 22.2114 22.6925 19.8429 22.6925C19.069 22.6925 18.7007 23.062 18.7007 23.832C18.7007 27.9338 18.7007 32.0387 18.7007 36.1404C18.7007 36.9478 19.0596 37.3048 19.8741 37.3048C24.5925 37.3048 29.3109 37.3048 34.0261 37.3048C34.8406 37.3048 35.1933 36.9509 35.1933 36.1342C35.1933 32.0418 35.1933 27.9462 35.1933 23.8537C35.1933 23.0371 34.8406 22.6893 34.023 22.6893C31.6638 22.6925 29.3078 22.6925 26.9486 22.6925ZM44.293 24.925C44.2275 24.9467 44.1932 24.956 44.1588 24.9716C41.7965 25.9093 39.4373 26.8532 37.0719 27.7847C36.8909 27.8562 36.894 27.9679 36.894 28.1108C36.8971 29.3683 36.9002 30.6259 36.8878 31.8865C36.8846 32.0946 36.9658 32.1753 37.1468 32.2467C39.2938 33.0913 41.4345 33.9452 43.5784 34.7991C43.8093 34.8922 44.0434 34.9823 44.293 35.0816C44.293 31.6816 44.293 28.3219 44.293 24.925Z" fill="url(#paint1_linear_0_1)"/>
    </g>
    <defs>
        <linearGradient id="paint1_linear_0_1" x1="31.5" y1="21.001" x2="31.5" y2="39.0041" gradientUnits="userSpaceOnUse">
            <stop stop-color="#FF22A1"/>
            <stop offset="1" stop-color="#FFA3D8"/>
        </linearGradient>
        <clipPath id="clip0_0_1">
            <rect width="29" height="18" fill="white" transform="translate(17 21)"/>
        </clipPath>
    </defs>
</svg>
