<svg viewBox="0 0 22 22" fill="none" xmlns="http://www.w3.org/2000/svg">
    <path d="M20.1663 9.62467V10.9997C20.1663 15.3209 20.1663 17.4815 18.8239 18.8239C17.4815 20.1663 15.3209 20.1663 10.9997 20.1663C6.67847 20.1663 4.51786 20.1663 3.17544 18.8239C1.83301 17.4815 1.83301 15.3209 1.83301 10.9997C1.83301 6.67847 1.83301 4.51786 3.17544 3.17544C4.51786 1.83301 6.67847 1.83301 10.9997 1.83301H12.3747" stroke="currentColor" stroke-width="1.5" stroke-linecap="round"/>
    <circle cx="17.417" cy="4.58301" r="2.75" stroke="currentColor" stroke-width="1.5"/>
    <path d="M6.41699 12.8337L8.51881 10.7318C8.87679 10.3739 9.45719 10.3739 9.81517 10.7318L11.2688 12.1855C11.6268 12.5435 12.2072 12.5435 12.5652 12.1855L15.5837 9.16699M15.5837 9.16699V11.4587M15.5837 9.16699H13.292" stroke="currentColor" stroke-width="1.5" stroke-linecap="round" stroke-linejoin="round"/>
</svg>