<svg viewBox="0 0 24 24" fill="none" xmlns="http://www.w3.org/2000/svg">
    <path d="M12.0897 0.77506C12.3915 1.06063 12.6917 1.34619 12.9935 1.63338C13.2093 1.83944 13.4267 2.04388 13.6506 2.25643C13.4673 2.43816 13.3147 2.59068 13.1184 2.78376C12.8799 2.51442 12.6446 2.24994 12.4094 1.98547C12.3931 1.99683 12.3769 2.00819 12.3607 2.01954C12.3607 2.76753 12.3607 3.51552 12.3607 4.29596C14.1942 4.40305 15.8102 5.06504 17.1634 6.27383C17.9471 5.49014 18.7243 4.71295 19.5015 3.93738C19.1396 3.93738 18.7454 3.93738 18.3365 3.93738C18.3365 3.694 18.3365 3.4782 18.3365 3.23807C18.7275 3.23807 19.1121 3.23807 19.4966 3.23807C19.7887 3.23807 20.0807 3.23482 20.3728 3.23969C20.6048 3.24293 20.7557 3.36138 20.7589 3.57231C20.7687 4.26513 20.7622 4.95795 20.7622 5.667C20.535 5.667 20.3192 5.667 20.0775 5.667C20.0775 5.2711 20.0775 4.8752 20.0775 4.48904C19.2922 5.27435 18.5166 6.05154 17.7297 6.84172C18.9287 8.1868 19.5988 9.80122 19.7027 11.6493C20.4766 11.6493 21.2262 11.6493 21.9807 11.6493C21.7227 11.4027 21.468 11.1593 21.2051 10.9078C21.4193 10.7115 21.5783 10.5671 21.7844 10.3788C21.9044 10.5135 22.0488 10.6855 22.2046 10.8445C22.495 11.1431 22.7952 11.4319 23.0856 11.7304C23.2495 11.8975 23.2755 12.0679 23.1327 12.2172C22.6719 12.6942 22.1965 13.1566 21.7195 13.632C21.5621 13.4714 21.4144 13.3205 21.257 13.1582C21.5134 12.9181 21.773 12.6747 22.031 12.433C22.0164 12.4119 22.0018 12.3908 21.9872 12.3681C21.236 12.3681 20.4831 12.3681 19.7027 12.3681C19.5956 14.2015 18.9303 15.816 17.7199 17.174C18.5052 17.9593 19.2824 18.7365 20.0645 19.5202C20.0645 19.1405 20.0645 18.7511 20.0645 18.3439C20.2981 18.3439 20.5139 18.3439 20.7476 18.3439C20.7524 18.3893 20.7638 18.4445 20.7638 18.4996C20.7654 19.1065 20.7654 19.7133 20.7638 20.3185C20.7622 20.6479 20.6437 20.7663 20.3127 20.7663C19.6572 20.7679 19.0017 20.7663 18.3332 20.7663C18.3332 20.531 18.3332 20.3152 18.3332 20.0832C18.734 20.0832 19.1267 20.0832 19.4755 20.0832C18.708 19.3158 17.9292 18.5369 17.1407 17.7484C15.8167 18.928 14.2088 19.5981 12.3591 19.7035C12.3591 20.4726 12.3591 21.2255 12.3591 22.0416C12.6252 21.7431 12.8604 21.4802 13.1071 21.2028C13.3034 21.4153 13.4494 21.5727 13.6117 21.7496C13.2579 22.1033 12.8864 22.4732 12.5165 22.8448C12.0054 23.3559 11.994 23.3559 11.4797 22.8415C11.113 22.4748 10.7463 22.1098 10.3682 21.735C10.5386 21.5776 10.6976 21.4315 10.8728 21.2709C11.0967 21.5046 11.3417 21.7625 11.5851 22.0189C11.6013 22.0092 11.6192 21.9978 11.6354 21.9881C11.6354 21.2352 11.6354 20.4824 11.6354 19.7052C9.79708 19.5981 8.18104 18.9312 6.83434 17.7289C6.04578 18.5175 5.26859 19.2947 4.4914 20.0702C4.86296 20.0702 5.25237 20.0702 5.65962 20.0702C5.65962 20.3039 5.65962 20.5197 5.65962 20.7533C5.60121 20.7582 5.53793 20.7663 5.47628 20.7663C4.87756 20.7679 4.27722 20.7679 3.67851 20.7663C3.36049 20.7663 3.23555 20.6446 3.23555 20.3331C3.23393 19.676 3.23555 19.0188 3.23555 18.3422C3.45946 18.3422 3.67364 18.3422 3.9154 18.3422C3.9154 18.73 3.9154 19.1275 3.9154 19.4959C4.69097 18.7203 5.46654 17.9447 6.25996 17.1529C5.07389 15.8241 4.40216 14.2113 4.29669 12.3583C3.52923 12.3583 2.77962 12.3583 1.96836 12.3583C2.24743 12.639 2.49892 12.8921 2.75528 13.1501C2.58492 13.3108 2.42753 13.4584 2.24743 13.6288C1.76067 13.1209 1.26742 12.605 0.77417 12.0906C0.77417 12.0322 0.77417 11.9738 0.77417 11.9154C1.26742 11.3994 1.76067 10.8851 2.26366 10.361C2.43727 10.5378 2.58816 10.692 2.80072 10.9078C2.53949 11.1512 2.27826 11.3945 2.00567 11.6477C2.77962 11.6477 3.53086 11.6477 4.29994 11.6477C4.40216 9.79473 5.07551 8.18355 6.27132 6.84172C5.48114 6.05154 4.70395 5.27597 3.92351 4.49391C3.92351 4.87358 3.92351 5.26948 3.92351 5.66376C3.68175 5.66376 3.46758 5.66376 3.2388 5.66376C3.2388 4.96282 3.23393 4.27649 3.24204 3.59016C3.24367 3.36625 3.39132 3.24131 3.63145 3.23807C3.95272 3.2332 4.27398 3.23644 4.59524 3.23644C4.95057 3.23644 5.30591 3.23644 5.66611 3.23644C5.66611 3.4782 5.66611 3.69238 5.66611 3.93576C5.25886 3.93576 4.86458 3.93576 4.49789 3.93576C5.2767 4.71295 6.0539 5.49015 6.83758 6.27545C8.1924 5.06342 9.81006 4.40467 11.6435 4.29596C11.6435 3.51552 11.6435 2.76753 11.6435 2.01954C11.6273 2.00819 11.6111 1.99683 11.5965 1.98547C11.3612 2.24994 11.1259 2.51442 10.8874 2.78376C10.6911 2.58743 10.537 2.43654 10.3569 2.25643C10.5694 2.05362 10.7755 1.85729 10.9799 1.66259C11.2914 1.36566 11.603 1.07036 11.9129 0.773438C11.9729 0.77506 12.0313 0.77506 12.0897 0.77506ZM4.9814 12.347C5.09498 14.0344 5.6872 15.4752 6.81487 16.7376C7.18156 16.366 7.52391 16.0188 7.85329 15.6862C8.01879 15.837 8.17942 15.9831 8.37574 16.1616C8.01067 16.5169 7.65858 16.8592 7.29351 17.2146C8.54611 18.3211 9.9853 18.9166 11.663 19.0188C11.663 18.3049 11.663 17.6218 11.663 16.9339C11.8999 16.9339 12.1157 16.9339 12.3526 16.9339C12.3526 17.6299 12.3526 18.313 12.3526 19.0205C14.0303 18.9166 15.4711 18.3195 16.7383 17.1935C16.37 16.8333 16.0179 16.4893 15.6755 16.1534C15.8394 15.9798 15.9887 15.8241 16.1542 15.6505C16.5063 16.009 16.8502 16.3563 17.2104 16.7229C18.3186 15.4704 18.9174 14.0312 19.0244 12.347C18.317 12.347 17.6274 12.347 16.9411 12.347C16.9411 12.102 16.9411 11.8878 16.9411 11.6509C17.6404 11.6509 18.3235 11.6509 19.0244 11.6509C18.9174 9.97645 18.3219 8.53402 17.2072 7.28142C16.847 7.64812 16.5046 7.99696 16.1801 8.32633C16.0049 8.15759 15.8459 8.00507 15.6561 7.82173C16.0033 7.48424 16.3537 7.14351 16.7172 6.7898C15.4695 5.68485 14.0303 5.08613 12.3445 4.98391C12.3445 5.69621 12.3445 6.38578 12.3445 7.06563C12.0995 7.06563 11.8837 7.06563 11.6484 7.06563C11.6484 6.36307 11.6484 5.67998 11.6484 4.99689C10.2822 4.96444 7.92955 5.95419 7.29676 6.84009C7.64398 7.17434 7.99607 7.51182 8.35465 7.85742C8.18591 8.02617 8.03177 8.17868 7.85329 8.35716C7.50282 8.00021 7.15722 7.64974 6.81162 7.29927C5.69207 8.42206 4.98302 10.3318 5.01548 11.6574C5.69856 11.6574 6.38165 11.6574 7.07609 11.6574C7.07609 11.8943 7.07609 12.1085 7.07609 12.3454C6.3784 12.347 5.6937 12.347 4.9814 12.347Z" fill="currentColor"/>
    <path d="M12.0183 8.50394C13.9443 8.51043 15.5117 10.0924 15.5052 12.02C15.4987 13.9459 13.9167 15.5133 11.9891 15.5068C10.0632 15.4987 8.49582 13.9183 8.50394 11.9908C8.50881 10.0632 10.0875 8.49582 12.0183 8.50394ZM12.0135 9.19027C10.4526 9.18865 9.19189 10.438 9.19027 11.9924C9.18865 13.5533 10.4412 14.8156 11.9924 14.8172C13.5533 14.8188 14.8124 13.5695 14.8172 12.0135C14.8205 10.4558 13.5679 9.19351 12.0135 9.19027Z" fill="currentColor"/>
    <path d="M12.0233 10.2579C12.9773 10.2693 13.7577 11.066 13.7496 12.0184C13.7415 12.9724 12.9465 13.7561 11.994 13.7496C11.0319 13.7431 10.2417 12.9384 10.2579 11.9778C10.2709 11.0238 11.0692 10.2466 12.0233 10.2579ZM10.9443 11.9908C10.9394 12.5782 11.4051 13.0568 11.9843 13.0633C12.5814 13.0698 13.0601 12.5993 13.0617 12.0054C13.0633 11.4213 12.5944 10.9475 12.0103 10.9443C11.4245 10.9426 10.9475 11.4099 10.9443 11.9908Z" fill="currentColor"/>
</svg>
