<svg viewBox="0 0 18 18" fill="none" xmlns="http://www.w3.org/2000/svg">
    <path d="M6.7494 14.2503C6.84811 14.2508 6.94596 14.2319 7.03733 14.1946C7.12871 14.1573 7.21182 14.1023 7.2819 14.0328L11.7819 9.53276C11.9216 9.39224 12 9.20215 12 9.00401C12 8.80588 11.9216 8.61579 11.7819 8.47527L7.28191 3.97526C7.13843 3.85239 6.95387 3.78819 6.76512 3.79548C6.57636 3.80277 6.3973 3.88102 6.26373 4.01459C6.13016 4.14816 6.05191 4.32722 6.04462 4.51597C6.03733 4.70473 6.10154 4.88929 6.22441 5.03276L10.1919 9.00026L6.2244 12.9678C6.11909 13.0722 6.04711 13.2056 6.01757 13.3509C5.98803 13.4963 6.00226 13.6471 6.05845 13.7844C6.11465 13.9217 6.21029 14.0392 6.33327 14.1221C6.45626 14.2051 6.60107 14.2496 6.7494 14.2503Z" fill="currentColor" />
</svg>