<svg viewBox="0 0 22 22" fill="none" xmlns="http://www.w3.org/2000/svg">
    <path d="M13.7494 4.58257C13.6288 4.58188 13.5092 4.605 13.3975 4.65062C13.2858 4.69623 13.1842 4.76345 13.0986 4.84841L7.59859 10.3484C7.42786 10.5202 7.33203 10.7525 7.33203 10.9947C7.33203 11.2368 7.42786 11.4692 7.59859 11.6409L13.0986 17.1409C13.274 17.2911 13.4995 17.3696 13.7302 17.3606C13.9609 17.3517 14.1798 17.2561 14.343 17.0928C14.5063 16.9296 14.6019 16.7107 14.6108 16.48C14.6197 16.2493 14.5413 16.0238 14.3911 15.8484L9.54192 10.9992L14.3911 6.15007C14.5198 6.02241 14.6078 5.85944 14.6439 5.68178C14.68 5.50412 14.6626 5.31974 14.5939 5.15196C14.5252 4.98418 14.4083 4.84053 14.258 4.73918C14.1077 4.63783 13.9307 4.58333 13.7494 4.58257Z" fill="currentColor"/>
</svg>