<svg width="43" height="27" viewBox="0 0 43 27" fill="none" xmlns="http://www.w3.org/2000/svg">
    <g clip-path="url(#clip0_851_19560)">
        <path d="M41.0423 10.2324C40.7708 9.32187 40.3636 8.45469 39.9111 7.63086L41.0876 6.98047C41.6306 7.89102 42.0378 8.84492 42.3546 9.84219L41.0423 10.2324ZM38.6893 5.93984C38.0558 5.20273 37.377 4.55234 36.5625 3.98867L37.377 2.94805C38.2368 3.55508 39.006 4.29219 39.7301 5.11602L38.6893 5.93984ZM34.7525 2.90469C33.8927 2.47109 32.9425 2.12422 31.9922 1.90742L32.309 0.65C33.3497 0.910156 34.3905 1.25703 35.3408 1.73398L34.7525 2.90469ZM29.9107 1.60391C29.5939 1.60391 29.2772 1.56055 29.0057 1.56055H26.8789V0.259766H29.0057C29.3677 0.259766 29.6844 0.259766 30.0464 0.303125L29.9107 1.60391Z" fill="currentColor" />
        <path d="M41.4495 11.9672C41.4947 12.4441 41.54 12.8777 41.54 13.3547C41.54 19.9887 35.8837 25.4086 28.9603 25.4086H13.9372C7.01383 25.3652 1.35752 19.9887 1.35752 13.3547C1.35752 6.7207 7.01383 1.30078 13.9372 1.30078H24.752V0H13.9372C6.24457 0 0 5.98359 0 13.3547C0 20.7258 6.24457 26.7094 13.9372 26.7094H29.0056C36.6982 26.7094 42.9427 20.7258 42.9427 13.3547C42.9427 12.8777 42.8975 12.4008 42.8522 11.9672H41.4495Z" fill="currentColor" />
        <path d="M26.0339 12.7739C26.9172 13.2508 26.9204 13.8508 26.0339 14.39L19.1836 18.8661C18.3228 19.3111 17.7383 19.0483 17.6769 18.0854L17.6478 8.71702C17.6284 7.83001 18.3826 7.57939 19.1012 8.00468L26.0339 12.7739Z" stroke="currentColor" stroke-width="1.56282"/>
    </g>
    <defs>
        <clipPath id="clip0_851_19560">
            <rect width="42.8975" height="26.666" fill="currentColor" />
        </clipPath>
    </defs>
</svg>