<svg viewBox="0 0 24 24" fill="none" xmlns="http://www.w3.org/2000/svg">
    <path d="M12.978 20.449L13.4944 20.7546L12.978 20.449ZM13.4659 19.6248L12.9496 19.3191L13.4659 19.6248ZM10.5341 19.6248L10.0178 19.9304L10.5341 19.6248ZM11.022 20.449L10.5057 20.7546L11.022 20.449ZM3.34254 15.5222L3.89687 15.2925H3.89687L3.34254 15.5222ZM8.21065 18.2924L8.20031 18.8923H8.20032L8.21065 18.2924ZM5.77794 17.9576L5.54833 18.5119H5.54833L5.77794 17.9576ZM20.6576 15.5222L21.2119 15.7518V15.7518L20.6576 15.5222ZM15.7894 18.2924L15.7791 17.6925L15.7894 18.2924ZM18.2222 17.9576L18.4518 18.5119V18.5119L18.2222 17.9576ZM18.8513 3.66312L18.5378 4.17471L18.8513 3.66312ZM20.337 5.14877L20.8486 4.83527V4.83527L20.337 5.14877ZM5.14877 3.66312L4.83527 3.15154V3.15154L5.14877 3.66312ZM3.66312 5.14877L3.15154 4.83527H3.15154L3.66312 5.14877ZM9.66255 18.489L9.96421 17.9703L9.96421 17.9703L9.66255 18.489ZM13.4944 20.7546L13.9823 19.9304L12.9496 19.3191L12.4617 20.1434L13.4944 20.7546ZM10.0178 19.9304L10.5057 20.7546L11.5384 20.1434L11.0505 19.3191L10.0178 19.9304ZM12.4617 20.1434C12.2592 20.4856 11.7409 20.4856 11.5384 20.1434L10.5057 20.7546C11.1729 21.8818 12.8272 21.8818 13.4944 20.7546L12.4617 20.1434ZM10.65 3.6H13.3501V2.4H10.65V3.6ZM20.4001 10.65V11.5501H21.6001V10.65H20.4001ZM3.6 11.5501V10.65H2.4V11.5501H3.6ZM2.4 11.5501C2.4 12.5902 2.39968 13.4004 2.44421 14.0531C2.48911 14.7112 2.58161 15.253 2.78822 15.7518L3.89687 15.2925C3.76093 14.9643 3.68216 14.5684 3.64143 13.9714C3.60032 13.369 3.6 12.6066 3.6 11.5501H2.4ZM8.22099 17.6925C7.0911 17.673 6.4861 17.6014 6.00755 17.4032L5.54833 18.5119C6.25834 18.806 7.07055 18.8728 8.20031 18.8923L8.22099 17.6925ZM2.78822 15.7518C3.30584 17.0014 4.29868 17.9943 5.54833 18.5119L6.00755 17.4032C5.05194 17.0074 4.2927 16.2482 3.89687 15.2925L2.78822 15.7518ZM20.4001 11.5501C20.4001 12.6066 20.3998 13.369 20.3587 13.9714C20.3179 14.5684 20.2392 14.9643 20.1032 15.2925L21.2119 15.7518C21.4185 15.253 21.511 14.7112 21.5559 14.0531C21.6004 13.4004 21.6001 12.5902 21.6001 11.5501H20.4001ZM15.7998 18.8923C16.9295 18.8728 17.7418 18.806 18.4518 18.5119L17.9926 17.4032C17.514 17.6014 16.909 17.673 15.7791 17.6925L15.7998 18.8923ZM20.1032 15.2925C19.7074 16.2482 18.9482 17.0074 17.9926 17.4032L18.4518 18.5119C19.7014 17.9943 20.6943 17.0014 21.2119 15.7518L20.1032 15.2925ZM13.3501 3.6C14.8347 3.6 15.9061 3.60063 16.7429 3.6802C17.5708 3.75891 18.1069 3.91063 18.5378 4.17471L19.1648 3.15154C18.5137 2.7525 17.7722 2.57265 16.8565 2.48558C15.9497 2.39937 14.8115 2.4 13.3501 2.4V3.6ZM21.6001 10.65C21.6001 9.18861 21.6007 8.0504 21.5145 7.14362C21.4275 6.22791 21.2476 5.48645 20.8486 4.83527L19.8254 5.46227C20.0895 5.89321 20.2412 6.42933 20.3199 7.25721C20.3995 8.09401 20.4001 9.16538 20.4001 10.65H21.6001ZM18.5378 4.17471C19.0626 4.49629 19.5038 4.9375 19.8254 5.46227L20.8486 4.83527C20.428 4.14903 19.8511 3.57207 19.1648 3.15154L18.5378 4.17471ZM10.65 2.4C9.18861 2.4 8.0504 2.39937 7.14362 2.48558C6.22791 2.57265 5.48645 2.7525 4.83527 3.15154L5.46227 4.17471C5.89321 3.91063 6.42933 3.75891 7.25721 3.6802C8.09401 3.60063 9.16538 3.6 10.65 3.6V2.4ZM3.6 10.65C3.6 9.16538 3.60063 8.09401 3.6802 7.25721C3.75891 6.42933 3.91063 5.89321 4.17471 5.46227L3.15154 4.83527C2.7525 5.48645 2.57265 6.22791 2.48558 7.14362C2.39937 8.0504 2.4 9.18861 2.4 10.65H3.6ZM4.83527 3.15154C4.14903 3.57207 3.57207 4.14903 3.15154 4.83527L4.17471 5.46227C4.49629 4.9375 4.9375 4.49629 5.46227 4.17471L4.83527 3.15154ZM11.0505 19.3191C10.867 19.0092 10.7087 18.7404 10.5553 18.53C10.3945 18.3094 10.2133 18.1152 9.96421 17.9703L9.36089 19.0076C9.41571 19.0395 9.48108 19.0935 9.58552 19.2368C9.69735 19.3902 9.82282 19.601 10.0178 19.9304L11.0505 19.3191ZM8.20032 18.8923C8.59411 18.8991 8.8485 18.9041 9.04359 18.9257C9.22755 18.9461 9.30806 18.9769 9.3609 19.0076L9.96421 17.9703C9.71312 17.8243 9.45033 17.7634 9.17566 17.733C8.91211 17.7038 8.59251 17.6989 8.22099 17.6925L8.20032 18.8923ZM13.9823 19.9304C14.1773 19.6009 14.3027 19.3902 14.4146 19.2368C14.519 19.0935 14.5844 19.0395 14.6392 19.0076L14.0359 17.9703C13.7867 18.1152 13.6055 18.3094 13.4448 18.53C13.2914 18.7404 13.1331 19.0092 12.9496 19.3191L13.9823 19.9304ZM15.7791 17.6925C15.4076 17.6989 15.088 17.7038 14.8244 17.733C14.5497 17.7634 14.287 17.8243 14.0359 17.9703L14.6392 19.0076C14.692 18.9769 14.7725 18.9461 14.9565 18.9257C15.1516 18.9041 15.406 18.8991 15.7998 18.8923L15.7791 17.6925Z" fill="currentColor"/>
    <path d="M9.80001 10.9C9.80001 11.3971 9.39706 11.8 8.90001 11.8C8.40295 11.8 8 11.3971 8 10.9C8 10.4029 8.40295 10 8.90001 10C9.39706 10 9.80001 10.4029 9.80001 10.9Z" fill="currentColor"/>
    <path d="M13.4 10.9C13.4 11.3971 12.9971 11.8 12.5 11.8C12.003 11.8 11.6 11.3971 11.6 10.9C11.6 10.4029 12.003 10 12.5 10C12.9971 10 13.4 10.4029 13.4 10.9Z" fill="currentColor"/>
    <path d="M17.0001 10.9C17.0001 11.3971 16.5971 11.8 16.1 11.8C15.603 11.8 15.2 11.3971 15.2 10.9C15.2 10.4029 15.603 10 16.1 10C16.5971 10 17.0001 10.4029 17.0001 10.9Z" fill="currentColor"/>
</svg>