<svg width="22" height="22" viewBox="0 0 22 22" fill="none" xmlns="http://www.w3.org/2000/svg">
    <path d="M9.16659 20.1667C13.2167 20.1667 16.4999 16.8834 16.4999 12.8333C16.4999 8.78325 13.2167 5.5 9.16659 5.5C5.1165 5.5 1.83325 8.78325 1.83325 12.8333C1.83325 13.9659 2.08999 15.0385 2.54844 15.9961C2.706 16.3252 2.76133 16.6981 2.66701 17.0506L2.3663 18.1744C2.12929 19.0602 2.93968 19.8706 3.82549 19.6336L4.94936 19.3329C5.30186 19.2386 5.67473 19.2939 6.00386 19.4515C6.96146 19.9099 8.03404 20.1667 9.16659 20.1667Z" stroke="currentColor" stroke-width="1.5"/>
    <path d="M16.4999 13.294C16.5609 13.2686 16.6213 13.2422 16.6812 13.2148C17.0131 13.0632 17.3855 13.0065 17.738 13.1008L18.1743 13.2176C19.0602 13.4546 19.8705 12.6442 19.6335 11.7584L19.5168 11.322C19.4225 10.9695 19.4792 10.5971 19.6308 10.2652C19.9748 9.51197 20.1666 8.67454 20.1666 7.79232C20.1666 4.50162 17.4989 1.83398 14.2083 1.83398C11.7312 1.83398 9.60715 3.34556 8.70825 5.49662" stroke="currentColor" stroke-width="1.5"/>
    <path d="M6.87508 12.8327C6.87508 13.3389 6.46468 13.7493 5.95841 13.7493C5.45215 13.7493 5.04175 13.3389 5.04175 12.8327C5.04175 12.3264 5.45215 11.916 5.95841 11.916C6.46468 11.916 6.87508 12.3264 6.87508 12.8327Z" fill="currentColor"/>
    <path d="M10.0834 12.8327C10.0834 13.3389 9.67301 13.7493 9.16675 13.7493C8.66049 13.7493 8.25008 13.3389 8.25008 12.8327C8.25008 12.3264 8.66049 11.916 9.16675 11.916C9.67301 11.916 10.0834 12.3264 10.0834 12.8327Z" fill="currentColor"/>
    <path d="M13.2917 12.8327C13.2917 13.3389 12.8813 13.7493 12.3751 13.7493C11.8688 13.7493 11.4584 13.3389 11.4584 12.8327C11.4584 12.3264 11.8688 11.916 12.3751 11.916C12.8813 11.916 13.2917 12.3264 13.2917 12.8327Z" fill="currentColor"/>
</svg>