<svg viewBox="0 0 24 24" fill="none" xmlns="http://www.w3.org/2000/svg">
    <path d="M9.8 12C9.8 12.5523 9.39706 13 8.9 13C8.40294 13 8 12.5523 8 12C8 11.4477 8.40294 11 8.9 11C9.39706 11 9.8 11.4477 9.8 12Z" fill="currentColor"/>
    <path d="M13.4 12C13.4 12.5523 12.9971 13 12.5 13C12.0029 13 11.6 12.5523 11.6 12C11.6 11.4477 12.0029 11 12.5 11C12.9971 11 13.4 11.4477 13.4 12Z" fill="currentColor"/>
    <path d="M17 12C17 12.5523 16.5971 13 16.1 13C15.6029 13 15.2 12.5523 15.2 12C15.2 11.4477 15.6029 11 16.1 11C16.5971 11 17 11.4477 17 12Z" fill="currentColor"/>
    <path d="M12 21C16.9706 21 21 16.9706 21 12C21 7.02944 16.9706 3 12 3C7.02944 3 3 7.02944 3 12C3 13.4397 3.33805 14.8005 3.93912 16.0072C4.09884 16.3279 4.15201 16.6945 4.05941 17.0406L3.52336 19.044C3.29066 19.9137 4.08631 20.7093 4.95601 20.4766L6.95945 19.9406C7.30554 19.848 7.67209 19.9012 7.99278 20.0609C9.19953 20.6619 10.5603 21 12 21Z" stroke="currentColor" stroke-width="1.5"/>
</svg>
