<svg viewBox="0 0 22 22" fill="none" xmlns="http://www.w3.org/2000/svg">
    <path d="M13.5956 4.62883C13.919 5.44266 14.4049 6.06485 15.0335 6.474C15.6621 6.88322 16.4266 7.07489 17.2996 7.03899C17.4062 7.0346 17.4615 7.05118 17.4968 7.0768C17.533 7.10304 17.566 7.15147 17.5987 7.25161L17.5988 7.25184C17.919 8.22255 18.5939 8.82976 19.5937 9.04838C19.6767 9.06659 19.7184 9.09848 19.7435 9.13339C19.7709 9.17149 19.7873 9.2255 19.7962 9.30365C19.8333 9.65936 19.8676 10.0141 19.8959 10.3064C19.9111 10.4636 19.9245 10.6027 19.9358 10.7143C19.9126 13.3332 19.099 15.3953 17.4711 17.127L17.4711 17.1271C16.0717 18.617 14.3555 19.5147 12.3443 19.8279C10.1417 20.1695 8.09167 19.7178 6.20905 18.5309C4.7818 17.6297 3.69806 16.4 2.95713 14.881L2.95712 14.881C2.27655 13.4864 1.98664 12.0036 2.07807 10.4469L2.07807 10.4468C2.18208 8.65635 2.77423 7.04402 3.83965 5.61403L3.83973 5.61392C5.05041 3.98426 6.63472 2.87475 8.59195 2.31481C8.74321 2.27201 8.84928 2.24341 8.93093 2.2311C9.01146 2.21895 9.0543 2.22509 9.08476 2.23929C9.11615 2.25392 9.15019 2.28442 9.1974 2.3554C9.24346 2.42465 9.29415 2.51978 9.36501 2.65276L9.37165 2.66524M13.5956 4.62883C13.5955 4.62874 13.5955 4.62865 13.5955 4.62857L13.6884 4.59164L13.5957 4.62916C13.5957 4.62905 13.5956 4.62894 13.5956 4.62883ZM13.5956 4.62883C13.5591 4.53882 13.5265 4.51522 13.5034 4.50653C13.4733 4.49519 13.4265 4.49577 13.3344 4.5165L13.3337 4.51666C11.7599 4.85889 10.1286 4.09242 9.37175 2.66542M9.37175 2.66542L9.4599 2.61844L9.37165 2.66524M9.37175 2.66542L9.37165 2.66524M9.37175 2.66542L9.37165 2.66524M0.900009 10.8235L0.899994 10.8235L0.900001 10.8252C0.909643 13.1187 1.53689 15.1028 2.79861 16.8667C3.98537 18.5291 5.53737 19.7545 7.46341 20.443C10.5247 21.5404 13.478 21.269 16.2795 19.5839C17.7636 18.6921 18.9325 17.4768 19.7726 15.9715C21.1043 13.5888 21.4327 11.0552 20.7637 8.40494L20.7637 8.40488C20.7512 8.35584 20.7414 8.31269 20.7327 8.27396L20.7313 8.2681C20.7232 8.23225 20.7157 8.19882 20.7079 8.16954C20.6923 8.11105 20.6709 8.04705 20.6204 8.00069C20.5675 7.95226 20.5 7.93799 20.4311 7.933C20.3619 7.92801 20.2702 7.93141 20.1529 7.93612L20.1529 7.93612C19.4077 7.96616 18.821 7.51326 18.6777 6.7792L18.6776 6.77834C18.6399 6.59417 18.6526 6.40075 18.6662 6.19404C18.6698 6.13904 18.6735 6.08309 18.6763 6.02612L18.5765 6.02121L18.6763 6.02656C18.6805 5.94822 18.6782 5.87732 18.665 5.81688C18.6518 5.75604 18.6254 5.69749 18.5749 5.6556C18.5236 5.61304 18.4609 5.59891 18.3979 5.60012C18.3363 5.60129 18.2678 5.61712 18.1942 5.64174C18.106 5.67124 18.0214 5.7039 17.9392 5.73564L17.9388 5.73578C16.3107 6.33852 14.6353 5.23564 14.5371 3.49225C14.5299 3.36419 14.52 3.25753 14.5005 3.17572C14.4818 3.09695 14.4485 3.01601 14.3739 2.97227C14.298 2.92776 14.2115 2.94024 14.1348 2.96518C14.0557 2.99088 13.9611 3.03853 13.8502 3.10022C13.123 3.5022 12.3714 3.56238 11.618 3.24271L11.6179 3.24266C10.7456 2.87402 10.2583 2.17661 10.1069 1.23406C10.0898 1.12291 10.0548 1.02146 9.97043 0.958962C9.88622 0.896553 9.77857 0.892078 9.6663 0.907443L9.66618 0.907461C8.33479 1.09144 7.07597 1.51129 5.91968 2.19986C4.20225 3.21992 2.87266 4.6188 1.97161 6.4243L1.9715 6.42452C1.26374 7.85168 0.919322 9.35677 0.900009 10.8235Z" fill="currentColor" stroke="#8598B2" stroke-width="0.2"/>
    <path d="M8.97883 5.41899C9.68852 5.41303 10.27 5.98555 10.2759 6.7012C10.2819 7.41388 9.70641 8.00429 9.00268 8.00727C8.2751 8.01323 7.68469 7.43773 7.67872 6.72208C7.67574 6.00344 8.24826 5.42496 8.97883 5.41899Z" fill="currentColor" />
    <path d="M15.7539 11.0573C15.7539 10.4489 16.2191 9.97781 16.8304 9.96886C17.388 9.95992 17.9009 10.4847 17.8949 11.0573C17.8889 11.6477 17.4029 12.1307 16.8184 12.1278C16.2191 12.1278 15.7539 11.6596 15.7539 11.0573Z" fill="currentColor" />
    <path d="M14.6625 15.1395C14.6655 15.6464 14.2928 16.0221 13.7888 16.0191C13.2968 16.0162 12.9092 15.6255 12.9092 15.1335C12.9122 14.6713 13.3177 14.2568 13.7829 14.2568C14.2093 14.2568 14.6923 14.6057 14.6625 15.1395Z" fill="currentColor" />
    <path d="M8.69003 11.9248C8.68407 12.3959 8.28449 12.7866 7.81037 12.7836C7.30345 12.7776 6.92773 12.3751 6.93668 11.8473C6.94563 11.3851 7.33625 11.0302 7.82826 11.0332C8.32922 11.0362 8.69599 11.4179 8.69003 11.9248Z" fill="currentColor" />
    <path d="M10.6752 16.795C10.6692 17.135 10.3621 17.4332 10.0251 17.4302C9.67626 17.4242 9.36912 17.1171 9.37509 16.7682C9.37807 16.4193 9.68818 16.1181 10.04 16.1241C10.3889 16.1271 10.6812 16.4372 10.6752 16.795Z" fill="currentColor" />
    <path d="M12.4405 11.0036C12.4405 11.3615 12.1632 11.6418 11.8084 11.6418C11.4446 11.6418 11.1524 11.3555 11.1524 10.9947C11.1494 10.6309 11.4297 10.3536 11.8054 10.3506C12.1752 10.3476 12.4405 10.619 12.4405 11.0036Z" fill="currentColor" />
</svg>