<svg viewBox="0 0 24 24" fill="none" xmlns="http://www.w3.org/2000/svg">
    <path d="M3 11.283C3 7.99525 3 6.35136 4.02138 5.32998C5.04277 4.30859 6.68666 4.30859 9.97444 4.30859H13.4617C16.7494 4.30859 18.3933 4.30859 19.4147 5.32998C20.4361 6.35136 20.4361 7.99525 20.4361 11.283V13.0266C20.4361 16.3144 20.4361 17.9583 19.4147 18.9797C18.3933 20.0011 16.7494 20.0011 13.4617 20.0011H9.97444C6.68666 20.0011 5.04277 20.0011 4.02138 18.9797C3 17.9583 3 16.3144 3 13.0266V11.283Z" stroke="currentColor" stroke-width="1.30771"/>
    <path d="M7.35889 4.30771V3" stroke="currentColor" stroke-width="1.30771" stroke-linecap="round"/>
    <path d="M16.0771 4.30771V3" stroke="currentColor" stroke-width="1.30771" stroke-linecap="round"/>
    <path d="M3.43604 8.66406H20.0003" stroke="currentColor" stroke-width="1.30771" stroke-linecap="round"/>
    <path d="M16.9492 15.6403C16.9492 16.1218 16.5589 16.5121 16.0774 16.5121C15.5959 16.5121 15.2056 16.1218 15.2056 15.6403C15.2056 15.1588 15.5959 14.7685 16.0774 14.7685C16.5589 14.7685 16.9492 15.1588 16.9492 15.6403Z" fill="currentColor"/>
    <path d="M16.9492 12.1531C16.9492 12.6345 16.5589 13.0249 16.0774 13.0249C15.5959 13.0249 15.2056 12.6345 15.2056 12.1531C15.2056 11.6716 15.5959 11.2812 16.0774 11.2812C16.5589 11.2812 16.9492 11.6716 16.9492 12.1531Z" fill="currentColor"/>
    <path d="M12.5898 15.6403C12.5898 16.1218 12.1995 16.5121 11.718 16.5121C11.2365 16.5121 10.8462 16.1218 10.8462 15.6403C10.8462 15.1588 11.2365 14.7685 11.718 14.7685C12.1995 14.7685 12.5898 15.1588 12.5898 15.6403Z" fill="currentColor"/>
    <path d="M12.5898 12.1531C12.5898 12.6345 12.1995 13.0249 11.718 13.0249C11.2365 13.0249 10.8462 12.6345 10.8462 12.1531C10.8462 11.6716 11.2365 11.2812 11.718 11.2812C12.1995 11.2812 12.5898 11.6716 12.5898 12.1531Z" fill="currentColor"/>
    <path d="M8.23091 15.6403C8.23091 16.1218 7.84059 16.5121 7.35911 16.5121C6.87762 16.5121 6.4873 16.1218 6.4873 15.6403C6.4873 15.1588 6.87762 14.7685 7.35911 14.7685C7.84059 14.7685 8.23091 15.1588 8.23091 15.6403Z" fill="currentColor"/>
    <path d="M8.23091 12.1531C8.23091 12.6345 7.84059 13.0249 7.35911 13.0249C6.87762 13.0249 6.4873 12.6345 6.4873 12.1531C6.4873 11.6716 6.87762 11.2812 7.35911 11.2812C7.84059 11.2812 8.23091 11.6716 8.23091 12.1531Z" fill="currentColor"/>
</svg>