<svg viewBox="0 0 34 34" fill="none" xmlns="http://www.w3.org/2000/svg">
    <path d="m25.755 11.39.657-.656a2.785 2.785 0 0 1 3.939 3.939l-.657.657m-3.939-3.94s.082 1.396 1.313 2.627c1.231 1.23 2.626 1.313 2.626 1.313m-3.939-3.94-6.036 6.036c-.409.41-.613.614-.789.839a4.645 4.645 0 0 0-.53.858c-.123.258-.214.532-.397 1.08l-.586 1.757-.19.568m12.467-7.198-6.036 6.036c-.408.408-.613.613-.838.788a4.641 4.641 0 0 1-.858.53c-.258.124-.532.215-1.08.398l-1.757.585-.568.19m0 0-.568.19a.751.751 0 0 1-.95-.951l.189-.568m1.329 1.329-1.33-1.33" stroke="currentColor" stroke-width="1.4"/>
    <path d="M11.333 18.416h3.542m-3.542-5.666h9.208m-9.208 11.332h2.125M28.09 4.494c-1.66-1.66-4.33-1.66-9.673-1.66h-2.834c-5.342 0-8.014 0-9.673 1.66-1.66 1.66-1.66 4.33-1.66 9.673v5.667c0 5.343 0 8.014 1.66 9.674 1.66 1.66 4.33 1.66 9.673 1.66h2.834c5.342 0 8.013 0 9.673-1.66 1.336-1.336 1.597-3.328 1.648-6.84" stroke="currentColor" stroke-width="1.4" stroke-linecap="round"/>
</svg>
