<svg viewBox="0 0 24 24" fill="none" xmlns="http://www.w3.org/2000/svg">
    <path d="M11.7336 4.53319H6.90011C5.29842 4.53319 4 5.83161 4 7.4333V17.1004C4 18.7021 5.29842 20.0005 6.90011 20.0005H16.5672C18.1688 20.0005 19.4673 18.7021 19.4673 17.1004L19.4673 12.2669M8.83352 15.1669L12.3507 14.4582C12.5374 14.4206 12.7089 14.3287 12.8435 14.194L20.717 6.31609C21.0945 5.93839 21.0943 5.32615 20.7165 4.94877L19.0486 3.28275C18.6709 2.90552 18.059 2.90578 17.6816 3.28333L9.80728 11.162C9.6729 11.2965 9.58114 11.4676 9.54349 11.6539L8.83352 15.1669Z" stroke="currentColor" stroke-width="1.5" stroke-linecap="round" stroke-linejoin="round"/>
</svg>