<svg viewBox="0 0 20 20" fill="none" xmlns="http://www.w3.org/2000/svg">
    <path d="M8.15222 2.91637C9.33639 2.36121 10.6635 2.36121 11.8476 2.91637L17.4236 5.53053C18.6365 6.09916 18.6365 8.06754 17.4236 8.63617L11.8477 11.2503C10.6635 11.8055 9.33647 11.8055 8.1523 11.2503L2.57629 8.63614C1.3634 8.0675 1.36341 6.09912 2.5763 5.53049L8.15222 2.91637Z" stroke="currentColor" stroke-width="1.2"/>
    <path d="M1.66663 7.08203V11.6654" stroke="currentColor" stroke-width="1.2" stroke-linecap="round"/>
    <path d="M15.8333 9.58203V13.8532C15.8333 14.6932 15.4137 15.4797 14.6788 15.8867C13.4552 16.5643 11.4966 17.4987 9.99996 17.4987C8.50329 17.4987 6.54471 16.5643 5.32107 15.8867C4.58621 15.4797 4.16663 14.6932 4.16663 13.8532V9.58203" stroke="currentColor" stroke-width="1.2" stroke-linecap="round"/>
</svg>