<svg viewBox="0 0 22 22" fill="none" xmlns="http://www.w3.org/2000/svg">
    <path d="M11 2.111a8.884 8.884 0 0 1 6.283 2.615 8.942 8.942 0 0 1 2.606 6.303c-.444 11.816-17.333 11.81-17.778 0a8.942 8.942 0 0 1 2.606-6.303A8.884 8.884 0 0 1 11 2.111Zm0 16.35a7.404 7.404 0 0 0 5.235-2.18 7.452 7.452 0 0 0 2.172-5.252c-.37-9.845-14.444-9.842-14.814 0a7.452 7.452 0 0 0 2.172 5.253A7.404 7.404 0 0 0 11 18.46Zm3.704-9.29a1.116 1.116 0 0 0-1.111-1.115 1.11 1.11 0 0 0-1.111 1.115 1.117 1.117 0 0 0 1.11 1.115 1.11 1.11 0 0 0 1.112-1.115Zm-5.185 0a1.117 1.117 0 0 0-1.112-1.115 1.11 1.11 0 0 0-1.11 1.115 1.117 1.117 0 0 0 1.11 1.115A1.11 1.11 0 0 0 9.52 9.17Zm-2.846 4.49A5.045 5.045 0 0 0 11 16.231a5.052 5.052 0 0 0 2.507-.707 5.074 5.074 0 0 0 1.825-1.863.746.746 0 0 0-.35-1.09.739.739 0 0 0-.426-.038c-1.14.43-2.34.676-3.556.726a11.377 11.377 0 0 1-3.55-.726.738.738 0 0 0-.895.714.745.745 0 0 0 .118.414Z" fill="currentColor" />
</svg>
