<svg width="18" height="18" viewBox="0 0 18 18" fill="none" xmlns="http://www.w3.org/2000/svg">
    <path d="M1.37646 9.16633C2.77544 6.87295 4.70057 5.26029 7.36801 4.64035C9.11775 4.23111 10.8349 4.40939 12.4867 5.11847C12.605 5.17115 12.6703 5.15089 12.76 5.0658C13.2372 4.58362 13.7226 4.1055 14.2038 3.62737C14.3466 3.48555 14.5097 3.43288 14.7055 3.49366C14.885 3.54633 14.9992 3.67194 15.04 3.85428C15.0848 4.04877 15.0073 4.20679 14.8646 4.34456C14.2038 4.99692 13.5472 5.65332 12.8905 6.30568C10.0069 9.17038 7.11921 12.0391 4.2356 14.9079C4.09285 15.0497 3.94602 15.1469 3.73801 15.1105C3.54631 15.0781 3.41579 14.9646 3.35461 14.7782C3.29343 14.5878 3.34238 14.4176 3.48513 14.2798C3.88892 13.8746 4.29678 13.4695 4.70465 13.0683C4.74543 13.0278 4.7903 12.9954 4.85148 12.9468C3.39948 12.0229 2.22483 10.8722 1.37646 9.40944C1.37646 9.3284 1.37646 9.24736 1.37646 9.16633ZM11.8627 5.92075C11.8464 5.91265 11.826 5.90049 11.8056 5.89239C10.1374 5.26434 8.45701 5.23193 6.77661 5.81945C4.96568 6.4556 3.59525 7.65497 2.50217 9.19469C2.44507 9.27573 2.46954 9.32435 2.51441 9.39323C2.97938 10.0618 3.52592 10.6615 4.14179 11.1923C4.58229 11.5732 5.05541 11.9135 5.54485 12.185C5.96495 11.7677 6.37282 11.3625 6.78476 10.9532C5.89562 9.64445 6.2423 8.1493 7.07027 7.28219C7.886 6.42319 9.4726 5.95317 10.8838 6.90131C11.206 6.57311 11.5323 6.24895 11.8627 5.92075ZM7.50669 10.236C8.38767 9.36082 9.26459 8.48966 10.1415 7.6185C9.55009 7.22141 8.53451 7.22141 7.8289 7.90213C7.18855 8.51802 7.0458 9.55126 7.50669 10.236Z" fill="currentColor" />
    <path d="M6.75244 13.7674C7.01348 13.5122 7.25819 13.265 7.51107 13.026C7.53962 12.9976 7.60488 12.9935 7.64975 13.0016C10.101 13.5081 12.2423 12.8639 14.143 11.2998C14.8037 10.7569 15.3706 10.1207 15.8642 9.42381C15.9376 9.32251 15.9294 9.25768 15.8601 9.16449C15.2809 8.35005 14.5998 7.63287 13.8004 7.02508C13.7555 6.99266 13.7147 6.9562 13.678 6.92783C13.9146 6.69282 14.143 6.46186 14.3918 6.21875C14.6283 6.41729 14.873 6.61989 15.1096 6.83059C15.7907 7.45053 16.3781 8.15151 16.8757 8.92947C17.0388 9.18069 17.0429 9.4076 16.8797 9.65882C15.6317 11.5713 13.9961 13.0057 11.7977 13.735C10.1704 14.2739 8.52258 14.2861 6.8748 13.8161C6.83809 13.7999 6.80546 13.7877 6.75244 13.7674Z" fill="currentColor" />
    <path d="M12.0256 8.53125C12.2744 9.69415 12.0052 10.6707 11.1487 11.4446C10.3819 12.1374 9.47236 12.34 8.42822 12.101C8.73412 11.8011 9.01147 11.5216 9.29698 11.2501C9.32961 11.2177 9.39079 11.2096 9.43565 11.2055C10.3044 11.1042 11.0141 10.3992 11.1161 9.53612C11.1201 9.4875 11.1283 9.42672 11.1609 9.39431C11.4383 9.11472 11.7197 8.83919 12.0256 8.53125Z" fill="currentColor" />
</svg>