<svg viewBox="0 0 30 30" fill="none" xmlns="http://www.w3.org/2000/svg">
    <path d="M1.25 13.928c.189-.516.307-1.073.582-1.537.666-1.123 1.703-1.743 3.008-1.775 1.841-.046 3.687-.016 5.53-.014.351 0 .59.225.597.525.006.321-.246.544-.633.546-1.71.002-3.419 0-5.128.002-1.733 0-2.88 1.142-2.88 2.867v7.92c0 1.697 1.152 2.852 2.841 2.852 1.064 0 2.13.004 3.194-.003.262-.002.441.096.623.291.398.432.834.828 1.29 1.271 0-.314-.003-.602 0-.891.004-.47.2-.666.674-.666 1.835-.002 3.67 0 5.504 0 1.678 0 2.84-1.157 2.84-2.828 0-1.119 0-2.237.002-3.356 0-.107 0-.216.023-.32a.532.532 0 0 1 .52-.421c.235.005.444.17.503.412.02.086.025.177.025.265.002 1.183.009 2.363 0 3.545-.016 1.814-1.203 3.287-2.97 3.683-.302.068-.62.088-.931.088-1.692.01-3.383.005-5.118.005v.718c0 .305-.013.61.005.912.02.327-.087.573-.38.73h-.323c-.18-.16-.366-.31-.536-.478-.58-.57-1.146-1.152-1.733-1.716a.635.635 0 0 0-.388-.162c-1.046-.013-2.092.023-3.135-.02-1.312-.052-2.356-.652-3.026-1.782-.275-.462-.391-1.019-.58-1.535v-9.128Z" fill="currentColor"/>
    <path d="M20.284 1.255c1.116-.03 2.218.062 3.27.462 2.602.99 4.316 2.823 4.955 5.53.695 2.938-.13 5.48-2.32 7.56-.247.236-.36.455-.352.798.025.832.005 1.664.01 2.496.002.27-.057.503-.328.618-.282.12-.498-.006-.693-.204-.58-.584-1.169-1.162-1.744-1.748-.111-.114-.207-.144-.37-.114-1.753.32-3.508.366-5.238-.098-1.883-.505-3.351-1.616-4.42-3.242a7.533 7.533 0 0 1-1.232-4.978c.214-2.203 1.2-4.004 2.921-5.388 1.464-1.176 3.16-1.708 5.031-1.696.168.006.339.004.51.004Zm4.487 15.696c0-.555.039-1.032-.009-1.498-.064-.612.182-.998.641-1.387 1.29-1.09 2.012-2.517 2.212-4.188.22-1.844-.245-3.517-1.396-4.976-1.066-1.353-2.457-2.21-4.17-2.456-.817-.116-1.656-.102-2.486-.111a6.157 6.157 0 0 0-2.73.591c-2.18 1.039-3.533 2.744-3.886 5.14-.375 2.53.491 4.631 2.458 6.254 1.13.932 2.455 1.408 3.924 1.455 1.152.037 2.31.094 3.435-.24.332-.098.584-.03.82.22.369.389.755.761 1.187 1.196Zm-14.446 2.027H4.903c-.088 0-.18.005-.268-.009a.543.543 0 0 1-.48-.527c0-.262.2-.487.48-.528.089-.014.18-.009.268-.009H15.86c.434.002.693.202.693.537 0 .334-.259.536-.695.536h-5.532ZM9.296 21.98H4.894c-.098 0-.198.003-.293-.016a.537.537 0 0 1-.446-.527.54.54 0 0 1 .462-.516c.07-.014.143-.014.214-.014h8.936c.43 0 .685.216.671.557-.014.307-.243.512-.605.514-.573.007-1.146.002-1.716.002H9.296Zm-.662-7.083h3.678c.089 0 .18-.004.269.01.28.04.48.265.48.527 0 .261-.2.486-.48.527-.09.014-.18.01-.269.01H4.85c-.435-.003-.694-.203-.694-.537s.26-.537.696-.537h3.783Zm7.916 6.542a.551.551 0 0 1-.523.541.551.551 0 0 1-.542-.523.551.551 0 0 1 .523-.54.553.553 0 0 1 .541.522Z" fill="currentColor"/>
    <path d="M19.88 10.049c0-.207-.004-.411.003-.616a.984.984 0 0 1 .68-.932c.084-.03.17-.055.254-.084.557-.203.884-.771.773-1.346a1.207 1.207 0 0 0-1.212-.973c-.59.02-1.064.45-1.146 1.041-.01.08-.022.16-.038.239-.062.3-.282.466-.575.439-.269-.025-.46-.241-.471-.528-.032-.918.673-1.891 1.562-2.153 1.557-.459 3.008.657 2.967 2.28-.023.867-.632 1.715-1.467 1.994-.213.07-.273.168-.261.38.018.293.011.59.002.884-.011.37-.232.614-.541.612-.311 0-.523-.246-.53-.616-.006-.21-.002-.414 0-.621-.002 0-.002 0 0 0Zm1.064 2.811a.54.54 0 0 1-.52.538.525.525 0 0 1-.541-.514.533.533 0 0 1 .515-.543.548.548 0 0 1 .546.518Z" fill="currentColor"/>
</svg>
