<svg viewBox="0 0 22 22" fill="none" xmlns="http://www.w3.org/2000/svg">
    <path d="M19.25 15.5833V11C19.25 6.44365 15.5563 2.75 11 2.75C6.44365 2.75 2.75 6.44365 2.75 11V15.5833" stroke="currentColor" stroke-width="1.5"/>
    <path d="M20.167 14.208V16.0413" stroke="currentColor" stroke-width="1.5" stroke-linecap="round"/>
    <path d="M1.83301 14.208V16.0413" stroke="currentColor" stroke-width="1.5" stroke-linecap="round"/>
    <path d="M7.33333 12.6909C7.33333 11.9902 7.33333 11.6399 7.17316 11.3962C7.09255 11.2736 6.98556 11.1723 6.8607 11.1004C6.61257 10.9574 6.27745 10.9904 5.6072 11.0565C4.4778 11.1679 3.9131 11.2236 3.50842 11.5284C3.30361 11.6827 3.13168 11.8794 3.00342 12.1062C2.75 12.5542 2.75 13.1446 2.75 14.3253V15.7605C2.75 16.9295 2.75 17.514 3.00848 17.9653C3.10523 18.1343 3.22649 18.2867 3.36798 18.4171C3.74598 18.7654 4.29774 18.8742 5.40125 19.0918C6.17782 19.245 6.5661 19.3215 6.85267 19.1603C6.95841 19.1008 7.05188 19.0202 7.12774 18.9231C7.33333 18.6601 7.33333 18.2488 7.33333 17.4262V12.6909Z" stroke="currentColor" stroke-width="1.5"/>
    <path d="M14.667 12.6909C14.667 11.9902 14.667 11.6399 14.8272 11.3962C14.9078 11.2736 15.0148 11.1723 15.1396 11.1004C15.3878 10.9574 15.7229 10.9904 16.3931 11.0565C17.5225 11.1679 18.0872 11.2236 18.4919 11.5284C18.6967 11.6827 18.8686 11.8794 18.9969 12.1062C19.2503 12.5542 19.2503 13.1446 19.2503 14.3253V15.7605C19.2503 16.9295 19.2503 17.514 18.9918 17.9653C18.8951 18.1343 18.7738 18.2867 18.6323 18.4171C18.2543 18.7654 17.7026 18.8742 16.5991 19.0918C15.8225 19.245 15.4342 19.3215 15.1477 19.1603C15.0419 19.1008 14.9484 19.0202 14.8726 18.9231C14.667 18.6601 14.667 18.2488 14.667 17.4262V12.6909Z" stroke="currentColor" stroke-width="1.5"/>
</svg>