<svg viewBox="0 0 30 30" fill="none" xmlns="http://www.w3.org/2000/svg">
    <path d="M25 16.3882C25 25.2771 17.4444 27.4993 13.6667 27.4993C10.3611 27.4993 3.75 25.2771 3.75 16.3882C3.75 12.9112 5.57683 10.576 7.32494 9.24244C8.29802 8.50014 9.538 9.23923 9.66272 10.4567L9.77 11.504C9.90065 12.7794 11.0616 13.8251 12.1367 13.1264C14.2422 11.7581 15 8.46826 15 6.66594V6.26141C15 4.47426 16.8047 3.32408 18.2528 4.37136C21.4566 6.68835 25 10.7296 25 16.3882Z" stroke="currentColor" stroke-width="1.5"/>
    <path d="M10 23.0563C10 26.6119 13.1111 27.5008 14.6667 27.5008C16.0278 27.5008 18.75 26.6119 18.75 23.0563C18.75 21.6801 18.0134 20.751 17.3005 20.2149C16.8031 19.8407 16.1035 20.1767 15.9324 20.7752C15.7094 21.5554 14.9035 22.0457 14.493 21.3457C14.1176 20.7055 14.1176 19.7453 14.1176 19.1674C14.1176 18.3718 13.3173 17.8566 12.6737 18.3243C11.3831 19.2621 10 20.8526 10 23.0563Z" stroke="currentColor" stroke-width="1.5"/>
</svg>