<svg viewBox="0 0 30 30" fill="none" xmlns="http://www.w3.org/2000/svg">
    <path d="M20.328 18.345c.844.187 1.667.344 2.477.556 1.349.349 2.664.803 3.822 1.61.653.455 1.204 1.003 1.412 1.806.22.853-.06 1.58-.628 2.213-.67.747-1.535 1.206-2.447 1.588-1.714.714-3.516 1.088-5.344 1.33-2.35.31-4.704.374-7.067.187-2.528-.195-5.017-.59-7.376-1.593-.827-.353-1.607-.794-2.23-1.461-1.002-1.07-.997-2.388.016-3.45.857-.892 1.943-1.418 3.092-1.775 1.184-.361 2.401-.616 3.606-.914.097-.025.199-.046.335-.076-.174-.26-.331-.493-.484-.726-1.15-1.763-2.053-3.624-2.426-5.722C6.314 7.53 9.088 3.35 13.427 2.39c4.623-1.024 9.213 2.196 9.836 6.902.25 1.886-.148 3.67-.874 5.395-.5 1.19-1.15 2.298-1.874 3.365-.06.093-.12.19-.187.293ZM15.17 26.65a31.098 31.098 0 0 0 5.255-.413c1.583-.267 3.148-.62 4.586-1.35a7.042 7.042 0 0 0 1.59-1.113c.59-.557.581-1.203.021-1.789a5.234 5.234 0 0 0-1.192-.921c-1.738-.97-3.656-1.364-5.598-1.666-.22-.034-.344.034-.475.2a31.022 31.022 0 0 1-3.66 3.844c-.455.4-.633.4-1.087 0a29.436 29.436 0 0 1-3.618-3.797c-.178-.221-.343-.293-.61-.238-.36.076-.726.119-1.09.19-1.544.302-3.067.685-4.441 1.483-.45.26-.87.6-1.226.978-.484.518-.47 1.083-.009 1.622.238.276.514.552.828.722.75.395 1.514.799 2.311 1.067 2.732.917 5.56 1.168 8.415 1.18Zm-.012-4.176c.73-.735 1.471-1.423 2.15-2.167 1.616-1.763 3.033-3.67 4.012-5.874.68-1.526 1.09-3.11.904-4.792-.445-4.04-4.089-6.84-8.127-6.27-3.512.493-6.167 3.674-6.044 7.226.06 1.729.61 3.305 1.408 4.808 1.34 2.524 3.173 4.66 5.217 6.631.153.145.31.28.48.438Z" fill="currentColor" />
    <path fill-rule="evenodd" clip-rule="evenodd" d="M28.233 22.267c.242.936-.072 1.729-.672 2.397-.7.781-1.598 1.254-2.519 1.64-1.736.723-3.559 1.1-5.395 1.343a33.803 33.803 0 0 1-7.108.188c-2.538-.196-5.052-.593-7.44-1.608-.839-.358-1.648-.813-2.298-1.509-.529-.566-.804-1.21-.801-1.865.003-.656.284-1.298.82-1.859.888-.925 2.01-1.466 3.177-1.828.853-.26 1.727-.467 2.593-.672.343-.08.684-.161 1.022-.244l.056-.015a51.192 51.192 0 0 1-.323-.485c-1.158-1.776-2.076-3.662-2.455-5.796-.79-4.493 2.05-8.775 6.495-9.759 4.738-1.049 9.438 2.25 10.077 7.072.256 1.932-.153 3.753-.887 5.499-.507 1.204-1.163 2.324-1.892 3.396l-.031.05.476.101c.581.124 1.16.246 1.728.396 1.357.35 2.7.812 3.886 1.639.67.466 1.266 1.05 1.491 1.92Zm-8.061-4 .287-.125.056-.09c.726-1.066 1.375-2.174 1.875-3.364.725-1.725 1.124-3.509.874-5.395-.624-4.706-5.213-7.926-9.836-6.903-4.34.96-7.113 5.14-6.341 9.528.373 2.099 1.276 3.96 2.426 5.723.117.178.236.357.364.547l.103.154.016.025-.069.015-.14.031-.126.03c-.343.085-.687.166-1.03.247-.865.204-1.729.408-2.575.667-1.15.357-2.235.883-3.092 1.775-1.014 1.062-1.018 2.38-.017 3.45.624.666 1.404 1.108 2.231 1.46 2.358 1.003 4.848 1.398 7.376 1.594a33.59 33.59 0 0 0 7.066-.187c1.828-.242 3.631-.616 5.345-1.33.912-.382 1.777-.84 2.447-1.588.568-.633.848-1.36.628-2.214m-12.343 1.126a31.021 31.021 0 0 0 3.66-3.844c.132-.166.255-.234.476-.2 1.942.302 3.86.697 5.598 1.665.433.242.849.565 1.192.922.56.586.569 1.232-.021 1.788a7.046 7.046 0 0 1-1.59 1.113c-1.439.731-3.004 1.084-4.586 1.351-1.739.293-3.49.417-5.255.412-2.854-.012-5.684-.263-8.415-1.18-.788-.265-1.543-.662-2.286-1.053l-.026-.014c-.314-.17-.59-.446-.827-.722-.462-.54-.475-1.104.009-1.623a5.447 5.447 0 0 1 1.225-.977c1.375-.798 2.897-1.18 4.441-1.482.169-.034.337-.06.505-.087.196-.032.391-.063.585-.104.268-.056.433.017.611.237a29.43 29.43 0 0 0 3.618 3.798c.454.4.632.4 1.086 0Zm-4.86-3.673a29.629 29.629 0 0 0 3.642 3.823c.223.196.433.35.675.35.242 0 .452-.154.675-.35a31.23 31.23 0 0 0 3.684-3.87h.001a.37.37 0 0 1 .13-.116c.03-.014.074-.023.158-.01 1.939.3 3.826.692 5.532 1.642a5.04 5.04 0 0 1 1.145.885c.256.268.366.529.365.766-.002.236-.113.488-.38.739a6.844 6.844 0 0 1-1.544 1.08c-1.41.717-2.95 1.065-4.527 1.332a31.008 31.008 0 0 1-5.221.41c-2.845-.013-5.65-.263-8.352-1.171-.773-.26-1.516-.65-2.263-1.044l-.017-.009h-.002c-.28-.152-.536-.405-.769-.676-.21-.245-.302-.477-.302-.69 0-.21.089-.434.305-.666a5.243 5.243 0 0 1 1.18-.94c1.343-.781 2.84-1.16 4.379-1.46.164-.033.33-.06.499-.086l.04-.007c.182-.029.368-.06.553-.099m6.738.57c1.607-1.753 3.01-3.643 3.977-5.82.67-1.507 1.07-3.055.888-4.69-.433-3.925-3.972-6.647-7.9-6.093-3.41.478-5.992 3.57-5.872 7.02.058 1.69.596 3.236 1.385 4.722 1.326 2.498 3.143 4.618 5.178 6.58a13.505 13.505 0 0 0 .335.306c.203-.203.405-.401.606-.598.483-.473.956-.936 1.403-1.427Zm-2.482 1.864c-2.044-1.971-3.877-4.108-5.217-6.63-.797-1.505-1.349-3.08-1.408-4.81-.123-3.55 2.532-6.733 6.044-7.225 4.038-.57 7.681 2.23 8.127 6.27.186 1.682-.225 3.266-.904 4.791-.98 2.205-2.396 4.112-4.012 5.875a36.21 36.21 0 0 1-1.416 1.44c-.245.24-.49.48-.735.727l-.218-.2a8.648 8.648 0 0 1-.26-.238Z" fill="currentColor" />
    <path d="M9.781 10.414a5.381 5.381 0 0 1 5.387-5.39 5.384 5.384 0 0 1-.017 10.768 5.378 5.378 0 0 1-5.37-5.378Zm1.078-.013c-.005 2.375 1.921 4.312 4.288 4.316a4.312 4.312 0 0 0 4.31-4.299c.003-2.374-1.927-4.311-4.293-4.311a4.302 4.302 0 0 0-4.305 4.294Z" fill="currentColor" />
    <path fill-rule="evenodd" clip-rule="evenodd" d="M15.169 4.824a5.584 5.584 0 0 1-.018 11.168 5.578 5.578 0 0 1-5.569-5.577 5.581 5.581 0 0 1 5.587-5.59Zm-.005 1.283c2.367 0 4.297 1.937 4.293 4.312a4.312 4.312 0 0 1-4.31 4.299c-2.366-.004-4.292-1.941-4.288-4.316a4.302 4.302 0 0 1 4.306-4.295Z" fill="currentColor" />
    <path d="M13.547 10.383c0-.634.004-1.267 0-1.9 0-.218.048-.41.247-.526.217-.127.404-.048.595.08.954.629 1.909 1.255 2.863 1.884.445.297.445.653.004.945-.962.637-1.928 1.267-2.886 1.9-.183.12-.37.18-.572.064-.203-.116-.251-.304-.251-.525.004-.637 0-1.278 0-1.922Z" fill="currentColor" />
</svg>