<svg viewBox="0 0 30 30" fill="none" xmlns="http://www.w3.org/2000/svg">
    <path d="M9.99999 4.84756C10.4602 4.84756 10.8333 5.21611 10.8333 5.67073C10.8333 6.12536 10.4602 6.4939 9.99999 6.4939C8.61928 6.4939 7.49999 7.59954 7.49999 8.96341C7.49999 10.3273 8.61928 11.4329 9.99999 11.4329C10.4602 11.4329 10.8333 11.8015 10.8333 12.2561C10.8333 12.7107 10.4602 13.0793 9.99999 13.0793C7.69881 13.0793 5.83333 11.2365 5.83333 8.96341C5.83333 6.69029 7.69881 4.84756 9.99999 4.84756Z" fill="currentColor" />
    <path d="M6.48816 16.9398C6.93771 16.8425 7.38207 17.1235 7.48065 17.5676C7.57924 18.0116 7.29472 18.4506 6.84516 18.548C5.96476 18.7387 5.26116 19.0663 4.7968 19.4416C4.33181 19.8175 4.16666 20.1845 4.16666 20.4878C4.16666 20.763 4.30068 21.086 4.6701 21.425C5.04221 21.7665 5.61393 22.0819 6.35137 22.3013C6.79206 22.4324 7.04175 22.8915 6.90905 23.3268C6.77636 23.7622 6.31153 24.0088 5.87084 23.8777C4.95688 23.6059 4.13971 23.1854 3.53578 22.6312C2.92917 22.0746 2.5 21.3424 2.5 20.4878C2.5 19.5387 3.02694 18.7449 3.74132 18.1675C4.45633 17.5895 5.4194 17.1714 6.48816 16.9398Z" fill="currentColor" />
    <path fill-rule="evenodd" clip-rule="evenodd" d="M11.3889 8.96341C11.3889 6.08413 13.7518 3.75 16.6666 3.75C19.5815 3.75 21.9444 6.08413 21.9444 8.96341C21.9444 11.8427 19.5815 14.1768 16.6666 14.1768C13.7518 14.1768 11.3889 11.8427 11.3889 8.96341ZM16.6666 5.39634C14.6723 5.39634 13.0555 6.99337 13.0555 8.96341C13.0555 10.9335 14.6723 12.5305 16.6666 12.5305C18.661 12.5305 20.2778 10.9335 20.2778 8.96341C20.2778 6.99337 18.661 5.39634 16.6666 5.39634Z" fill="currentColor" />
    <path d="M11.5804 18.6469C10.2967 19.3715 9.72221 20.2471 9.72221 21.0366C9.72221 21.826 10.2967 22.7016 11.5804 23.4262C12.8405 24.1375 14.637 24.6037 16.6666 24.6037C18.0373 24.6037 19.3078 24.3908 20.3799 24.0294C20.8154 23.8826 21.289 24.1123 21.4377 24.5426C21.5863 24.9729 21.3538 25.4407 20.9182 25.5875C19.6605 26.0115 18.2069 26.25 16.6666 26.25C14.4007 26.25 12.3083 25.7333 10.7535 24.8557C9.22221 23.9913 8.05555 22.6718 8.05555 21.0366C8.05555 19.4014 9.22221 18.0818 10.7535 17.2175C12.3083 16.3398 14.4007 15.8232 16.6666 15.8232C19.7002 15.8232 22.4749 16.7537 24.0211 18.2869C24.3459 18.609 24.3449 19.1302 24.0188 19.451C23.6928 19.7719 23.1651 19.7709 22.8403 19.4488C21.7105 18.3284 19.4294 17.4695 16.6666 17.4695C14.637 17.4695 12.8405 17.9356 11.5804 18.6469Z" fill="currentColor" />
    <path d="M27.3174 21.5508C27.6049 21.1958 27.5466 20.6778 27.1872 20.3938C26.8278 20.1098 26.3034 20.1674 26.0159 20.5224L24.3753 22.5481L23.9226 22.1009C23.5971 21.7794 23.0695 21.7794 22.7441 22.1009C22.4186 22.4223 22.4186 22.9435 22.7441 23.265L23.8552 24.3626C24.0228 24.5281 24.2538 24.6153 24.4905 24.6024C24.7272 24.5895 24.9471 24.4776 25.0951 24.2947L27.3174 21.5508Z" fill="currentColor" />
</svg>