<svg viewBox="0 0 24 24" fill="none" xmlns="http://www.w3.org/2000/svg">
    <path d="M20.902 5.674c-.042-.318-.15-.402-.454-.498-.395-.12-.807-.234-1.166-.439-1.433-.816-2.192-2.106-2.45-3.715-.035-.234-.13-.402-.328-.522H7.517c-.203.138-.275.336-.316.576-.359 1.95-1.357 3.38-3.293 4.028-.15.048-.304.072-.454.108a.433.433 0 0 0-.364.396l-.09.6V7.42c.012.072.03.144.042.216.072.42.12.847.215 1.26.412 1.747 1.207 3.308 2.259 4.743 1.278 1.746 2.772 3.247 4.798 4.117.041.018.101.078.101.12.006.372.006.744.006 1.134h-2.79c-.4 0-.562.156-.562.553v3.39c0 .385.161.547.544.547h8.742c.394 0 .55-.162.55-.564v-3.367c0-.402-.156-.559-.556-.559h-2.802c0-.366.005-.702-.007-1.032-.006-.138.048-.186.162-.246.454-.234.932-.45 1.35-.738.508-.348.98-.756 1.458-1.147a.478.478 0 0 0 .078-.078c.382-.39 2.115-2.209 2.82-3.643.221-.408.442-.822.633-1.248.747-1.663 1.112-3.386.86-5.204Zm-4.906 14.249v2.67H7.971v-2.67h8.025Zm-4.667-.93v-.907h1.321v.906h-1.32Zm8.599-10.63c-.15.732-.377 1.434-.67 2.107-.125.282-1.487 3.307-4.128 5.383a7.83 7.83 0 0 1-1.68 1.015c-.609.264-1.242.42-1.911.306-.795-.138-1.506-.48-2.157-.936-2.26-1.585-3.843-3.71-4.858-6.267-.478-1.206-.723-2.467-.604-3.775.012-.126.054-.18.173-.216 1.62-.468 2.75-1.519 3.46-3.025.233-.486.37-1.02.562-1.543h7.857c.012.024.024.024.024.036a.686.686 0 0 1 .024.108c.52 2.161 1.727 3.71 3.89 4.412.12.042.137.102.15.21a7.242 7.242 0 0 1-.132 2.185Z" fill="currentColor"/>
    <path d="M7.971 10.008V6.43H7.38c-.31-.006-.502-.18-.502-.45s.191-.444.502-.45c.328-.006.657 0 .986 0 .358 0 .52.168.52.546v3.932c.227 0 .424-.006.627 0 .299.006.484.174.49.438 0 .264-.18.45-.478.456-.723.006-1.446.006-2.17 0-.298-.006-.477-.192-.477-.45 0-.264.185-.432.484-.438.197-.012.394-.006.61-.006Zm4.799.909c-.478-.024-.944-.246-1.302-.678a.452.452 0 0 1 .018-.63c.185-.175.43-.15.645.023.173.144.364.282.573.36a.48.48 0 0 0 .622-.288c.078-.228-.024-.426-.31-.564-.24-.12-.49-.222-.73-.336-.645-.306-.902-.816-.729-1.447.168-.606.753-.99 1.41-.924a1.79 1.79 0 0 1 1.004.45c.21.186.233.444.078.643-.155.192-.406.21-.64.06a1.844 1.844 0 0 0-.472-.24c-.185-.055-.376-.013-.483.18-.102.186-.06.33.131.426.293.144.597.264.89.414.604.312.89.912.741 1.506-.155.619-.729 1.057-1.446 1.045ZM16.838 7.6v.36c0 .828 0 1.663-.006 2.49 0 .283-.185.469-.436.475-.245.006-.43-.18-.454-.456-.006-.066 0-.132 0-.204V7.6c-.162 0-.305.006-.442 0-.263-.012-.437-.198-.437-.444s.174-.432.437-.45c.137-.006.28 0 .448 0 0-.229-.006-.433 0-.643.006-.324.185-.528.454-.528s.436.204.442.534v.63c.155 0 .299-.005.436 0 .275.013.46.193.46.445 0 .258-.179.438-.454.45-.143.006-.28.006-.448.006Zm-4.828 4.671c.855 0 1.715-.006 2.57.006.143 0 .305.066.418.156.138.108.155.282.084.45a.433.433 0 0 1-.395.282c-.16.006-.328.006-.49.006H9.304c-.27-.018-.454-.21-.448-.462a.437.437 0 0 1 .448-.432c.496-.006.998 0 1.494 0 .412-.006.812-.006 1.213-.006Zm-.029 2.696h-.914c-.323 0-.526-.174-.52-.456.006-.27.197-.445.508-.445h1.876c.31 0 .508.175.508.445.006.276-.191.45-.52.456-.317.006-.627 0-.938 0Zm-1.821 6.736c-.27 0-.539.006-.802 0-.298-.005-.502-.192-.496-.456.006-.258.204-.438.49-.438.538-.006 1.07-.006 1.608 0 .298 0 .502.192.496.456-.006.258-.204.433-.49.438-.275.006-.538 0-.807 0Zm3.709-.9c.263 0 .52-.006.783 0 .275.006.466.186.472.439.006.258-.191.456-.472.456-.538.006-1.07.006-1.608 0-.28 0-.478-.204-.472-.456.006-.247.198-.433.472-.439h.825Z" fill="currentColor"/>
</svg>
