<svg viewBox="0 0 60 60" fill="none" xmlns="http://www.w3.org/2000/svg">
    <path d="M27.253 51.801c-.505 0-.582-.564-.582-.898a433.598 433.598 0 0 1 0-3.46v-6.372c0-.267.059-.886.596-.886.176 0 .383.068.595.19 3.01 1.73 5.802 3.342 8.54 4.932.339.194.533.443.533.677 0 .244-.199.497-.55.7-2.716 1.577-5.577 3.225-8.496 4.91-.234.135-.45.207-.636.207Zm.75-1.793 6.956-4.01-6.957-4.02v8.03Z" fill="currentColor"/>
    <path d="M52.453 26.867c0-.199-.013-.38-.045-.547-.058-.334-.234-.487-.586-.528-.131-.014-.266-.014-.393-.014H17.111l-3.032.095 3.212-.944c.104-.05.199-.08.294-.108 1.674-.483 3.343-.971 5.017-1.454l.05-.014c1.89-.546 3.775-1.093 5.665-1.64 2.608-.753 5.211-1.508 7.819-2.262l13.84-4.01c.398-.113.632-.249.723-.416.09-.162.08-.42-.032-.813-.135-.465-.266-.93-.402-1.395a211.214 211.214 0 0 0-1.24-4.246c-.74-2.443-2.68-3.956-5.066-3.956-.47 0-.952.059-1.43.176-1.611.393-3.235.881-4.805 1.35-.64.195-1.309.39-1.963.583L30.88 8.138a14043.85 14043.85 0 0 0-19.8 5.745c-1.498.438-2.698 1.355-3.38 2.592-.68 1.233-.82 2.741-.392 4.236.171.605.352 1.22.523 1.811.298 1.016.605 2.069.884 3.112.172.628.258 1.233.258 1.797.009 4.96.009 10 .009 14.872v8.54c0 1.22.351 2.358 1.02 3.284a5.313 5.313 0 0 0 2.724 1.956c.203.063.41.122.613.18l.244.068h34.192c.154-.045.307-.086.456-.127.352-.094.69-.185.992-.33 1.083-.51 1.9-1.205 2.432-2.077.528-.853.794-1.901.794-3.111.009-8.098.005-16.21.005-23.82Zm-5.905.23h.027c.555.01 1.137.01 1.89.01h2.63v8.21h-9.893l.28-.529c.027-.054.054-.103.08-.153.05-.1.1-.194.154-.285.339-.591.681-1.178 1.024-1.77a586.535 586.535 0 0 0 2.802-4.878c.235-.429.537-.605 1.006-.605Zm-8.012-.004h.022c.7.009 1.444.009 2.414.009h3.307l-.253.52a2.74 2.74 0 0 0-.081.17c-.05.11-.095.2-.149.294l-.537.935c-1.087 1.888-2.21 3.843-3.33 5.754-.153.262-.49.546-.82.55-.74.014-1.552.019-2.55.019-.536 0-1.073 0-1.61-.005-.32 0-.645 0-.965-.004-.086 0-.154-.023-.208-.04-.018-.005-.04-.014-.067-.023l-.434-.118.203-.397c.028-.05.05-.1.077-.15.054-.108.104-.212.167-.315.361-.628.726-1.256 1.087-1.888a834.058 834.058 0 0 0 2.712-4.72c.234-.406.546-.591 1.015-.591Zm-8.207.027c1.07-.014 2.125-.018 3.019-.018h2.95l-.289.533-.121.225a7.61 7.61 0 0 1-.19.348c-.334.583-.672 1.165-1.006 1.743a561.422 561.422 0 0 0-2.734 4.765c-.252.447-.577.637-1.092.637h-.031c-.681-.01-1.399-.014-2.333-.014h-3.279l.216-.505.059-.145c.04-.1.076-.19.13-.285l.343-.6a959.889 959.889 0 0 1 3.569-6.17c.149-.239.474-.51.79-.514Zm-7.836-.023h.018c.7.01 1.444.01 2.414.01h3.262l-.222.505-.058.145c-.04.094-.077.19-.13.28l-.38.659c-1.155 2.005-2.346 4.083-3.532 6.115-.15.253-.474.52-.785.524a241.4 241.4 0 0 1-3.014.018h-2.95l.284-.533c.036-.072.072-.136.1-.19a5.15 5.15 0 0 1 .157-.289 314.7 314.7 0 0 0 1.01-1.752 887.038 887.038 0 0 0 2.811-4.887c.235-.429.537-.605 1.015-.605Zm-2.3.032-.253.52c-.027.058-.054.107-.077.157-.05.104-.095.203-.149.298-.383.669-.767 1.333-1.155 2.001-.884 1.535-1.8 3.125-2.698 4.688-.22.388-.51.56-.929.56h-.023c-.568-.01-1.173-.01-1.957-.01H10.34v-8.219h9.852v.005ZM37.24 7.655c.627-.176 1.254-.357 1.859-.538 1.434-.42 2.788-.813 4.19-1.138.235-.054.479-.081.723-.081 1.556 0 3.054 1.084 3.568 2.579.42 1.228.785 2.497 1.141 3.726.154.537.316 1.097.479 1.648l.094.32-.31.118c-.05.018-.096.036-.14.054-.095.04-.186.077-.285.104-.207.063-.42.122-.627.185-.776.23-1.579.466-2.373.687l-.911.275-3.61-3.5c-.956-.917-1.912-1.838-2.864-2.755l-.848-.813c-.05-.045-.09-.09-.145-.153a1.939 1.939 0 0 1-.112-.127l-.397-.433.568-.158ZM31.358 9.38l.753-.221 3.06-.94 4.443 4.345c.803.772 1.606 1.544 2.414 2.317l.473.456c.054.054.1.108.15.171.022.032.049.064.08.104l.339.416-6.09 1.897-.768-.75-7.47-7.09 2.616-.705Zm-3.925 1.043 8.12 7.8-1.299.375c-.428.126-.816.234-1.204.347l-.826.244c-.79.23-1.61.474-2.418.691a.9.9 0 0 1-.252.032c-.1 0-.443-.018-.668-.23-2.057-1.956-4.133-3.957-6.145-5.894l-.834-.809c-.059-.054-.1-.108-.15-.171-.022-.027-.044-.059-.076-.1l-.338-.415 6.09-1.87Zm-13.38 3.997c.126-.04.238-.077.342-.113.194-.063.366-.122.533-.167l.622-.18c1.196-.348 2.432-.71 3.654-1.048a1 1 0 0 1 .267-.032c.117 0 .41.018.609.208 2.125 2.019 4.267 4.082 6.347 6.083l.749.718a.87.87 0 0 1 .122.158l.045.068.275.411-.473.14c-.343.1-.686.203-1.025.303-.794.234-1.61.474-2.413.704-.172.05-.352.113-.542.185-.41.154-.834.312-1.254.312-.117 0-.234-.014-.338-.04-.505-.123-.875-.547-1.232-.958a6.387 6.387 0 0 0-.397-.434c-.753-.722-1.507-1.45-2.264-2.177-1.092-1.047-2.18-2.095-3.271-3.143-.063-.063-.14-.117-.248-.199-.063-.045-.131-.099-.212-.162l-.533-.42.636-.217ZM10 25.26c-.05-.164-.095-.326-.144-.484a74.904 74.904 0 0 1-.294-1.007 92.68 92.68 0 0 0-.347-1.197c-.275-.948-.564-1.924-.78-2.909-.212-.962.045-2.036.708-2.958.663-.921 1.638-1.53 2.607-1.635.023 0 .041-.004.064-.004.185 0 .392.086.527.217 2.414 2.312 4.86 4.67 7.156 6.882a.428.428 0 0 1 .121.217l.018.045.145.37-9.682 2.81-.099-.348Zm41.126 25.326c0 2.764-1.665 4.417-4.444 4.417H14.58c-2.594-.004-4.272-1.68-4.272-4.268-.005-3.098-.005-6.246 0-9.294v-4.724h40.778l.019.343c.004.059.004.117.009.176.009.127.013.258.013.393v1.387c.005 3.789.005 7.709 0 11.57Z" fill="currentColor"/>
</svg>
