<svg viewBox="0 0 20 20" fill="none" xmlns="http://www.w3.org/2000/svg">
    <path d="M15.0002 8.33398L10.8335 8.33398" stroke="currentColor" stroke-width="1.3" stroke-linecap="round"/>
    <path d="M8.3335 2.5H13.7502C14.1372 2.5 14.3307 2.5 14.4931 2.52139C15.615 2.66908 16.4977 3.55185 16.6454 4.67368C16.6668 4.83614 16.6668 5.02965 16.6668 5.41667" stroke="currentColor" stroke-width="1.3"/>
    <path d="M1.6665 5.79081C1.6665 5.05536 1.6665 4.68764 1.7243 4.38134C1.9787 3.03294 3.03343 1.97822 4.38183 1.72381C4.68813 1.66602 5.05585 1.66602 5.79129 1.66602C6.11352 1.66602 6.27464 1.66602 6.42948 1.6805C7.09705 1.74292 7.73027 2.00521 8.24646 2.43311C8.36618 2.53236 8.48011 2.64629 8.70796 2.87414L9.16651 3.33268C9.84632 4.0125 10.1862 4.35241 10.5933 4.57887C10.8169 4.70327 11.0541 4.80152 11.3001 4.87166C11.7481 4.99935 12.2288 4.99935 13.1902 4.99935H13.5016C15.6952 4.99935 16.792 4.99935 17.505 5.64057C17.5706 5.69955 17.633 5.76196 17.692 5.82754C18.3332 6.54048 18.3332 7.6373 18.3332 9.83094V11.666C18.3332 14.8087 18.3332 16.3801 17.3569 17.3564C16.3805 18.3327 14.8092 18.3327 11.6665 18.3327H8.33317C5.19047 18.3327 3.61913 18.3327 2.64281 17.3564C1.6665 16.3801 1.6665 14.8087 1.6665 11.666V5.79081Z" stroke="currentColor" stroke-width="1.3"/>
</svg>