<svg viewBox="0 0 24 24" fill="none" xmlns="http://www.w3.org/2000/svg">
    <path d="M10.443 17.15c-2.422.444-4.556-.087-6.336-1.74-1.38-1.284-2.068-2.89-2.106-4.746-.07-3.673 2.994-6.75 6.778-6.804 4.223-.059 7.444 3.494 6.995 7.475.278-.07.548-.145.82-.205a8.342 8.342 0 0 1 3.469-.026c.207.04.32.157.366.362.968 4.307-2.036 8.659-6.491 9.412a8.477 8.477 0 0 1-3.11-.039c-.233-.047-.345-.163-.393-.388-.223-1.03-.228-1.9.008-3.301Zm2.12 3.18c.456-.06.996-.094 1.518-.21 3.855-.856 6.29-4.347 5.71-8.156-.025-.172-.11-.22-.263-.242a7.937 7.937 0 0 0-2.169-.014c-4.105.555-6.947 4.303-6.277 8.286.02.127.064.2.207.211.397.032.794.076 1.274.125Zm-4.04-10.105V4.593c-1.19-.035-3.117.78-3.839 1.623 1 1.157 1.538 2.499 1.649 4.009h2.19Zm0 6.365v-5.635H6.332a6.738 6.738 0 0 1-1.66 4.014c1.097.979 2.368 1.512 3.853 1.62Zm.755-6.375h2.173c.102-1.527.662-2.862 1.663-4.028a6.28 6.28 0 0 0-3.836-1.609v5.637Zm0 6.407c.456-.088.884-.165 1.31-.257.059-.014.118-.103.144-.169a8.165 8.165 0 0 1 1.383-2.393c.048-.058.055-.186.029-.264-.16-.464-.366-.916-.5-1.385-.111-.385-.146-.79-.217-1.2H9.278v5.668Zm5.78-6.4a5.946 5.946 0 0 0-1.44-3.515c-.868 1.04-1.35 2.19-1.431 3.515h2.871ZM4.168 6.714c-.865 1.042-1.342 2.19-1.424 3.508H5.6c-.095-1.317-.563-2.469-1.433-3.508Zm.002 7.737c.865-1.04 1.338-2.188 1.427-3.496H2.742c.088 1.316.564 2.462 1.428 3.496Zm8.583-1.319a8.367 8.367 0 0 1 2.112-1.424c.051-.023.108-.082.117-.133.035-.2.052-.403.076-.615h-2.873c.045.765.232 1.47.568 2.172Z" fill="currentColor"/>
    <path d="M19.515 3C21.43 3 23 4.527 23.003 6.395c.003 1.862-1.572 3.399-3.484 3.399-1.911.001-3.486-1.532-3.488-3.397C16.03 4.534 17.602 3 19.515 3Zm-1.434 1.11c1.182 1.532 1.175 3.054.001 4.57.884.59 2.258.486 2.864-.028-1.053-1.186-1.267-3.057.005-4.537-.77-.538-2.026-.545-2.87-.005Zm-.586 4.081c1.04-.968.919-2.793-.014-3.588-1.027 1.01-.9 2.762.014 3.588Zm4.038-3.605c-1.117 1.145-.816 2.916.018 3.605.96-.886.958-2.709-.018-3.605Zm-4.597 9.463c.152-.168.25-.294.366-.404.169-.156.374-.154.521-.011.147.142.142.34-.014.509-.053.059-.115.113-.172.17-.056.055-.11.114-.206.215.135.111.27.204.382.316.16.162.159.37.015.51-.143.14-.359.14-.523-.017-.116-.11-.212-.239-.305-.343l-1.02.997c.084.084.196.194.305.308.167.175.178.387.03.53-.146.142-.369.134-.541-.034-.109-.106-.2-.227-.292-.331l-1.055 1.044c.095.072.23.158.344.267.172.167.18.387.033.528-.147.143-.366.131-.544-.032-.107-.097-.21-.198-.316-.297-.005-.005-.016-.004-.068-.017-.093.097-.196.217-.314.325-.165.152-.38.154-.523.013-.143-.14-.143-.347.016-.51.105-.109.226-.205.364-.33-.131-.13-.243-.238-.354-.35-.17-.176-.18-.386-.033-.529.149-.144.368-.138.542.03.11.106.2.228.292.332l1.06-1.053c-.091-.067-.231-.151-.345-.259-.176-.166-.181-.383-.035-.526.149-.145.366-.138.543.032.108.104.2.227.283.326.362-.353.681-.666 1.067-1.04-.095-.071-.232-.156-.348-.265-.174-.166-.179-.385-.032-.528.148-.145.364-.136.54.034.11.106.2.228.337.39Z" fill="currentColor"/>
    <path d="m20.5 5.5 1-1 1 1v2l-1 1L21 8l-.5-1.5v-1Zm-2-.5-1-.5H17l-.5 1v2l.5 1h.5L18 8l.5-1V5Z" fill="currentColor"/>
</svg>
