<svg viewBox="0 0 22 22" fill="none" xmlns="http://www.w3.org/2000/svg">
    <path d="M6.98077 21C6.77231 21 6.55522 20.8326 6.55198 20.5518C6.54658 20.1695 6.54766 19.7937 6.54982 19.3952C6.54982 19.2246 6.5509 19.0486 6.5509 18.8715V18.7419H6.22904C6.08539 18.7419 5.94174 18.7419 5.79918 18.7419C5.65553 18.7419 5.51296 18.7419 5.36931 18.7419C5.14466 18.7419 4.95997 18.7419 4.78824 18.7408C4.49446 18.7397 4.29681 18.5659 4.29573 18.3089C4.29465 18.1922 4.33569 18.0896 4.41237 18.0119C4.50094 17.9222 4.63271 17.8736 4.78284 17.8726C4.97509 17.8715 5.18246 17.8715 5.43627 17.8715C5.59612 17.8715 5.75705 17.8715 5.91798 17.8715C6.08107 17.8715 6.24524 17.8715 6.40941 17.8715H6.53902V15.2657L6.42561 15.2516C5.75165 15.1674 5.12306 14.9654 4.55602 14.6512C3.64445 14.1458 2.92621 13.3844 2.4823 12.4503C2.03515 11.5173 1.89582 10.4784 2.07727 9.44816C2.16476 8.94924 2.33325 8.46652 2.57734 8.01404C2.81604 7.57235 3.12062 7.16847 3.4846 6.81317C3.84858 6.45788 4.26116 6.16091 4.71155 5.93089C5.17274 5.69546 5.66417 5.53456 6.17072 5.45356C6.45261 5.40821 6.73451 5.38553 7.00777 5.38553C7.91394 5.38553 8.78447 5.63715 9.59668 6.13391C9.64853 6.16523 9.71981 6.2095 9.80945 6.2095C9.86562 6.2095 9.92178 6.1933 9.98118 6.15875C10.8798 5.63715 11.7795 5.37257 12.6565 5.37257C13.162 5.37257 13.6718 5.46004 14.1718 5.63391C14.6719 5.80778 15.1774 6.07127 15.6731 6.41901C15.7152 6.44816 15.7433 6.46868 15.7876 6.46868H15.8848L15.9032 6.40713L19.4101 2.89957L19.1293 2.87905L19.1239 2.87797C19.1023 2.87581 19.058 2.87041 19.0105 2.87041C18.7675 2.87041 18.5245 2.87041 18.2815 2.87041H17.9747C17.7371 2.87041 17.4995 2.87041 17.2619 2.87041C16.9811 2.87041 16.8104 2.7527 16.7564 2.52268C16.6949 2.2635 16.8914 2.10367 17.0675 2.01404C17.0761 2.00972 17.0826 2.0054 17.0891 2H20.6846C20.8239 2.07343 20.9276 2.17603 21 2.31425V5.93089C20.9892 5.94708 20.9773 5.96544 20.9665 5.98488C20.878 6.15443 20.7289 6.25594 20.5669 6.25594C20.5367 6.25594 20.5064 6.2527 20.4772 6.24514C20.2612 6.19438 20.1316 6.02592 20.1305 5.7959C20.1284 5.37905 20.1284 4.95464 20.1295 4.54428C20.1295 4.37257 20.1295 4.20086 20.1295 4.02916V3.54752L16.4918 7.18359L16.5523 7.27214C16.5804 7.31317 16.6095 7.35421 16.6398 7.39849C16.7089 7.49784 16.7813 7.60043 16.8482 7.70734C17.304 8.4352 17.5589 9.2257 17.6064 10.0562C17.6507 10.8326 17.5038 11.622 17.182 12.3391C16.8569 13.0659 16.3557 13.7095 15.7347 14.2019C15.0737 14.7257 14.3068 15.0648 13.4558 15.2095C13.1663 15.2592 12.8758 15.284 12.5939 15.284C11.6942 15.284 10.8193 15.0292 9.99415 14.527C9.9423 14.4946 9.86886 14.4773 9.79541 14.4773C9.75005 14.4773 9.68525 14.4849 9.63124 14.5184C8.98753 14.9168 8.30492 15.1566 7.54564 15.2516L7.43223 15.2657V17.8736H8.08459C8.198 17.8736 8.31141 17.8736 8.42373 17.8736C8.53714 17.8736 8.64947 17.8736 8.76287 17.8736C8.93568 17.8736 9.07717 17.8736 9.20894 17.8758C9.34827 17.8769 9.47247 17.9255 9.5578 18.013C9.63556 18.0929 9.67661 18.1965 9.67553 18.3143C9.67229 18.5605 9.48003 18.7408 9.2165 18.743C9.04045 18.7441 8.85036 18.7451 8.61814 18.7451C8.47557 18.7451 8.33301 18.7451 8.19044 18.7451C8.04787 18.7451 7.9053 18.7451 7.76165 18.7451H7.41927V18.8747C7.41927 19.0367 7.41927 19.1965 7.41927 19.3564C7.41927 19.757 7.41927 20.1361 7.42035 20.5227C7.42143 20.7149 7.35339 20.8456 7.20866 20.9352C7.1363 20.9773 7.05961 21 6.98077 21ZM6.98509 6.25702C5.76893 6.25702 4.61759 6.7905 3.82482 7.7203C2.52118 9.25054 2.56222 11.5421 3.91986 13.0497C4.69967 13.9158 5.81538 14.4125 6.98293 14.4125C7.69793 14.4125 8.37837 14.2322 8.94972 13.8898L9.08581 13.8089L8.97889 13.6911C8.12779 12.7592 7.66661 11.5529 7.67957 10.2959C7.69253 9.06263 8.15588 7.88337 8.98537 6.97624L9.09337 6.85853L8.95512 6.77754C8.37729 6.43736 7.69577 6.25702 6.98509 6.25702ZM12.6241 6.25378C11.8994 6.25378 11.2017 6.44276 10.6584 6.7851L10.5277 6.86717L10.6314 6.98164C11.4663 7.90173 11.9285 9.08855 11.9318 10.3229C11.9361 11.5659 11.4738 12.7613 10.6292 13.6901L10.5234 13.8067L10.6584 13.8877C11.2276 14.23 11.9059 14.4104 12.6219 14.4104C13.837 14.4104 14.9873 13.878 15.779 12.9514C17.1258 11.3726 17.0567 9.0432 15.618 7.53456C14.8307 6.7095 13.7679 6.25378 12.6241 6.25378ZM9.71549 7.49568C8.9562 8.24946 8.54254 9.2689 8.5501 10.3672C8.55874 11.4395 8.98213 12.459 9.71441 13.1641L9.80405 13.2505L9.8937 13.1652C10.6217 12.4708 11.0472 11.4579 11.0602 10.3866C11.0742 9.28834 10.6605 8.26242 9.89802 7.49784L9.80621 7.40605L9.71549 7.49568Z" fill="currentColor"/>
</svg>