<svg viewBox="0 0 22 22" fill="none" xmlns="http://www.w3.org/2000/svg">
    <path fill-rule="evenodd" clip-rule="evenodd" d="M4.91191 9.83383C4.89171 9.69226 4.98667 9.6053 5.09375 9.53452C5.22022 9.44972 5.33863 9.36081 5.44943 9.26802C5.45138 9.26639 5.45332 9.26476 5.45526 9.26312C5.49119 9.23292 5.52631 9.20231 5.56064 9.1713C5.56506 9.16731 5.56946 9.16331 5.57385 9.15931C6.50533 8.31008 6.85108 7.16317 6.92623 5.88613C6.94757 5.51238 6.92353 5.1355 6.89955 4.75962C6.89628 4.70838 6.89301 4.65715 6.88986 4.60596C6.78682 2.86064 7.66569 1.61687 9.3426 1.18003C9.85174 1.04858 10.3649 0.989928 10.8781 1.00206C11.3913 0.987906 11.9044 1.04656 12.4136 1.18003C14.0905 1.61687 14.9694 2.86064 14.8683 4.60596C14.8652 4.65716 14.8619 4.70839 14.8587 4.75963C14.8347 5.13551 14.8106 5.51238 14.832 5.88613C14.9071 7.1634 15.253 8.31048 16.1848 9.15975C16.1893 9.16385 16.1939 9.16795 16.1984 9.17203C16.2333 9.20358 16.2691 9.23471 16.3057 9.26542C16.3076 9.26704 16.3095 9.26867 16.3115 9.27029C16.4215 9.36226 16.539 9.45041 16.6645 9.53452C16.7695 9.6053 16.8665 9.69226 16.8483 9.83383C16.8261 9.99158 16.7008 10.0482 16.5614 10.0907C16.4505 10.1251 16.3398 10.1559 16.2296 10.1831C16.2287 10.1833 16.2279 10.1836 16.227 10.1838C16.147 10.2035 16.0672 10.2213 15.9876 10.2371C15.9711 10.2404 15.9546 10.2436 15.938 10.2467C14.7734 10.4662 13.6638 10.2571 12.7146 9.44958C12.1408 8.96218 11.6115 8.5759 10.8801 8.64264C10.1508 8.5759 9.6194 8.96016 9.04561 9.44958C8.09596 10.2592 6.98576 10.4669 5.82046 10.2465C5.80377 10.2433 5.78707 10.2401 5.77035 10.2367C5.68989 10.2207 5.60918 10.2026 5.52824 10.1826C5.52581 10.182 5.52337 10.1814 5.52094 10.1808C5.41392 10.1541 5.30651 10.1241 5.19881 10.0907L5.19882 10.0906L5.19881 10.0907M8.39683 8.6886C8.95362 8.21369 9.74652 7.57275 10.8802 7.63994C12.0166 7.57288 12.8086 8.21734 13.362 8.68742L13.3626 8.68792C13.8396 9.09376 14.376 9.30193 14.9771 9.32649C14.1956 8.33409 13.9037 7.13511 13.8337 5.94487L13.8336 5.94312C13.8085 5.5042 13.837 5.0625 13.8608 4.69248C13.8641 4.64238 13.8672 4.59359 13.8701 4.5463C13.9097 3.85732 13.7537 3.34741 13.4938 2.98334C13.2351 2.62099 12.8124 2.31731 12.1615 2.14774L12.16 2.14734C11.7418 2.03771 11.3233 1.99016 10.9057 2.00168L10.8801 2.00239L10.8545 2.00178C10.4345 1.99185 10.0137 2.03965 9.59366 2.14801C8.94325 2.31764 8.52102 2.62117 8.26281 2.9831C8.00318 3.347 7.84759 3.85679 7.88806 4.54584C7.89098 4.59327 7.89413 4.64221 7.89737 4.69247C7.92121 5.06249 7.94966 5.50419 7.92461 5.94312L7.92451 5.94487C7.85445 7.13539 7.56252 8.33465 6.78061 9.32718C7.38278 9.30349 7.91956 9.0955 8.39683 8.6886Z" fill="currentColor" />
    <path fill-rule="evenodd" clip-rule="evenodd" d="M3.00022 18.4045C2.98607 19.6159 3.6629 20.3015 4.87917 20.3035C6.18157 20.3049 7.48307 20.3044 8.78486 20.304C9.43587 20.3038 10.087 20.3035 10.7383 20.3035C11.3047 20.3035 11.871 20.3039 12.4371 20.3042C13.852 20.305 15.2661 20.3059 16.6802 20.3015C17.747 20.2995 18.4359 19.62 18.4682 18.5602C18.5612 15.4903 16.5186 12.6609 13.585 11.7428C12.5118 11.4076 11.4207 11.4214 10.3278 11.4352C10.2007 11.4368 10.0735 11.4384 9.94628 11.4394C6.06715 11.4698 3.04265 14.5114 3.00022 18.4045ZM13.2869 12.6973C15.7987 13.4838 17.5479 15.9152 17.4687 18.53C17.459 18.8464 17.3578 19.0199 17.2632 19.1124C17.1693 19.2041 16.9953 19.3009 16.6783 19.3015L16.6771 19.3015C15.265 19.3059 13.8537 19.305 12.4396 19.3042C11.873 19.3039 11.306 19.3035 10.7383 19.3035C10.0862 19.3035 9.43477 19.3038 8.78359 19.304C7.48228 19.3044 6.18208 19.3049 4.88041 19.3035M13.2866 12.6972C12.3741 12.4123 11.4464 12.4229 10.3291 12.4355C10.2066 12.4369 10.0819 12.4383 9.95457 12.4394L9.9541 12.4394C6.6262 12.4654 4.03672 15.061 4.00016 18.4154L4.00015 18.4162C3.99523 18.8372 4.10888 19.023 4.18935 19.1044C4.27008 19.1861 4.45609 19.3027 4.88021 19.3035" fill="currentColor" />
</svg>