<svg viewBox="0 0 22 22" fill="none" xmlns="http://www.w3.org/2000/svg">
    <path d="M12.0648 2.50002C14.0311 2.50655 15.6118 4.10307 15.5955 6.05611C15.5774 7.98147 13.9879 9.54182 12.0232 9.53528C10.0623 9.52875 8.49837 7.96271 8.5 6.01807V6.01765C8.5 4.06103 10.0807 2.49348 12.0648 2.50002ZM12.0648 2.50002L12.0664 2.00002M12.0648 2.50002L12.0664 2.00002M12.0664 2.00002C9.8098 1.99258 8 3.78006 8 6.01765C7.99813 8.24037 9.78736 10.0278 12.0216 10.0353C14.2558 10.0427 16.0749 8.26641 16.0955 6.06043C16.1142 3.82842 14.3081 2.00746 12.0664 2.00002Z" stroke="currentColor" stroke-width="0.8" />
    <path fill-rule="evenodd" clip-rule="evenodd" d="M4.00022 18.9748C3.98607 20.1862 4.6629 20.8718 5.87917 20.8739C7.18157 20.8752 8.48307 20.8748 9.78486 20.8743C10.4359 20.8741 11.087 20.8739 11.7383 20.8739C12.3047 20.8739 12.871 20.8742 13.4371 20.8745C14.852 20.8753 16.2661 20.8762 17.6802 20.8718C18.747 20.8698 19.4359 20.1903 19.4682 19.1306C19.5612 16.0606 17.5186 13.2313 14.585 12.3131C13.5118 11.9779 12.4207 11.9917 11.3278 12.0055C11.2007 12.0071 11.0735 12.0087 10.9463 12.0097C7.06715 12.0401 4.04265 15.0817 4.00022 18.9748ZM14.2869 13.2676C16.7987 14.0541 18.5479 16.4855 18.4687 19.1003C18.459 19.4168 18.3578 19.5902 18.2632 19.6827C18.1693 19.7744 17.9953 19.8712 17.6783 19.8718L17.6771 19.8718C16.265 19.8762 14.8537 19.8753 13.4396 19.8745C12.873 19.8742 12.306 19.8739 11.7383 19.8739C11.0862 19.8739 10.4348 19.8741 9.78359 19.8743C8.48228 19.8748 7.18208 19.8752 5.88041 19.8739M14.2866 13.2675C13.3741 12.9826 12.4464 12.9932 11.3291 13.0058C11.2066 13.0072 11.0819 13.0086 10.9546 13.0097L10.9541 13.0097C7.6262 13.0357 5.03672 15.6313 5.00016 18.9857L5.00015 18.9865C4.99523 19.4075 5.10888 19.5934 5.18935 19.6747C5.27008 19.7564 5.45609 19.873 5.88021 19.8739" fill="currentColor" />
</svg>