<svg viewBox="0 0 34 18" fill="none" xmlns="http://www.w3.org/2000/svg">
    <rect x="0.6" y="0.6" width="32.8" height="16.8" rx="8.4" stroke="url(#paint0_linear_0_1)" stroke-width="1.2"/>
    <path d="M14.4371 7.53232C14.3479 7.25225 14.2279 7.00142 14.0771 6.77983C13.9293 6.55516 13.7524 6.36435 13.5462 6.20739C13.34 6.04735 13.1045 5.92578 12.8398 5.84268C12.5782 5.75959 12.2905 5.71804 11.9766 5.71804C11.4441 5.71804 10.964 5.855 10.5362 6.12891C10.1084 6.40282 9.76989 6.80445 9.5206 7.33381C9.27438 7.86008 9.15128 8.50485 9.15128 9.26811C9.15128 10.0344 9.27592 10.6823 9.52521 11.2116C9.7745 11.741 10.1161 12.1426 10.5501 12.4165C10.984 12.6905 11.478 12.8274 12.032 12.8274C12.5459 12.8274 12.9937 12.7228 13.3754 12.5135C13.7601 12.3042 14.0571 12.0088 14.2663 11.6271C14.4787 11.2424 14.5849 10.79 14.5849 10.2699L14.9542 10.3391H12.2489V9.16193H15.9652V10.2376C15.9652 11.0316 15.7959 11.721 15.4574 12.3058C15.1219 12.8874 14.6572 13.3368 14.0632 13.6538C13.4723 13.9708 12.7952 14.1293 12.032 14.1293C11.1764 14.1293 10.4254 13.9323 9.77912 13.5384C9.13589 13.1444 8.63423 12.5858 8.27415 11.8626C7.91406 11.1362 7.73402 10.2745 7.73402 9.27734C7.73402 8.52332 7.83866 7.84624 8.04794 7.24609C8.25722 6.64595 8.55114 6.1366 8.92969 5.71804C9.31132 5.2964 9.75911 4.97479 10.2731 4.7532C10.7901 4.52853 11.3549 4.41619 11.9673 4.41619C12.4782 4.41619 12.9537 4.4916 13.3938 4.6424C13.837 4.79321 14.2309 5.0071 14.5756 5.28409C14.9234 5.56108 15.2112 5.89039 15.4389 6.27202C15.6667 6.65057 15.8205 7.07067 15.9006 7.53232H14.4371ZM19.2025 4.54545V14H17.776V4.54545H19.2025ZM21.2799 14V4.54545H27.1428V5.77344H22.7064V8.65412H26.7227V9.87749H22.7064V14H21.2799Z" fill="#FF3BAC"/>
    <defs>
        <linearGradient id="paint0_linear_0_1" x1="17" y1="0" x2="17" y2="18" gradientUnits="userSpaceOnUse">
            <stop stop-color="#FF22A1"/>
            <stop offset="0.494792" stop-color="#FFA3D8"/>
            <stop offset="0.9375" stop-color="#FF22A1"/>
        </linearGradient>
    </defs>
</svg>