<svg viewBox="0 0 24 24" fill="none" xmlns="http://www.w3.org/2000/svg">
    <path d="M12.516 1.002c.537.07 1.083.113 1.615.217a10.776 10.776 0 0 1 5.77 3.14 10.804 10.804 0 0 1 2.728 4.82c.342 1.294.45 2.606.314 3.938a11.198 11.198 0 0 1-.886 3.346c-.106.244-.254.342-.475.314-.195-.025-.352-.163-.362-.364a.838.838 0 0 1 .074-.35c.413-.96.683-1.957.78-2.998.252-2.69-.424-5.129-2.071-7.27-1.573-2.044-3.661-3.294-6.19-3.748-2.67-.48-5.165.034-7.444 1.526-.023.015-.044.034-.097.08.23.217.449.429.672.639.161.151.237.327.142.54-.09.202-.268.255-.479.253-.643-.004-1.289 0-1.934-.002-.379-.002-.536-.157-.536-.537-.002-.646.002-1.29-.002-1.935-.002-.21.055-.388.258-.48.21-.092.386-.014.539.145.233.242.473.477.723.729.097-.059.188-.112.275-.17a10.713 10.713 0 0 1 3.985-1.629c.44-.085.893-.115 1.34-.17.09-.012.182-.027.274-.04.326.006.657.006.987.006Zm-7.508 2.63v.58h.617a71.72 71.72 0 0 1-.617-.58ZM.996 11.36c.057-.416.106-.835.173-1.25a10.57 10.57 0 0 1 .745-2.5c.107-.248.341-.346.56-.257.237.094.317.325.224.611-.212.651-.462 1.295-.617 1.96-.344 1.487-.31 2.983.053 4.467a9.98 9.98 0 0 0 2.946 5.017 9.864 9.864 0 0 0 5.299 2.586c2.603.407 5.02-.106 7.233-1.547.025-.015.045-.034.068-.051.006-.004.008-.013.029-.053a69.65 69.65 0 0 0-.64-.61c-.157-.147-.254-.318-.163-.535.089-.214.269-.275.488-.273.644.004 1.29 0 1.933.002.379.002.534.157.536.538.002.643-.002 1.289.002 1.932.002.21-.055.392-.258.477-.208.09-.388.014-.541-.145-.233-.243-.47-.481-.718-.733l-.299.19c-2.273 1.478-4.765 2.07-7.449 1.724-2.91-.375-5.304-1.727-7.162-4.006-1.378-1.696-2.146-3.646-2.389-5.812-.019-.176-.036-.354-.053-.53V11.36Zm18.002 8.442h-.555l.555.571v-.572Z" fill="currentColor"/>
    <path d="M13.856 7.355c.18-.218.34-.46.547-.65.761-.695 1.651-.88 2.61-.519.959.362 1.506 1.09 1.612 2.115.068.659.059 1.32-.265 1.927-.078.144-.168.28-.269.445.256.087.504.167.75.254.29.102.594.178.863.32.627.331.958.876.973 1.582.017.88.008 1.763.004 2.643-.002.331-.169.49-.515.49-.903.004-1.804.002-2.707.002h-.248c-.006.087-.013.155-.013.226-.002.43 0 .859-.002 1.289-.002.401-.155.553-.56.556H7.461c-.538 0-.657-.119-.657-.655v-1.416H3.887c-.424 0-.568-.144-.568-.568v-2.45c.002-.918.468-1.557 1.345-1.853l1.192-.4c-.151-.378-.361-.728-.428-1.103-.17-.952-.147-1.89.527-2.684 1.109-1.31 3.172-1.15 4.072.318.03.047.062.095.096.144 1.25-.922 2.495-.924 3.733-.013Zm-6.194 9.811h8.663c.004-.073.011-.136.011-.198 0-.788.002-1.575 0-2.363-.002-.632-.291-1.036-.893-1.24-.65-.22-1.3-.435-1.956-.644a.457.457 0 0 0-.3.02 2.865 2.865 0 0 1-2.373 0 .506.506 0 0 0-.322-.012c-.64.2-1.277.415-1.914.629-.624.21-.912.611-.914 1.268-.002.772 0 1.546 0 2.319-.002.07-.002.14-.002.221Zm6.312-7.326c0-.132.007-.29-.002-.447a1.972 1.972 0 0 0-1.869-1.844c-.846-.05-1.749.476-1.984 1.413-.1.401-.104.836-.09 1.253.024.827.439 1.431 1.196 1.757.767.327 1.49.195 2.115-.36.516-.462.69-1.066.634-1.772ZM6.803 15.1c0-.196-.002-.366 0-.538.017-.93.5-1.634 1.363-1.965.346-.133.704-.24 1.056-.358l.604-.205-.517-.873c-.023.012-.055.027-.085.044-.772.466-1.571.52-2.402.165a.398.398 0 0 0-.262 0c-.55.176-1.1.36-1.648.545-.496.168-.731.49-.733 1.01-.002.538 0 1.076 0 1.612v.56c.882.002 1.74.002 2.624.002Zm13.007-.003c.004-.072.012-.134.012-.197v-1.955c-.002-.538-.232-.858-.739-1.03-.536-.18-1.07-.363-1.609-.528a.6.6 0 0 0-.36.015c-.38.142-.764.218-1.175.187a2.666 2.666 0 0 1-1.248-.43l-.522.877c.509.169 1.018.335 1.526.508.976.33 1.495 1.056 1.499 2.086v.465c.89.002 1.747.002 2.616.002ZM6.212 8.807c0 .11-.004.187 0 .266.063 1.375 1.44 2.107 2.594 1.379.234-.15.386-.324.36-.64a2.872 2.872 0 0 1 .283-1.543c.03-.06.03-.155.008-.222-.199-.617-.62-1.01-1.253-1.135-.612-.122-1.146.058-1.57.528-.361.4-.443.884-.422 1.367Zm11.586.037c-.012-.164-.02-.327-.034-.492-.068-.746-.704-1.395-1.43-1.46-.844-.075-1.573.392-1.79 1.15-.02.064-.03.15-.004.202.284.547.318 1.134.305 1.734a.358.358 0 0 0 .073.23c.53.6 1.49.707 2.145.242.553-.394.758-.947.735-1.606ZM2.54 6.52a.44.44 0 0 1 .434-.44c.23.003.425.202.421.43a.442.442 0 0 1-.44.436.416.416 0 0 1-.416-.427Zm18.458 11.468a.422.422 0 0 1-.425-.418.443.443 0 0 1 .444-.45.416.416 0 0 1 .412.43.433.433 0 0 1-.431.438Z" fill="currentColor"/>
</svg>
