<svg viewBox="0 0 22 22" fill="none" xmlns="http://www.w3.org/2000/svg">
    <path d="M1.83301 10.9997C1.83301 6.67847 1.83301 4.51786 3.17544 3.17544C4.51786 1.83301 6.67847 1.83301 10.9997 1.83301C15.3209 1.83301 17.4815 1.83301 18.8239 3.17544C20.1663 4.51786 20.1663 6.67847 20.1663 10.9997C20.1663 15.3209 20.1663 17.4815 18.8239 18.8239C17.4815 20.1663 15.3209 20.1663 10.9997 20.1663C6.67847 20.1663 4.51786 20.1663 3.17544 18.8239C1.83301 17.4815 1.83301 15.3209 1.83301 10.9997Z" stroke="currentColor" stroke-width="1.5"/>
    <path d="M9.28125 8.13574C9.28125 7.1865 10.0508 6.41699 11 6.41699C11.9492 6.41699 12.7188 7.1865 12.7188 8.13574C12.7188 8.7659 12.3796 9.31685 11.8739 9.61605C11.4382 9.87383 11 10.2649 11 10.7712V11.917" stroke="currentColor" stroke-width="1.2" stroke-linecap="round"/>
    <circle cx="10.9997" cy="14.6667" r="0.916667" fill="currentColor" />
</svg>