<svg viewBox="0 0 18 18" fill="none" xmlns="http://www.w3.org/2000/svg">
    <path d="m6.721 14.183.31-.393-.31.393ZM9 4.125l-.36.347a.5.5 0 0 0 .72 0L9 4.125Zm2.279 10.058.31.393-.31-.393ZM7.03 13.79c-1.133-.893-2.383-1.773-3.374-2.889C2.683 9.805 2 8.521 2 6.853H1c0 1.98.824 3.49 1.91 4.712 1.067 1.203 2.428 2.164 3.502 3.01l.619-.785ZM2 6.853c0-1.637.925-3.012 2.192-3.592 1.236-.565 2.888-.41 4.448 1.211l.72-.693c-1.815-1.886-3.913-2.19-5.583-1.427C2.137 3.1 1 4.842 1 6.852h1Zm4.412 7.723c.385.303.794.623 1.207.865.414.241.88.434 1.381.434v-1c-.248 0-.533-.097-.876-.297-.344-.201-.7-.477-1.093-.788l-.62.786Zm5.176 0c1.074-.847 2.435-1.808 3.503-3.01C16.176 10.342 17 8.831 17 6.852h-1c0 1.667-.683 2.952-1.657 4.048-.99 1.116-2.24 1.996-3.374 2.89l.62.785ZM17 6.853c0-2.01-1.138-3.752-2.777-4.501-1.67-.764-3.768-.46-5.583 1.427l.72.693c1.56-1.62 3.212-1.776 4.448-1.21C15.075 3.84 16 5.215 16 6.851h1Zm-6.03 6.937c-.395.311-.75.587-1.094.788-.343.2-.628.297-.876.297v1c.502 0 .967-.193 1.38-.434.414-.242.823-.562 1.208-.865l-.619-.786Z" fill="currentColor"/>
</svg>
