<svg viewBox="0 0 24 24" fill="none" xmlns="http://www.w3.org/2000/svg">
    <path d="M9.624 22.2c-.232 0-.423-.002-.6-.003-1.028-.01-1.722-.692-1.728-1.701-.006-1.147.059-1.359.785-2.496l.034-.052-.054-.032a7.895 7.895 0 0 1-2.487-2.285c-.223-.32-.417-.67-.603-1.009l-.08-.144c-.053-.095-.068-.187-.043-.259a.251.251 0 0 1 .146-.146.27.27 0 0 1 .111-.026c.132 0 .215.113.262.208a7.598 7.598 0 0 0 2.969 3.217.402.402 0 0 0 .207.068.39.39 0 0 0 .216-.075c.408-.263.807-.412 1.22-.452.574-.057 1.037-.562 1.053-1.15v-.048c0-.025-.001-.048.002-.068.068-.552-.082-.958-.484-1.318a2.024 2.024 0 0 1-.524-.743 2.504 2.504 0 0 1-.183-.906 10.67 10.67 0 0 0-.006-.217c-.015-.565-.031-1.15.058-1.707.216-1.363 1.464-2.353 2.967-2.353l.121.002c.685.024 1.35.299 1.87.774.524.479.847 1.112.911 1.784a10.21 10.21 0 0 1-.009 1.923c-.065.68-.416 1.294-1.046 1.826a.466.466 0 0 0-.152.316c-.01.328-.015.623.025.917.028.205.16.433.363.628.205.198.45.327.673.354.261.032.528.114.776.2a.378.378 0 0 0 .383-.05 7.593 7.593 0 0 0 2.31-2.6.582.582 0 0 1 .07-.12c.062-.08.132-.12.207-.12.039 0 .082.01.125.031.13.064.173.166.133.31a.586.586 0 0 1-.05.11l-.017.028a7.957 7.957 0 0 1-2.313 2.665l-.108.082-.06.045.057.05c.513.447.849.96 1.028 1.563a3.77 3.77 0 0 1 .099 1.654 1.538 1.538 0 0 1-.531.933c-.29.247-.655.385-1.03.386-1.168.009-2.325.009-3.301.009h-3.299c-.155-.003-.313-.003-.473-.003Zm1.432-5.158c-.323.283-.636.436-.985.48-.775.097-1.379.49-1.845 1.2-.386.586-.421 1.24-.407 1.8.02.69.496 1.155 1.188 1.155.076 0 .154-.006.234-.018l.053-.007v-1.51c0-.16.048-.353.266-.353h.003c.175.002.264.123.265.36.002.23.002.464.002.691v.55c0 .051.004.103.007.152l.004.071.003.058h5.953V21c0-.296-.002-.602.001-.904.002-.191.098-.305.259-.305h.012c.16.006.251.115.253.305l.001.784v.518c0 .052.003.102.006.152l.005.063.003.054.054.004c.049.004.1.006.147.006.658 0 1.142-.373 1.204-.928.044-.395.074-.91-.095-1.4-.367-1.066-1.07-1.668-2.148-1.842-.188-.03-.373-.126-.553-.218a4.66 4.66 0 0 0-.235-.116.534.534 0 0 1-.102-.069.548.548 0 0 0-.056-.042l-.037-.026-.26.185-.471.335c-.317.224-.64.338-.96.338-.321 0-.643-.114-.958-.338-.165-.115-.327-.232-.492-.35l-.282-.2-.037.036Zm.404-.416.03.02.221.159c.187.134.379.273.582.406a.97.97 0 0 0 .533.17.92.92 0 0 0 .472-.135 7.4 7.4 0 0 0 .598-.406 8 8 0 0 1 .213-.152l.03-.02-.165-1.426-.075.026c-.361.13-.73.194-1.093.194-.374 0-.75-.07-1.116-.204l-.075-.027-.155 1.395Zm-1.108-4.695v.21c0 .147-.002.286 0 .426.013 1.232.926 2.204 2.217 2.365.092.011.185.017.278.017 1.077 0 2.074-.766 2.32-1.78.078-.326.09-.658.103-1.01.006-.154.012-.314.024-.473l.004-.052-.053-.012a7.366 7.366 0 0 0-.24-.05 2.576 2.576 0 0 1-.402-.097 1.865 1.865 0 0 0-.645-.119c-.312 0-.632.085-.973.26a3.41 3.41 0 0 1-1.562.392c-.148 0-.298-.01-.446-.032-.122-.017-.242-.042-.37-.068l-.181-.036-.076-.014v.073h.002Zm2.486-2.918c-.028 0-.056 0-.084.002-1.216.045-2.241.935-2.383 2.07-.022.173.077.223.17.257.281.1.56.151.833.151.202 0 .404-.029.598-.085.457-.134.905-.316 1.323-.493a1.35 1.35 0 0 1 .533-.125c.095 0 .186.013.28.042.23.066.46.114.705.163l.32.066.078.018v-.077l.001-.045a.192.192 0 0 0-.003-.059c-.213-1.057-1.254-1.885-2.37-1.885Z" fill="currentColor"/>
    <path d="m11.5 11.832-1-.333-.5-.5c.167-.167.5-.6.5-1l.5-.5.5-.5h2l1 .5 1 1v1H15l-1.5-.5-1 .5-1 .333Zm1.318-5.101a.588.588 0 0 1-.15-.019c-.797-.196-1.606-.4-2.389-.596l-1.026-.258c-.281-.07-.317-.115-.317-.401V3.305c0-.38 0-.77.002-1.155.001-.307.122-.349.253-.349a.86.86 0 0 1 .183.025l.778.186c.806.193 1.642.392 2.463.583a.939.939 0 0 0 .4.001c.81-.189 1.63-.386 2.424-.576l.819-.197a.713.713 0 0 1 .17-.023c.129 0 .262.042.262.356v3.308c0 .266-.049.328-.306.393a593.47 593.47 0 0 1-3.457.861.428.428 0 0 1-.11.013Zm3.255-4.311-.053.006a.82.82 0 0 0-.107.014c-.254.06-.513.123-.763.184-.596.144-1.213.293-1.822.432-.201.046-.241.153-.24.312.005.607.003 1.223.003 1.82v.952l3.052-.759v-2.97l-.07.009ZM9.475 5.378l3.04.758.011-.068.009-.052a.548.548 0 0 0 .01-.08V5.18c0-.612-.001-1.245.006-1.867.002-.193-.131-.225-.228-.248l-.637-.152-1.198-.285c-.209-.049-.419-.1-.632-.152l-.378-.09v2.992h-.003Zm10.685 8.29h-1.684c-.262 0-.346-.083-.346-.34-.002-1.05-.002-2.12 0-3.182 0-.254.081-.33.35-.332l.705-.001h1.979l.677.001c.278.001.36.08.36.347v3.162c0 .265-.085.345-.363.345h-1.677Zm-1.496-.54h2.988v-2.784h-2.988v2.784ZM4.698 9.17a.249.249 0 0 1-.201-.093c-.052-.068-.064-.163-.033-.267A7.449 7.449 0 0 1 5.4 6.783 8.005 8.005 0 0 1 7.526 4.6a.374.374 0 0 1 .213-.076.24.24 0 0 1 .201.107c.089.123.054.266-.096.384a1.602 1.602 0 0 1-.074.055l-.009.006C6.75 5.8 5.973 6.702 5.451 7.757c-.14.283-.252.584-.358.874l-.112.301c-.077.2-.162.24-.274.24-.003-.002-.006-.002-.009-.002Zm15.206-.161c-.144 0-.224-.072-.287-.257a7.58 7.58 0 0 0-1.422-2.473 7.267 7.267 0 0 0-.268-.29 5.93 5.93 0 0 1-.16-.171c-.125-.137-.132-.285-.018-.392a.255.255 0 0 1 .174-.074.33.33 0 0 1 .225.107 8.094 8.094 0 0 1 1.994 3.192.28.28 0 0 1-.028.258.254.254 0 0 1-.207.1h-.003Z" fill="currentColor"/>
    <path d="M19.557 12.67c-.142 0-.239-.113-.244-.288-.005-.15-.003-.305-.003-.454l.001-.203-.001-.204c-.002-.149-.002-.304.001-.454.005-.18.098-.29.243-.29.054 0 .114.015.174.046.405.2.864.428 1.3.673.086.048.173.172.172.246 0 .074-.089.196-.175.243-.437.235-.889.45-1.313.649a.398.398 0 0 1-.155.036Zm.288-.685.52-.249-.52-.267v.516ZM6.771 9.872V9.77c0-.14-.044-.305-.247-.305a.513.513 0 0 0-.146.023c-.404.118-.815.241-1.213.36-.417.124-.848.253-1.272.376-.17.049-.243.144-.241.317.003.39.001.787.001 1.17v.766l-.07-.008-.09-.01c-.053-.006-.097-.011-.142-.014a.934.934 0 0 0-.78.317.66.66 0 0 0-.159.559c.074.378.447.663.868.663a.88.88 0 0 0 .088-.004c.504-.048.806-.347.807-.801v-.163c.003-.685.006-1.392-.001-2.089-.002-.189.07-.28.256-.325.174-.042.35-.097.52-.15.086-.028.175-.055.264-.081.214-.064.424-.124.647-.19.097-.027.194-.056.293-.085l.08-.023v1.664l-.068-.006a10.114 10.114 0 0 1-.092-.009 2.428 2.428 0 0 0-.155-.013l-.047-.001a.964.964 0 0 0-.571.182.707.707 0 0 0-.287.452.72.72 0 0 0 .142.568c.146.187.379.305.654.334.034.003.066.006.1.006a.903.903 0 0 0 .598-.217.731.731 0 0 0 .256-.538c.013-.874.01-1.764.007-2.624Zm-3.476 3.653a.345.345 0 0 1-.349-.34c0-.19.157-.342.35-.342.191 0 .348.153.348.341a.344.344 0 0 1-.349.341Zm2.55-.683a.345.345 0 0 1-.349-.341c0-.19.157-.341.35-.341.191 0 .348.153.348.34a.344.344 0 0 1-.349.342Z" fill="currentColor"/>
</svg>
