<svg width="30" height="30" viewBox="0 0 24 24" fill="none" xmlns="http://www.w3.org/2000/svg">
    <path d="M10.8971 22.0804C9.35052 22.0804 7.79644 22.0804 6.27533 22.0789C5.47806 22.0789 4.74823 21.7882 4.22071 21.2606C3.69319 20.7331 3.40246 20.0018 3.40096 19.203C3.39796 17.2563 3.39796 15.2781 3.39946 13.3644C3.39946 12.5371 3.39946 11.7084 3.39946 10.8811V9.86207C3.39946 9.86207 2.73407 10.3626 2.68461 10.4031C2.51227 10.5439 2.33693 10.6863 2.16759 10.8242C2.00124 10.9606 1.8289 11.1014 1.65955 11.2393C1.55315 11.3262 1.43925 11.3712 1.32985 11.3712C1.21895 11.3712 1.12154 11.3217 1.04811 11.2288C0.871271 11.01 0.991162 10.7822 1.16201 10.6429C1.72999 10.1768 2.29947 9.7122 2.86745 9.24613C5.38514 7.18402 7.98676 5.05296 10.5509 2.96388C11.0035 2.59521 11.5235 2.40039 12.0555 2.40039C12.5876 2.40039 13.1076 2.59521 13.5587 2.96238C15.5608 4.59289 17.5915 6.25636 19.5562 7.86439C20.6682 8.77406 21.8176 9.7152 22.9491 10.6399C23.1424 10.7972 23.1559 10.9246 23.1439 11.0265C23.1154 11.2648 22.9296 11.3742 22.7677 11.3742C22.6748 11.3742 22.5834 11.3412 22.501 11.2783C22.2717 11.0999 22.0409 10.9096 21.8191 10.7253C21.7097 10.6339 21.5958 10.5394 21.4819 10.448C21.44 10.4136 21.3995 10.3836 21.347 10.3446C21.3216 10.3251 21.2916 10.3042 21.2586 10.2772L20.7116 9.86057V10.8796C20.7116 11.6979 20.7116 12.5161 20.7116 13.3344C20.7116 15.2571 20.7131 17.2458 20.7101 19.2015C20.7086 19.8924 20.4973 20.5218 20.1002 21.0254C19.7031 21.5259 19.1456 21.8676 18.4877 22.013C18.2973 22.0549 18.0785 22.0774 17.8373 22.0774C15.5054 22.0789 13.169 22.0804 10.8971 22.0804ZM17.2093 21.3011C17.2843 21.3011 17.3577 21.3026 17.4356 21.3041C17.5136 21.3056 17.5945 21.3071 17.6754 21.3071C17.8777 21.3071 18.0336 21.2981 18.1789 21.2771C19.228 21.1318 19.9323 20.282 19.9338 19.1641C19.9353 17.9771 19.9353 16.7692 19.9353 15.6018C19.9353 13.6386 19.9353 11.608 19.9398 9.6118C19.9398 9.31057 19.8379 9.09177 19.6086 8.90594C17.8957 7.51072 16.1588 6.09002 14.4788 4.71427C14.0292 4.34711 13.5796 3.97845 13.1301 3.61128C12.7839 3.32804 12.4227 3.18417 12.0555 3.18417C11.6899 3.18417 11.3287 3.32804 10.984 3.60978L9.97395 4.43553C8.17709 5.90718 6.31879 7.42679 4.48896 8.91943C4.27316 9.09627 4.17275 9.30757 4.17275 9.58632C4.17725 11.2798 4.17725 13.0032 4.17725 14.6682C4.17725 15.2002 4.17725 15.7337 4.17725 16.2657C4.17725 16.5519 4.17725 16.8427 4.17575 17.1244C4.17425 17.8378 4.17275 18.5766 4.18174 19.3034C4.19523 20.282 4.8816 21.0868 5.84972 21.2606C6.05353 21.2966 6.25884 21.3011 6.43568 21.3011C6.46116 21.3011 6.48813 21.3011 6.51361 21.3011C6.53909 21.3011 6.56456 21.3011 6.59004 21.3011C6.61252 21.3011 6.635 21.3011 6.65748 21.3011C6.87178 21.3026 7.10557 21.3041 7.39181 21.3041C7.55816 21.3041 7.7245 21.3041 7.89235 21.3041C8.06319 21.3041 8.23404 21.3041 8.40788 21.3041H8.74807V20.6957C8.74807 20.2566 8.74807 19.8175 8.74807 19.3784C8.74807 18.3983 8.74657 17.3837 8.74957 16.3871C8.75107 15.7352 8.99384 15.1327 9.43144 14.6936C9.87054 14.2545 10.47 14.0103 11.1219 14.0088C11.3392 14.0073 11.5685 14.0073 11.8442 14.0073C12.063 14.0073 12.2818 14.0073 12.5006 14.0073C12.6415 14.0073 12.7824 14.0073 12.9218 14.0073C13.2784 14.0073 13.6141 14.0687 13.9183 14.1901C14.2106 14.3055 14.4683 14.4748 14.6826 14.6906C14.8984 14.9065 15.0663 15.1642 15.1817 15.4564C15.3031 15.7607 15.3645 16.0964 15.3645 16.4545C15.3645 17.4346 15.3645 18.4297 15.3645 19.3933C15.3645 19.828 15.3645 20.2611 15.3645 20.6957V21.3071H15.7047C15.8606 21.3071 16.0119 21.3071 16.1633 21.3071C16.3087 21.3071 16.4525 21.3071 16.5949 21.3071C16.8212 21.3071 17.007 21.3071 17.1779 21.3056C17.1884 21.3011 17.1988 21.3011 17.2093 21.3011Z" fill="currentColor" />
</svg>