<svg viewBox="0 0 60 60" fill="none" xmlns="http://www.w3.org/2000/svg">
    <path d="M7.264 34.482c-1.054-7.908-1.582-11.863.66-14.422 2.24-2.56 6.23-2.56 14.209-2.56h15.734c7.979 0 11.968 0 14.21 2.56 2.24 2.56 1.713 6.514.659 14.423l-1 7.5c-.828 6.202-1.241 9.303-3.362 11.16C46.253 55 43.124 55 36.867 55H23.133c-6.258 0-9.386 0-11.507-1.857-2.121-1.857-2.535-4.958-3.362-11.16l-1-7.5ZM48.905 17.5c.571-3.262-1.939-6.25-5.25-6.25h-27.31c-3.311 0-5.821 2.988-5.25 6.25m32.655-6.25c.07-.648.106-.972.107-1.24a5 5 0 0 0-4.467-4.98C39.123 5 38.799 5 38.147 5H21.853c-.652 0-.978 0-1.244.029a5 5 0 0 0-4.466 4.982c0 .267.036.591.107 1.239" stroke="currentColor" stroke-width="2"/>
    <circle cx="41.25" cy="28.75" r="3.75" stroke="currentColor" stroke-width="2"/>
    <path d="m50 50-7.21-5.371c-2.326-1.733-5.788-1.905-8.348-.416l-.667.388c-1.779 1.034-4.198.86-5.736-.411l-9.595-7.943c-1.915-1.585-4.987-1.67-7.026-.193l-3.31 2.397" stroke="currentColor" stroke-width="2" stroke-linecap="round"/>
</svg>
