<svg viewBox="0 0 24 24" fill="none" xmlns="http://www.w3.org/2000/svg">
    <path d="M17.7 22.625c-.1-.022-.195-.04-.29-.062a5.699 5.699 0 0 1-.645-.157c-1.092-.347-1.95-1.037-2.543-2.041a2.724 2.724 0 0 0-.062-.095c-.01-.017-.022-.028-.033-.05l-.09-.13-.605.348c-.386.224-.767.443-1.148.662l-.398.23c-.454.258-.919.532-1.378.802-.028.016-.05.027-.067.027s-.034-.005-.068-.022c-3.036-1.76-6.01-3.477-8.823-5.103-.044-.028-.05-.034-.05-.101.006-3.797 0-7.133 0-10.2 0-.063.006-.074.073-.113 3.344-1.935 6.145-3.55 8.806-5.098a.136.136 0 0 1 .062-.022.21.21 0 0 1 .084.034c2.397 1.39 5.562 3.219 8.778 5.075.078.045.09.073.09.168v2.854c0 1.24 0 2.518-.006 3.78 0 .28.134.398.33.482 1.642.685 2.611 1.918 2.874 3.668a.606.606 0 0 0 .028.118c0 .005.006.011.006.017v.835c-.011.028-.028.068-.034.112-.274 1.817-1.283 3.073-3.002 3.724a4.615 4.615 0 0 1-.717.185 7.177 7.177 0 0 0-.336.073H17.7Zm.421-8.109a3.596 3.596 0 0 0-2.538 6.135 3.567 3.567 0 0 0 2.538 1.054 3.59 3.59 0 0 0 3.585-3.583c0-.96-.37-1.868-1.047-2.546a3.54 3.54 0 0 0-2.538-1.06ZM2.419 9.726c0 2.11 0 4.29-.006 6.439 0 .218.084.359.275.47 1.372.786 2.761 1.593 4.111 2.373l3.138 1.811.028-.258c0-.022.005-.039.005-.056.006-.028.006-.056.006-.078v-1.71c0-2.087 0-4.246.005-6.371 0-.219-.123-.314-.24-.387-1.732-.998-3.463-1.997-5.188-2.995l-1.686-.976a2.448 2.448 0 0 0-.123-.067c-.023-.011-.05-.028-.073-.04l-.247-.134-.005 1.98Zm15.685-1.788-.162.09-1.345.78c-1.776 1.025-3.613 2.085-5.417 3.128-.196.113-.285.258-.28.488.006 2.131.006 4.296.006 6.388v1.934l.213-.061c.016-.006.028-.006.039-.012.028-.005.056-.01.084-.033l.32-.185a394 394 0 0 0 1.965-1.139c.124-.073.163-.246.163-.347 0-.18-.011-.36-.022-.533-.017-.331-.034-.64-.006-.948.201-1.935 1.888-3.628 3.837-3.852a7.72 7.72 0 0 1 .544-.045l.263-.017.157-.011V7.736l-.359.202Zm-7.658-5.316a.456.456 0 0 0-.252.078C8.452 3.71 6.676 4.736 4.962 5.728l-1.625.937c-.044.028-.084.05-.128.084-.023.011-.04.028-.068.045l-.212.14.212.14a.517.517 0 0 0 .045.028c.028.023.056.04.084.05l1.434.83c1.799 1.038 3.664 2.115 5.49 3.18a.46.46 0 0 0 .241.073.522.522 0 0 0 .263-.084l4.18-2.417 1.22-.706 1.088-.628.778-.455-.224-.151c-.022-.017-.045-.028-.061-.045-.04-.028-.079-.05-.118-.073l-1.653-.953C14.2 4.736 12.43 3.71 10.688 2.7a.44.44 0 0 0-.242-.078Z" fill="currentColor"/>
    <path d="M17.682 19.875v-1.346h-1.307v-.927h1.296V16.25h.892v1.34h1.312v.928h-.481c-.178 0-.324 0-.459-.006h-.027c-.043 0-.167 0-.26.095-.08.084-.085.201-.085.296.005.263.005.525.005.799v.167h-.886v.006Z" fill="currentColor"/>
</svg>
