<svg viewBox="0 0 24 24" fill="none" xmlns="http://www.w3.org/2000/svg">
    <path d="M3 9.53846C3 6.92761 3 5.62218 3.79081 4.81109C4.58162 4 5.85442 4 8.4 4H15.6C18.1456 4 19.4184 4 20.2092 4.81109C21 5.62218 21 6.92761 21 9.53846V10.4615C21 13.0724 21 14.3778 20.2092 15.1889C19.4184 16 18.1456 16 15.6 16H8.4C5.85442 16 4.58162 16 3.79081 15.1889C3 14.3778 3 13.0724 3 10.4615V9.53846Z" stroke="#64748B" stroke-width="1.3"></path> <path data-v-5ed2bd1f="" d="M12 18.2222V16M12 18.2222L17 20M12 18.2222L7 20" stroke="currentColor" stroke-width="1.3" stroke-linecap="round"></path>
</svg>