<svg viewBox="0 0 22 22" fill="none" xmlns="http://www.w3.org/2000/svg">
    <path d="M3.66602 7.33301C3.66602 4.74028 3.66602 3.44392 4.47147 2.63846C5.27693 1.83301 6.57329 1.83301 9.16602 1.83301H12.8327C15.4254 1.83301 16.7218 1.83301 17.5272 2.63846C18.3327 3.44392 18.3327 4.74028 18.3327 7.33301V14.6663C18.3327 17.2591 18.3327 18.5554 17.5272 19.3609C16.7218 20.1663 15.4254 20.1663 12.8327 20.1663H9.16602C6.57329 20.1663 5.27693 20.1663 4.47147 19.3609C3.66602 18.5554 3.66602 17.2591 3.66602 14.6663V7.33301Z" stroke="currentColor"  stroke-width="1.5"/>
    <path d="M18.239 14.667H7.23898C6.3865 14.667 5.96027 14.667 5.61056 14.7607C4.66156 15.015 3.9203 15.7562 3.66602 16.7052" stroke="currentColor"  stroke-width="1.5"/>
    <path d="M7.33398 6.41699H14.6673" stroke="currentColor"  stroke-width="1.5" stroke-linecap="round"/>
    <path d="M7.33398 9.625H11.9173" stroke="currentColor"  stroke-width="1.5" stroke-linecap="round"/>
    <path d="M17.8757 17.417H7.33398" stroke="currentColor"  stroke-width="1.5" stroke-linecap="round"/>
</svg>