<svg width="24" height="24" viewBox="0 0 24 24" fill="none" xmlns="http://www.w3.org/2000/svg">
    <path d="M20.6134 6.90891C20.6134 6.82116 20.6056 6.73255 20.6013 6.64481C19.0471 6.64567 17.4929 6.64828 15.9378 6.64481C15.2367 6.64307 14.639 6.04536 14.6373 5.34427C14.6338 3.79007 14.6373 2.23499 14.6373 0.680783C13.752 0.679045 12.8668 0.677308 11.9815 0.674702C10.7653 0.672964 9.54814 0.670358 8.33189 0.66862C7.36584 0.667752 6.39979 0.667752 5.43287 0.66862C4.20098 0.670358 3.35048 1.52261 3.35048 2.75798C3.34961 8.90271 3.34961 15.0466 3.34961 21.1913C3.34961 22.2764 3.85435 22.9583 4.89685 23.2841C4.9316 23.2946 4.9707 23.2954 4.98807 23.3354C7.3198 23.3354 9.65065 23.3354 11.9824 23.3354C11.9815 21.9949 11.9815 20.6535 11.9806 19.313C10.668 19.3104 9.35528 19.3104 8.04347 19.3052C7.51614 19.3026 7.18427 18.8161 7.40059 18.3661C7.53264 18.0916 7.7646 17.9786 8.06519 17.9786C9.2823 17.9812 10.4986 17.9795 11.7157 17.9795C11.8043 17.9795 11.892 17.9751 11.9806 17.9734C11.9806 17.5347 11.9806 17.096 11.9806 16.6572C10.668 16.6546 9.35528 16.6546 8.04347 16.6494C7.51614 16.6468 7.18427 16.1603 7.40059 15.7103C7.53264 15.4358 7.7646 15.3228 8.06519 15.3228C9.2823 15.3254 10.4986 15.3237 11.7157 15.3237C11.8043 15.3237 11.892 15.3194 11.9806 15.3176C11.9806 14.8789 11.9806 14.4402 11.9806 14.0014C10.668 13.9988 9.35528 13.9988 8.04347 13.9936C7.51614 13.991 7.18427 13.5045 7.40059 13.0545C7.53264 12.78 7.7646 12.667 8.06519 12.667C9.2823 12.6696 10.4986 12.6679 11.7157 12.6679C11.8043 12.6679 11.892 12.6636 11.9806 12.6618C11.9806 12.2231 11.9806 11.7844 11.9806 11.3457C10.668 11.343 9.35528 11.343 8.04347 11.3378C7.51614 11.3352 7.18427 10.8487 7.40059 10.3987C7.53264 10.1242 7.7646 10.0112 8.06519 10.0112C9.2823 10.0138 10.4986 10.0121 11.7157 10.0121C11.8043 10.0121 11.892 10.0078 11.9806 10.006C12.8138 10.0095 13.646 10.0138 14.4792 10.0165C14.9804 10.0182 15.4817 10.0138 15.983 10.0182C16.3548 10.0217 16.6293 10.3118 16.6258 10.6871C16.6224 11.0485 16.3461 11.3335 15.983 11.3352C14.7372 11.3387 13.4905 11.3361 12.2447 11.337C12.1561 11.337 12.0684 11.343 11.9798 11.3465C11.9798 11.7852 11.9798 12.224 11.9798 12.6627C12.8129 12.6662 13.6452 12.6705 14.4783 12.6731C14.9796 12.6749 15.4808 12.6705 15.9821 12.6749C16.3539 12.6783 16.6285 12.9685 16.625 13.3438C16.6215 13.7052 16.3452 13.9902 15.9821 13.9919C14.7363 13.9954 13.4897 13.9928 12.2439 13.9936C12.1553 13.9936 12.0675 13.9997 11.9789 14.0032C11.9789 14.4419 11.9789 14.8806 11.9789 15.3194C12.812 15.3228 13.6443 15.3272 14.4774 15.3298C14.9787 15.3315 15.48 15.3272 15.9812 15.3315C16.3531 15.335 16.6276 15.6252 16.6241 16.0005C16.6206 16.3619 16.3444 16.6468 15.9812 16.6486C14.7354 16.652 13.4888 16.6494 12.243 16.6503C12.1544 16.6503 12.0666 16.6564 11.978 16.6598C11.978 17.0986 11.978 17.5373 11.978 17.976C12.4124 17.9795 12.8468 17.983 13.2812 17.9864C13.6903 17.989 13.9709 18.2636 13.9675 18.6571C13.964 19.0359 13.6808 19.3035 13.2812 19.3061C12.8468 19.3096 12.4124 19.313 11.978 19.3165C11.9789 20.657 11.9789 21.9984 11.9798 23.3389C14.3115 23.3389 16.6424 23.3389 18.9741 23.3389C18.9906 23.3258 19.0062 23.3058 19.0245 23.3006C20.0565 23.0235 20.6117 22.3068 20.6117 21.2495C20.6134 16.467 20.6134 11.6879 20.6134 6.90891Z" fill="#64E1DC"/>
    <path d="M11.98 10.0039C12.8131 10.0074 13.6454 10.0117 14.4785 10.0143C14.9798 10.0161 15.481 10.0117 15.9823 10.0161C16.3541 10.0195 16.6287 10.3097 16.6252 10.685C16.6217 11.0464 16.3454 11.3314 15.9823 11.3331C14.7365 11.3366 13.4899 11.334 12.2441 11.3348C12.1555 11.3348 12.0677 11.3409 11.9791 11.3444C10.6664 11.3418 9.35375 11.3418 8.04193 11.3366C7.5146 11.334 7.18274 10.8475 7.39906 10.3975C7.53111 10.1229 7.76306 10.01 8.06365 10.01C9.28077 10.0126 10.497 10.0109 11.7141 10.0109C11.8036 10.01 11.8922 10.0065 11.98 10.0039Z" fill="#FEFEFE"/>
    <path d="M11.98 12.6602C12.8131 12.6636 13.6454 12.668 14.4785 12.6706C14.9798 12.6723 15.481 12.668 15.9823 12.6723C16.3541 12.6758 16.6287 12.966 16.6252 13.3413C16.6217 13.7027 16.3454 13.9876 15.9823 13.9894C14.7365 13.9928 13.4899 13.9902 12.2441 13.9911C12.1555 13.9911 12.0677 13.9972 11.9791 14.0006C10.6664 13.998 9.35375 13.998 8.04193 13.9928C7.5146 13.9902 7.18274 13.5037 7.39906 13.0537C7.53111 12.7792 7.76306 12.6662 8.06365 12.6662C9.28077 12.6688 10.497 12.6671 11.7141 12.6671C11.8036 12.6662 11.8922 12.6619 11.98 12.6602Z" fill="#FEFEFE"/>
    <path d="M11.98 15.3164C12.8131 15.3199 13.6454 15.3242 14.4785 15.3268C14.9798 15.3286 15.481 15.3242 15.9823 15.3286C16.3541 15.332 16.6287 15.6222 16.6252 15.9975C16.6217 16.3589 16.3454 16.6439 15.9823 16.6456C14.7365 16.6491 13.4899 16.6465 12.2441 16.6473C12.1555 16.6473 12.0677 16.6534 11.9791 16.6569C10.6664 16.6543 9.35375 16.6543 8.04193 16.6491C7.5146 16.6465 7.18274 16.16 7.39906 15.71C7.53111 15.4354 7.76306 15.3225 8.06365 15.3225C9.28077 15.3251 10.497 15.3234 11.7141 15.3234C11.8036 15.3225 11.8922 15.319 11.98 15.3164Z" fill="#FEFEFE"/>
    <path d="M11.9791 17.9727C12.4135 17.9761 12.8479 17.9796 13.2822 17.9831C13.6914 17.9857 13.972 18.2602 13.9685 18.6538C13.9651 19.0325 13.6819 19.3001 13.2822 19.3027C12.8479 19.3062 12.4135 19.3097 11.9791 19.3131C10.6664 19.3105 9.35375 19.3105 8.04193 19.3053C7.5146 19.3027 7.18274 18.8162 7.39906 18.3662C7.53111 18.0917 7.76306 17.9787 8.06365 17.9787C9.28077 17.9813 10.497 17.9796 11.7141 17.9796C11.8028 17.9787 11.8914 17.9744 11.9791 17.9727Z" fill="#FEFEFE"/>
    <path d="M20.6003 6.64371C19.0461 6.64458 17.4919 6.64719 15.9368 6.64371C15.2357 6.64197 14.638 6.04427 14.6363 5.34318C14.6328 3.78897 14.6363 2.2339 14.6363 0.679688C14.8387 0.687506 14.9977 0.778726 15.1393 0.921202C16.882 2.66827 18.6273 4.41274 20.3735 6.15634C20.5125 6.29447 20.5916 6.45085 20.6003 6.64371Z" fill="#00A0AA"/>
    <path d="M16.3333 17.3008H15V17.9547H16.3333V17.3008Z" fill="white"/>
    <path d="M16.3281 19.3014V17.832H15.6677V19.3014H16.3281Z" fill="white"/>
</svg>
