<svg viewBox="0 0 24 24" fill="none" xmlns="http://www.w3.org/2000/svg">
    <path d="M7.69582 23.6663C7.36851 23.5716 7.04119 23.49 6.7466 23.304C5.85302 22.7359 5.41441 21.7631 5.59771 20.7249C5.76464 19.7717 6.53384 18.9882 7.52562 18.7597C7.98387 18.6552 8.42902 18.7205 8.87417 18.8315C9.08366 18.9392 9.29314 19.0469 9.50263 19.1547C9.85613 19.4811 10.1802 19.8239 10.3569 20.2842C10.8937 21.6913 10.1049 23.2191 8.6385 23.5945C8.56977 23.6108 8.48139 23.5912 8.42902 23.6631C8.18353 23.6663 7.94131 23.6663 7.69582 23.6663Z" fill="#FE72C7"/>
    <path d="M10.9738 14.7519C10.1555 14.2295 9.63174 13.4885 9.3437 12.5711C9.29788 12.3361 9.25205 12.0978 9.20623 11.8627C9.14077 10.8376 9.43535 9.92029 10.0409 9.09435C10.2078 8.92786 10.3715 8.76136 10.5384 8.59487C11.0392 8.20312 11.5858 7.89951 12.2176 7.7624C13.0948 7.57306 13.9393 7.66773 14.751 8.05295C14.8001 8.0758 14.8492 8.09212 14.8983 8.11498C15.0914 8.23903 15.2845 8.36635 15.4777 8.4904C16.1028 9.02579 16.5644 9.66892 16.7902 10.4687C17.0422 11.3632 16.9571 12.2381 16.6135 13.0935C16.5022 13.2991 16.3876 13.5048 16.2763 13.7072C15.9752 14.0696 15.6708 14.4254 15.2714 14.6866C14.188 15.4015 13.0326 15.5615 11.7986 15.1567C11.7331 15.1371 11.6677 15.1175 11.6022 15.1012C11.3894 14.9837 11.18 14.8694 10.9738 14.7519Z" fill="#00D1FB"/>
    <path d="M6.48903 5.68465C5.99478 6.02743 5.45797 6.22331 4.84589 6.20372C3.52025 6.16128 2.44009 5.03826 2.44337 3.70632C2.44664 2.3711 3.53007 1.25788 4.86225 1.23503C5.84748 1.21544 6.60359 1.63657 7.09457 2.47883C7.58227 3.32436 7.54627 4.18621 7.05529 5.03174C7.02583 5.08397 6.99637 5.1362 6.96691 5.18843C6.8098 5.35493 6.64942 5.52142 6.48903 5.68465Z" fill="#8CC826"/>
    <path d="M17.7166 3.78396C17.458 3.46404 17.2289 3.13431 17.1471 2.71645C16.9769 1.87418 17.3631 1.02539 18.1389 0.578146C18.8491 0.170074 19.8213 0.277805 20.4301 0.839312C21.0324 1.39756 21.2353 2.08638 21.016 2.86662C20.7967 3.65012 20.2501 4.12348 19.4514 4.28344C19.0652 4.35853 18.6789 4.29977 18.3091 4.16592C18.1127 4.03534 17.9163 3.91128 17.7166 3.78396Z" fill="#FE72C7"/>
    <path d="M4.55433 13.4263C4.48887 14.1348 4.14191 14.6473 3.45781 14.8791C2.81627 15.0978 2.23691 14.9476 1.76885 14.458C1.12403 13.7855 1.20913 12.7016 1.93905 12.114C2.65915 11.5394 3.72949 11.6929 4.25647 12.447C4.32193 12.5384 4.3743 12.6428 4.42995 12.7408C4.5085 12.9628 4.55433 13.1913 4.55433 13.4263Z" fill="#FAC702"/>
    <path d="M19.4712 14.7C19.8214 14.3735 20.2208 14.1711 20.7183 14.1842C21.5169 14.2038 22.2109 14.8338 22.2698 15.6075C22.3385 16.4988 21.7788 17.2137 20.8983 17.3606C20.1291 17.4879 19.3272 16.9526 19.1242 16.1821C19.0457 15.8883 19.0817 15.5945 19.1275 15.3039C19.2224 15.0885 19.3305 14.8828 19.4712 14.7Z" fill="#FAC702"/>
    <path d="M17.7154 3.78125C17.9118 3.90857 18.1082 4.03262 18.3078 4.15994C17.4797 5.4266 16.6516 6.69652 15.8235 7.96318C15.7089 8.13946 15.5878 8.31575 15.47 8.49204C15.2769 8.36799 15.0837 8.24067 14.8906 8.11661C15.5813 7.05562 16.2752 5.99137 16.9658 4.93038C17.2179 4.54516 17.4666 4.16321 17.7154 3.78125Z" fill="#5068D2"/>
    <path d="M6.48828 5.68762C6.64867 5.52113 6.80578 5.3579 6.96617 5.19141C7.65681 5.84759 8.34745 6.50703 9.0381 7.16321C9.53562 7.63984 10.0331 8.11647 10.5339 8.5931C10.367 8.75959 10.2034 8.92609 10.0364 9.09258C8.8548 7.95977 7.67318 6.8237 6.48828 5.68762Z" fill="#5068D2"/>
    <path d="M4.5547 13.4238C4.5547 13.1887 4.5056 12.9602 4.43359 12.7382C6.02436 12.4476 7.61513 12.1538 9.20918 11.8633C9.255 12.0983 9.30083 12.3366 9.34665 12.5717C8.25668 12.7676 7.16998 12.9602 6.08001 13.1561C5.56939 13.2475 5.06205 13.3356 4.5547 13.4238Z" fill="#5068D2"/>
    <path d="M10.9737 14.75C11.1832 14.8675 11.3894 14.9818 11.5989 15.0993C10.9541 16.3496 10.306 17.6 9.6612 18.8536C9.60883 18.9548 9.55646 19.056 9.50736 19.1572C9.29787 19.0495 9.08839 18.9417 8.87891 18.834C9.54009 17.5575 10.2013 16.2778 10.8625 15.0014C10.9017 14.9165 10.9345 14.8316 10.9737 14.75Z" fill="#5068D2"/>
    <path d="M19.4707 14.6999C19.33 14.886 19.2187 15.0884 19.127 15.3006C18.1745 14.7685 17.222 14.2396 16.2695 13.7075C16.3808 13.5018 16.4954 13.2962 16.6067 13.0938C17.5624 13.6291 18.5182 14.1645 19.4707 14.6999Z" fill="#5068D2"/>
    <path d="M15.3557 11.7347C15.2935 11.4604 15.0578 11.2776 14.7665 11.2744C14.4425 11.2711 14.1151 11.2744 13.7911 11.2744C13.6405 11.2744 13.6405 11.2744 13.6405 11.1209C13.6405 10.7847 13.6405 10.4517 13.6405 10.1154C13.6373 9.71715 13.1921 9.43966 12.832 9.60942C12.5997 9.72042 12.4916 9.90976 12.4851 10.1579C12.4785 10.4288 12.4851 10.6998 12.4818 10.9708C12.4818 11.0687 12.5244 11.1895 12.4589 11.2548C12.4 11.3168 12.2789 11.2678 12.1872 11.2776C11.8632 11.2874 11.5391 11.2482 11.2151 11.3005C10.9336 11.3462 10.7339 11.6302 10.7601 11.924C10.7863 12.2048 11.0318 12.43 11.3166 12.4333C11.6733 12.4333 12.0268 12.4365 12.3836 12.4333C12.4622 12.4333 12.4884 12.4594 12.4851 12.5377C12.4818 12.8707 12.4851 13.2005 12.4818 13.5334C12.4818 13.6869 12.5211 13.8207 12.6127 13.9448C12.7404 14.1178 12.999 14.2059 13.2183 14.1407C13.4638 14.0688 13.6373 13.8632 13.6373 13.6379C13.6405 13.3212 13.6373 13.0046 13.6373 12.6879C13.6373 12.6553 13.6373 12.6194 13.6405 12.5867C13.6405 12.4365 13.6405 12.4365 13.7845 12.4365C14.125 12.4365 14.4654 12.4365 14.8058 12.4365C15.1658 12.43 15.4375 12.0872 15.3557 11.7347Z" fill="white"/>
</svg>
