<svg viewBox="0 0 24 24" fill="none" xmlns="http://www.w3.org/2000/svg">
    <path d="M8.1856 20.3619C6.31803 20.3619 4.45169 20.3631 2.58412 20.3619C1.61657 20.3606 1.00265 19.7411 1.00142 18.7675C1.00019 18.1332 0.998962 17.499 1.00142 16.8659C1.00878 15.054 2.13841 13.4646 3.84759 12.8721C4.83478 12.5303 5.82689 12.2046 6.81409 11.8641C6.99336 11.8014 7.13947 11.8223 7.304 11.912C9.24279 12.9753 11.1803 12.9643 13.1081 11.8788C13.226 11.8125 13.3328 11.7965 13.4592 11.8432C13.6447 11.9108 13.8313 11.9796 14.0216 12.0276C14.2205 12.078 14.2205 12.1431 14.0867 12.2833C13.3708 13.0331 12.8883 13.9132 12.671 14.9274C12.2486 16.8966 12.7446 18.6237 14.0805 20.1197C14.1358 20.1824 14.2623 20.2291 14.2131 20.3287C14.1775 20.4024 14.0621 20.3643 13.9823 20.3643C12.0497 20.3656 10.117 20.3656 8.18315 20.3656C8.1856 20.3643 8.1856 20.3631 8.1856 20.3619Z" fill="#00EE84"/>
    <path d="M9.93743 2.00679C12.6719 1.8728 14.8513 3.73511 15.1313 6.53165C15.4186 9.40563 13.1311 11.8432 10.2726 11.9366C7.76535 12.019 5.34647 10.0952 5.22246 7.21634C5.09599 4.32883 7.10108 2.12971 9.93743 2.00679Z" fill="#00EE84"/>
    <path d="M18.1441 21.1078C15.5496 21.1987 13.2732 18.8447 13.2891 16.2805C13.3076 13.5073 15.4698 11.2603 18.165 11.2578C20.9362 11.2554 23.1329 13.452 23.1341 16.2277C23.1353 18.9591 20.9411 21.1053 18.1441 21.1078ZM17.8433 14.8067C17.8433 15.0451 17.8322 15.2848 17.8469 15.5233C17.8605 15.7544 17.7635 15.8232 17.5424 15.8171C17.0574 15.8048 16.5724 15.8073 16.0874 15.8171C15.7731 15.8232 15.5987 16.0482 15.6871 16.3235C15.7571 16.5436 15.945 16.5841 16.1415 16.5866C16.6105 16.5903 17.0795 16.5977 17.5474 16.5841C17.7745 16.578 17.8531 16.6604 17.8469 16.8841C17.8359 17.361 17.8445 17.8392 17.8445 18.3162C17.8445 18.4919 17.8899 18.6419 18.068 18.7193C18.3283 18.8312 18.5726 18.6603 18.5787 18.3457C18.5886 17.8601 18.5898 17.3746 18.58 16.889C18.5751 16.6702 18.6426 16.578 18.8759 16.5841C19.3437 16.5977 19.8127 16.5915 20.2818 16.5854C20.5937 16.5805 20.7533 16.4416 20.7521 16.1982C20.7508 15.9548 20.5863 15.8171 20.2806 15.8146C19.8287 15.8109 19.3756 15.8134 18.9238 15.8134C18.5886 15.8122 18.5849 15.8085 18.5837 15.4631C18.5824 15.0107 18.5849 14.5571 18.5824 14.1048C18.5812 13.8122 18.4474 13.6462 18.2214 13.6413C17.9869 13.6364 17.8482 13.8085 17.8457 14.1146C17.842 14.3457 17.8433 14.5768 17.8433 14.8067Z" fill="#D1E9FF"/>
</svg>
