<svg viewBox="0 0 24 24" fill="none" xmlns="http://www.w3.org/2000/svg">
    <path d="M23.3921 12.1792C23.2853 12.5426 23.2875 12.9213 23.2113 13.2913C22.6034 16.277 21.2505 18.8144 18.7537 20.6576C17.8996 21.2887 16.782 20.8992 16.5249 19.9003C16.3833 19.3497 16.5881 18.7926 17.0957 18.4205C18.0391 17.7328 18.7864 16.8711 19.3506 15.8548C20.1742 14.375 20.6971 12.7907 20.5838 11.089C20.3419 7.50261 18.6665 4.82156 15.3767 3.22642C15.0194 3.0545 14.6381 2.95004 14.2591 2.83688C13.5641 2.62579 13.1806 2.05346 13.246 1.32879C13.3026 0.697696 13.819 0.190646 14.4965 0.107951C14.7449 0.0774842 14.978 0.147122 15.2133 0.214584C17.6687 0.930547 19.6012 2.37553 21.0979 4.41896C22.2766 6.02934 22.9999 7.83122 23.2897 9.80719C23.3224 10.0357 23.305 10.2707 23.3943 10.4905C23.3921 11.0541 23.3921 11.6178 23.3921 12.1792Z" fill="#5DE1C4"/>
    <path d="M11.6866 22.9986C9.30317 22.9855 7.10923 22.3348 5.12445 21.0117C4.22029 20.4089 4.27258 19.1141 5.22249 18.6027C5.71269 18.3372 6.20507 18.3764 6.66696 18.681C7.36849 19.1402 8.10707 19.5254 8.90882 19.78C10.325 20.2283 11.7673 20.3393 13.2313 20.0977C14.0658 19.9606 14.7826 20.4307 14.9285 21.2293C15.0658 21.9736 14.5603 22.6765 13.752 22.8288C13.0723 22.955 12.3838 23.0095 11.6866 22.9986Z" fill="#FEE45A"/>
    <path d="M0 11.891C0.00435737 11.0706 0.363841 10.5309 1.04577 10.3416C1.88674 10.1087 2.77347 10.7246 2.79308 11.5907C2.82576 13.0596 3.23535 14.411 3.93035 15.695C4.41184 16.5829 3.93906 17.5796 2.96955 17.7732C2.4227 17.882 1.82138 17.6187 1.53162 17.1073C0.790863 15.7907 0.285408 14.3936 0.10022 12.8877C0.0610032 12.5548 0.0326803 12.2218 0 11.891Z" fill="#FEE45A"/>
    <path d="M5.48263 4.45686C5.46738 4.78764 5.35409 5.10318 5.11443 5.3665C4.45211 6.0977 3.92923 6.9203 3.52181 7.81906C3.25819 8.40445 2.65687 8.73741 2.08824 8.65036C1.40413 8.5459 0.955321 8.0889 0.859458 7.40558C0.826778 7.17491 0.870352 6.95076 0.959678 6.73967C1.47603 5.52754 2.18628 4.43727 3.07736 3.46887C3.46517 3.04669 4.07084 2.92483 4.60462 3.13809C5.13622 3.34918 5.48699 3.86929 5.48263 4.45686Z" fill="#FEE45A"/>
    <path d="M16.2961 11.1008C16.1698 10.5503 15.697 10.1781 15.1066 10.176C14.453 10.1716 13.7994 10.176 13.1436 10.176C12.8429 10.176 12.8407 10.176 12.8407 9.86476C12.8407 9.18797 12.8429 8.51335 12.8407 7.83656C12.8364 7.03355 11.9388 6.4721 11.2133 6.81593C10.7448 7.0379 10.527 7.42309 10.5161 7.92361C10.503 8.46983 10.5183 9.01823 10.5117 9.56445C10.5095 9.75813 10.5967 10.004 10.4681 10.1346C10.3483 10.2565 10.1065 10.1585 9.91912 10.1781C9.26769 10.1977 8.61191 10.1172 7.96266 10.2217C7.3962 10.3131 6.99096 10.8832 7.04543 11.4795C7.09772 12.0475 7.59446 12.5023 8.16745 12.5023C8.88206 12.5045 9.59667 12.5066 10.3135 12.5001C10.4747 12.4979 10.5204 12.5502 10.5204 12.709C10.5139 13.3771 10.5204 14.0452 10.5161 14.7155C10.5139 15.0223 10.5945 15.2922 10.7775 15.5424C11.0368 15.895 11.5575 16.0712 11.9998 15.9385C12.4921 15.7905 12.8407 15.3792 12.8451 14.9244C12.8495 14.2868 12.8451 13.647 12.8429 13.0093C12.8233 13.0072 12.8037 13.0072 12.7819 13.005C12.8015 13.005 12.8233 13.0072 12.8429 13.0093C12.8451 12.9419 12.8473 12.8722 12.8473 12.8048C12.8495 12.5045 12.8473 12.5045 13.1392 12.5045C13.8233 12.5045 14.5074 12.5045 15.1937 12.5045C15.9127 12.5001 16.4595 11.8103 16.2961 11.1008Z" fill="#FED402"/>
    <path d="M9.03924 0C9.84535 0.00435236 10.3878 0.467879 10.5229 1.15555C10.6428 1.76924 10.2854 2.43297 9.67759 2.65712C9.22225 2.82468 8.75819 2.97266 8.28977 3.09453C7.62091 3.26862 6.97167 2.93567 6.69715 2.30893C6.43353 1.7083 6.62743 0.95752 7.19171 0.622388C7.79521 0.263318 8.47496 0.095752 9.03924 0Z" fill="#FEE45A"/>
</svg>
