<svg width="24" height="24" viewBox="0 0 24 24" fill="none" xmlns="http://www.w3.org/2000/svg">
    <path d="M0.873047 10.6328C0.873047 13.5783 0.873047 16.5224 0.874444 19.4665C0.875842 21.6236 2.37268 23.125 4.5236 23.1264C9.50747 23.1292 14.4913 23.1292 19.4766 23.1236C19.7953 23.1236 20.1209 23.097 20.4298 23.0243C22.0538 22.6427 23.1202 21.2657 23.1258 19.5462C23.1327 17.0341 23.1272 14.5219 23.1272 12.0098C23.1272 11.5513 23.1272 11.0913 23.1272 10.6328H0.873047Z" fill="#0065A3"/>
    <path d="M15.1088 5.03324C13.6524 5.03324 12.1947 5.03464 10.7384 5.03184C10.2241 5.03044 9.92363 4.77881 9.91804 4.36082C9.91245 3.93584 10.2381 3.66044 10.7594 3.66044C13.6734 3.65905 16.586 3.66184 19.5 3.65625C19.8187 3.65625 20.1192 3.71916 20.2352 4.02252C20.3107 4.22103 20.3037 4.49782 20.2282 4.69773C20.1164 4.9913 19.8201 5.03604 19.5196 5.03464C18.0479 5.03044 16.579 5.03324 15.1088 5.03324Z" fill="#0065A3"/>
    <path d="M15.118 6.45185C16.5743 6.45185 18.032 6.44905 19.4883 6.45325C19.997 6.45464 20.2933 6.71886 20.2863 7.14524C20.2793 7.56043 19.9677 7.82464 19.4659 7.82464C16.5393 7.82604 13.6114 7.82325 10.6848 7.82884C10.3633 7.82884 10.0628 7.75195 9.96359 7.4444C9.89511 7.23331 9.9021 6.91317 10.0209 6.74821C10.1425 6.58186 10.443 6.46862 10.6666 6.46443C12.1508 6.44066 13.6337 6.45185 15.118 6.45185Z" fill="#0065A3"/>
    <path d="M7.82698 5.72114C7.83397 6.87305 6.90037 7.81947 5.75293 7.82227C4.6013 7.82506 3.66071 6.88703 3.66211 5.73791C3.66351 4.60417 4.58593 3.66893 5.7152 3.65635C6.86683 3.64517 7.81999 4.57621 7.82698 5.72114Z" fill="#0065A3"/>
    <path d="M23.1272 4.55157C23.1258 2.36656 21.6359 0.87354 19.457 0.872142C14.4857 0.870744 9.51585 0.870744 4.54456 0.872142C2.36569 0.87354 0.875842 2.36656 0.874444 4.55157C0.874444 6.57861 0.874444 8.60425 0.873047 10.6313H23.1272C23.1286 8.60425 23.1286 6.57861 23.1272 4.55157ZM3.66267 5.73984C3.66407 4.60609 4.58649 3.67086 5.71576 3.65827C6.86739 3.64569 7.81916 4.57673 7.82615 5.72166C7.83313 6.87358 6.89953 7.82 5.7521 7.8228C4.60187 7.82699 3.66127 6.88896 3.66267 5.73984ZM20.2271 4.69836C20.1153 4.99193 19.819 5.03666 19.5185 5.03526C18.0483 5.02967 16.578 5.03247 15.1077 5.03247C13.6514 5.03247 12.1937 5.03387 10.7374 5.03107C10.223 5.02967 9.92256 4.77804 9.91697 4.36005C9.91138 3.93507 10.237 3.65967 10.7583 3.65967C13.6723 3.65828 16.585 3.66107 19.499 3.65548C19.8176 3.65548 20.1181 3.71839 20.2341 4.02174C20.311 4.22165 20.304 4.49705 20.2271 4.69836ZM20.3389 7.14339C20.3319 7.55858 20.0203 7.8228 19.5185 7.8228C16.5919 7.82419 13.664 7.8214 10.7374 7.82699C10.4159 7.82699 10.1154 7.7501 10.0162 7.44255C9.94772 7.23146 9.9547 6.91133 10.0735 6.74637C10.1951 6.58001 10.4956 6.46677 10.7192 6.46258C12.2021 6.43882 13.6863 6.45 15.1692 6.45C16.6255 6.45 18.0832 6.4472 19.5395 6.4514C20.0496 6.45419 20.3459 6.71701 20.3389 7.14339ZM3.16652 2.62798C3.19028 2.6126 3.21264 2.59862 3.2378 2.58324C3.21264 2.59722 3.18888 2.6126 3.16652 2.62798Z" fill="#E7F0EF"/>
    <path d="M19.0651 20.5235H4.93533C4.23233 20.5235 3.66211 19.9531 3.66211 19.2499V14.0314C3.66211 13.3282 4.23233 12.7578 4.93533 12.7578H19.0665C19.7695 12.7578 20.3398 13.3282 20.3398 14.0314V19.2485C20.3384 19.9531 19.7681 20.5235 19.0651 20.5235Z" fill="#E7F0EF"/>
</svg>
