<svg viewBox="0 0 24 24" fill="none" xmlns="http://www.w3.org/2000/svg">
    <path d="M5.69873 2.82808C6.40776 2.29803 7.19595 1.91483 8.01741 1.59703C9.5066 1.02109 11.0532 0.774423 12.6422 0.878827C15.2385 1.04977 17.5239 1.99285 19.4605 3.74477C21.1425 5.26723 22.2588 7.13502 22.798 9.33553C23.4084 11.824 23.1709 14.2414 22.1326 16.5841C21.7448 17.4595 21.2228 18.25 20.6514 19.0118C20.4633 18.8202 20.2751 18.6275 20.0869 18.4359C20.1076 18.4232 20.134 18.4164 20.1478 18.3992C20.9922 17.3092 21.6037 16.1034 21.9765 14.7737C22.1762 14.0589 22.2725 13.3293 22.354 12.595C22.3735 12.4172 22.2978 12.3816 22.1372 12.3816C20.851 12.3873 19.5638 12.385 18.2777 12.385C18.0081 12.0328 17.6994 11.7173 17.3644 11.427C17.3139 10.6021 17.2669 9.77839 17.1269 8.96266C16.9525 7.94157 16.7254 6.93539 16.3559 5.96478C16.3123 5.85005 16.2688 5.81449 16.1288 5.84202C14.9585 6.07377 13.7745 6.20686 12.5813 6.23784C12.3771 6.24357 12.3725 6.33765 12.3725 6.49024C12.376 8.10449 12.3748 9.71873 12.376 11.333C11.9916 11.6508 11.6245 11.9858 11.3228 12.3862C9.87488 12.3862 8.42814 12.385 6.98026 12.385C6.59936 12.385 6.59936 12.385 6.61886 12.7625C6.62001 12.7786 6.61886 12.7946 6.62001 12.8107C6.69458 13.7526 6.76801 14.6957 6.95502 15.6238C7.12252 16.451 7.33018 17.2691 7.63422 18.0584C7.66978 18.1502 7.71109 18.1926 7.8304 18.1663C8.14017 18.0974 8.45453 18.0469 8.76774 17.9987C9.6569 17.8622 10.5518 17.7865 11.4501 17.7601C11.5614 17.7567 11.6153 17.7211 11.6119 17.6087C11.9664 17.9494 12.337 18.2695 12.7592 18.5242C12.6949 18.5242 12.6307 18.5311 12.5676 18.5242C12.4253 18.5093 12.3714 18.5632 12.3725 18.7124C12.3771 19.8539 12.3771 20.9943 12.3725 22.1359C12.3714 22.2908 12.4322 22.3424 12.5733 22.3045C12.7798 22.2483 12.9875 22.1933 13.1848 22.1038C14.0568 21.7102 14.6889 21.0506 15.2144 20.2773C15.5092 19.8436 15.7949 19.403 15.9693 18.9017C16.2722 18.7755 16.5739 18.6493 16.8768 18.5231C17.1361 18.7812 17.3942 19.0393 17.6535 19.2975C17.4138 19.3445 17.2141 19.208 16.9996 19.146C16.8183 19.0933 16.7357 19.1346 16.6554 19.3067C16.2297 20.213 15.7054 21.0551 14.9769 21.7561C14.9356 21.7951 14.8518 21.8353 14.9035 21.9076C14.9379 21.9558 15.0067 21.9282 15.0595 21.9087C15.3589 21.7997 15.6607 21.6988 15.9555 21.5795C16.8619 21.2112 17.688 20.7041 18.4624 20.1109C18.6528 20.2979 18.8433 20.4838 19.0337 20.6708C18.9351 20.6892 18.8639 20.7557 18.7882 20.8142C17.2371 22.012 15.4829 22.7658 13.537 23.0216C10.5116 23.4186 7.74321 22.7233 5.30062 20.8842C2.92457 19.0944 1.4916 16.7092 1.0063 13.771C0.593273 11.2664 1.02466 8.89841 2.21555 6.66348C2.26717 6.56596 2.33372 6.47533 2.39338 6.3824C2.37961 6.85164 2.44156 7.31285 2.55744 7.76718C2.40485 7.97599 2.34175 8.2238 2.25226 8.46015C1.89201 9.41011 1.71992 10.3991 1.63157 11.4064C1.61895 11.5533 1.65796 11.6209 1.82547 11.6198C3.15748 11.6118 4.48948 11.6129 5.82149 11.6106C5.95687 11.7322 6.08308 11.9376 6.22993 11.9525C6.40088 11.9697 6.49495 11.7093 6.65787 11.6106C8.24114 11.6129 9.82325 11.6129 11.4065 11.6186C11.5591 11.6198 11.6165 11.5785 11.6153 11.4167C11.6107 9.75429 11.6119 8.09072 11.6142 6.42829C11.6142 6.30209 11.5855 6.23784 11.4421 6.23899C10.9717 6.24357 10.5059 6.1908 10.0389 6.1472C9.97929 5.8925 9.92077 5.6378 9.86111 5.3831C10.3682 5.41293 10.8753 5.43932 11.3813 5.47603C11.5545 5.48866 11.6188 5.44047 11.6176 5.25346C11.6096 4.13714 11.6096 3.02083 11.6165 1.90336C11.6176 1.69914 11.5557 1.66243 11.3618 1.70832C10.6619 1.87238 10.0894 2.25443 9.58462 2.73744C9.27141 3.03689 8.9777 3.36387 8.77233 3.75509C8.54861 3.59562 8.32374 3.43615 8.10002 3.27667C8.43273 2.92675 8.68629 2.50684 9.05916 2.19248C9.08899 2.16724 9.11996 2.12479 9.0821 2.09266C9.05801 2.07201 9.00409 2.06742 8.97081 2.0789C8.32604 2.30147 7.67896 2.51831 7.09728 2.88774C6.63378 2.81431 6.16912 2.76842 5.69873 2.82808ZM3.75063 12.3827C3.21484 12.3827 2.6802 12.3827 2.14441 12.3827C1.61781 12.3827 1.63616 12.3816 1.67288 12.9162C1.74286 13.9259 1.98609 14.893 2.35781 15.8292C2.83279 17.0258 3.50969 18.0997 4.38279 19.0474C4.49178 19.1655 4.58815 19.2286 4.75107 19.13C4.87842 19.052 5.02871 19.0118 5.16868 18.9533C5.67579 18.7399 6.20125 18.5804 6.73015 18.4313C6.84373 18.3992 6.93552 18.3739 6.87356 18.2053C6.20813 16.4063 5.92934 14.5339 5.86165 12.626C5.85476 12.4172 5.78593 12.377 5.59777 12.3793C4.98053 12.3896 4.36558 12.3827 3.75063 12.3827ZM20.2545 11.6152C20.8866 11.6152 21.5176 11.6141 22.1498 11.6164C22.2748 11.6164 22.3781 11.6106 22.3563 11.442C22.3024 11.0243 22.2668 10.6044 22.1934 10.1914C21.9811 8.99593 21.5761 7.86929 20.9681 6.81607C20.5711 6.12999 20.0927 5.50701 19.5672 4.91615C19.503 4.84502 19.4422 4.77733 19.3229 4.8324C18.6551 5.13988 17.961 5.37163 17.2531 5.56897C17.1315 5.60338 17.0604 5.63895 17.12 5.80072C17.7832 7.59394 18.0562 9.46059 18.1308 11.3617C18.1388 11.5544 18.179 11.6244 18.3844 11.6198C19.0073 11.6072 19.6315 11.6152 20.2545 11.6152ZM12.3783 3.57038C12.3783 4.13026 12.3852 4.69014 12.3748 5.25002C12.3714 5.43244 12.4288 5.4921 12.6077 5.47603C13.0276 5.43817 13.4476 5.40146 13.8686 5.38196C14.5134 5.35213 15.1444 5.21789 15.7812 5.1307C15.9383 5.1089 15.9911 5.04809 15.9016 4.87944C15.5528 4.22319 15.1742 3.59218 14.6775 3.03115C14.1118 2.39326 13.4556 1.92172 12.6227 1.70717C12.4448 1.66128 12.3748 1.6957 12.3771 1.89189C12.384 2.45062 12.3783 3.0105 12.3783 3.57038ZM11.6107 20.4195C11.6107 19.8516 11.6073 19.2837 11.613 18.717C11.6142 18.5735 11.5706 18.5196 11.4214 18.5208C11.2367 18.5219 11.0566 18.5644 10.8753 18.5667C9.98158 18.5793 9.1039 18.7261 8.22507 18.8638C8.05986 18.8902 7.99562 18.9395 8.09313 19.1254C8.54517 19.9927 9.05686 20.8108 9.81293 21.4555C10.2696 21.8445 10.7686 22.1382 11.3549 22.2873C11.5763 22.3436 11.6188 22.2747 11.6153 22.0728C11.605 21.5232 11.6107 20.9714 11.6107 20.4195ZM5.13082 19.8138C5.23867 19.8906 5.3075 19.9319 5.36831 19.9824C6.42841 20.8509 7.61471 21.4877 8.91919 21.903C8.9777 21.9213 9.04998 21.9627 9.08899 21.8904C9.12111 21.8307 9.04998 21.7917 9.01212 21.7573C8.63351 21.4108 8.32374 21.0058 8.04036 20.5813C7.75698 20.1568 7.51375 19.7082 7.29347 19.247C7.2579 19.1713 7.23725 19.0806 7.10646 19.1185C6.46512 19.3032 5.82379 19.4879 5.13082 19.8138ZM14.8886 2.07431C14.892 2.18674 14.9689 2.2269 15.0193 2.28312C15.1628 2.44374 15.3245 2.58485 15.4611 2.75465C15.9521 3.36846 16.3582 4.03274 16.6898 4.74406C16.746 4.86567 16.8011 4.90239 16.9434 4.86223C17.5182 4.69817 18.0838 4.51116 18.6425 4.29547C18.8593 4.21172 18.7676 4.15091 18.6655 4.06601C17.8623 3.40173 16.9881 2.84988 16.0232 2.45291C15.6584 2.30377 15.3016 2.12708 14.8886 2.07431Z" fill="#00A2A9"/>
    <path d="M6.65584 11.6096C6.49292 11.7082 6.39884 11.9687 6.2279 11.9515C6.08219 11.9366 5.95484 11.7312 5.81946 11.6096C5.18501 10.9809 4.56547 10.3372 3.91266 9.72801C3.31262 9.16928 2.82158 8.54859 2.55656 7.76499C2.44183 7.31066 2.37873 6.8506 2.39249 6.38021C2.50378 5.3029 2.93516 4.38851 3.77498 3.68407C4.33486 3.21482 4.98538 2.95209 5.69785 2.82819C6.16709 2.76853 6.63289 2.81442 7.0964 2.88784C7.43944 2.99454 7.77445 3.12189 8.09913 3.27678C8.32286 3.43625 8.54773 3.59573 8.77145 3.7552C9.25446 4.21756 9.62504 4.75449 9.85679 5.38321C9.91645 5.63791 9.97496 5.89261 10.0346 6.14731C10.1884 7.60667 9.62733 8.76314 8.56379 9.7326C7.90639 10.3338 7.29029 10.9832 6.65584 11.6096ZM8.15535 6.62688C8.15535 5.56678 7.29259 4.70631 6.23134 4.7086C5.18386 4.71089 4.32339 5.56907 4.3188 6.6154C4.31421 7.6755 5.17353 8.54286 6.23249 8.54515C7.29373 8.54745 8.15535 7.68812 8.15535 6.62688Z" fill="#EF4E3D"/>
    <path d="M20.0898 18.4353C20.278 18.6269 20.4662 18.8197 20.6543 19.0113C21.2337 19.5941 21.8177 20.1735 22.3902 20.762C22.8709 21.2565 22.8629 21.9782 22.3856 22.4302C21.9278 22.8639 21.2406 22.8536 20.769 22.3923C20.1874 21.8233 19.6149 21.2439 19.0389 20.668C18.8485 20.4809 18.658 20.2951 18.4676 20.1081C18.214 19.8213 17.9421 19.5528 17.6576 19.2958C17.3983 19.0376 17.1401 18.7795 16.8809 18.5214C16.952 18.4066 17.0805 18.3688 17.1849 18.2988C17.739 17.9271 18.1475 17.4223 18.5112 16.875C19.0378 17.3959 19.5632 17.9156 20.0898 18.4353Z" fill="#FF4F59"/>
    <path d="M18.5119 16.8758C18.1482 17.4242 17.7398 17.929 17.1856 18.2996C17.0824 18.3696 16.9527 18.4074 16.8816 18.5222C16.5787 18.6484 16.277 18.7746 15.9741 18.9008C15.872 18.9145 15.7699 18.9237 15.6689 18.9421C15.1434 19.0407 14.6203 19.0511 14.0891 18.9673C13.6198 18.8927 13.1942 18.7057 12.7628 18.5245C12.3406 18.2698 11.9689 17.9497 11.6155 17.6089C11.5708 17.5435 11.5295 17.4747 11.4813 17.4116C10.6552 16.3377 10.4304 15.1342 10.7 13.8217C10.8078 13.2974 11.0671 12.8419 11.3275 12.3841C11.6304 11.9849 11.9964 11.6487 12.3808 11.3309C12.4301 11.3057 12.4817 11.285 12.5276 11.2552C13.5441 10.6012 14.6467 10.4613 15.8112 10.7079C16.3825 10.8296 16.8816 11.1152 17.3681 11.425C17.7031 11.7153 18.0117 12.0308 18.2813 12.383C18.3077 12.4323 18.3318 12.4828 18.3616 12.5298C19.0064 13.5613 19.175 14.6695 18.9031 15.8501C18.8182 16.2115 18.6473 16.5373 18.5119 16.8758ZM12.1307 14.8107C12.0928 16.1668 13.1908 17.4965 14.7981 17.4942C16.3584 17.4919 17.4897 16.3079 17.4874 14.8026C17.4851 13.2079 16.1875 12.1191 14.8027 12.134C13.3066 12.1489 12.1318 13.3123 12.1307 14.8107Z" fill="#555559"/>
    <path d="M3.75035 12.3825C4.3653 12.3825 4.98025 12.3894 5.5952 12.3791C5.78451 12.3757 5.8522 12.417 5.85908 12.6258C5.92677 14.5337 6.20556 16.405 6.87099 18.2051C6.9341 18.3749 6.84116 18.399 6.72758 18.4311C6.19868 18.5802 5.67322 18.7397 5.16612 18.9531C5.02614 19.0116 4.877 19.0518 4.7485 19.1298C4.58558 19.2296 4.48921 19.1653 4.38022 19.0472C3.50713 18.0984 2.83022 17.0256 2.35524 15.829C1.98352 14.894 1.74029 13.9257 1.67031 12.916C1.6336 12.3814 1.61524 12.3825 2.14185 12.3825C2.67993 12.3825 3.21457 12.3825 3.75035 12.3825Z" fill="#00D8E0"/>
    <path d="M20.2547 11.6155C19.6306 11.6155 19.0076 11.6074 18.3835 11.6201C18.1792 11.6246 18.1379 11.5547 18.1299 11.3619C18.0565 9.46084 17.7834 7.5942 17.1191 5.80098C17.0595 5.63921 17.1306 5.60249 17.2522 5.56922C17.959 5.37189 18.6542 5.14013 19.3219 4.83266C19.4413 4.77759 19.5032 4.84528 19.5663 4.91641C20.0906 5.50727 20.5702 6.13025 20.9672 6.81633C21.5752 7.86955 21.9802 8.99619 22.1925 10.1917C22.2659 10.6058 22.3015 11.0258 22.3554 11.4422C22.3772 11.6097 22.2739 11.6166 22.1489 11.6166C21.5179 11.6143 20.8868 11.6155 20.2547 11.6155Z" fill="#00D8E0"/>
    <path d="M17.3657 11.4259C16.8793 11.115 16.3802 10.8293 15.8089 10.7089C14.6443 10.4622 13.5418 10.6022 12.5253 11.2561C12.4794 11.2859 12.4278 11.3066 12.3784 11.3318C12.3784 9.71759 12.3784 8.10335 12.375 6.4891C12.375 6.33766 12.3784 6.24244 12.5838 6.2367C13.777 6.20572 14.9599 6.07264 16.1312 5.84088C16.2712 5.81335 16.3137 5.84891 16.3584 5.96364C16.7278 6.93425 16.955 7.94043 17.1294 8.96152C17.2682 9.77725 17.3152 10.6022 17.3657 11.4259Z" fill="#00D8E0"/>
    <path d="M11.3268 12.3828C11.0675 12.8394 10.8071 13.2961 10.6993 13.8204C10.4296 15.1329 10.6545 16.3364 11.4806 17.4103C11.5287 17.4734 11.57 17.541 11.6148 17.6076C11.6182 17.72 11.5643 17.7556 11.453 17.759C10.5547 17.7854 9.6598 17.8611 8.77065 17.9977C8.45629 18.0459 8.14308 18.0963 7.83331 18.1652C7.71399 18.1916 7.67154 18.1491 7.63712 18.0573C7.33309 17.2668 7.12543 16.45 6.95793 15.6228C6.77092 14.6946 6.69749 13.7515 6.62292 12.8096C6.62177 12.7935 6.62177 12.7775 6.62177 12.7614C6.60226 12.384 6.60226 12.3828 6.98317 12.384C8.4322 12.3828 9.88008 12.3828 11.3268 12.3828Z" fill="#00D8E0"/>
    <path d="M18.511 16.8729C18.6464 16.5333 18.8174 16.2075 18.9011 15.8495C19.1742 14.6689 19.0055 13.5606 18.3596 12.5292C18.3298 12.4822 18.3057 12.4317 18.2793 12.3824C19.5654 12.3824 20.8527 12.3847 22.1388 12.3789C22.2994 12.3778 22.3751 12.4134 22.3556 12.5923C22.2742 13.3266 22.1778 14.0563 21.9782 14.771C21.6053 16.1008 20.9938 17.3066 20.1494 18.3965C20.1356 18.4137 20.1092 18.4217 20.0886 18.4332C19.562 17.9135 19.0365 17.3938 18.511 16.8729Z" fill="#00D8E0"/>
    <path d="M6.65625 11.6107C7.29185 10.9831 7.9068 10.3349 8.56535 9.73373C9.62889 8.76427 10.1899 7.6078 10.0362 6.14844C10.5031 6.19203 10.9701 6.24481 11.4393 6.24022C11.5827 6.23907 11.6114 6.30217 11.6114 6.42952C11.6091 8.09195 11.608 9.75553 11.6126 11.418C11.6126 11.5797 11.5552 11.6199 11.4038 11.6199C9.82163 11.613 8.23837 11.613 6.65625 11.6107Z" fill="#00D8E0"/>
    <path d="M12.3789 3.56994C12.3789 3.01006 12.3847 2.45018 12.3755 1.89031C12.372 1.69412 12.442 1.6597 12.621 1.70559C13.4539 1.92013 14.1102 2.39167 14.6758 3.02957C15.1726 3.5906 15.5512 4.22161 15.9 4.87786C15.9895 5.04651 15.9378 5.10732 15.7795 5.12912C15.1428 5.21631 14.5117 5.3494 13.867 5.38037C13.4459 5.39988 13.026 5.43659 12.6061 5.47445C12.4283 5.49051 12.3697 5.42971 12.3732 5.24844C12.3858 4.6897 12.3789 4.12982 12.3789 3.56994Z" fill="#00D8E0"/>
    <path d="M11.6113 20.4211C11.6113 20.9729 11.6056 21.5248 11.6147 22.0755C11.6182 22.2774 11.5757 22.3462 11.3543 22.29C10.768 22.1397 10.269 21.8472 9.81235 21.4582C9.05628 20.8135 8.54459 19.9954 8.09255 19.1281C7.99503 18.9422 8.06043 18.8929 8.22449 18.8665C9.10332 18.7288 9.981 18.582 10.8747 18.5693C11.056 18.5671 11.2361 18.5235 11.4209 18.5235C11.57 18.5223 11.6136 18.5762 11.6125 18.7196C11.6079 19.2864 11.6113 19.8532 11.6113 20.4211Z" fill="#00D8E0"/>
    <path d="M12.7625 18.5231C13.1927 18.7043 13.6195 18.8914 14.0887 18.9659C14.6188 19.0497 15.1431 19.0394 15.6686 18.9407C15.7695 18.9223 15.8716 18.9131 15.9737 18.8994C15.7993 19.4007 15.5137 19.8413 15.2188 20.275C14.6934 21.0483 14.0601 21.708 13.1893 22.1015C12.9919 22.191 12.7854 22.246 12.5777 22.3023C12.4366 22.3401 12.3758 22.2885 12.377 22.1336C12.3816 20.992 12.3816 19.8516 12.377 18.7101C12.3758 18.5609 12.4297 18.507 12.572 18.5219C12.6351 18.53 12.6994 18.5242 12.7625 18.5231Z" fill="#00D8E0"/>
    <path d="M2.55811 7.76562C2.82199 8.54923 3.31418 9.16991 3.91421 9.72865C4.56702 10.3367 5.18656 10.9815 5.82101 11.6102C4.48901 11.6125 3.157 11.6114 1.82499 11.6194C1.65748 11.6205 1.61848 11.5528 1.6311 11.406C1.72058 10.3987 1.89153 9.40855 2.25178 8.45974C2.34242 8.22225 2.40552 7.97443 2.55811 7.76562Z" fill="#00D8E0"/>
    <path d="M9.85878 5.3838C9.62588 4.75508 9.2553 4.21815 8.77344 3.75579C8.97766 3.36341 9.27136 3.03758 9.58572 2.73814C10.0905 2.25513 10.6619 1.87422 11.3594 1.70901C11.5533 1.66312 11.6153 1.69984 11.6141 1.90405C11.6073 3.02037 11.6073 4.13669 11.6153 5.25415C11.6164 5.44001 11.5522 5.4882 11.3789 5.47673C10.873 5.44001 10.3659 5.41477 9.85878 5.3838Z" fill="#00D8E0"/>
    <path d="M5.13086 19.8135C5.82268 19.4877 6.46516 19.303 7.10765 19.1183C7.23844 19.0804 7.25909 19.171 7.29466 19.2468C7.51379 19.708 7.75702 20.1566 8.04154 20.5811C8.32493 21.0056 8.6347 21.4106 9.0133 21.757C9.05116 21.7915 9.1223 21.8305 9.09017 21.8901C9.05116 21.9624 8.97888 21.9211 8.92037 21.9028C7.6159 21.4863 6.4296 20.8507 5.3695 19.9822C5.30754 19.9328 5.23871 19.8904 5.13086 19.8135Z" fill="#00D8E0"/>
    <path d="M14.8887 2.07422C15.3006 2.12699 15.6585 2.30368 16.0222 2.45283C16.9882 2.84979 17.8613 3.40164 18.6644 4.06592C18.7665 4.15082 18.8595 4.21048 18.6415 4.29538C18.0827 4.51107 17.5171 4.69808 16.9423 4.86214C16.7989 4.90345 16.745 4.86559 16.6888 4.74397C16.3572 4.03265 15.9522 3.36837 15.46 2.75456C15.3246 2.58476 15.1629 2.44365 15.0183 2.28303C14.969 2.22681 14.8933 2.18665 14.8887 2.07422Z" fill="#00D8E0"/>
    <path d="M17.6577 19.295C17.9422 19.552 18.2141 19.8204 18.4677 20.1072C17.6932 20.7015 16.8672 21.2086 15.9608 21.5758C15.666 21.6951 15.3631 21.7961 15.0648 21.9051C15.0109 21.9246 14.9432 21.9532 14.9088 21.9039C14.8571 21.8316 14.942 21.7915 14.9822 21.7525C15.7096 21.0515 16.2339 20.2094 16.6607 19.303C16.741 19.132 16.8236 19.0896 17.0049 19.1424C17.2171 19.2055 17.4179 19.342 17.6577 19.295Z" fill="#00D8E0"/>
    <path d="M8.10039 3.27814C7.77571 3.12326 7.4407 2.99591 7.09766 2.88921C7.67933 2.51978 8.32641 2.30294 8.97119 2.08036C9.00446 2.06889 9.05838 2.07348 9.08248 2.09413C9.12034 2.12626 9.08936 2.16871 9.05953 2.19395C8.68666 2.50945 8.43311 2.92936 8.10039 3.27814Z" fill="#00D8E0"/>
    <path d="M8.15688 6.62531C8.15688 7.68656 7.29526 8.54588 6.23287 8.54359C5.17506 8.54129 4.31574 7.67394 4.32033 6.61384C4.32492 5.56751 5.18539 4.70933 6.23287 4.70704C7.29412 4.70474 8.15688 5.56521 8.15688 6.62531Z" fill="#FEFEFE"/>
    <path d="M12.1298 14.8107C12.1298 13.3124 13.3058 12.149 14.8018 12.133C16.1866 12.118 17.4842 13.2068 17.4865 14.8016C17.4888 16.3068 16.3576 17.492 14.7973 17.4931C13.191 17.4966 12.0931 16.1668 12.1298 14.8107Z" fill="#FEFEFE"/>
</svg>
