<svg viewBox="0 0 24 24" fill="none" xmlns="http://www.w3.org/2000/svg">
    <path d="M15.7383 8.4202C15.7359 10.3935 13.9861 12.0975 11.9748 12.0858C9.95758 12.0741 8.26524 10.3842 8.26172 8.37687C8.25821 6.26887 9.88487 4.63868 11.9959 4.63283C14.121 4.62697 15.7406 6.26653 15.7383 8.4202Z" fill="#FFC143"/>
    <path d="M21.9836 10.3021C21.9824 11.7742 20.7451 13.005 19.2639 13.0074C17.7744 13.0097 16.5184 11.7637 16.5254 10.2892C16.5325 8.74103 17.7158 7.56524 19.2639 7.56641C20.8096 7.56758 21.9848 8.74923 21.9836 10.3021Z" fill="#FF4FB8"/>
    <path d="M4.70367 7.61313C6.55082 7.5253 7.47146 8.99504 7.4785 10.295C7.48788 11.7706 6.22948 13.0131 4.73886 13.0096C3.2541 13.0061 2.01798 11.7811 2.01563 10.309C2.01211 8.74442 3.14151 7.61313 4.70367 7.61313Z" fill="#0055CA"/>
    <path d="M2.87463 18.2692C2.21669 18.2692 1.55993 18.2704 0.90199 18.268C0.502068 18.2669 0.355469 18.1158 0.355469 17.7188C0.36016 15.9375 1.57517 14.3144 3.37424 13.7007C4.51654 13.3107 5.63303 13.3798 6.71669 13.9197C6.88206 14.0017 6.9536 14.0579 6.79175 14.2429C5.83593 15.3321 5.27299 16.6004 5.13108 18.0455C5.11349 18.22 5.04781 18.2727 4.87306 18.2704C4.20692 18.2598 3.54077 18.2669 2.87463 18.2669C2.87463 18.2669 2.87463 18.268 2.87463 18.2692Z" fill="#0055CA"/>
    <path d="M21.1341 18.2654C20.4667 18.2654 19.8006 18.2596 19.1333 18.2701C18.9574 18.2725 18.8788 18.2104 18.8635 18.0453C18.7345 16.5884 18.1528 15.326 17.2029 14.2263C17.0692 14.0717 17.0938 14.0143 17.2638 13.937C18.3487 13.4428 19.4464 13.3105 20.6028 13.6993C22.2154 14.2415 23.1642 15.3564 23.5535 16.9819C23.6133 17.2337 23.6427 17.4913 23.6403 17.7525C23.638 18.0956 23.4808 18.2608 23.1325 18.2631C22.4652 18.2678 21.799 18.2643 21.1317 18.2643C21.1341 18.2631 21.1341 18.2643 21.1341 18.2654Z" fill="#FF4FB8"/>
    <path d="M18.1271 18.6799C18.0439 17.6997 17.8105 16.7582 17.298 15.9044C16.8699 15.1889 16.3375 14.5775 15.6514 14.081C15.1283 13.7016 14.5935 13.3772 13.9755 13.191C13.9274 13.1722 13.8805 13.1488 13.8312 13.1347C12.2081 12.6558 10.6201 12.7448 9.13769 13.5763C7.05598 14.7427 5.9172 16.5134 5.91016 18.9423C5.90899 19.2339 6.04386 19.365 6.34292 19.365C8.88671 19.3639 11.4305 19.3592 13.9743 19.3557C15.1412 19.3592 16.3081 19.3627 17.4751 19.365C18.0017 19.365 18.1717 19.2023 18.1271 18.6799Z" fill="#FFC143"/>
</svg>
