<svg viewBox="0 0 24 24" fill="none" xmlns="http://www.w3.org/2000/svg">
    <path d="M8.40825 0.92751C8.91279 0.895044 9.44241 1.12526 9.98089 1.31563C10.3054 1.42926 10.6271 1.54584 10.9487 1.66538C11.4104 1.83656 11.8604 1.8159 12.3044 1.6034C12.7175 1.40565 13.135 1.21675 13.551 1.02638C15.1812 0.282615 17.0282 0.946694 17.8101 2.56115C18.0093 2.97287 18.1952 3.39198 18.3855 3.80814C18.5935 4.26414 18.9328 4.57257 19.4079 4.73785C19.9404 4.92379 20.473 5.10973 20.9997 5.31043C22.6535 5.94057 23.4796 7.74097 22.8865 9.40854C22.708 9.90882 22.5295 10.4091 22.3392 10.9064C22.146 11.4111 22.174 11.8952 22.41 12.3777C22.6298 12.8249 22.8585 13.2705 23.0444 13.7324C23.6699 15.2775 23.0001 17.0307 21.5072 17.7818C21.0911 17.9914 20.6692 18.1891 20.2458 18.3854C19.7914 18.5965 19.4831 18.9329 19.309 19.4037C19.1069 19.9482 18.8974 20.4883 18.682 21.0285C18.0211 22.6872 16.2523 23.4885 14.5719 22.8938C14.0718 22.7167 13.5717 22.5367 13.0745 22.3478C12.5965 22.1648 12.1348 22.184 11.673 22.4083C11.2614 22.609 10.8439 22.7964 10.4264 22.9853C8.83755 23.7054 7.00674 23.065 6.21895 21.511C6.00799 21.0949 5.80883 20.6728 5.61409 20.2507C5.40755 19.8051 5.07709 19.4966 4.61828 19.3225C4.09899 19.1248 3.58117 18.9211 3.06187 18.7248C1.71053 18.2113 0.865196 16.985 0.903553 15.583C0.91683 15.127 1.05698 14.7005 1.21631 14.277C1.36974 13.8712 1.51136 13.4624 1.66332 13.0566C1.83887 12.5873 1.81822 12.1298 1.59988 11.6767C1.40072 11.265 1.21041 10.8474 1.0201 10.4312C0.282464 8.8153 0.950761 6.9603 2.5529 6.19145C2.97336 5.98927 3.39971 5.80038 3.82164 5.60558C4.26717 5.39898 4.57255 5.06546 4.7363 4.60061C4.92366 4.06934 5.10955 3.53513 5.30871 3.00829C5.78965 1.73326 6.96544 0.924558 8.40825 0.92751ZM12.0005 4.67587C7.99812 4.61684 4.66992 7.98594 4.66402 11.9881C4.65811 15.9962 7.976 19.3373 11.9991 19.3387C16.0118 19.3402 19.3282 16.0124 19.3356 12.0147C19.3415 7.99922 16.0118 4.61684 12.0005 4.67587Z" fill="#FAB607"/>
    <path d="M12.0024 4.00083C16.3769 3.93642 20.008 7.62742 20 12.0077C19.9919 16.3702 16.3769 20.0016 11.9992 20C7.61187 19.9984 3.99357 16.3525 4.00001 11.9787C4.00805 7.61292 7.63761 3.93642 12.0024 4.00083ZM9.11453 15.9096C9.42343 15.9048 9.66958 15.813 9.86908 15.6149C11.7756 13.7082 13.682 11.7999 15.5869 9.89162C15.8138 9.66456 15.9183 9.38274 15.8846 9.06388C15.8379 8.62425 15.6046 8.31344 15.1879 8.1669C14.7712 8.02035 14.3964 8.11698 14.0827 8.42939C12.8438 9.66617 11.6082 10.9046 10.371 12.1429C9.71463 12.8 9.055 13.4538 8.40342 14.1157C8.08648 14.4393 7.9996 14.8274 8.18623 15.2478C8.36642 15.6568 8.6914 15.8806 9.11453 15.9096ZM11.0226 9.50835C11.0291 8.68383 10.3389 7.98815 9.51192 7.98653C8.68819 7.98492 7.99477 8.68061 7.99799 9.50513C8.00121 10.3216 8.67532 11.0012 9.49422 11.0141C10.3147 11.0269 11.0146 10.3361 11.0226 9.50835ZM14.4833 16.003C15.3054 16.0111 16.0036 15.3186 16.0052 14.4909C16.0068 13.6744 15.3392 12.9948 14.5154 12.9755C13.6965 12.9562 12.9951 13.6406 12.9822 14.4732C12.9693 15.2945 13.6563 15.995 14.4833 16.003Z" fill="#FF9B05"/>
    <path d="M9.05166 16C8.61779 15.9703 8.28455 15.741 8.09978 15.3221C7.90841 14.8916 7.9975 14.4924 8.32249 14.1625C8.98897 13.4829 9.667 12.8149 10.3401 12.1419C11.6087 10.8735 12.8757 9.60502 14.146 8.33822C14.466 8.01823 14.8504 7.91761 15.2793 8.06936C15.7082 8.21946 15.9474 8.53946 15.9936 8.98811C16.0283 9.31471 15.921 9.60337 15.6884 9.83594C13.7335 11.7906 11.7803 13.7435 9.82537 15.6965C9.62081 15.901 9.3684 15.9951 9.05166 16Z" fill="#FEFEFE"/>
    <path d="M11.0984 9.50686C11.0916 10.3817 10.3508 11.1119 9.48224 11.0983C8.61541 11.0846 7.90186 10.3664 7.89845 9.50345C7.89504 8.63201 8.62904 7.89674 9.50097 7.89844C10.3729 7.90014 11.1052 8.63542 11.0984 9.50686Z" fill="#FEFEFE"/>
    <path d="M16.0984 14.5069C16.0916 15.3817 15.3508 16.1119 14.4822 16.0983C13.6154 16.0846 12.9019 15.3664 12.8984 14.5035C12.895 13.632 13.629 12.8967 14.501 12.8984C15.3729 12.9001 16.1052 13.6354 16.0984 14.5069Z" fill="#FEFEFE"/>
</svg>
