<svg viewBox="0 0 24 24" fill="none" xmlns="http://www.w3.org/2000/svg">
    <path d="M21.6242 12.1651C21.6242 15.3794 21.6242 18.5969 21.6242 21.8111C21.6242 23.2081 20.4636 23.9162 19.2052 23.2857C17.0601 22.2121 14.9084 21.145 12.7698 20.0585C12.1569 19.7481 11.5897 19.7384 10.9703 20.052C8.80233 21.1547 6.6246 22.238 4.44686 23.3213C3.5699 23.7578 2.631 23.4538 2.24631 22.6292C2.14525 22.4158 2.09961 22.1895 2.09961 21.9502C2.09961 15.4344 2.09961 8.91853 2.10287 2.40271C2.10287 1.38087 2.88529 0.604796 3.91221 0.601562C9.20657 0.601562 14.5042 0.601562 19.7986 0.604796C20.845 0.604796 21.6209 1.38087 21.6209 2.42211C21.6242 5.66871 21.6242 8.9153 21.6242 12.1651ZM8.71756 14.1571C8.70778 14.5386 8.97185 14.71 9.29786 14.5451C9.98247 14.1991 10.6769 13.8628 11.3387 13.4748C11.7234 13.2484 12.0298 13.2646 12.4047 13.4812C13.0339 13.8434 13.6859 14.1603 14.3282 14.4966C14.5009 14.5871 14.6737 14.6841 14.8628 14.5386C15.0486 14.3964 15.0193 14.2056 14.9834 14.0148C14.8432 13.2322 14.7096 12.4497 14.5661 11.6671C14.5205 11.4149 14.5792 11.2241 14.7748 11.043C15.3746 10.4836 15.9615 9.90803 16.5483 9.33568C16.6754 9.2128 16.7797 9.07698 16.708 8.8862C16.6395 8.70188 16.4896 8.64367 16.307 8.6178C15.4822 8.49816 14.6607 8.36234 13.8359 8.25887C13.5751 8.22653 13.4382 8.10365 13.3338 7.88376C12.9883 7.17883 12.6329 6.47712 12.2841 5.77218C12.1928 5.5911 12.1146 5.39061 11.8668 5.38414C11.619 5.38091 11.5343 5.57493 11.4397 5.75925C11.0876 6.47389 10.7258 7.18206 10.3769 7.89993C10.2759 8.10689 10.1422 8.22653 9.89445 8.25887C9.07943 8.36558 8.26767 8.50139 7.45265 8.61457C7.24727 8.64367 7.07123 8.68248 7.00276 8.90237C6.93756 9.11255 7.07123 9.2419 7.20489 9.36801C7.77214 9.9145 8.32961 10.4739 8.91317 11.0075C9.15115 11.2241 9.19353 11.4473 9.13811 11.7448C8.98489 12.5596 8.85449 13.3745 8.71756 14.1571Z" fill="#FEB22C"/>
    <path d="M8.71686 14.1564C8.85378 13.3739 8.98419 12.559 9.14067 11.7474C9.19609 11.4499 9.15371 11.2267 8.91572 11.0101C8.33217 10.4765 7.7747 9.92035 7.20744 9.37063C7.07378 9.24128 6.94012 9.11517 7.00532 8.90498C7.07378 8.68832 7.25309 8.64629 7.45521 8.61718C8.27023 8.50401 9.08199 8.36819 9.89701 8.26148C10.1415 8.22915 10.2752 8.1095 10.3795 7.90255C10.7316 7.18791 11.0902 6.4765 11.4423 5.76186C11.5336 5.57754 11.6183 5.38352 11.8694 5.38676C12.1171 5.38999 12.1954 5.59048 12.2866 5.7748C12.6355 6.47974 12.9908 7.17821 13.3364 7.88638C13.444 8.10303 13.5776 8.22915 13.8384 8.26148C14.6632 8.36496 15.488 8.50077 16.3096 8.62042C16.4921 8.64629 16.6421 8.70449 16.7106 8.88881C16.779 9.0796 16.678 9.21541 16.5508 9.33829C15.9607 9.90741 15.3772 10.4862 14.7773 11.0457C14.5817 11.2267 14.5231 11.4175 14.5687 11.6698C14.7121 12.4523 14.8458 13.2348 14.986 14.0174C15.0186 14.2082 15.0512 14.399 14.8654 14.5412C14.673 14.6868 14.5035 14.593 14.3307 14.4992C13.6885 14.1629 13.0332 13.846 12.4073 13.4838C12.0324 13.2672 11.7259 13.251 11.3412 13.4774C10.6794 13.8654 9.98829 14.2017 9.30041 14.5477C8.97115 14.7094 8.70708 14.538 8.71686 14.1564Z" fill="#FEFBEC"/>
</svg>
