<svg width="26" height="18" viewBox="0 0 26 18" fill="none" xmlns="http://www.w3.org/2000/svg">
    <g clip-path="url(#clip0_753_22257)">
        <path d="M24.3108 6.22114C23.9227 5.30104 23.3692 4.48158 22.6575 3.76994C21.9459 3.0583 21.1264 2.50481 20.2063 2.11664C19.2575 1.71409 18.2439 1.51282 17.2016 1.51282H15.0811V0.81556V0.693359H14.9589H8.48224C3.80986 0.693359 0.00726318 4.33063 0.00726318 8.81611C0.00726318 13.3088 3.80986 16.9389 8.48224 16.9389H17.5179C22.1903 16.9389 25.9929 13.3016 25.9929 8.81611C25.9929 8.52139 25.9641 8.23386 25.9354 7.97508L25.921 7.86726H25.8132H24.9721H24.7996L24.8212 7.99665C24.8212 8.01821 24.8643 8.03978 24.8643 8.06134" fill="#FF40AB"/>
        <path d="M11.1922 12.7461C10.9981 12.7461 10.84 12.6886 10.7322 12.6311C10.5165 12.5089 10.2577 12.2501 10.2218 11.6822V11.6535L10.2074 6.03943C10.2002 5.62969 10.3728 5.29184 10.6819 5.11214C11.0125 4.91805 11.4438 4.93962 11.8392 5.16964L11.8679 5.19121L16.0012 8.03777C16.5116 8.3253 16.6338 8.67033 16.6409 8.91474C16.6481 9.16633 16.5403 9.53293 16.0084 9.8564L11.8895 12.552L11.8679 12.5664C11.602 12.703 11.3791 12.7461 11.1922 12.7461ZM11.2282 11.6319C11.2282 11.675 11.2354 11.711 11.2425 11.7325C11.2713 11.7254 11.3216 11.711 11.3791 11.6822L15.4764 9.00818C15.5124 8.98662 15.5411 8.96505 15.5627 8.95068C15.5411 8.9363 15.5268 8.92911 15.498 8.91474L15.4549 8.88598L11.3144 6.03943C11.2713 6.01786 11.2425 6.00348 11.2138 5.9963C11.2138 6.00348 11.2138 6.01786 11.2138 6.02505V6.03224L11.2282 11.6319Z" fill="white"/>
        <path d="M11.1922 12.6973C10.9981 12.6973 10.84 12.6398 10.7322 12.5822C10.5165 12.46 10.2577 12.2013 10.2218 11.6334V11.6046L10.2074 5.9906C10.2002 5.58087 10.3728 5.24302 10.6819 5.06331C11.0125 4.86923 11.4438 4.89079 11.8392 5.12082L11.8679 5.14238L16.0012 7.98894C16.5116 8.27647 16.6338 8.62151 16.6409 8.86591C16.6481 9.1175 16.5403 9.4841 16.0084 9.80757L11.8895 12.5032L11.8679 12.5176C11.602 12.6541 11.3791 12.6973 11.1922 12.6973ZM11.2282 11.5831C11.2282 11.6262 11.2354 11.6621 11.2425 11.6837C11.2713 11.6765 11.3216 11.6621 11.3791 11.6334L15.4764 8.95936C15.5124 8.93779 15.5411 8.91623 15.5627 8.90185C15.5411 8.88747 15.5268 8.88028 15.498 8.86591L15.4549 8.83716L11.3144 5.9906C11.2713 5.96903 11.2425 5.95466 11.2138 5.94747C11.2138 5.95466 11.2138 5.96903 11.2138 5.97622V5.98341L11.2282 11.5831Z" fill="white"/>
        <g opacity="0.6">
            <mask id="mask0_753_22257" style="mask-type:luminance" maskUnits="userSpaceOnUse" x="0" y="0" width="13" height="18">
                <path d="M12.0616 0.679688H0.00689697V17.3781H12.0616V0.679688Z" fill="white"/>
            </mask>
            <g mask="url(#mask0_753_22257)">
                <path d="M25.9351 7.96337L25.9207 7.85554H25.8129H24.9718H24.8425L24.8568 7.98493C24.8568 8.00649 24.864 8.02806 24.864 8.04962C24.8856 8.3084 24.9143 8.54562 24.9143 8.80439C24.9143 8.81877 24.9143 8.83315 24.9143 8.84752C24.8712 7.93461 24.6699 7.05045 24.3177 6.20943C23.9295 5.28933 23.376 4.46986 22.6644 3.75822C21.9528 3.04658 21.1333 2.49309 20.2132 2.10492C19.2644 1.70238 18.2508 1.5011 17.2085 1.5011H15.088V0.803841V0.681641H14.9658H8.48194C3.80956 0.681641 0.00695801 4.31891 0.00695801 8.80439C0.00695801 13.2971 3.80956 16.9271 8.48194 16.9271H17.5176C22.19 16.9271 25.9926 13.2899 25.9926 8.80439C25.9926 8.51686 25.9638 8.22214 25.9351 7.96337Z" fill="#E22496" stroke="#C6006F" stroke-width="0.161205"/>
            </g>
        </g>
        <path d="M24.9289 6.59884L24.9576 6.71385L25.0726 6.6851L25.8705 6.47664L25.9856 6.44789L25.9568 6.32568C25.7915 5.7003 25.5614 5.09649 25.2524 4.51424L25.1948 4.4136L25.0942 4.46392L24.3754 4.83771L24.2676 4.89522L24.3179 5.00304C24.5695 5.51341 24.7923 6.04534 24.9289 6.59884ZM23.6422 3.96074L23.7141 4.05419L23.8075 3.98231L24.4473 3.50069L24.5479 3.42162L24.4688 3.32098C24.0519 2.79624 23.599 2.31463 23.0887 1.91927L22.9952 1.84739L22.9233 1.93365L22.413 2.55184L22.3339 2.65247L22.4345 2.73155C22.9018 3.09096 23.2828 3.50069 23.6422 3.96074ZM21.3851 2.03428L21.4929 2.09179L21.5504 1.98396L21.9314 1.27951L21.9889 1.17169L21.881 1.11418C21.3132 0.790711 20.6878 0.553497 20.0624 0.366602L19.9474 0.330661L19.9115 0.445673L19.6958 1.20763L19.6599 1.32983L19.7749 1.35858C20.3428 1.52391 20.8891 1.75394 21.3851 2.03428ZM18.5744 1.14294L18.6823 1.15012L18.6966 1.0423L18.8117 0.244401L18.826 0.122201L18.711 0.100636C18.4882 0.0646945 18.2941 0.0575062 18.0785 0.0503179L16.8061 0L16.6767 0L16.6695 0.122201L16.6408 0.9201L16.6336 1.0423L16.7558 1.04949L18.0281 1.09981C18.1 1.09981 18.1791 1.11418 18.2725 1.12137H18.2797C18.3732 1.12856 18.4738 1.13575 18.5744 1.14294Z" fill="#E22496"/>
    </g>
    <defs>
        <clipPath id="clip0_753_22257">
            <rect width="26" height="17.3884" fill="white"/>
        </clipPath>
    </defs>
</svg>
 