<svg viewBox="0 0 24 24" fill="none" xmlns="http://www.w3.org/2000/svg">
    <path fill-rule="evenodd" clip-rule="evenodd" d="M14.7423 2H16.6995C17.5353 1.99997 18.2323 1.99995 18.7856 2.07434C19.3696 2.15285 19.8968 2.32557 20.3205 2.74926C20.7442 3.17296 20.9169 3.70021 20.9954 4.28421C21.0698 4.83749 21.0698 5.53444 21.0698 6.37024V20.6047H21.3023C21.6876 20.6047 22 20.917 22 21.3023C22 21.6876 21.6876 22 21.3023 22H2.69767C2.31236 22 2 21.6876 2 21.3023C2 20.917 2.31236 20.6047 2.69767 20.6047H2.93023L2.93023 9.16093C2.9302 8.32514 2.93018 7.62819 3.00457 7.0749C3.08308 6.49091 3.2558 5.96365 3.67949 5.53996C4.10319 5.11627 4.63044 4.94355 5.21444 4.86504C5.76772 4.79065 6.46467 4.79067 7.30046 4.7907L10.3981 4.7907C10.446 3.97751 10.5959 3.27471 11.1214 2.74926C11.545 2.32557 12.0723 2.15285 12.6563 2.07434C13.2096 1.99995 13.9065 1.99997 14.7423 2ZM11.0761 6.18605C11.0749 6.18605 11.0737 6.18605 11.0725 6.18605C11.0716 6.18605 11.0707 6.18605 11.0698 6.18605H7.34884C6.45208 6.18605 5.8497 6.18753 5.40036 6.24794C4.9711 6.30566 4.78738 6.4054 4.66616 6.52662C4.54493 6.64785 4.44519 6.83156 4.38748 7.26083C4.32706 7.71017 4.32558 8.31255 4.32558 9.2093V20.6047H8.51163V18.5116C8.51163 18.1263 8.82399 17.814 9.2093 17.814C9.59462 17.814 9.90698 18.1263 9.90698 18.5116V20.6047H14.093V9.2093C14.093 8.31255 14.0915 7.71017 14.0311 7.26083C13.9734 6.83156 13.8737 6.64785 13.7524 6.52662C13.6312 6.4054 13.4475 6.30566 13.0182 6.24794C12.57 6.18767 11.9694 6.18606 11.0761 6.18605ZM15.4884 20.6047L15.4884 9.16094C15.4884 8.32514 15.4884 7.62819 15.414 7.0749C15.3355 6.49091 15.1628 5.96365 14.7391 5.53996C14.3154 5.11627 13.7882 4.94355 13.2042 4.86504C12.8085 4.81184 12.3393 4.7967 11.7985 4.7924C11.8451 4.14157 11.9475 3.8964 12.108 3.73592C12.2292 3.6147 12.413 3.51496 12.8422 3.45724C13.2916 3.39683 13.8939 3.39535 14.7907 3.39535H16.6512C17.5479 3.39535 18.1503 3.39683 18.5996 3.45724C19.0289 3.51496 19.2126 3.6147 19.3338 3.73592C19.4551 3.85715 19.5548 4.04087 19.6125 4.47013C19.6729 4.91947 19.6744 5.52185 19.6744 6.41861V20.6047H15.4884ZM5.72093 8.27907C5.72093 7.89376 6.03329 7.5814 6.4186 7.5814H12C12.3853 7.5814 12.6977 7.89376 12.6977 8.27907C12.6977 8.66439 12.3853 8.97675 12 8.97675H6.4186C6.03329 8.97675 5.72093 8.66439 5.72093 8.27907ZM5.72093 11.0698C5.72093 10.6845 6.03329 10.3721 6.4186 10.3721H12C12.3853 10.3721 12.6977 10.6845 12.6977 11.0698C12.6977 11.4551 12.3853 11.7674 12 11.7674H6.4186C6.03329 11.7674 5.72093 11.4551 5.72093 11.0698ZM5.72093 13.8605C5.72093 13.4752 6.03329 13.1628 6.4186 13.1628H12C12.3853 13.1628 12.6977 13.4752 12.6977 13.8605C12.6977 14.2458 12.3853 14.5581 12 14.5581H6.4186C6.03329 14.5581 5.72093 14.2458 5.72093 13.8605Z" fill="currentColor"/>
</svg>