<svg width="23" height="30" viewBox="0 0 23 30" fill="none" xmlns="http://www.w3.org/2000/svg">
    <path d="M20.341 30H2.435c-.024-.018-.047-.041-.071-.047C.82 29.59 0 28.563 0 26.996V14.2c0-1.737 1.223-2.94 2.987-2.94h.808c0-1.214-.012-2.394.006-3.573.006-.493.042-.997.119-1.484.63-3.925 4.603-6.748 8.576-6.114 3.807.61 6.473 3.696 6.48 7.504v3.661c.367 0 .694-.006 1.015 0 1.514.036 2.762 1.244 2.767 2.734.018 4.418.012 8.842 0 13.26 0 1.156-.766 2.171-1.87 2.57-.179.07-.363.123-.547.182ZM6.343 11.243H16.41V6.9c0-.088-.03-.176-.042-.258-.416-2.605-3.076-4.506-5.707-4.072-2.572.422-4.318 2.435-4.33 5.01-.006 1.133 0 2.265 0 3.398 0 .076.006.164.012.264Z" fill="currentColor"/>
</svg>
