<svg width="24" height="24" viewBox="0 0 24 24" fill="none" xmlns="http://www.w3.org/2000/svg">
    <path fill-rule="evenodd" clip-rule="evenodd" d="M9.95349 14.9719C9.95349 13.8416 10.8697 12.9254 12 12.9254C13.1303 12.9254 14.0465 13.8416 14.0465 14.9719C14.0465 16.1021 13.1303 17.0184 12 17.0184C10.8697 17.0184 9.95349 16.1021 9.95349 14.9719ZM12 14.0416C11.4862 14.0416 11.0698 14.4581 11.0698 14.9719C11.0698 15.4856 11.4862 15.9021 12 15.9021C12.5138 15.9021 12.9302 15.4856 12.9302 14.9719C12.9302 14.4581 12.5138 14.0416 12 14.0416Z" fill="currentColor"/>
    <path fill-rule="evenodd" clip-rule="evenodd" d="M6.97674 9.98787V9.01837C6.97674 6.24411 9.22573 3.99512 12 3.99512C14.7743 3.99512 17.0233 6.24411 17.0233 9.01837V9.98787C17.1921 9.99974 17.3512 10.0152 17.5008 10.0353C18.1707 10.1254 18.7347 10.318 19.1826 10.766C19.6306 11.2139 19.8232 11.7779 19.9133 12.4478C20 13.093 20 13.9133 20 14.931V15.0127C20 16.0304 20 16.8508 19.9133 17.496C19.8232 18.1658 19.6306 18.7298 19.1826 19.1777C18.7347 19.6257 18.1707 19.8183 17.5008 19.9084C16.8557 19.9951 16.0353 19.9951 15.0176 19.9951H8.98242C7.96468 19.9951 7.14435 19.9951 6.49916 19.9084C5.82931 19.8183 5.26532 19.6257 4.81738 19.1777C4.36944 18.7298 4.17677 18.1658 4.08672 17.496C3.99997 16.8508 3.99999 16.0304 4 15.0127V14.931C3.99999 13.9133 3.99997 13.0929 4.08672 12.4478C4.17677 11.7779 4.36944 11.2139 4.81738 10.766C5.26532 10.318 5.82931 10.1254 6.49916 10.0353C6.64884 10.0152 6.80794 9.99974 6.97674 9.98787ZM8.09302 9.01837C8.09302 6.86061 9.84224 5.1114 12 5.1114C14.1578 5.1114 15.907 6.86061 15.907 9.01837V9.95117C15.629 9.9486 15.3328 9.9486 15.0176 9.94861H8.98242C8.66724 9.9486 8.371 9.9486 8.09302 9.95117V9.01837ZM6.6479 11.1416C6.10184 11.2151 5.81267 11.3493 5.60671 11.5553C5.40074 11.7613 5.26646 12.0504 5.19304 12.5965C5.11747 13.1586 5.11628 13.9036 5.11628 14.9719C5.11628 16.0401 5.11747 16.7851 5.19304 17.3472C5.26646 17.8933 5.40074 18.1824 5.60671 18.3884C5.81267 18.5944 6.10184 18.7287 6.6479 18.8021C7.21003 18.8777 7.95504 18.8788 9.02326 18.8788H14.9767C16.045 18.8788 16.79 18.8777 17.3521 18.8021C17.8982 18.7287 18.1873 18.5944 18.3933 18.3884C18.5993 18.1824 18.7335 17.8933 18.807 17.3472C18.8825 16.7851 18.8837 16.0401 18.8837 14.9719C18.8837 13.9036 18.8825 13.1586 18.807 12.5965C18.7335 12.0504 18.5993 11.7613 18.3933 11.5553C18.1873 11.3493 17.8982 11.2151 17.3521 11.1416C16.79 11.0661 16.045 11.0649 14.9767 11.0649H9.02326C7.95504 11.0649 7.21003 11.0661 6.6479 11.1416Z" fill="currentColor"/>
</svg>
