<svg viewBox="0 0 24 24" fill="none" xmlns="http://www.w3.org/2000/svg">
    <path d="M16.72 9.788c2.002 1.649 3.037 3.743 2.957 6.326-.06 2.022-.851 3.768-2.311 5.182-3.06 2.956-7.88 2.938-10.879-.048-1.63-1.62-2.397-3.593-2.263-5.875.134-2.28 1.162-4.129 2.95-5.58-.036-.072-.066-.138-.103-.204-.985-1.782-1.965-3.57-2.963-5.345-.158-.283-.146-.5.055-.758.706-.891 1.406-1.794 2.1-2.697.15-.205.333-.289.594-.289 3.395.006 6.784.006 10.179 0a.7.7 0 0 1 .614.307 242.09 242.09 0 0 0 2.093 2.697c.189.24.207.451.055.716-.998 1.775-1.977 3.563-2.969 5.345a2.53 2.53 0 0 1-.11.223Zm2.063 6.037c-.006-3.726-3.079-6.76-6.845-6.754-3.76.006-6.814 3.034-6.82 6.754-.006 3.726 3.067 6.765 6.833 6.765s6.832-3.04 6.832-6.765Zm-2.799-6.61c-.012.013.007 0 .019-.017a855.23 855.23 0 0 0 2.847-5.153c.03-.06.006-.186-.037-.246-.431-.572-.876-1.132-1.314-1.698-.079-.096-.152-.193-.25-.313-1.204 2.197-2.39 4.37-3.564 6.507.772.307 1.52.608 2.3.92Zm-8.073 0c.785-.312 1.54-.613 2.3-.92-1.175-2.143-2.36-4.316-3.566-6.513-.529.68-1.034 1.336-1.551 1.986-.097.12-.103.205-.024.337.62 1.102 1.229 2.21 1.837 3.311l1.004 1.8Zm1.07-5.097c.019.048.025.078.043.102.7 1.288 1.406 2.57 2.118 3.852.036.06.152.108.23.108.372.012.743-.018 1.114.006.17.012.256-.036.335-.18.663-1.228 1.338-2.456 2.007-3.678.037-.06.061-.126.104-.21h-5.95ZM7.48 1.415c.322.59.62 1.144.93 1.691.031.054.147.103.22.103h6.644c.127 0 .188-.043.243-.15.164-.32.347-.633.517-.952.122-.229.25-.457.377-.698-2.987.006-5.938.006-8.931.006Z" fill="currentColor"/>
    <path d="M6.031 15.807c.012-3.232 2.683-5.85 5.95-5.838 3.261.012 5.914 2.66 5.896 5.893-.018 3.22-2.683 5.832-5.938 5.826-3.267-.006-5.92-2.648-5.908-5.88Zm.907.024c0 2.733 2.25 4.96 5.007 4.96 2.762 0 5.013-2.227 5.013-4.96 0-2.732-2.25-4.96-5.013-4.96-2.756 0-5.007 2.228-5.007 4.96Z" fill="currentColor"/>
    <path d="M11.95 12.672c.22.012.347.126.438.313.207.415.42.83.615 1.252.067.15.164.21.322.229.457.06.913.132 1.375.192.213.03.378.109.45.325.073.217-.018.38-.17.524-.34.33-.693.656-1.022.993a.378.378 0 0 0-.091.289c.067.481.152.963.237 1.445.037.198-.006.36-.17.481-.17.127-.353.108-.536.012-.413-.216-.833-.427-1.247-.656-.14-.078-.25-.084-.395-.006-.402.223-.816.427-1.223.644-.189.096-.371.139-.554.012-.182-.126-.219-.307-.176-.518.085-.463.152-.933.243-1.396.03-.144-.018-.235-.116-.331-.334-.313-.663-.638-.997-.957-.159-.15-.262-.313-.177-.536.08-.223.262-.289.48-.319.457-.06.913-.132 1.376-.192.146-.018.219-.085.28-.217.2-.427.42-.849.632-1.27.08-.187.213-.301.426-.313Zm-1.77 2.763c.2.204.371.403.572.571.243.2.292.434.225.723-.055.247-.091.5-.14.788.298-.156.56-.283.815-.427a.555.555 0 0 1 .578-.006c.256.138.517.27.822.427-.05-.295-.086-.553-.146-.806-.067-.283 0-.506.23-.704.202-.17.384-.368.597-.578-.262-.037-.48-.09-.7-.097-.383-.012-.633-.18-.766-.541-.08-.211-.201-.404-.317-.645-.152.307-.286.56-.407.82a.532.532 0 0 1-.45.33c-.299.048-.59.097-.913.145Z" fill="currentColor"/>
</svg>
