<svg viewBox="0 0 24 24" fill="none" xmlns="http://www.w3.org/2000/svg">
    <path d="M18.374 9.331c.006 3.617-2.944 6.58-6.565 6.586-3.621.006-6.572-2.945-6.572-6.574-.006-3.622 2.945-6.585 6.566-6.585 3.615-.006 6.565 2.945 6.571 6.573Zm-.897.006c0-3.13-2.544-5.685-5.668-5.685S6.135 6.2 6.135 9.332c-.006 3.124 2.544 5.68 5.668 5.685a5.683 5.683 0 0 0 5.674-5.68Z" fill="currentColor"/>
    <path d="M20.074 20.032c-.742-1.416-1.478-2.831-2.244-4.3.078-.06.15-.109.215-.175 2.083-2.177 2.933-4.768 2.43-7.737-.479-2.825-2.059-4.924-4.578-6.286a6.08 6.08 0 0 0-.455-.215 9.535 9.535 0 0 0-1.317-.48c-.036-.012-.078-.024-.114-.042-.048-.018-.101-.024-.143-.03-2.706-.678-4.687.15-4.687.15A8.89 8.89 0 0 0 5.968 2.74c-3.274 2.861-3.933 7.84-1.509 11.444.377.564.832 1.067 1.275 1.625-.012.024-.048.102-.084.174-.724 1.386-1.442 2.765-2.166 4.15-.108.205-.174.402-.012.606.167.204.377.198.61.132.545-.156 1.096-.3 1.64-.444.485-.131.976-.263 1.478-.395.108.294.204.564.3.84.269.75.538 1.505.802 2.255.072.21.191.36.425.371.233.018.37-.12.466-.318.018-.035.036-.065.054-.101l2.424-4.649c.036-.072.078-.138.132-.234.054.096.096.162.131.234l2.478 4.75c.102.192.24.33.473.312.228-.018.347-.168.42-.377.143-.426.298-.846.448-1.266l.652-1.83c.341.09.665.18.982.265.736.198 1.466.402 2.202.6.21.06.401.03.545-.15.137-.175.12-.36.018-.546-.03-.048-.054-.102-.078-.156ZM8.846 21.909a2.423 2.423 0 0 1-.09-.198l-.807-2.255c-.144-.396-.312-.486-.719-.372-.832.228-1.663.45-2.55.69l1.784-3.419a8.895 8.895 0 0 0 4.363 1.757c-.658 1.266-1.31 2.514-1.98 3.797Zm.988-4.894a7.897 7.897 0 0 1-5.92-7.318c-.113-2.705.928-4.924 3.035-6.621a7.269 7.269 0 0 1 2.226-1.218c2.999-.923 5.716.192 5.854.246 3.262 1.458 5.17 4.894 4.578 8.535-.748 4.57-5.296 7.54-9.773 6.376Zm7.499 2.327c-.335-.09-.676-.186-1.011-.276-.336-.084-.527.018-.647.342-.293.822-.586 1.643-.898 2.525-.676-1.296-1.328-2.543-1.993-3.82a8.864 8.864 0 0 0 4.357-1.758c.593 1.128 1.174 2.25 1.784 3.419-.563-.156-1.077-.294-1.592-.432Z" fill="currentColor"/>
    <path d="M13.353 9.475a1.766 1.766 0 0 0-.365-.444 1.352 1.352 0 0 0 .233-1.433 1.371 1.371 0 0 0-2.633.533c0 .114.042.216.12.294a.402.402 0 0 0 .299.126c.12 0 .227-.042.305-.126a.429.429 0 0 0 .12-.294.48.48 0 0 1 .042-.204.553.553 0 0 1 .281-.282.476.476 0 0 1 .204-.041c.071 0 .137.011.203.041.066.03.12.066.162.114a.586.586 0 0 1 .113.174.48.48 0 0 1 .042.204.436.436 0 0 1-.042.198.57.57 0 0 1-.281.288.425.425 0 0 1-.191.042h-.012a.406.406 0 0 0-.413.42c0 .114.042.216.12.294a.406.406 0 0 0 .305.126c.024 0 .047 0 .065-.006a.814.814 0 0 1 .27.072.769.769 0 0 1 .43.69c0 .107-.017.21-.06.3a.777.777 0 0 1-.407.414.702.702 0 0 1-.298.06.703.703 0 0 1-.3-.06.97.97 0 0 1-.245-.163.704.704 0 0 1-.162-.246.754.754 0 0 1-.06-.306.413.413 0 0 0-.125-.3.411.411 0 0 0-.3-.125.406.406 0 0 0-.305.126.429.429 0 0 0-.12.293 1.573 1.573 0 0 0 .473 1.14 1.589 1.589 0 0 0 1.137.474 1.589 1.589 0 0 0 1.138-.474 1.67 1.67 0 0 0 .347-.51c.084-.198.126-.408.126-.63a1.693 1.693 0 0 0-.216-.78Z" fill="currentColor"/>
</svg>
