<svg viewBox="0 0 24 24" fill="none" xmlns="http://www.w3.org/2000/svg">
    <path d="M11.3189 16.2546C11.3668 16.361 11.404 16.4527 11.4465 16.5418C12.075 17.8462 12.7061 19.1493 13.3346 20.4537C13.6362 21.0786 13.4608 21.5825 12.8429 21.883C12.5081 22.0466 12.1733 22.2088 11.8358 22.367C11.2658 22.6343 10.7556 22.4574 10.4805 21.8884C9.81486 20.5175 9.1545 19.144 8.49281 17.7704C8.45694 17.6946 8.41707 17.6202 8.36924 17.5258C7.65175 17.8715 6.94887 18.2198 6.23802 18.5496C5.98025 18.6693 5.70787 18.7982 5.43017 18.8288C4.81366 18.898 4.33135 18.6267 4.05631 18.0709C3.40392 16.7506 2.76083 15.4236 2.13502 14.0899C1.79886 13.3733 2.1111 12.5861 2.84188 12.2324C4.42568 11.4639 6.01347 10.7033 7.59461 9.93078C7.76336 9.84835 7.92812 9.72735 8.05434 9.58773C9.75241 7.70495 11.4425 5.81551 13.1379 3.93139C13.2615 3.79444 13.3133 3.69471 13.2309 3.49526C13.0024 2.95011 13.2761 2.33049 13.8129 2.09647C14.3523 1.85979 14.9675 2.06855 15.2399 2.6137C15.7275 3.591 16.1939 4.57893 16.6696 5.56155C16.8795 5.99501 17.0894 6.42981 17.3113 6.88987C17.6302 6.73563 17.9398 6.58671 18.2494 6.43779C18.8699 6.13994 19.327 6.2995 19.6273 6.91779C19.9408 7.56533 20.2544 8.21287 20.5653 8.86174C20.847 9.45078 20.6862 9.91217 20.0989 10.2047C19.7894 10.3589 19.4771 10.5092 19.1409 10.6727C19.1808 10.7578 19.2127 10.8323 19.2486 10.9054C19.8877 12.2324 20.5321 13.5581 21.1672 14.8877C21.526 15.639 21.1034 16.4301 20.2982 16.5139C19.8452 16.5604 19.4798 16.3756 19.2539 15.9794C19.1582 15.8132 19.0599 15.768 18.8765 15.7799C17.3206 15.881 15.7647 15.9727 14.2075 16.0671C13.3106 16.1216 12.4138 16.1762 11.5182 16.2307C11.4585 16.2373 11.4013 16.2453 11.3189 16.2546ZM18.8991 15.2786C17.112 11.5742 15.3409 7.90306 13.5418 4.17605C13.4953 4.25184 13.4781 4.29306 13.4502 4.32497C11.7827 6.18781 10.1151 8.04933 8.44232 9.90685C8.33868 10.0225 8.34134 10.1076 8.40512 10.2379C9.25814 11.9971 10.1098 13.7562 10.9522 15.5206C11.0346 15.6922 11.121 15.7533 11.3136 15.7414C13.4435 15.6084 15.5747 15.4847 17.7046 15.3584C18.0913 15.3345 18.4766 15.3066 18.8991 15.2786ZM20.8257 15.4156C20.7673 15.268 20.7181 15.1164 20.649 14.9742C19.1104 11.779 17.5691 8.58518 16.0292 5.39002C15.6319 4.56696 15.2373 3.74258 14.8373 2.92085C14.6433 2.52196 14.2779 2.39298 13.9431 2.59376C13.6362 2.77858 13.5777 3.09637 13.777 3.50989C15.7103 7.52012 17.6448 11.5304 19.5794 15.5393C19.6193 15.623 19.6618 15.7081 19.7163 15.7826C19.8731 15.998 20.1441 16.0764 20.3952 15.9874C20.6371 15.9036 20.7938 15.6842 20.8257 15.4156ZM8.82631 17.3077C9.54381 18.7956 10.248 20.2595 10.9589 21.7195C11.0917 21.9907 11.3189 22.0572 11.5993 21.9282C11.9368 21.7727 12.2703 21.6051 12.6051 21.4429C13.0024 21.2501 13.0702 21.0533 12.8735 20.6478C12.2198 19.2902 11.5647 17.9326 10.9097 16.5764C10.8752 16.5046 10.8313 16.4354 10.7888 16.3583C10.3198 16.5844 9.86934 16.7998 9.42024 17.0178C9.23156 17.1069 9.04289 17.2013 8.82631 17.3077Z" fill="currentColor" />
</svg>