<svg viewBox="0 0 24 24" fill="none" xmlns="http://www.w3.org/2000/svg">
    <path fill-rule="evenodd" clip-rule="evenodd" d="M5.437 22.039c.306.189.66.284 1.02.284v.002h11.096c.476 0 .94-.185 1.273-.526.413-.421.582-.998.574-1.709-.02-1.513-.015-3.026-.011-4.539l.003-1.89v-.243l.095-.021.078-.017c.951-.169 1.629-.695 2.026-1.571.175-.388.3-.803.193-1.232a933.577 933.577 0 0 0-1.925-7.648 2.6 2.6 0 0 0-.403-.822c-.203-.29-.499-.431-.88-.431a2748 2748 0 0 1-12.799-.002c-.443 0-.763.173-.981.514-.167.26-.292.559-.388.854a36.53 36.53 0 0 0-.317 1.08c-.092.323-.183.646-.283.967-.179.571-.362 1.142-.545 1.712-.302.942-.604 1.885-.889 2.833-.133.437-.23.911-.206 1.362.06 1.1.872 2.026 1.936 2.324.096.026.194.045.297.065.055.011.112.022.17.035v.242c0 2.223 0 4.448-.002 6.67 0 .648.213 1.204.727 1.61.046.033.092.067.141.097ZM20.351 7.353l-.016-.077a3.686 3.686 0 0 0-.027-.126l-.284-1.08-.284-1.079-.172-.665a47.256 47.256 0 0 0-.339-1.28c-.174-.615-.405-.778-1.037-.778h-2.808c-3.12.001-6.242.003-9.363-.008-.439-.002-.695.18-.852.558-.05.117-.091.236-.129.36l-.596 1.92-.596 1.92-.054.174a27.72 27.72 0 0 1-.05.161h16.607Zm.155.664.036.006c.063.275.132.55.2.823.158.628.316 1.255.4 1.894.094.717-.29 1.311-.904 1.71-1.152.751-2.711.131-3.049-1.201l-.014-.06-.014-.058c-.043-.16-.14-.26-.313-.26-.171-.002-.273.091-.316.254a5.305 5.305 0 0 0-.018.066c-.014.05-.027.099-.042.147-.278.904-1.112 1.478-2.074 1.428a1.99 1.99 0 0 1-1.833-1.625c-.072-.399-.34-.433-.66-.363-.178.037-.214.198-.244.357a2.013 2.013 0 0 1-1.617 1.597A2.01 2.01 0 0 1 7.7 11.17c-.076-.336-.149-.411-.415-.415-.34-.006-.415.056-.49.395-.211.956-1.014 1.615-1.97 1.62-.953.003-1.752-.64-1.978-1.582-.073-.304-.038-.602.04-.894.105-.404.216-.806.327-1.209.085-.308.17-.617.253-.926.028-.11.073-.151.19-.151 5.598.004 11.194.004 16.79.004a.47.47 0 0 1 .06.006ZM9.774 13.402c1.186-.042 1.893-.775 2.336-1.853.43 1.06 1.122 1.783 2.292 1.855 1.176.07 1.911-.604 2.444-1.603.41.8.989 1.386 1.893 1.579 0 .02.002.04.004.058.003.04.006.074.006.11v6.812c0 .682-.366 1.18-.976 1.333a1.52 1.52 0 0 1-.38.042c-1.309.003-2.62.003-3.93.002h-1.31a1.36 1.36 0 0 1-.107-.006 3.182 3.182 0 0 0-.095-.006V16.4c0-.655-.336-.987-.995-.987h-.98c-.654 0-1.308-.001-1.962 0-.638 0-.982.346-.982.985v5.328l-.039.002c-.436.021-.852.042-1.218-.222a1.254 1.254 0 0 1-.55-1.067c-.006-2.304-.004-4.609.002-6.913 0-.056.063-.149.113-.163.93-.242 1.512-.852 1.857-1.722a.352.352 0 0 1 .023-.042c.007-.012.015-.025.023-.042.473 1.137 1.242 1.892 2.53 1.846Zm1.531 8.105v.214H7.672v-5.306c0-.314.044-.357.364-.357h2.922c.312.002.347.035.347.35v5.099Zm4.565-6.094h-2.107c-.52.01-.854.342-.858.86-.004.509-.002 1.02 0 1.53.004.554.337.892.89.892a811.2 811.2 0 0 0 3.12 0c.56 0 .906-.344.908-.902.002-.49.002-.98 0-1.47-.002-.574-.34-.908-.918-.91H15.87Zm-.07 2.637-.443.001h-.509c-.34 0-.68.001-1.02 0-.241 0-.277-.032-.277-.262v-.535c0-.312.001-.623-.004-.935-.002-.195.074-.26.263-.26 1.034.004 2.07.004 3.102 0 .189 0 .266.073.264.262-.003.49-.003.98 0 1.47 0 .186-.077.264-.268.262a78.744 78.744 0 0 0-1.108-.003Z" fill="currentColor"/>
    <path d="M6.456 22.323h.2v-.2h-.2v.2Zm-1.019-.284.105-.17-.002-.002-.103.172Zm1.02.286h-.2v.2h.2v-.2Zm12.37-.526-.144-.14.143.14Zm.573-1.709.2-.002-.2.002Zm-.011-4.539h-.2.2Zm.003-2.133-.039-.196-.16.032v.164h.2Zm.095-.021-.045-.195.045.195Zm.078-.017-.035-.197h-.003l.038.197Zm2.026-1.571.182.082-.182-.082Zm.193-1.232-.194.048.194-.048ZM19.859 2.93l-.194.05.194-.05Zm-.403-.822.164-.114-.164.114Zm-.88-.431v-.2.2ZM5.777 1.674v-.2.2Zm-.981.514.168.108-.168-.108Zm-.388.854-.19-.06.19.06Zm-.317 1.08.192.054-.192-.054Zm-.283.967.191.06v-.001l-.19-.06ZM3.263 6.8l-.19-.061.19.061Zm-.889 2.833.192.058-.192-.058Zm-.206 1.362-.2.01v.001l.2-.01Zm1.936 2.324-.053.193h.001l.052-.193Zm.297.065-.039.197.039-.197Zm.17.035h.2v-.162l-.158-.034-.042.196Zm-.002 6.913h-.2.2Zm.727 1.609-.123.157.004.003.12-.16ZM20.351 7.353v.2h.248l-.052-.242-.196.042Zm-.016-.077-.196.04.196-.04Zm-.027-.126.194-.047V7.1l-.194.05Zm-.284-1.08-.194.052.194-.051Zm-.284-1.079.193-.05-.193.05Zm-.172-.665-.193.05.193-.05Zm-.339-1.28-.192.055.192-.055Zm-3.845-.778v.2-.2ZM6.021 2.26v.2-.2Zm-.852.558.184.078v-.001l-.184-.077Zm-.129.36.191.059-.19-.06Zm-.596 1.92.191.059-.19-.06Zm-.596 1.92.191.06v-.001l-.19-.06Zm-.054.174.192.058-.192-.058Zm-.05.161-.19-.06-.08.26h.27v-.2Zm16.798.67.195-.045-.03-.134-.136-.02-.029.199Zm-.036-.006-.03.198.03-.198Zm.237.83.194-.05-.194.05Zm.4 1.893.198-.026-.199.026Zm-.905 1.71-.109-.167.11.167Zm-3.048-1.2-.194.048.194-.049Zm-.014-.06-.195.046.195-.045Zm-.014-.058.194-.048v-.004l-.194.052Zm-.313-.26-.003.2h.003v-.2Zm-.316.254.192.054v-.002l-.192-.052Zm-.018.066.193.052-.193-.052Zm-.042.147-.19-.06-.001.001.191.059Zm-2.074 1.428-.01.2.01-.2Zm-1.833-1.625-.197.036.197-.036Zm-.66-.363.042.195-.042-.195Zm-.244.357.196.038-.196-.038Zm-1.617 1.597.035.197-.035-.197ZM7.7 11.17l.195-.043-.195.043Zm-.415-.415-.004.2.004-.2Zm-.49.395-.196-.043.195.043Zm-1.97 1.62v-.2.2Zm-1.978-1.582.194-.047-.194.047Zm.04-.894.193.051-.193-.051Zm.327-1.209-.193-.053.193.053Zm.253-.926.193.051v-.002l-.193-.05Zm.19-.151v-.2.2Zm8.453 3.542.185-.076-.184-.453-.186.453.185.075Zm-2.336 1.853-.007-.2.007.2Zm4.628.002-.012.2.012-.2Zm2.444-1.603.177-.092-.174-.34-.18.338.177.094Zm1.893 1.579.2-.013-.01-.151-.149-.032-.041.196Zm.004.058.2-.015-.2.015Zm.006 2.381h.2-.2Zm0 4.541h-.2.2Zm-.976 1.333-.048-.194h-.002l.05.194Zm-.38.042v-.2.2Zm-3.93.002v.2-.2Zm-1.417-.006.015-.2-.015.2Zm-.095-.006h-.2v.19l.19.01.01-.2Zm-1.975-6.313v-.2.2Zm-1.962 0v.2-.2Zm-.982 6.313.01.2.19-.01v-.19h-.2Zm-.039.002.01.2-.01-.2Zm-1.218-.222.117-.163-.117.163Zm-.55-1.067h.2-.2Zm.002-6.913h.2-.2Zm.113-.163-.05-.193h-.004l.054.193Zm1.857-1.722-.184-.077-.002.003.186.074Zm.023-.042.172.1-.172-.1Zm.023-.042.185-.076-.164-.393-.198.376.177.093Zm4.062 10.165v.2h.2v-.2h-.2Zm-3.633 0h-.2v.2h.2v-.2Zm3.286-5.663.001-.2h-.001v.2Zm4.912-.645v-.2.2Zm-2.107 0v-.2h-.004l.004.2Zm-.858.86.2.002-.2-.002Zm0 1.53h-.2v.001l.2-.001Zm.89.892v-.2.2Zm3.12 0v-.2.2Zm.908-.902-.2-.001h.2Zm0-1.47h-.2.2Zm-.918-.91v.2-.2ZM15.8 18.05v-.2.2Zm-.952.001v.2-.2Zm-1.02 0v-.2.2Zm-.277-.262h.2v-.001h-.2Zm0-.535h-.2.2Zm-.004-.935-.2.002v.001l.2-.003Zm.263-.26v-.2.2Zm3.102 0v-.2.2Zm.264.262-.2-.002.2.002Zm0 1.47h.2v-.002l-.2.002Zm-.268.262-.002.2.002-.2Zm-10.45 4.07c-.325 0-.642-.086-.915-.254l-.21.34c.34.21.73.314 1.124.314v-.4Zm.2.202v-.002h-.4v.002h.4Zm10.896-.2H6.456v.4h11.097v-.4Zm1.13-.466a1.578 1.578 0 0 1-1.13.466v.4c.527 0 1.043-.204 1.416-.587l-.286-.28Zm.517-1.566c.008.679-.153 1.195-.517 1.566l.286.28c.463-.472.64-1.108.631-1.851l-.4.005Zm-.011-4.542c-.004 1.513-.009 3.027.011 4.542l.4-.005c-.02-1.512-.015-3.023-.011-4.536l-.4-.001Zm.003-1.89-.003 1.89h.4l.003-1.89h-.4Zm0-.243v.242h.4v-.242h-.4Zm.25-.216-.089.02.078.392.1-.022-.09-.39Zm.085-.018c-.03.005-.058.012-.085.018l.09.39.07-.016-.075-.392Zm1.882-1.458c-.37.816-.992 1.3-1.879 1.457l.07.394c1.016-.18 1.749-.75 2.173-1.686l-.364-.165Zm.18-1.1c.091.361-.01.724-.18 1.1l.364.165c.18-.399.329-.866.205-1.362l-.388.097Zm-1.924-7.647a933.773 933.773 0 0 1 1.925 7.646l.388-.096a933.59 933.59 0 0 0-1.925-7.65l-.388.1Zm-.373-.758c.166.239.308.498.373.757l.388-.098c-.082-.325-.254-.63-.433-.887l-.328.228Zm-.716-.345c.324 0 .555.116.716.345l.328-.229c-.245-.35-.606-.516-1.044-.516v.4Zm-12.8-.002c4.268.012 8.533.01 12.8.002v-.4c-4.267.008-8.532.01-12.798-.002l-.002.4Zm-.812.422c.18-.28.434-.422.813-.422v-.4c-.507 0-.892.204-1.15.607l.337.215Zm-.365.808c.092-.286.21-.567.365-.808l-.337-.216a3.92 3.92 0 0 0-.409.901l.38.123Zm-.316 1.072c.103-.361.204-.72.316-1.073l-.381-.12c-.115.36-.218.724-.32 1.084l.385.11ZM4 5.148c.1-.324.192-.65.283-.972l-.385-.109c-.091.324-.182.644-.28.962L4 5.148Zm-.546 1.714c.183-.57.366-1.141.545-1.714l-.381-.12c-.18.572-.362 1.141-.545 1.712l.38.122Zm-.888 2.83c.284-.947.586-1.887.888-2.83l-.381-.122c-.302.942-.605 1.886-.89 2.836l.383.115Zm-.199 1.294c-.022-.418.069-.867.199-1.294l-.383-.117c-.136.447-.24.948-.215 1.432l.4-.021Zm1.791 2.142c-.99-.277-1.736-1.136-1.79-2.143l-.4.022c.065 1.194.944 2.187 2.083 2.506l.107-.385Zm.28.061a4.102 4.102 0 0 1-.281-.062l-.105.386c.104.028.209.049.31.069l.077-.393Zm.175.035-.174-.035-.077.393c.056.01.111.021.167.033l.084-.39Zm.158.438v-.242h-.4v.242h.4Zm-.002 6.67c.002-2.222.002-4.447.002-6.67h-.4c0 2.223 0 4.448-.002 6.67h.4Zm.651 1.453c-.457-.36-.65-.853-.65-1.452h-.4c0 .695.23 1.315.803 1.766l.247-.314Zm.12.082a1.586 1.586 0 0 1-.125-.086l-.238.321c.045.033.098.073.157.108l.206-.343ZM20.547 7.311a8.628 8.628 0 0 1-.016-.075l-.392.08.017.08.39-.085Zm-.016-.075-.029-.133-.388.095c.009.037.016.074.025.118l.392-.08Zm-.03-.136-.284-1.08-.386.102.284 1.08.386-.102Zm-.284-1.08-.284-1.08-.387.102.285 1.08.386-.102Zm-.284-1.08c-.058-.22-.114-.441-.17-.663l-.388.099.171.666.387-.102Zm-.17-.663c-.11-.428-.22-.858-.341-1.285l-.385.11c.12.42.228.845.338 1.274l.387-.1Zm-.341-1.285c-.09-.319-.207-.568-.42-.726-.213-.158-.484-.198-.81-.198v.4c.307 0 .466.041.57.119.104.077.19.217.275.514l.385-.11Zm-1.23-.924h-2.808v.4h2.808v-.4Zm-2.808 0c-3.12.001-6.242.003-9.362-.008l-.001.4c3.12.01 6.242.01 9.363.008v-.4ZM6.022 2.06a1.12 1.12 0 0 0-.644.17c-.18.12-.305.297-.393.511l.369.154a.701.701 0 0 1 .247-.332c.096-.065.228-.104.42-.103l.001-.4Zm-1.037.68a3.88 3.88 0 0 0-.136.379l.382.117c.037-.118.076-.23.122-.34l-.368-.156Zm-.136.378-.596 1.92.382.119.596-1.92-.382-.119Zm-.596 1.92-.596 1.92.382.119.596-1.92-.382-.119Zm-.596 1.92-.054.176.383.116.053-.173-.382-.12Zm-.054.176-.049.16.382.119.05-.163-.383-.116Zm.142.42H20.35v-.4H3.745v.4Zm16.826.27a5.292 5.292 0 0 1-.035-.005l-.06.396.038.006.057-.396Zm.366.974a39.344 39.344 0 0 1-.2-.82l-.39.089c.064.278.133.554.202.828l.388-.097Zm.403 1.916c-.086-.652-.246-1.29-.403-1.916l-.388.097c.158.63.312 1.246.395 1.871l.396-.052Zm-.992 1.904c.656-.427 1.099-1.088.993-1.904l-.397.052c.08.618-.244 1.145-.815 1.517l.218.335Zm-3.353-1.32c.371 1.464 2.084 2.147 3.353 1.32l-.219-.335c-1.036.675-2.442.118-2.746-1.084l-.388.099Zm-.015-.063.015.062.388-.097a2.554 2.554 0 0 1-.013-.055l-.39.09Zm-.013-.055.013.055.39-.09-.015-.062-.388.097Zm-.12-.109c.046 0 .065.012.074.02.013.012.032.037.047.093l.386-.105a.575.575 0 0 0-.17-.289.5.5 0 0 0-.336-.119v.4Zm-.122.106c.014-.054.033-.077.045-.087.01-.008.029-.02.075-.019l.005-.4a.504.504 0 0 0-.336.112.557.557 0 0 0-.175.29l.386.104Zm-.018.066a10.5 10.5 0 0 1 .017-.064l-.385-.107-.018.067.386.104Zm-.044.155c.017-.053.03-.106.044-.155l-.386-.104c-.014.05-.026.095-.04.139l.382.12Zm-2.275 1.568c1.05.054 1.97-.575 2.275-1.57l-.382-.117c-.25.814-1 1.332-1.872 1.287l-.021.4Zm-2.02-1.79a2.19 2.19 0 0 0 2.02 1.79l.021-.4a1.79 1.79 0 0 1-1.647-1.46l-.394.07Zm-.42-.203c.15-.033.245-.03.301-.006.037.016.091.055.119.21l.394-.071c-.044-.245-.16-.422-.355-.506-.176-.075-.376-.054-.544-.018l.085.391Zm-.09.2a.61.61 0 0 1 .045-.167.068.068 0 0 1 .017-.022.063.063 0 0 1 .027-.01l-.083-.392a.45.45 0 0 0-.313.234.972.972 0 0 0-.087.282l.393.074Zm-1.779 1.756a2.213 2.213 0 0 0 1.778-1.756l-.393-.075a1.813 1.813 0 0 1-1.456 1.438l.072.393Zm-2.574-1.717a2.21 2.21 0 0 0 2.574 1.717l-.07-.393a1.81 1.81 0 0 1-2.114-1.41l-.39.086Zm-.223-.258c.122.002.137.021.14.024.016.016.044.064.083.235l.39-.088c-.037-.164-.083-.322-.19-.429-.119-.12-.274-.14-.417-.142l-.006.4Zm-.293.239c.04-.176.067-.207.077-.215.008-.007.041-.027.215-.024l.007-.4c-.165-.003-.34.005-.473.112-.132.107-.18.275-.216.44l.39.087Zm-2.163 1.775c1.053-.004 1.933-.732 2.163-1.776l-.39-.086c-.191.867-.915 1.459-1.774 1.462l.001.4Zm-2.173-1.734c.247 1.028 1.124 1.739 2.173 1.734l-.001-.4c-.858.004-1.578-.573-1.784-1.428l-.388.094Zm.04-.992c-.081.309-.125.643-.04.992l.388-.094c-.062-.26-.034-.52.04-.796l-.388-.102Zm.328-1.211c-.11.402-.222.806-.328 1.211l.387.102c.106-.403.216-.804.327-1.207l-.386-.106Zm.253-.925c-.083.308-.168.616-.253.925l.386.106c.085-.308.17-.618.253-.928l-.386-.103Zm.384-.3a.392.392 0 0 0-.256.08.404.404 0 0 0-.129.222l.388.099a.225.225 0 0 1 .008-.027s0 .002-.003.005a.07.07 0 0 1-.033.023h.005l.02-.001v-.4Zm16.789.005c-5.596 0-11.192 0-16.79-.004v.4c5.598.004 11.194.004 16.79.004v-.4Zm.089.008c-.024-.003-.056-.008-.089-.008v.4c-.003 0-.004 0 0 0l.03.004.059-.396Zm-8.611 3.654c-.214.52-.486.943-.834 1.239-.345.293-.775.47-1.324.49l.014.4c.636-.023 1.153-.232 1.569-.586.412-.35.716-.834.945-1.392l-.37-.152Zm2.49 1.731c-.544-.033-.967-.216-1.305-.508-.342-.295-.607-.71-.815-1.223l-.37.15c.223.55.519 1.026.923 1.376.408.352.915.566 1.542.604l.024-.399Zm2.254-1.497c-.258.484-.557.873-.92 1.133-.36.258-.792.396-1.335.364l-.024.4c.633.037 1.156-.126 1.592-.438.431-.31.766-.756 1.04-1.271l-.353-.188Zm2.111 1.477c-.827-.176-1.363-.709-1.757-1.475l-.355.183c.429.835 1.049 1.475 2.029 1.684l.083-.392Zm.162.239a2.479 2.479 0 0 1-.004-.056l-.399.025.004.062.4-.031Zm.007.126c0-.045-.004-.089-.007-.126l-.399.03a.96.96 0 0 1 .006.096h.4Zm0 2.27v-2.27h-.4v2.27h.4Zm0 4.542v-4.542h-.4v4.541h.4Zm-1.127 1.526c.709-.177 1.127-.764 1.127-1.527h-.4c0 .6-.313 1.011-.824 1.14l.097.387Zm-.428.048c.136 0 .284-.01.43-.048l-.1-.387a1.324 1.324 0 0 1-.33.035v.4Zm-3.93.002c1.31 0 2.62.001 3.93-.002v-.4c-1.31.003-2.62.003-3.93.002v.4Zm-1.31 0h1.31v-.4h-1.31v.4Zm-.124-.006c.038.003.08.006.124.006v-.4c-.026 0-.052-.002-.093-.005l-.03.399Zm-.089-.006c.032.001.06.003.09.006l.03-.4a3.177 3.177 0 0 0-.1-.006l-.02.4Zm-.19-.446v.246h.4v-.246h-.4Zm0-5.08v5.08h.4v-5.08h-.4Zm-.795-.787c.298 0 .488.075.604.19.115.115.19.302.19.597h.4c0-.36-.091-.666-.309-.881-.216-.215-.524-.306-.885-.306v.4Zm-.98 0h.98v-.4h-.98v.4Zm-1.962 0c.654-.001 1.308 0 1.962 0v-.4c-.653 0-1.308-.001-1.963 0l.001.4Zm-.782.785c0-.285.077-.473.194-.591.117-.117.304-.194.588-.194v-.4c-.354 0-.657.097-.872.312-.214.215-.31.52-.31.873h.4Zm0 5.08v-5.08h-.4v5.08h.4Zm0 .248v-.248h-.4v.248h.4Zm-.23.202.04-.002-.02-.4-.039.002.02.4Zm-1.344-.26c.432.311.92.28 1.345.26l-.02-.4c-.448.022-.79.032-1.091-.185l-.234.325Zm-.633-1.23c0 .509.216.93.633 1.23l.234-.325a1.055 1.055 0 0 1-.467-.904h-.4Zm.002-6.913c-.006 2.305-.008 4.61-.002 6.914h.4c-.006-2.304-.004-4.608.002-6.912l-.4-.002Zm.26-.354a.302.302 0 0 0-.119.066.443.443 0 0 0-.068.078.388.388 0 0 0-.073.211h.4c0 .011-.002.02-.003.023v.005l.005-.012.006-.006-.01.006a.125.125 0 0 1-.031.014l-.108-.386Zm1.724-1.604c-.326.822-.864 1.38-1.721 1.603l.1.387c1.003-.262 1.629-.924 1.993-1.842l-.372-.148Zm.036-.07c-.007.013-.022.038-.034.067l.369.154v-.002a.656.656 0 0 1 .01-.016l-.345-.203Zm.02-.033a.818.818 0 0 1-.02.033l.345.203a1.16 1.16 0 0 0 .028-.05l-.354-.186Zm2.7 1.739c-.6.021-1.068-.143-1.44-.437-.378-.297-.67-.737-.9-1.285l-.369.153c.245.588.572 1.093 1.02 1.446.453.357 1.014.547 1.703.523l-.014-.4Zm1.738 8.52v-.215h-.4v.214h.4Zm-3.833.2h3.633v-.4H7.672v.4Zm-.2-.407v.206h.4v-.206h-.4Zm0-5.1v5.1h.4v-5.1h-.4Zm.564-.557c-.082 0-.16.002-.228.015a.4.4 0 0 0-.214.103.393.393 0 0 0-.107.214 1.253 1.253 0 0 0-.015.225h.4c0-.077.003-.122.008-.15.005-.027.009-.018-.006-.004-.014.014-.022.01.006.005a.942.942 0 0 1 .156-.008v-.4Zm2.922 0H8.036v.4h2.922v-.4Zm.547.55c0-.08-.002-.156-.013-.222a.384.384 0 0 0-.102-.212.385.385 0 0 0-.212-.102 1.355 1.355 0 0 0-.219-.014l-.003.4c.078 0 .124.003.153.008.027.005.015.008-.002-.009s-.014-.03-.01-.002a.988.988 0 0 1 .008.152h.4Zm0 5.099v-5.1h-.4v5.1h.4Zm3.849-5.894h.517l-.001-.4h-.516v.4Zm-1.551 0h1.55v-.4h-1.55v.4Zm-.04 0h.04v-.4h-.04v.4Zm-.658.662c.001-.216.07-.375.176-.481.107-.106.268-.177.486-.181l-.008-.4c-.303.006-.569.106-.76.298a1.06 1.06 0 0 0-.294.76l.4.004Zm0 1.527c-.002-.51-.004-1.02 0-1.527l-.4-.003c-.004.51-.002 1.021 0 1.532l.4-.002Zm.69.693c-.235 0-.402-.071-.51-.18-.107-.108-.179-.277-.18-.514l-.4.003c.002.317.1.595.297.794.198.199.475.297.793.297v-.4Zm3.12 0a811.2 811.2 0 0 1-3.12 0v.4a811.2 811.2 0 0 0 3.12 0v-.4Zm.708-.703c0 .238-.074.408-.186.52-.111.11-.283.183-.522.183v.4c.322 0 .603-.1.805-.3.201-.2.302-.48.303-.801l-.4-.002Zm0-1.468c.002.49.002.978 0 1.468l.4.002c.002-.492.002-.98 0-1.472l-.4.002Zm-.718-.711c.25 0 .424.073.534.182.11.11.183.28.184.528h.4c-.001-.327-.098-.61-.302-.812-.203-.201-.488-.297-.815-.298l-.001.4Zm-1.035 0h1.035l.001-.4H15.87v.4Zm-.514 2.638h.443v-.4h-.443v.4Zm-.508 0h.508v-.4h-.509v.4Zm-1.022 0c.34.001.682 0 1.021 0v-.4c-.34 0-.68.001-1.02 0l-.001.4Zm-.476-.462c0 .06.002.121.014.177a.34.34 0 0 0 .097.186.354.354 0 0 0 .186.087c.056.01.118.012.18.012v-.4a.702.702 0 0 1-.11-.005c-.018-.004-.002-.004.018.015.022.02.023.038.02.027a.56.56 0 0 1-.005-.1h-.4Zm0-.535v.536l.4-.002v-.534h-.4Zm-.004-.932c.005.31.005.62.004.932h.4c0-.31.001-.624-.004-.938l-.4.006Zm.463-.463c-.108 0-.242.016-.342.113-.102.098-.122.234-.12.349l.4-.004a.205.205 0 0 1 .005-.065c.002-.006.001 0-.007.008-.008.007-.013.007-.005.005a.275.275 0 0 1 .069-.006v-.4Zm3.101 0c-1.032.004-2.066.004-3.1 0l-.002.4c1.035.004 2.07.004 3.104 0l-.002-.4Zm.465.464a.461.461 0 0 0-.12-.347.474.474 0 0 0-.344-.117v.4a.25.25 0 0 1 .066.006c.008.002.004.003-.002-.003-.007-.007-.007-.011-.005-.005a.218.218 0 0 1 .006.062l.4.004Zm0 1.466c-.003-.49-.003-.977 0-1.467l-.4-.003c-.004.492-.004.982 0 1.473l.4-.003Zm-.47.464a.472.472 0 0 0 .348-.118c.1-.098.122-.23.122-.344h-.4c0 .072-.016.072-.002.059.013-.013.011.004-.064.003l-.004.4ZM15.8 18.25c.37 0 .739-.001 1.106.003l.005-.4c-.37-.004-.742-.004-1.112-.003l.001.4Z" fill="currentColor"/>
</svg>
