<svg viewBox="0 0 18 18" fill="none" xmlns="http://www.w3.org/2000/svg">
    <path fill-rule="evenodd" clip-rule="evenodd" d="M9 2.063a6.937 6.937 0 0 0-6.214 10.026c.186.373.257.819.14 1.257l-.446 1.67a.413.413 0 0 0 .505.505l1.67-.447a1.787 1.787 0 0 1 1.256.14c.93.463 1.978.723 3.089.723A6.937 6.937 0 1 0 9 2.063ZM.937 9a8.062 8.062 0 1 1 4.473 7.22.664.664 0 0 0-.465-.06l-1.67.447a1.538 1.538 0 0 1-1.882-1.882l.446-1.67a.664.664 0 0 0-.06-.465A8.031 8.031 0 0 1 .938 9ZM9 5.437c.31 0 .563.252.563.563v6a.562.562 0 1 1-1.126 0V6c0-.31.252-.563.563-.563Zm-3 1.5c.31 0 .563.252.563.563v3a.562.562 0 1 1-1.125 0v-3c0-.31.251-.563.562-.563Zm6 0c.31 0 .563.252.563.563v3a.562.562 0 1 1-1.126 0v-3c0-.31.252-.563.563-.563Z" fill="currentColor" />
</svg>