<svg viewBox="0 0 24 24" fill="none" xmlns="http://www.w3.org/2000/svg">
    <path d="M10.219 20.867h4.26c-.02.76-.334 1.359-.962 1.758-.728.467-1.496.487-2.243.054-.688-.393-1.028-1.006-1.055-1.812Zm1.783-1.85H4.617l.04-.06c.2-.2.508-.493.855-.78.013-.012.027-.02.04-.032v-.007c.54-.473.5-.846.5-.846.014-.107.02-.226.014-.366-.02-2.025-.013-4.083-.007-5.888.014-2.697 1.73-5.002 4.267-5.734a5.95 5.95 0 0 1 1.669-.24V2c-.227 0-.44.18-.447.393-.014.266-.007.54-.007.82v.878l-.48.1-.128.027a4.83 4.83 0 0 1-.233.047c-3.158.592-5.495 3.335-5.55 6.527-.026 1.498-.02 3.023-.013 4.495 0 .46.007.92.007 1.379 0 .346-.12.626-.368.866-.28.273-.56.56-.834.832-.234.233-.474.48-.721.713-.274.273-.24.426-.18.58.066.153.153.293.54.293h8.413v-.933h.007Z" fill="currentColor"/>
    <path d="M12.002 19.017h7.384l-.04-.06a12.6 12.6 0 0 0-.855-.78c-.013-.012-.027-.02-.04-.032v-.007c-.54-.473-.5-.846-.5-.846-.014-.107-.02-.226-.014-.366.02-2.025.013-4.083.007-5.888-.014-2.697-1.73-5.002-4.267-5.734a5.95 5.95 0 0 0-1.669-.24V2c.227 0 .44.18.448.393.013.266.006.54.006.82v.878l.48.1.128.027c.086.02.16.033.233.047 3.165.592 5.509 3.336 5.555 6.527.027 1.498.02 3.023.014 4.495 0 .46-.007.92-.007 1.379 0 .346.12.626.367.866.28.273.561.56.835.832.233.233.474.48.72.713.275.273.241.426.181.58-.067.153-.154.293-.54.293h-8.413v-.933H12Z" fill="currentColor"/>
</svg>