<svg viewBox="0 0 24 24" fill="none" xmlns="http://www.w3.org/2000/svg">
  <path d="M17.857 19.05h-1.643c-.08 0-.16.004-.238-.003-.19-.02-.338-.167-.334-.334.006-.184.133-.304.348-.304.646-.003 1.288-.003 1.934-.003.271 0 .546-.003.817 0 .23.003.355.11.358.337.007.91.007 1.818 0 2.727 0 .224-.13.357-.315.367-.184.01-.328-.11-.338-.34-.02-.485-.01-.97-.02-1.454-.003-.167.084-.407-.047-.481-.1-.057-.257.164-.388.264a9.83 9.83 0 0 1-4.863 1.938c-1.978.224-3.87-.087-5.623-1.012-3.022-1.598-4.826-4.104-5.312-7.492-.354-2.48.228-4.768 1.62-6.85a.632.632 0 0 1 .171-.193c.124-.087.251-.087.368.006.12.094.174.22.11.368-.03.073-.076.14-.12.204-.857 1.276-1.382 2.673-1.54 4.2a8.998 8.998 0 0 0 .84 4.898c.921 1.925 2.337 3.368 4.245 4.32a9.026 9.026 0 0 0 4.036.95c2.132.013 4.037-.625 5.73-1.912.07-.047.147-.09.204-.2ZM6.173 4.874h.81c.331 0 .666-.003.997.003.221.004.382.147.385.325 0 .193-.137.317-.378.317-.897.003-1.794.003-2.691 0-.275 0-.388-.114-.392-.388-.003-.875 0-1.75 0-2.626 0-.04 0-.08.007-.12.033-.194.157-.304.338-.294.174.006.295.133.295.334.006.41.003.822.003 1.233 0 .18-.003.357 0 .538.003.07-.037.167.043.2.07.03.128-.057.181-.1a10.134 10.134 0 0 1 1.577-1.042 9.852 9.852 0 0 1 3.504-1.093 9.83 9.83 0 0 1 4.94.678c1.466.595 2.704 1.514 3.735 2.71 1.312 1.524 2.092 3.288 2.316 5.28.255 2.255-.21 4.366-1.409 6.308-.09.147-.18.294-.28.434-.151.207-.329.254-.493.137-.167-.117-.187-.294-.043-.504.746-1.103 1.258-2.303 1.492-3.616.338-1.911.094-3.749-.723-5.513a9.082 9.082 0 0 0-3.172-3.729 8.935 8.935 0 0 0-4.244-1.54c-1.875-.18-3.652.147-5.322 1.026a6.266 6.266 0 0 0-1.476 1.042Z" fill="currentColor" stroke="currentColor" stroke-width=".05"/>
  <path d="m15.595 12.73.194-.29a3.47 3.47 0 0 0-5.772-3.856l-.194.29c-.233.348-.564.62-.95.78l-.949.395a1.374 1.374 0 0 0-.51 2.17 13.74 13.74 0 0 0 6.012 4.016 1.374 1.374 0 0 0 1.81-1.301l.001-1.027c0-.419.125-.828.358-1.177Z" stroke="currentColor" stroke-width=".8"/>
  <path d="M8.293 13.396c-.211.901.173 1.904 1.03 2.476.856.573 1.93.543 2.68.003" stroke="currentColor" stroke-width=".8" stroke-linecap="round"/>
</svg>
