<svg viewBox="0 0 22 22" fill="none" xmlns="http://www.w3.org/2000/svg">
    <path d="M16.665 7.36971L17.0898 6.94489C17.7937 6.24103 18.9349 6.24103 19.6388 6.94489C20.3426 7.64875 20.3426 8.78994 19.6388 9.49381L19.2139 9.91863M16.665 7.36971C16.665 7.36971 16.7181 8.27245 17.5147 9.06899C18.3112 9.86553 19.2139 9.91863 19.2139 9.91863M16.665 7.36971L12.7595 11.2753C12.4949 11.5398 12.3627 11.6721 12.2489 11.8179C12.1147 11.99 11.9997 12.1761 11.9058 12.373C11.8263 12.54 11.7671 12.7175 11.6488 13.0724L11.27 14.2087L11.1475 14.5763M19.2139 9.91863L15.3084 13.8242C15.0438 14.0887 14.9116 14.221 14.7657 14.3347C14.5937 14.4689 14.4076 14.584 14.2106 14.6778C14.0437 14.7574 13.8662 14.8166 13.5113 14.9349L12.375 15.3136L12.0074 15.4362M12.0074 15.4362L11.6398 15.5587C11.4651 15.6169 11.2726 15.5715 11.1424 15.4413C11.0122 15.3111 10.9667 15.1186 11.025 14.9439L11.1475 14.5763M12.0074 15.4362L11.1475 14.5763" stroke="currentColor" stroke-width="1.5"/>
    <path d="M7.33301 11.917H9.62467" stroke="currentColor" stroke-width="1.5" stroke-linecap="round"/>
    <path d="M7.33301 8.25H13.2913" stroke="currentColor" stroke-width="1.5" stroke-linecap="round"/>
    <path d="M7.33301 15.583H8.70801" stroke="currentColor" stroke-width="1.5" stroke-linecap="round"/>
    <path d="M18.1761 2.90695C17.1021 1.83301 15.3736 1.83301 11.9167 1.83301H10.0833C6.62637 1.83301 4.89788 1.83301 3.82394 2.90695C2.75 3.98089 2.75 5.70937 2.75 9.16634V12.833C2.75 16.29 2.75 18.0185 3.82394 19.0924C4.89788 20.1663 6.62637 20.1663 10.0833 20.1663H11.9167C15.3736 20.1663 17.1021 20.1663 18.1761 19.0924C19.0406 18.2279 19.2092 16.9393 19.242 14.6663" stroke="currentColor" stroke-width="1.5" stroke-linecap="round"/>
</svg>