<svg viewBox="0 0 20 20" fill="none" xmlns="http://www.w3.org/2000/svg">
  <path fill-rule="evenodd" clip-rule="evenodd" d="M2.81 13.453c.034-.306.074-.657.12-1.006a1.644 1.644 0 0 0-.16-1.01c-.179-.343-.35-.688-.52-1.034-.445-.897-.292-1.779.427-2.472a49.3 49.3 0 0 1 .847-.806c.244-.227.399-.5.471-.829.093-.426.189-.855.3-1.277A1.965 1.965 0 0 1 6.13 3.541a69.92 69.92 0 0 0 1.257-.069l.026-.001c.294-.019.553-.136.788-.314l.19-.146c.286-.22.573-.44.868-.65a1.915 1.915 0 0 1 2.246.006c.341.243.672.497 1 .756.29.227.61.348.98.358.406.01.81.037 1.213.068.89.07 1.577.683 1.786 1.583.079.335.155.672.232 1.008l.043.187c.07.304.212.56.439.772.29.27.576.544.86.819.738.706.89 1.588.435 2.501-.042.085-.083.171-.123.257a5.992 5.992 0 0 1-.283.549c-.282.463-.33.955-.24 1.478.054.319.088.643.119.965.082.848-.36 1.64-1.127 2.002-.388.183-.781.35-1.177.512-.318.131-.566.34-.75.633-.211.343-.431.68-.654 1.015-.514.78-1.364 1.089-2.256.827a66.958 66.958 0 0 1-1.18-.358 1.5 1.5 0 0 0-.896-.003c-.125.038-.25.078-.374.117a9.33 9.33 0 0 1-1.084.3c-.792.148-1.44-.147-1.916-.799a15.977 15.977 0 0 1-.688-1.054 1.676 1.676 0 0 0-.822-.701 37.56 37.56 0 0 1-1.055-.453c-.762-.343-1.212-1.036-1.21-1.96l.033-.293Zm.5.372c.018.649.3 1.102.858 1.363.316.147.637.282.958.418l.187.08c.414.175.737.452.975.834.217.345.437.69.665 1.028.377.56.964.777 1.608.591.395-.112.788-.233 1.178-.356a2.011 2.011 0 0 1 1.26-.002c.374.12.752.233 1.13.345.702.21 1.295-.01 1.698-.63.214-.327.429-.654.636-.987.243-.387.574-.662.995-.837.375-.154.747-.316 1.117-.484.597-.272.918-.832.853-1.488a13.505 13.505 0 0 0-.119-.966c-.103-.612-.036-1.185.282-1.729.108-.185.2-.38.293-.573l.128-.264c.35-.707.246-1.316-.318-1.855l-.234-.223c-.23-.218-.458-.435-.686-.656a1.873 1.873 0 0 1-.52-.92l-.11-.476c-.063-.28-.126-.558-.197-.836-.158-.606-.54-.999-1.161-1.088a11.85 11.85 0 0 0-1.259-.089l-.07-.002a2.08 2.08 0 0 1-1.236-.437 78.49 78.49 0 0 0-.93-.707c-.605-.452-1.231-.45-1.836.008l-.48.364-.479.363c-.271.205-.569.351-.907.382-.46.042-.92.071-1.381.092-.721.029-1.236.442-1.406 1.148-.093.382-.184.762-.267 1.146a2.11 2.11 0 0 1-.646 1.154c-.238.22-.473.444-.707.668l-.144.138c-.532.507-.643 1.138-.315 1.8.181.366.365.732.548 1.096a2.1 2.1 0 0 1 .197 1.26c-.047.338-.086.68-.123 1.013l-.035.314Zm12.612-3.13c.012 2.866-2.321 5.207-5.21 5.227-2.866.02-5.234-2.344-5.232-5.222a5.231 5.231 0 0 1 5.22-5.22c2.869-.004 5.21 2.332 5.222 5.215Zm-9.933.005c-.003 2.593 2.111 4.709 4.709 4.714 2.592.005 4.708-2.112 4.713-4.71.005-2.592-2.109-4.708-4.709-4.71-2.592-.005-4.71 2.11-4.713 4.706Zm7.015-.98a.435.435 0 1 0-.58-.648l-2.833 2.532-.774-.692a.435.435 0 0 0-.58.648l1.064.952a.435.435 0 0 0 .58 0l3.123-2.792Z" stroke="currentColor" stroke-width="0.45" fill="currentColor"/>
</svg>
