<svg viewBox="0 0 38 38" fill="none" xmlns="http://www.w3.org/2000/svg">
  <path d="M4.75 34.834h28.5" stroke="currentColor" stroke-width="1.5" stroke-linecap="round" stroke-linejoin="round"/>
  <path d="M4.75 17.417c0-1.493 0-2.24.464-2.703.463-.464 1.21-.464 2.703-.464 1.492 0 2.239 0 2.703.464.463.463.463 1.21.463 2.703v9.5c0 1.492 0 2.239-.463 2.703-.464.463-1.21.463-2.703.463-1.493 0-2.24 0-2.703-.463-.464-.464-.464-1.21-.464-2.703v-9.5Zm11.083-6.334c0-1.493 0-2.24.464-2.703.463-.464 1.21-.464 2.703-.464 1.492 0 2.239 0 2.703.464.463.464.463 1.21.463 2.703v15.833c0 1.493 0 2.24-.463 2.703-.464.464-1.21.464-2.703.464-1.493 0-2.24 0-2.703-.464-.464-.464-.464-1.21-.464-2.703V11.083Zm11.084-4.75c0-1.493 0-2.24.464-2.703.463-.464 1.21-.464 2.703-.464 1.492 0 2.239 0 2.703.464.463.464.463 1.21.463 2.703v20.583c0 1.493 0 2.24-.463 2.703-.464.464-1.21.464-2.703.464-1.493 0-2.24 0-2.703-.464-.464-.464-.464-1.21-.464-2.703V6.333Z" stroke="currentColor" stroke-width="1.5"/>
</svg>
