<svg viewBox="0 0 18 18" fill="none" xmlns="http://www.w3.org/2000/svg">
    <path d="M10.9422 2.57246C11.0379 2.256 11.3732 2.07477 11.6808 2.19609C13.1364 2.77016 14.3751 3.79865 15.2073 5.13625C16.1453 6.64392 16.5028 8.4413 16.2131 10.193C15.9234 11.9447 15.0063 13.531 13.633 14.6559C12.2596 15.7808 10.5238 16.3675 8.74949 16.3064C6.97516 16.2454 5.28353 15.5408 3.99026 14.3241C2.697 13.1074 1.89047 11.4618 1.72117 9.69429C1.55187 7.92681 2.03137 6.15823 3.0702 4.71859C3.99184 3.44134 5.29787 2.50042 6.78928 2.02776C7.10444 1.92788 7.42658 2.13172 7.50041 2.45401C7.57423 2.77628 7.37151 3.09451 7.05802 3.19942C5.8496 3.60382 4.7925 4.37788 4.04101 5.41933C3.17227 6.62326 2.77128 8.10227 2.91286 9.58036C3.05444 11.0584 3.72891 12.4346 4.81043 13.4521C5.89194 14.4696 7.3066 15.0588 8.79042 15.1099C10.2742 15.1609 11.7258 14.6703 12.8743 13.7296C14.0228 12.7889 14.7898 11.4623 15.032 9.9974C15.2743 8.53252 14.9753 7.02943 14.1908 5.76861C13.5123 4.67795 12.5106 3.83304 11.3326 3.34651C11.027 3.2203 10.8465 2.88889 10.9422 2.57246Z" fill="currentColor"/>
    <rect x="8.18164" y="1.63672" width="1.63636" height="8.18182" rx="0.818182" fill="currentColor"/>
</svg>