<svg viewBox="0 0 22 22" fill="none" xmlns="http://www.w3.org/2000/svg">
    <path d="M2.75 9.54828C2.75 6.61716 2.75 5.1516 3.09606 4.65855C3.44211 4.1655 4.82013 3.6938 7.57617 2.7504L8.10125 2.57066C9.5379 2.07889 10.2562 1.83301 11 1.83301C11.7438 1.83301 12.4621 2.07889 13.8988 2.57067L14.4238 2.7504C17.1799 3.6938 18.5579 4.1655 18.9039 4.65855C19.25 5.1516 19.25 6.61716 19.25 9.54828C19.25 9.99102 19.25 10.4711 19.25 10.9918C19.25 16.16 15.3643 18.668 12.9263 19.733C12.265 20.0219 11.9343 20.1663 11 20.1663C10.0657 20.1663 9.73501 20.0219 9.07368 19.733C6.63571 18.668 2.75 16.16 2.75 10.9918C2.75 10.4711 2.75 9.99102 2.75 9.54828Z" stroke="currentColor" stroke-width="1.5"/>
    <path fill-rule="evenodd" clip-rule="evenodd" d="M8.17442 8.87093V8.32558C8.17442 6.76506 9.43947 5.5 11 5.5C12.5605 5.5 13.8256 6.76506 13.8256 8.32558V8.87093C13.9205 8.8776 14.01 8.88629 14.0942 8.89761C14.471 8.94827 14.7883 9.05665 15.0402 9.30861C15.2922 9.56058 15.4006 9.87783 15.4512 10.2546C15.5 10.6175 15.5 11.079 15.5 11.6514V11.6974C15.5 12.2699 15.5 12.7313 15.4512 13.0942C15.4006 13.471 15.2922 13.7883 15.0402 14.0402C14.7883 14.2922 14.471 14.4006 14.0942 14.4512C13.7313 14.5 13.2699 14.5 12.6974 14.5H9.30261C8.73013 14.5 8.2687 14.5 7.90578 14.4512C7.52899 14.4006 7.21174 14.2922 6.95977 14.0402C6.70781 13.7883 6.59944 13.471 6.54878 13.0942C6.49998 12.7313 6.49999 12.2699 6.5 11.6974V11.6514C6.49999 11.079 6.49998 10.6175 6.54878 10.2546C6.59944 9.87783 6.70781 9.56058 6.95977 9.30861C7.21174 9.05665 7.52899 8.94827 7.90578 8.89761C7.98997 8.88629 8.07947 8.8776 8.17442 8.87093ZM8.80233 8.32558C8.80233 7.11184 9.78626 6.12791 11 6.12791C12.2137 6.12791 13.1977 7.11184 13.1977 8.32558V8.85028C13.0413 8.84883 12.8747 8.84883 12.6974 8.84884H9.30261C9.12532 8.84883 8.95869 8.84883 8.80233 8.85028V8.32558ZM7.40377 9.75261C7.51963 9.63675 7.68228 9.56122 7.98945 9.51992C8.30564 9.47741 8.72471 9.47674 9.32558 9.47674H12.6744C13.2753 9.47674 13.6944 9.47741 14.0106 9.51992C14.3177 9.56122 14.4804 9.63675 14.5962 9.75261C14.7121 9.86846 14.7876 10.0311 14.8289 10.3383C14.8714 10.6545 14.8721 11.0735 14.8721 11.6744C14.8721 12.2753 14.8714 12.6944 14.8289 13.0106C14.7876 13.3177 14.7121 13.4804 14.5962 13.5962C14.4804 13.7121 14.3177 13.7876 14.0106 13.8289C13.6944 13.8714 13.2753 13.8721 12.6744 13.8721H9.32558C8.72471 13.8721 8.30564 13.8714 7.98945 13.8289C7.68228 13.7876 7.51963 13.7121 7.40377 13.5962C7.28792 13.4804 7.21238 13.3177 7.17109 13.0106C7.12857 12.6944 7.12791 12.2753 7.12791 11.6744C7.12791 11.0735 7.12857 10.6545 7.17109 10.3383C7.21238 10.0311 7.28792 9.86846 7.40377 9.75261Z" fill="currentColor" stroke="currentColor" stroke-width="0.7" stroke-linecap="round"/>
</svg>