<svg viewBox="0 0 24 24" fill="none" xmlns="http://www.w3.org/2000/svg">
    <path d="M13.251 17.121h1.772c.398 0 .477.087.477.495 0 .476.006.958 0 1.434 0 .148.043.204.195.197.434-.006.868-.006 1.302 0 .33 0 .434.112.434.452v3.103h3.93c.085 0 .17 0 .25.012.196.037.3.16.294.352-.007.198-.117.316-.318.328-.067.006-.135.006-.208.006H2.532c-.074 0-.153 0-.226-.006-.202-.019-.306-.142-.306-.334 0-.198.098-.321.293-.346.086-.012.165-.012.25-.012h3.863v-3.079c0-.34.104-.445.434-.445.49-.006.972 0 1.48 0 .005-.092.011-.167.011-.24v-1.484c0-.278.11-.396.391-.396.544-.006 1.082-.012 1.626 0 .208.006.269-.056.269-.272-.012-1.174-.006-2.342-.006-3.517 0-.13-.006-.229-.165-.284-1.632-.557-2.8-1.682-3.673-3.14-.25-.42-.55-.73-.953-1.002C4.04 7.75 3.094 6.044 2.892 3.906c-.036-.334-.036-.68-.036-1.032 0-.31.11-.42.41-.42.519-.007 1.038 0 1.551 0h.257c.018-.384.03-.743.049-1.107.006-.105.006-.217.012-.322C5.172.58 5.257.5 5.703.5h12.443c.446 0 .544.093.562.556.019.452.043.909.062 1.397h.488c.44 0 .887-.006 1.327 0 .25.006.36.105.366.34.08 2.213-.63 4.104-2.28 5.594-.323.29-.702.513-1.05.779a1.197 1.197 0 0 0-.33.352c-.715 1.317-1.65 2.423-2.983 3.14-.293.161-.617.26-.923.402-.079.037-.17.142-.17.216-.013 1.249-.007 2.498-.007 3.746.025.025.03.05.043.1Zm-.678-.012V13.35c0-.557.159-.785.678-.952.831-.272 1.54-.73 2.163-1.342 1.07-1.057 1.73-2.348 2.164-3.776.556-1.824.642-3.697.525-5.588-.012-.16-.024-.321-.03-.476H5.82c-.062 1.125-.11 2.231 0 3.344.152 1.638.55 3.202 1.338 4.648.819 1.502 1.937 2.683 3.612 3.22.385.124.593.452.599.866v3.821c.403-.006.782-.006 1.204-.006Zm4.186 2.855H7.17v2.819h9.589v-2.819Zm-7.688-.71h5.726v-1.385H9.071v1.385Zm9.772-16.096c-.012 1.7-.257 3.344-.85 4.976 1.7-1.243 2.457-3.443 2.335-4.976h-1.485ZM3.57 3.164c-.245 1.52 1.124 4.401 2.322 4.89-.575-1.577-.819-3.209-.837-4.89H3.57Z" fill="currentColor"/>
    <path d="M9.75 9.269c.097-.581.195-1.206.31-1.824.025-.154.007-.253-.11-.365-.433-.408-.86-.828-1.295-1.236-.128-.117-.208-.26-.128-.402a.548.548 0 0 1 .324-.234c.58-.112 1.173-.198 1.76-.279.159-.018.238-.092.3-.228.25-.526.513-1.051.757-1.576.074-.155.171-.254.349-.254.177 0 .274.093.348.247.25.532.52 1.063.77 1.601.061.136.14.192.287.21.587.08 1.173.167 1.76.279.122.024.293.13.318.228.03.118-.037.31-.128.402-.416.427-.85.84-1.29 1.249a.331.331 0 0 0-.116.34c.104.574.202 1.15.3 1.73.03.167.06.346-.11.464-.172.117-.337.086-.514-.019-.446-.265-.904-.513-1.344-.785-.165-.105-.294-.092-.459 0a48.23 48.23 0 0 1-1.534.822c-.287.149-.568-.012-.556-.37Zm3.782-.557c-.061-.364-.08-.686-.177-.983-.171-.525-.037-.914.391-1.248.244-.192.44-.458.666-.699-.422-.061-.837-.136-1.253-.166-.3-.025-.482-.136-.605-.42-.165-.396-.373-.767-.574-1.181-.208.426-.41.803-.587 1.199-.116.253-.287.37-.556.402-.428.043-.856.117-1.32.179.073.08.122.136.177.185.275.266.544.538.825.804.16.148.22.309.171.538-.098.45-.165.908-.25 1.403.464-.241.892-.458 1.314-.68a.511.511 0 0 1 .537.006c.392.21.789.42 1.241.661Z" fill="currentColor"/>
</svg>
