<svg viewBox="0 0 18 18" fill="none" xmlns="http://www.w3.org/2000/svg">
    <path d="M2.75986 8.5H2.25986H2.75986ZM2.75986 9.75L2.4077 10.1049C2.60264 10.2984 2.91708 10.2984 3.11202 10.1049L2.75986 9.75ZM4.37188 8.85494C4.56791 8.66045 4.56915 8.34387 4.37466 8.14784C4.18016 7.95181 3.86358 7.95057 3.66756 8.14506L4.37188 8.85494ZM1.85216 8.14506C1.65613 7.95057 1.33955 7.95181 1.14506 8.14784C0.950567 8.34387 0.95181 8.66045 1.14784 8.85494L1.85216 8.14506ZM14.0149 5.51186C14.1595 5.7471 14.4675 5.82057 14.7027 5.67595C14.938 5.53132 15.0114 5.22338 14.8668 4.98814L14.0149 5.51186ZM9.05915 1.75C5.30772 1.75 2.25986 4.76838 2.25986 8.5H3.25986C3.25986 5.32806 5.85258 2.75 9.05915 2.75V1.75ZM2.25986 8.5L2.25986 9.75H3.25986L3.25986 8.5L2.25986 8.5ZM3.11202 10.1049L4.37188 8.85494L3.66756 8.14506L2.4077 9.39506L3.11202 10.1049ZM3.11202 9.39506L1.85216 8.14506L1.14784 8.85494L2.4077 10.1049L3.11202 9.39506ZM14.8668 4.98814C13.673 3.0463 11.518 1.75 9.05915 1.75V2.75C11.1588 2.75 12.9968 3.85574 14.0149 5.51186L14.8668 4.98814Z" fill="currentColor" />
    <path d="M15.2354 8.25L15.5869 7.89439C15.3921 7.70187 15.0787 7.70187 14.8839 7.89439L15.2354 8.25ZM13.6193 9.14439C13.4229 9.33851 13.421 9.65509 13.6151 9.85148C13.8093 10.0479 14.1258 10.0497 14.3222 9.85561L13.6193 9.14439ZM16.1486 9.85561C16.345 10.0497 16.6616 10.0479 16.8557 9.85148C17.0498 9.65509 17.048 9.33851 16.8516 9.14439L16.1486 9.85561ZM3.93526 12.4874C3.79024 12.2524 3.48218 12.1795 3.24718 12.3245C3.01218 12.4695 2.93925 12.7776 3.08427 13.0126L3.93526 12.4874ZM8.91205 16.25C12.675 16.25 15.7354 13.2334 15.7354 9.5H14.7354C14.7354 12.6702 12.1337 15.25 8.91205 15.25V16.25ZM15.7354 9.5V8.25H14.7354V9.5H15.7354ZM14.8839 7.89439L13.6193 9.14439L14.3222 9.85561L15.5869 8.60561L14.8839 7.89439ZM14.8839 8.60561L16.1486 9.85561L16.8516 9.14439L15.5869 7.89439L14.8839 8.60561ZM3.08427 13.0126C4.2827 14.9545 6.44537 16.25 8.91205 16.25V15.25C6.80283 15.25 4.95722 14.1434 3.93526 12.4874L3.08427 13.0126Z" fill="currentColor" />
</svg>