<svg viewBox="0 0 24 24" fill="none" xmlns="http://www.w3.org/2000/svg">
  <path d="m18.782 5.428-.127-1.366c-.02-.22-.051-.443-.064-.663-.012-.228.13-.391.333-.399.19-.007.34.136.363.356.091.937.182 1.874.269 2.808.033.366-.117.499-.488.464-.934-.09-1.867-.176-2.801-.266-.26-.025-.401-.168-.383-.373.017-.213.2-.336.461-.31.584.054 1.17.112 1.812.172-.091-.078-.134-.12-.182-.155-3.277-2.448-8.048-2.277-11.144.383-2.289 1.969-3.281 4.47-3.073 7.423.32 4.526 3.84 7.37 7.177 7.958 3.4.601 6.25-.516 8.542-3.023 1.165-1.275 1.842-2.796 2.063-4.502.19-1.458-.012-2.878-.52-4.256-.122-.328-.069-.526.15-.601.223-.076.388.035.51.368 1.215 3.344.66 6.423-1.497 9.216-1.386 1.799-3.226 2.979-5.482 3.43-3.091.618-5.878-.058-8.291-2.087-1.644-1.38-2.748-3.111-3.193-5.208-.804-3.803.625-7.754 4.269-10.01 1.842-1.143 3.86-1.649 6.032-1.486 1.87.14 3.54.807 5.02 1.944.066.052.134.1.244.183Z" fill="currentColor"/>
  <path d="m18.78 5.428-.18.24.543.41-.064-.678-.298.028Zm.506-2.072.298-.029v-.002l-.298.031Zm-1.13 2.495-.027.299.946.089-.724-.616-.194.228Zm-.182-.155-.18.24.003.003.177-.243Zm3.195 3.382-.096-.284h-.002l.098.284Zm-2.632-3.833.187-.235-.004-.003-.183.238Zm.543.155-.127-1.365-.598.055.127 1.366.598-.056Zm-.127-1.365c-.023-.24-.05-.438-.063-.653l-.6.034c.014.225.047.474.065.674l.598-.055Zm-.063-.653c-.003-.048.011-.067.015-.071a.023.023 0 0 1 .008-.006.054.054 0 0 1 .021-.005l-.022-.6a.633.633 0 0 0-.465.223.695.695 0 0 0-.156.493l.599-.034Zm.044-.082a.04.04 0 0 1 .015.002c.002 0 .005.002.009.006.007.007.024.029.03.08l.596-.063c-.036-.345-.293-.64-.672-.624l.022.6Zm.053.085c.092.937.183 1.874.27 2.807l.597-.055c-.087-.935-.178-1.873-.27-2.81l-.597.058Zm.27 2.807a.433.433 0 0 1-.004.134c-.004.018-.006.012.005.001.01-.009.012-.004-.013 0a.538.538 0 0 1-.15.002l-.056.597c.206.02.45.006.628-.16.184-.172.206-.418.187-.629l-.598.055Zm-.161.137-1.401-.133a316.13 316.13 0 0 1-1.4-.132l-.058.597 1.402.133 1.4.132.057-.597Zm-2.801-.265c-.084-.008-.112-.032-.114-.035v.003-.017l-.597-.052a.606.606 0 0 0 .176.494.775.775 0 0 0 .477.204l.058-.597Zm-.114-.05.003-.013.001-.004.005-.003c.008-.006.045-.025.126-.017l.057-.597a.787.787 0 0 0-.518.116.614.614 0 0 0-.271.467l.598.052Zm.135-.037c.58.055 1.172.113 1.813.173l.055-.597c-.643-.06-1.224-.118-1.81-.173l-.058.597Zm2.035-.354c-.07-.06-.141-.126-.2-.17l-.354.486c.037.026.052.045.165.14l.389-.456Zm-.198-.167C14.764 2.924 9.837 3.1 6.635 5.852l.39.455c2.99-2.57 7.606-2.734 10.77-.37l.358-.481Zm-11.518.396c-2.363 2.032-3.392 4.626-3.177 7.67l.598-.041c-.201-2.862.755-5.269 2.97-7.174l-.391-.455Zm-3.177 7.67c.331 4.688 3.975 7.626 7.424 8.234l.104-.591c-3.226-.569-6.621-3.318-6.93-7.684l-.598.042Zm7.424 8.234c3.51.62 6.461-.54 8.816-3.117l-.443-.404c-2.23 2.438-4.979 3.512-8.269 2.93l-.104.59Zm8.816-3.117c1.208-1.323 1.91-2.901 2.139-4.665l-.595-.078c-.213 1.648-.866 3.111-1.987 4.338l.443.405Zm2.139-4.665c.197-1.512-.014-2.981-.536-4.399l-.563.208c.493 1.338.687 2.71.504 4.113l.595.078ZM21.3 9.575a.75.75 0 0 1-.043-.157.172.172 0 0 1 0-.06l-.008.01c-.005.005-.003 0 .017-.007l-.196-.567a.586.586 0 0 0-.395.416c-.048.186-.008.386.062.573l.563-.208Zm-.036-.213c.024-.008.033-.006.03-.007l-.007-.001c.011.007.056.05.11.195l.563-.205c-.069-.189-.168-.368-.326-.48a.607.607 0 0 0-.562-.07l.192.568Zm.132.187c1.179 3.243.645 6.214-1.453 8.93l.475.367c2.217-2.87 2.794-6.057 1.542-9.502l-.564.205Zm-1.453 8.93c-1.343 1.743-3.12 2.882-5.303 3.319l.118.588c2.33-.466 4.232-1.686 5.66-3.54l-.475-.367Zm-5.303 3.319c-3.004.6-5.697-.054-8.039-2.023l-.386.46c2.485 2.09 5.365 2.787 8.543 2.15l-.118-.588Zm-8.039-2.023c-1.598-1.34-2.663-3.015-3.092-5.04l-.587.124c.46 2.168 1.602 3.956 3.293 5.376l.386-.46Zm-3.092-5.04c-.78-3.687.603-7.507 4.133-9.693l-.316-.51C3.57 6.859 2.094 10.94 2.923 14.859l.587-.124Zm4.133-9.693c1.79-1.11 3.744-1.6 5.852-1.442l.045-.598c-2.237-.168-4.317.354-6.213 1.53l.316.51ZM13.495 3.6c1.81.136 3.424.78 4.86 1.883l.365-.476c-1.524-1.17-3.249-1.86-5.18-2.005l-.045.598Zm4.855 1.88c.068.054.154.115.25.187l.362-.478c-.123-.093-.174-.127-.238-.179l-.374.47Zm-5.124 2.968c1.177.362 1.882 1.08 2.029 2.247.055.437-.137.725-.5.762-.38.04-.601-.165-.67-.622-.122-.825-.694-1.323-1.5-1.303-.734.018-1.314.543-1.392 1.263-.09.795.571 1.46 1.486 1.497 1.158.048 2.11.713 2.455 1.718.438 1.262-.238 2.637-1.533 3.124-.113.043-.23.078-.375.125 0 .275.008.555-.002.835-.01.383-.255.62-.608.61-.338-.01-.561-.24-.572-.61-.007-.27-.002-.54-.002-.835-.118-.04-.23-.072-.34-.115-1.041-.417-1.61-1.164-1.699-2.234-.031-.368.18-.623.514-.658.364-.037.631.158.652.553.055.942.917 1.557 1.845 1.327.687-.17 1.143-.813 1.061-1.465-.089-.715-.647-1.217-1.41-1.247-1.186-.048-2.043-.568-2.484-1.628-.532-1.275.15-2.717 1.486-3.222.113-.042.23-.077.377-.122 0-.275-.005-.555.003-.835.01-.385.252-.62.605-.613.339.01.561.24.572.61.01.273.002.543.002.838Z" fill="currentColor"/>
</svg>
