<svg viewBox="0 0 22 22" fill="none" xmlns="http://www.w3.org/2000/svg">
    <path d="M14.6667 3.66797C16.6604 3.67907 17.7402 3.76748 18.4445 4.47183C19.25 5.27729 19.25 6.57365 19.25 9.16638V14.6664C19.25 17.2591 19.25 18.5555 18.4445 19.3609C17.6391 20.1664 16.3427 20.1664 13.75 20.1664H8.25C5.65728 20.1664 4.36091 20.1664 3.55546 19.3609C2.75 18.5555 2.75 17.2591 2.75 14.6664V9.16638C2.75 6.57365 2.75 5.27729 3.55546 4.47183C4.25981 3.76748 5.33956 3.67907 7.33333 3.66797" stroke="currentColor" stroke-width="1.5"/>
    <path d="M7.33301 12.833H14.6663" stroke="currentColor" stroke-width="1.5" stroke-linecap="round"/>
    <path d="M6.41699 9.625H15.5837" stroke="currentColor" stroke-width="1.5" stroke-linecap="round"/>
    <path d="M8.25 16.042H13.75" stroke="currentColor" stroke-width="1.5" stroke-linecap="round"/>
    <path d="M7.33301 3.20801C7.33301 2.44862 7.94862 1.83301 8.70801 1.83301H13.2913C14.0507 1.83301 14.6663 2.44862 14.6663 3.20801V4.12467C14.6663 4.88407 14.0507 5.49967 13.2913 5.49967H8.70801C7.94862 5.49967 7.33301 4.88407 7.33301 4.12467V3.20801Z" stroke="currentColor" stroke-width="1.5"/>
</svg>