<svg viewBox="0 0 24 24" fill="none" xmlns="http://www.w3.org/2000/svg">
    <path d="M4.17127 20.0101C4.1584 19.3494 4.14811 18.7247 4.19185 18.0922C4.3797 15.3696 6.7419 12.9376 9.45662 12.6702C10.1745 12.5982 10.9131 12.6008 11.6284 12.6008C11.8651 12.6008 12.107 12.6008 12.3463 12.5982C13.9005 12.5828 15.3621 11.9066 16.3605 10.7394C16.8391 10.179 17.1891 9.53883 17.3975 8.83697C17.6162 8.10684 17.6677 7.34585 17.5545 6.57972C17.4001 5.53079 17.0218 4.63355 16.4326 3.91883C15.8407 3.19898 15.0328 2.66166 14.0343 2.31973C12.017 1.63073 10.1462 2.06007 8.62291 3.56148C7.87153 4.30447 7.38005 5.14258 7.16133 6.05783C6.94775 6.95764 6.99664 7.93459 7.31057 8.96038C7.61679 9.97074 8.22663 10.8191 9.16843 11.5518C9.16585 11.5518 9.16328 11.5518 9.16071 11.5544C9.08094 11.5698 9.02433 11.5801 8.96772 11.5904C7.42379 11.8604 5.97766 12.6676 4.89176 13.8682C3.80073 15.0688 3.14713 16.5882 3.04678 18.1462C2.99274 18.992 2.99789 19.8559 3.00304 20.6888C3.00561 21.0539 3.00818 21.4318 3.00304 21.802C3.00304 21.8406 3.01847 21.8766 3.02877 21.9049C3.03391 21.9152 3.03649 21.9229 3.03906 21.9332L3.0545 21.9769H12.3643V20.8559H4.18156C4.18156 20.5706 4.17641 20.2852 4.17127 20.0101ZM8.17517 7.34585C8.17002 5.06803 10.0073 3.20412 12.2717 3.19127C12.2794 3.19127 12.2871 3.19127 12.2949 3.19127C13.4116 3.19127 14.4589 3.61804 15.2438 4.39702C16.026 5.17344 16.4583 6.20951 16.4609 7.315C16.4635 8.41534 16.0337 9.45399 15.2489 10.2381C14.4641 11.0222 13.4245 11.4542 12.3155 11.4567C12.3129 11.4567 12.3103 11.4567 12.3077 11.4567C10.0356 11.4593 8.18289 9.61596 8.17517 7.34585Z" fill="currentColor" />
    <path d="M20.5961 14.1556C19.7186 13.2815 18.5607 12.8008 17.3307 12.8008C17.3204 12.8008 17.3127 12.8008 17.3024 12.8008C16.0878 12.8085 14.9428 13.2918 14.0782 14.1634C13.2136 15.0349 12.7401 16.1841 12.7427 17.3976C12.7453 18.6393 13.2239 19.7988 14.0885 20.6626C14.9505 21.5239 16.1084 21.9995 17.3461 21.9995H17.3487C18.5761 21.9995 19.7289 21.5239 20.5961 20.66C21.4633 19.7962 21.9419 18.6444 21.9496 17.4156C21.9522 16.1892 21.4736 15.0323 20.5961 14.1556ZM20.8097 17.4413C20.7891 19.3309 19.24 20.8606 17.3487 20.8606C17.3436 20.8606 17.3384 20.8606 17.3333 20.8606C16.3941 20.8554 15.5192 20.4929 14.8707 19.8373C14.2223 19.1818 13.8697 18.3051 13.8775 17.3693C13.8852 16.4438 14.2557 15.5722 14.9248 14.9192C15.5809 14.2765 16.4404 13.9268 17.341 13.9371C19.276 13.9603 20.8303 15.5311 20.8097 17.4413Z" fill="currentColor" />
    <path d="M17.2018 15.5059L16.2651 16.0072L16.4633 16.7939L16.9856 16.5111V19.3185H17.8657V15.5059H17.2018Z" fill="currentColor" />
</svg>