<svg viewBox="0 0 22 22" fill="none" xmlns="http://www.w3.org/2000/svg">
    <path d="M2.75 9.54828C2.75 6.61716 2.75 5.1516 3.09606 4.65855C3.44211 4.1655 4.82013 3.6938 7.57617 2.7504L8.10125 2.57066C9.5379 2.07889 10.2562 1.83301 11 1.83301C11.7438 1.83301 12.4621 2.07889 13.8988 2.57067L14.4238 2.7504C17.1799 3.6938 18.5579 4.1655 18.9039 4.65855C19.25 5.1516 19.25 6.61716 19.25 9.54828C19.25 9.99102 19.25 10.4711 19.25 10.9918C19.25 16.16 15.3643 18.668 12.9263 19.733C12.265 20.0219 11.9343 20.1663 11 20.1663C10.0657 20.1663 9.73501 20.0219 9.07368 19.733C6.63571 18.668 2.75 16.16 2.75 10.9918C2.75 10.4711 2.75 9.99102 2.75 9.54828Z" stroke="currentColor" stroke-width="1.5"/>
    <path d="M8.70801 11.367L10.0175 12.8337L13.2913 9.16699" stroke="currentColor" stroke-width="1.5" stroke-linecap="round" stroke-linejoin="round"/>
</svg>