<svg viewBox="0 0 24 24" fill="none" xmlns="http://www.w3.org/2000/svg">
    <path d="M21.492 22c-4.15-.005-8.22-.005-12.002-.005H2.7c-.409 0-.473-.07-.473-.483v-5.41c0-.384.074-.459.458-.459h3.358V9.455l-.419.185c-.054.025-.104.045-.154.07-.1.044-.184.084-.27.114a.347.347 0 0 1-.124.025c-.154 0-.274-.115-.294-.274-.015-.135.07-.244.25-.324.891-.403 1.778-.807 2.67-1.216l1.106-.503 3.004-1.365v-1.27c0-.713.005-1.445-.005-2.172-.005-.3.075-.419.214-.499h2.726c.174.09.239.22.214.449-.01.104-.01.204-.005.304v.189c-.01.18-.12.289-.3.294-.074 0-.159.005-.263.005h-1.898l-.06.22c0 .009-.005.014-.005.019a.345.345 0 0 0-.025.13v.348c0 .553-.005 1.121.005 1.684.005.195.16.369.309.439.344.164.697.323 1.041.478.115.05.224.1.339.154l1.31.598c1.266.578 2.536 1.151 3.801 1.729.155.07.284.214.2.404a.279.279 0 0 1-.264.179.488.488 0 0 1-.18-.04c-.08-.035-.154-.07-.239-.105a3.24 3.24 0 0 0-.13-.06l-.418-.189v6.198h2.152c.469 0 .852 0 1.206-.005h.015c.274 0 .379.085.448.23v5.913c-.084.13-.204.21-.508.21Zm-9.426-4.434h1.849c.323 0 .408.085.408.404v3.422h3.224l.014-.284c0-.02 0-.044.005-.064.005-.05.005-.1.005-.15v-2.301c0-2.96 0-6.024.005-9.033 0-.27-.114-.443-.358-.553a944.35 944.35 0 0 1-4.823-2.192.629.629 0 0 0-.563.005C9.91 7.697 8.43 8.374 7.024 9.002c-.249.115-.368.294-.368.568.005 3.198.005 6.447.005 9.59v2.237h3.238V17.97c0-.304.09-.394.399-.394.588-.01 1.18-.01 1.768-.01Zm6.108 3.826h3.214v-5.141h-3.214v5.141Zm-15.34-.005h3.204v-5.136H2.834v5.136Zm7.673 0h3.208v-3.213h-3.208v3.213Z"/>
    <path d="M21.492 22c-4.15-.005-8.22-.005-12.002-.005H2.7c-.409 0-.473-.07-.473-.483v-5.41c0-.384.074-.459.458-.459h3.358V9.455l-.419.185c-.054.025-.104.045-.154.07-.1.044-.184.084-.27.114a.347.347 0 0 1-.124.025c-.154 0-.274-.115-.294-.274-.015-.135.07-.244.25-.324.891-.403 1.778-.807 2.67-1.216l1.106-.503 3.004-1.365v-1.27c0-.713.005-1.445-.005-2.172-.005-.3.075-.419.214-.499h2.726c.174.09.239.22.214.449-.01.104-.01.204-.005.304v.189c-.01.18-.12.289-.3.294-.074 0-.159.005-.263.005h-1.898l-.06.22c0 .009-.005.014-.005.019a.345.345 0 0 0-.025.13v.348c0 .553-.005 1.121.005 1.684.005.195.16.369.309.439.344.164.697.323 1.041.478.115.05.224.1.339.154l1.31.598c1.266.578 2.536 1.151 3.801 1.729.155.07.284.214.2.404a.279.279 0 0 1-.264.179.488.488 0 0 1-.18-.04c-.08-.035-.154-.07-.239-.105a3.24 3.24 0 0 0-.13-.06l-.418-.189v6.198h2.152c.469 0 .852 0 1.206-.005h.015c.274 0 .379.085.448.23v5.913c-.084.13-.204.21-.508.21Zm-9.426-4.434h1.849c.323 0 .408.085.408.404v3.422h3.224l.014-.284c0-.02 0-.044.005-.064.005-.05.005-.1.005-.15v-2.301c0-2.96 0-6.024.005-9.033 0-.27-.114-.443-.358-.553a944.35 944.35 0 0 1-4.823-2.192.629.629 0 0 0-.563.005C9.91 7.697 8.43 8.374 7.024 9.002c-.249.115-.368.294-.368.568.005 3.198.005 6.447.005 9.59v2.237h3.238V17.97c0-.304.09-.394.399-.394.588-.01 1.18-.01 1.768-.01Zm6.108 3.826h3.214v-5.141h-3.214v5.141Zm-15.34-.005h3.204v-5.136H2.834v5.136Zm7.673 0h3.208v-3.213h-3.208v3.213Z" fill="currentColor"/>
    <path d="M21.492 22v.3-.3Zm-15.45-6.357v.3h.3v-.3h-.3Zm0-6.188h.3v-.46l-.42.186.12.274Zm-.418.185-.12-.275-.004.002.124.273Zm-.154.07.123.273.011-.005-.134-.269Zm-.27.114-.099-.283-.005.002.105.281Zm-.418-.25-.298.034v.004l.298-.037Zm.25-.323.121.274h.002l-.124-.274Zm2.67-1.216-.124-.273h-.001l.125.273Zm1.106-.503-.124-.273.124.273Zm3.004-1.365.124.273.176-.08v-.193h-.3Zm-.005-3.442.3-.005-.3.005Zm.214-.499v-.3h-.08l-.069.04.15.26Zm2.726 0 .137-.266-.065-.034h-.072v.3Zm.214.449-.299-.033v.004l.299.029Zm-.005.304h.3v-.015l-.3.015Zm0 .189.3.017v-.017h-.3Zm-.3.294v.3h.01l-.01-.3Zm-2.161.005v-.3h-.23l-.06.22.29.08Zm-.06.22-.29-.08-.01.039v.04h.3Zm-.005.019.278.111.022-.053v-.058h-.3Zm-.02 2.162-.3.006v.002l.3-.008Zm.309.439.13-.271-.003-.001-.127.272Zm1.041.478-.123.274.003.001.12-.275Zm.339.154-.13.271.005.002.125-.273Zm1.31.598.125-.273-.125.273Zm3.801 1.729-.124.273h.001l.123-.273Zm.2.404-.274-.123-.001.003.275.12Zm-.444.14-.12.274.005.002.115-.277Zm-.239-.106-.134.269.01.005.01.004.114-.278Zm-.13-.06-.123.274h.002l.122-.273Zm-.418-.189.124-.273-.424-.192v.465h.3Zm0 6.198h-.3v.3h.3v-.3Zm3.358-.005v-.3h-.004l.004.3Zm.463.23h.3v-.07l-.03-.061-.27.13Zm0 5.913.252.164.049-.075v-.089H22Zm-7.677-.399h-.3v.3h.3v-.3Zm3.224 0v.3h.284l.015-.284-.3-.016Zm.014-.284.3.016v-.016h-.3Zm.005-.064.292.072.005-.02.002-.022-.299-.03Zm.01-11.484h.3-.3Zm-.358-.553-.124.273.124-.273Zm-4.823-2.192-.128.271.003.002.125-.273Zm-.563.005.124.273.005-.002-.129-.271ZM7.024 9.002l-.122-.274-.003.001.125.273Zm-.368.568h-.3.3Zm.005 11.827h-.3v.3h.3v-.3Zm3.238 0v.3h.3v-.3h-.3Zm.399-3.82v.3h.005l-.005-.3Zm7.876 3.815h-.3v.3h.3v-.3Zm3.214 0v.3h.3v-.3h-.3Zm0-5.141h.3v-.3h-.3v.3Zm-3.214 0v-.3h-.3v.3h.3Zm-15.34 5.136h-.3v.3h.3v-.3Zm3.204 0v.3h.3v-.3h-.3Zm0-5.136h.3v-.3h-.3v.3Zm-3.204 0v-.3h-.3v.3h.3Zm7.673 5.136h-.3v.3h.3v-.3Zm3.208 0v.3h.3v-.3h-.3Zm0-3.213h.3v-.3h-.3v.3Zm-3.208 0v-.3h-.3v.3h.3ZM21.493 21.7c-4.15-.005-8.221-.005-12.003-.005v.6c3.782 0 7.852 0 12.002.005v-.6ZM9.49 21.695H2.7v.6h6.79v-.6Zm-6.79 0a.992.992 0 0 1-.186-.011c-.03-.006-.012-.008.011.015.022.023.019.039.013.006a1.12 1.12 0 0 1-.011-.193h-.6c0 .107.003.212.021.307a.573.573 0 0 0 .147.299c.09.093.2.134.298.154.095.02.2.023.307.023v-.6Zm-.173-.183v-5.41h-.6v5.41h.6Zm0-5.41c0-.09.004-.142.01-.171.006-.026.008-.011-.013.01-.02.02-.036.019-.01.013a.89.89 0 0 1 .17-.01v-.6c-.1 0-.203.004-.295.023a.565.565 0 0 0-.29.15.566.566 0 0 0-.148.288c-.02.093-.024.195-.024.297h.6Zm.158-.159H3.87v-.6H2.685v.6Zm1.186 0h2.172v-.6H3.87v.6Zm2.472-.3V9.455h-.6v6.188h.6Zm-.421-6.462-.419.184.242.55.419-.185-.242-.55Zm-.422.186c-.037.016-.11.047-.164.074l.268.537c.045-.023.072-.032.144-.065L5.5 9.367Zm-.153.069c-.107.048-.176.08-.246.105l.2.566c.1-.035.2-.083.292-.124l-.246-.547Zm-.251.107a.127.127 0 0 1-.02.006v.6a.646.646 0 0 0 .23-.044l-.21-.562Zm-.02.006h.003a.018.018 0 0 1 .005.004c.003.002-.002 0-.004-.015l-.595.074c.036.293.27.537.591.537v-.6Zm.005-.007c0 .002 0 .01-.003.019a.048.048 0 0 1-.006.014l.004-.004a.366.366 0 0 1 .078-.046l-.244-.548a.795.795 0 0 0-.314.232.545.545 0 0 0-.112.399l.597-.066Zm.074-.018c.892-.403 1.78-.807 2.672-1.216l-.25-.545c-.891.408-1.778.811-2.67 1.215l.248.546ZM7.826 8.31l1.106-.504-.248-.546-1.106.503.248.547Zm1.106-.504 3.004-1.365-.248-.546L8.684 7.26l.248.546Zm3.18-1.638v-.413h-.6v.413h.6Zm0-.413v-.858h-.6v.857h.6Zm0-.857c0-.71.005-1.446-.005-2.177l-.6.009c.01.724.005 1.453.005 2.168h.6Zm-.005-2.177a.47.47 0 0 1 .024-.198c.004-.009.009-.018.04-.035l-.298-.521a.67.67 0 0 0-.284.298 1.032 1.032 0 0 0-.082.466l.6-.01Zm-.086-.194h2.726v-.6H12.02v.6Zm2.588-.033a.19.19 0 0 1 .043.028c.005.004.006.006.006.008.002.002.014.03.005.113l.596.065a.798.798 0 0 0-.06-.44.681.681 0 0 0-.315-.307l-.275.533Zm.053.153a2.371 2.371 0 0 0-.006.348l.6-.03a1.763 1.763 0 0 1 .003-.26l-.597-.058Zm-.006.333v.188h.6v-.19h-.6Zm0 .172c0 .017-.003.024-.004.025l.007-.01a.04.04 0 0 1 .007-.005l.004-.002s-.006.003-.021.003l.016.6c.15-.004.3-.054.416-.168a.613.613 0 0 0 .174-.41l-.599-.033Zm0 .01-.129.003a4.578 4.578 0 0 1-.134.003v.6c.057 0 .108-.002.152-.003l.112-.002v-.6Zm-.263.006h-.185v.6h.185v-.6Zm-.184 0h-.189v.6h.189v-.6Zm-.19 0h-1.524v.6h1.524v-.6Zm-1.814.22-.06.22.58.158.06-.22-.58-.157Zm-.07.3a.272.272 0 0 1 .019-.1v-.002.001l-.006.016a.316.316 0 0 0-.018.104h.6a.293.293 0 0 1-.016.096l-.005.012.002-.005a.323.323 0 0 0 .024-.123h-.6Zm.016-.092a.645.645 0 0 0-.046.24h.6a.049.049 0 0 1 .003-.018l-.557-.222Zm-.046.24v.35h.6v-.35h-.6Zm0 .35c0 .549-.005 1.122.005 1.689l.6-.011c-.01-.56-.005-1.122-.005-1.679h-.6Zm.005 1.69c.009.339.26.6.482.704l.254-.544a.28.28 0 0 1-.097-.082.171.171 0 0 1-.04-.092l-.599.015Zm.48.702c.347.166.704.327 1.047.482l.246-.548a48.04 48.04 0 0 1-1.035-.475l-.259.541Zm1.05.483c.112.049.218.097.33.15l.258-.541c-.118-.057-.23-.108-.348-.16l-.24.551Zm.334.152 1.31.598.25-.546-1.31-.598-.25.546Zm1.31.598c.634.29 1.268.577 1.902.865.634.288 1.268.575 1.9.864l.25-.546-1.902-.865c-.634-.287-1.268-.575-1.9-.864l-.25.546Zm3.803 1.73a.201.201 0 0 1 .043.025l.013.012a.052.052 0 0 1-.006-.021c-.001-.012.002-.016-.001-.009l.548.245a.555.555 0 0 0-.027-.523.72.72 0 0 0-.323-.276l-.247.546Zm.048.01-.005.009.005-.005a.037.037 0 0 1 .01-.005c.003 0 .003 0 0 0v.6a.578.578 0 0 0 .54-.36l-.55-.239Zm.01-.001a.204.204 0 0 1-.063-.017l-.231.554a.787.787 0 0 0 .295.063v-.6Zm-.058-.015c-.071-.03-.157-.07-.245-.107l-.229.555c.081.033.145.063.233.102l.24-.55Zm-.226-.098a4.102 4.102 0 0 0-.141-.065l-.244.548c.046.02.085.037.117.054l.268-.537Zm-.14-.065-.418-.189-.247.547.418.189.247-.547Zm-.842.084v6.198h.6V9.455h-.6Zm.3 6.498h.548v-.6h-.548v.6Zm.548 0h.803v-.6h-.803v.6Zm.802 0h.803v-.6h-.804v.6Zm.802 0c.468 0 .854 0 1.21-.005l-.008-.6c-.351.005-.733.005-1.202.005v.6Zm1.206-.005h.015v-.6h-.015v.6Zm.015 0c.11 0 .146.018.153.021a.017.017 0 0 1 .006.005c.003.004.01.013.02.034l.54-.261a.66.66 0 0 0-.27-.3.895.895 0 0 0-.449-.099v.6Zm.149-.07v5.913h.6v-5.914h-.6Zm.048 5.749c-.019.03-.03.038-.046.045a.53.53 0 0 1-.21.028v.6c.174 0 .328-.022.461-.083a.696.696 0 0 0 .298-.262l-.503-.328Zm-9.683-3.76h1.849v-.6h-1.849v.6Zm1.849 0c.07 0 .11.004.13.009.016.004.003.004-.016-.014-.018-.019-.02-.033-.015-.018.004.019.01.056.01.126h.6c0-.161-.016-.38-.173-.535-.156-.154-.374-.169-.536-.169v.6Zm.108.103v2.066h.6V17.97h-.6Zm0 2.067v1.355h.6v-1.355h-.6Zm.3 1.655h3.224v-.6h-3.224v.6Zm3.523-.284.015-.284-.6-.031-.014.284.6.031Zm.015-.3v-.015.005l-.003.018-.583-.145c-.015.063-.013.127-.013.137h.6Zm.004-.034c.007-.068.006-.132.006-.18h-.6c0 .053 0 .087-.003.12l.597.06Zm.006-.18v-2.301h-.6v2.301h.6Zm0-2.301c0-2.96 0-6.024.005-9.033h-.6c-.005 3.009-.005 6.073-.005 9.033h.6Zm.005-9.033a.9.9 0 0 0-.136-.5.904.904 0 0 0-.4-.327l-.245.548a.31.31 0 0 1 .142.106c.02.031.04.082.04.173h.6Zm-.535-.826a941.957 941.957 0 0 1-4.821-2.192l-.25.546c1.665.762 3.29 1.5 4.824 2.192l.247-.546Zm-4.818-2.19a.929.929 0 0 0-.402-.094v.6a.33.33 0 0 1 .146.036l.257-.542Zm-.402-.094a.945.945 0 0 0-.418.099l.258.542a.348.348 0 0 1 .16-.04v-.6Zm-.413.097c-1.924.876-3.402 1.552-4.806 2.18l.245.548c1.406-.628 2.887-1.307 4.81-2.183l-.25-.546ZM6.898 8.73a.933.933 0 0 0-.403.333.91.91 0 0 0-.14.508h.6c0-.092.02-.145.043-.18a.34.34 0 0 1 .152-.115l-.251-.546Zm-.542.841c.005 3.199.005 6.447.005 9.59h.6c0-3.143 0-6.392-.005-9.59h-.6Zm.005 9.59v2.237h.6v-2.236h-.6Zm.3 2.537h3.238v-.6H6.661v.6Zm3.538-.3v-1.37h-.6v1.37h.6Zm0-1.37V17.97h-.6v2.057h.6Zm0-2.057c0-.064.005-.098.01-.115.003-.013.002 0-.015.017s-.03.017-.015.014a.52.52 0 0 1 .119-.01v-.6c-.162 0-.373.018-.527.17-.154.152-.172.363-.172.524h.6Zm.104-.094c.585-.01 1.175-.01 1.763-.01v-.6c-.587 0-1.183 0-1.774.01l.01.6Zm7.871 3.816h3.214v-.6h-3.214v.6Zm3.514-.3v-5.141h-.6v5.141h.6Zm-.3-5.441h-3.214v.6h3.214v-.6Zm-3.514.3v5.141h.6v-5.141h-.6Zm-15.04 5.436h3.204v-.6H2.834v.6Zm3.504-.3v-5.136h-.6v5.136h.6Zm-.3-5.436H2.834v.6h3.204v-.6Zm-3.504.3v5.136h.6v-5.136h-.6Zm7.973 5.436h3.208v-.6h-3.208v.6Zm3.508-.3v-3.213h-.6v3.213h.6Zm-.3-3.513h-3.208v.6h3.208v-.6Zm-3.508.3v3.213h.6v-3.213h-.6Z" fill="currentColor"/>
    <path d="M9.7 12.103c0 .646.25 1.255.701 1.711a2.393 2.393 0 0 0 1.71.713h.004a2.415 2.415 0 0 0 2.411-2.414 2.42 2.42 0 0 0-2.4-2.413h-.01A2.417 2.417 0 0 0 9.7 12.103Zm.912.006a1.508 1.508 0 0 1 1.503-1.497c.825 0 1.5.671 1.509 1.497 0 .825-.669 1.501-1.494 1.506h-.015c-.404 0-.784-.158-1.067-.44a1.503 1.503 0 0 1-.436-1.066Z" fill="currentColor" stroke="currentColor" stroke-width=".3"/>
</svg>
