<svg viewBox="0 0 22 22" fill="none" xmlns="http://www.w3.org/2000/svg">
    <circle cx="11" cy="11" r="2.75" stroke="currentColor" stroke-width="1.5"/>
    <path d="M12.6182 1.97256C12.2813 1.83301 11.8542 1.83301 10.9999 1.83301C10.1457 1.83301 9.71861 1.83301 9.3817 1.97256C8.93248 2.15863 8.57557 2.51554 8.3895 2.96475C8.30456 3.16982 8.27132 3.4083 8.25831 3.75617C8.2392 4.26738 7.97703 4.74058 7.53399 4.99636C7.09096 5.25214 6.55008 5.24259 6.0978 5.00354C5.79003 4.84087 5.56688 4.75041 5.34682 4.72144C4.86475 4.65797 4.37721 4.78861 3.99146 5.08461C3.70214 5.30661 3.48859 5.6765 3.06147 6.41628C2.63436 7.15606 2.4208 7.52595 2.3732 7.8875C2.30974 8.36957 2.44037 8.85711 2.73637 9.24286C2.87148 9.41894 3.06135 9.56695 3.35605 9.75211C3.78927 10.0243 4.06803 10.488 4.068 10.9997C4.06797 11.5113 3.78923 11.9749 3.35604 12.2471C3.0613 12.4323 2.8714 12.5803 2.73628 12.7564C2.44028 13.1422 2.30965 13.6297 2.37311 14.1118C2.42071 14.4733 2.63427 14.8432 3.06138 15.583C3.4885 16.3228 3.70205 16.6927 3.99137 16.9147C4.37712 17.2107 4.86466 17.3413 5.34673 17.2778C5.56678 17.2489 5.78992 17.1584 6.09766 16.9958C6.54997 16.7567 7.09089 16.7472 7.53395 17.003C7.97701 17.2588 8.23919 17.732 8.25831 18.2432C8.27132 18.5911 8.30457 18.8295 8.3895 19.0346C8.57557 19.4838 8.93248 19.8407 9.3817 20.0268C9.71861 20.1663 10.1457 20.1663 10.9999 20.1663C11.8542 20.1663 12.2813 20.1663 12.6182 20.0268C13.0674 19.8407 13.4243 19.4838 13.6104 19.0346C13.6953 18.8295 13.7286 18.591 13.7416 18.2432C13.7607 17.732 14.0228 17.2588 14.4659 17.003C14.9089 16.7471 15.4498 16.7567 15.9022 16.9957C16.2099 17.1584 16.433 17.2488 16.6531 17.2778C17.1351 17.3412 17.6227 17.2106 18.0084 16.9146C18.2978 16.6926 18.5113 16.3227 18.9384 15.5829C19.3655 14.8432 19.5791 14.4733 19.6267 14.1117C19.6902 13.6296 19.5595 13.1421 19.2635 12.7564C19.1284 12.5803 18.9385 12.4323 18.6438 12.2471C18.2106 11.9749 17.9319 11.5112 17.9319 10.9996C17.9319 10.488 18.2106 10.0244 18.6438 9.75227C18.9386 9.56706 19.1285 9.41903 19.2636 9.24293C19.5596 8.85718 19.6902 8.36964 19.6268 7.88757C19.5792 7.52601 19.3656 7.15612 18.9385 6.41634C18.5114 5.67656 18.2978 5.30667 18.0085 5.08467C17.6228 4.78867 17.1352 4.65804 16.6532 4.7215C16.4331 4.75047 16.21 4.84092 15.9022 5.00357C15.4499 5.24263 14.909 5.25219 14.4659 4.99639C14.0229 4.74059 13.7607 4.26736 13.7416 3.75612C13.7286 3.40828 13.6953 3.16981 13.6104 2.96475C13.4243 2.51554 13.0674 2.15863 12.6182 1.97256Z" stroke="currentColor" stroke-width="1.5"/>
</svg>