<svg viewBox="0 0 18 18" fill="none" xmlns="http://www.w3.org/2000/svg">
    <path d="M13.9768 11.7526L15.2641 7.8906C16.3887 4.51681 16.951 2.82992 16.0605 1.93947C15.1701 1.04901 13.4832 1.61131 10.1094 2.73591L6.2474 4.02324C3.52443 4.9309 2.16294 5.38473 1.77604 6.05024C1.40799 6.68334 1.40799 7.46527 1.77604 8.09837C2.16294 8.76388 3.52443 9.21771 6.2474 10.1254C6.68462 10.2711 6.90322 10.344 7.08595 10.4663C7.26303 10.5849 7.41515 10.737 7.5337 10.9141C7.65602 11.0968 7.7289 11.3154 7.87463 11.7526C8.78229 14.4756 9.23611 15.8371 9.90162 16.224C10.5347 16.592 11.3167 16.592 11.9498 16.224C12.6153 15.8371 13.0691 14.4756 13.9768 11.7526Z" stroke="currentColor"/>
    <path d="M12.1148 6.59124C12.3112 6.39707 12.3129 6.08049 12.1188 5.88415C11.9246 5.68781 11.608 5.68605 11.4117 5.88023L12.1148 6.59124ZM7.95315 10.7071L12.1148 6.59124L11.4117 5.88023L7.24997 9.99606L7.95315 10.7071Z" fill="currentColor"/>
</svg>
