<svg viewBox="0 0 18 18" fill="none" xmlns="http://www.w3.org/2000/svg">
    <path d="M1.50073 9L12.0007 9M12.0007 9L9.37573 6.75M12.0007 9L9.37573 11.25" stroke="currentColor" stroke-width="1.2" stroke-linecap="round" stroke-linejoin="round"/>
    <path d="M6.75146 5.25C6.76055 3.61873 6.83288 2.7353 7.40917 2.15901C8.06818 1.5 9.12884 1.5 11.2502 1.5L12.0002 1.5C14.1215 1.5 15.1821 1.5 15.8412 2.15901C16.5002 2.81802 16.5002 3.87868 16.5002 6L16.5002 12C16.5002 14.1213 16.5002 15.182 15.8412 15.841C15.1821 16.5 14.1215 16.5 12.0002 16.5H11.2502C9.12884 16.5 8.06818 16.5 7.40917 15.841C6.83288 15.2647 6.76055 14.3813 6.75146 12.75" stroke="currentColor" stroke-width="1.2" stroke-linecap="round"/>
</svg>
