<svg viewBox="0 0 18 18" fill="none" xmlns="http://www.w3.org/2000/svg">
    <circle cx="9" cy="9" r="7.5" stroke="currentColor" />
    <path d="M8.14595 7.02251C8.52594 6.34084 8.71594 6 9 6C9.28406 6 9.47406 6.34084 9.85405 7.02251L9.95236 7.19887C10.0603 7.39258 10.1143 7.48944 10.1985 7.55334C10.2827 7.61725 10.3875 7.64097 10.5972 7.68841L10.7881 7.73161C11.526 7.89857 11.895 7.98205 11.9828 8.26432C12.0706 8.54659 11.819 8.84072 11.316 9.42898L11.1858 9.58117C11.0429 9.74833 10.9714 9.83191 10.9392 9.93531C10.9071 10.0387 10.9179 10.1502 10.9395 10.3733L10.9592 10.5763C11.0352 11.3612 11.0733 11.7536 10.8435 11.9281C10.6136 12.1025 10.2682 11.9435 9.5773 11.6254L9.39855 11.5431C9.20222 11.4527 9.10406 11.4075 9 11.4075C8.89594 11.4075 8.79778 11.4527 8.60145 11.5431L8.4227 11.6254C7.7318 11.9435 7.38635 12.1025 7.15654 11.9281C6.92674 11.7536 6.96476 11.3612 7.04082 10.5763L7.0605 10.3733C7.08211 10.1502 7.09291 10.0387 7.06076 9.93531C7.0286 9.83191 6.95713 9.74833 6.81418 9.58117L6.68403 9.42898C6.18097 8.84072 5.92945 8.54659 6.01723 8.26432C6.10501 7.98205 6.47396 7.89857 7.21186 7.73161L7.40277 7.68841C7.61246 7.64097 7.7173 7.61725 7.80148 7.55334C7.88567 7.48944 7.93966 7.39258 8.04764 7.19887L8.14595 7.02251Z" stroke="currentColor" />
</svg>