<svg viewBox="0 0 36 36" fill="none" xmlns="http://www.w3.org/2000/svg">
    <path d="M27.971 4.02674L27.921 3.99019L27.874 4.03059L26.9896 4.79099L26.9139 4.85605L26.9952 4.91391C31.0908 7.82788 33.7688 12.5194 33.7688 17.8531C33.7688 26.6297 26.5367 33.7813 17.6576 33.7813C11.5749 33.7813 5.84786 29.9067 3.09125 24.9478L3.00927 24.8004L2.94982 24.9583L2.47179 26.2279L2.45888 26.2622L2.47699 26.2941C5.45146 31.5265 11.1298 35.0782 17.6576 35.0782C27.2365 35.0782 35.0787 27.3641 35.0787 17.8531C35.0787 12.1995 32.2583 7.15808 27.971 4.02674Z" fill="currentColor" stroke="currentColor" stroke-width="0.156282"/>
    <circle cx="18.7733" cy="18.7733" r="2.31826" fill="currentColor"/>
    <path d="M1.75951 23.4272L1.78405 23.5043L1.86025 23.4771L2.92167 23.098L2.99065 23.0734L2.97053 23.003C2.74284 22.2061 2.51704 21.4153 2.4042 20.5878L2.39332 20.508L2.31393 20.5213L1.17669 20.7108L1.09962 20.7237L1.11246 20.8007C1.26484 21.715 1.49331 22.5906 1.75951 23.4272ZM0.921859 18.0964V18.1746H1H2.13724H2.21538V18.0964C2.21538 17.2671 2.29078 16.4369 2.40413 15.6435L2.41493 15.5679L2.33962 15.5553L1.20239 15.3658L1.12299 15.3526L1.11211 15.4323C0.998011 16.2691 0.921859 17.1825 0.921859 18.0964ZM2.87223 13.243L2.94424 13.2654L2.96915 13.1942C3.2341 12.4372 3.53609 11.6448 3.91298 10.891L3.94845 10.82L3.87699 10.7856L2.85348 10.2928L2.78541 10.2601L2.75036 10.327C2.33112 11.1273 1.98824 11.9655 1.7216 12.8036L1.69774 12.8785L1.7729 12.9019L2.87223 13.243ZM5.12298 8.79571L5.18663 8.84345L5.23321 8.77895C5.72407 8.09929 6.25212 7.45818 6.85515 6.85515L6.91041 6.7999L6.85515 6.74465L6.05909 5.94858L6.00383 5.89333L5.94858 5.94858C5.30086 6.5963 4.72972 7.28175 4.19717 8.00451L4.1512 8.06688L4.21319 8.11337L5.12298 8.79571ZM8.59487 5.25465L8.64092 5.31605L8.70313 5.27112C9.38311 4.78003 10.0991 4.32799 10.8137 3.98952L10.8869 3.95485L10.8496 3.88293L10.3189 2.85942L10.2828 2.78976L10.2133 2.82617C9.41457 3.24453 8.65286 3.70147 7.92869 4.23507L7.86525 4.28182L7.91253 4.34487L8.59487 5.25465ZM25.2261 3.91298L25.297 3.94845L25.3314 3.87699L25.8242 2.85348L25.857 2.78541L25.7901 2.75036C24.9897 2.33112 24.1515 1.98824 23.3135 1.7216L23.2385 1.69774L23.2152 1.7729L22.874 2.87223L22.8513 2.94532L22.9239 2.96952C23.7171 3.23391 24.4717 3.53582 25.2261 3.91298ZM13.018 2.95646L13.0416 3.03266L13.1173 3.00743C13.9086 2.74366 14.7387 2.55491 15.5706 2.40366L15.6463 2.38988L15.6337 2.31393L15.4441 1.17669L15.4313 1.09962L15.3542 1.11246C14.44 1.26484 13.5644 1.49331 12.7277 1.75951L12.6538 1.78303L12.6768 1.85713L13.018 2.95646ZM20.5115 2.40413L20.5896 2.41528L20.6 2.3371L20.7516 1.19987L20.7619 1.12264L20.6847 1.11211C19.8481 0.998024 18.9347 0.921859 18.0585 0.921859H17.9804V1V2.13724V2.21538H18.0585H18.0964C18.8878 2.21538 19.7179 2.29077 20.5115 2.40413Z" fill="currentColor" stroke="currentColor" stroke-width="0.156282"/>
    <path d="M1.77344 29.5897L2.54619 24.9531C2.54619 24.9531 5.37204 25.8951 7.18272 26.4986" stroke="currentColor" stroke-width="1.70959"/>
    <rect x="10.4775" y="12.5742" width="1.89539" height="6.63387" rx="0.947696" transform="rotate(-45 10.4775 12.5742)" fill="currentColor"/>
</svg>