<svg version="1.0" xmlns="http://www.w3.org/2000/svg" viewBox="0 0 512 512">
    <path d="M468.7 1.1c-6.3 1.5-11.9 4.9-17.6 10.8-7.7 8-11.1 13-11.1 16.3 0 4 4 7.8 8.1 7.8 2.8 0 4.5-1.3 11.3-8.5 8.7-9.1 11.2-10.5 18.4-10.5 9.7.1 17.2 7.6 17.2 17.3 0 9.3-3.7 13.8-23.8 28.4l-10.3 7.6-1.6-2.4c-.9-1.3-4.5-5.2-7.9-8.7-7.5-7.4-17.3-12.5-27.2-14.2-4.7-.8-27.3-1-74.2-.8-75.2.4-70.7 0-85.5 7.6-6.5 3.3-16.2 12.7-133.3 129.6C38.7 273.8 4.4 308.7 2.7 312c-3.3 6.8-3.1 16.8.6 23.6 3.9 7 167.2 170.2 173.7 173.5 6.3 3.2 16.7 3.3 23 .2 3.3-1.7 38.2-36 130.6-128.5C447.5 263.7 456.9 254 460.2 247.5c7.7-15 7.3-9.7 7.5-90l.2-71.9 10.3-7.4c28.2-20.4 33.1-26.8 33.2-43.2.1-7.1-.3-9.4-2.5-14-7.5-16-23.4-23.9-40.2-19.9zm-38.5 63.1c5.5 2.6 13.5 9.4 15.7 13.5 1.1 2.3 2 1.6-20.4 15.4l-10.9 6.7-3.3-2.9c-13.3-11.6-34.5-10.8-47.1 1.9-2.4 2.4-5.6 6.9-7 10-3.6 7.6-3.8 21.1-.4 28.5 7 15.4 25.3 24 41.3 19.4 15.7-4.6 25.1-17.4 25-34.3v-8.2l13.7-8.5 13.7-8.5.3 63.6c.2 68.4.3 68.1-5 78.7-1.3 2.6-44.8 46.9-127.6 129.7C193.2 494.3 192.5 495 188.5 495s-4.7-.7-87.7-83.8c-83.1-83-83.8-83.7-83.8-87.7s.7-4.7 125.8-129.7C211.9 124.7 270.1 67.4 272 66.4c10.8-5.5 8.9-5.3 83.5-5.1l69 .2 5.7 2.7zm-34.5 42.3 3.7 1.6-8.4 4.7c-10 5.6-11.9 8.2-9.6 13.6 1 2.4 2.3 3.8 4.3 4.3 4.1 1.1 6 .5 14.1-3.9 7.9-4.3 8.6-4 5.7 3-3.2 7.4-8.7 11.3-16.5 11.4-9.9 0-17-6.2-17.8-15.7-.6-6.9.1-9.6 3.5-13.6 5.2-6.2 13.8-8.4 21-5.4z" fill="currentColor" />
    <path d="m241.5 171.5-2.5 2.4v181.9l3.1 2.6c1.7 1.4 3.7 2.6 4.5 2.6 2.4 0 7.1-2.8 7.8-4.5.3-.9.6-42.5.6-92.5v-90.9l-2.6-2c-3.6-2.8-7.9-2.7-10.9.4zm-66.9 60.1c-9.5 3-17.8 10.3-22 19.3-3.1 6.8-3 21.7.3 28.3 5.2 10.6 14 17.4 26 19.9 15 3.2 32.5-6.9 38.1-21.9 3.1-8 2.5-20.5-1.2-27.7-3.2-6.3-11.3-13.9-17.5-16.6-6.4-2.8-17.3-3.4-23.7-1.3zm20.9 18.8c10.8 8.2 9.1 24.7-3 30.6-10.9 5.3-23-.9-25.9-13.3-.8-3.4.9-10.2 3.6-14 5.2-7.2 17.9-8.9 25.3-3.3zm104.8-19c-14.5 4.7-24.1 16.4-25.1 30.6-1.2 17.3 9.7 32.3 26.6 36.6 11.1 2.8 22.6-.3 31.4-8.5 17.8-16.4 13.4-45.8-8.5-56.5-6.7-3.3-17.9-4.3-24.4-2.2zm17 17c6.7 2.7 11.4 11.3 10.4 18.8-1.9 14.4-19.6 20.8-30 11-4.2-4-5.7-7.5-5.7-13.4.1-13.2 13-21.6 25.3-16.4z" fill="currentColor" />
</svg>
