<svg viewBox="0 0 34 34" fill="none" xmlns="http://www.w3.org/2000/svg">
    <path d="M27.913 23.3619C30.1573 21.1177 31.2794 19.9956 31.6969 18.5397C32.1145 17.0838 31.7576 15.5375 31.044 12.445L30.6324 10.6615C30.032 8.05975 29.7318 6.75885 28.841 5.86803C27.9501 4.97721 26.6492 4.677 24.0474 4.07659L22.264 3.66503C19.1715 2.95136 17.6252 2.59453 16.1693 3.01207C14.7134 3.4296 13.5913 4.55173 11.3471 6.79597L8.69028 9.45275C4.78565 13.3574 2.83333 15.3097 2.83333 17.7357C2.83333 20.1618 4.78565 22.1141 8.69028 26.0187C12.5949 29.9233 14.5472 31.8757 16.9733 31.8757C19.3993 31.8757 21.3516 29.9233 25.2562 26.0187L27.913 23.3619Z" stroke="currentColor" stroke-width="1.5"/>
    <circle cx="2.86816" cy="2.86816" r="2.86816" transform="matrix(-0.707107 -0.707107 -0.707107 0.707107 26.0967 13.0605)" stroke="currentColor" stroke-width="1.5"/>
    <path d="M17.8317 26.8555L7.82322 16.8467" stroke="currentColor" stroke-width="1.5" stroke-linecap="round"/>
</svg>