<svg viewBox="0 0 60 60" fill="none" xmlns="http://www.w3.org/2000/svg">
    <path d="M45.4186 55.4598C43.0372 55.4598 40.6487 55.4598 38.2673 55.4598H30.4634C28.8136 55.4598 27.1639 55.4598 25.5141 55.4598C23.8644 55.4598 22.2147 55.4598 20.5649 55.4598C18.1692 55.4598 15.7735 55.4598 13.385 55.4527C10.7311 55.4527 8.63662 53.733 8.16322 51.1712C8.08432 50.7573 8.08432 50.3149 8.08432 49.8868V49.8582C8.07715 37.6274 8.07715 25.1896 8.07715 13.1657V10.0474C8.07715 6.9433 9.48301 5.15934 12.5099 4.43862C12.553 4.42435 12.5888 4.41008 12.6175 4.38867H46.2721C46.4228 4.43862 46.5806 4.48144 46.7312 4.52425C47.0827 4.62415 47.4198 4.71692 47.7282 4.86677C49.6075 5.76589 50.626 7.27868 50.7551 9.35521C50.7623 9.52647 50.7623 9.70487 50.7623 9.87613V9.89754C50.7623 13.4298 50.7623 16.9691 50.7623 20.5014C50.7623 30.1562 50.7623 40.1463 50.7695 49.9653C50.7695 52.156 49.9015 53.7401 48.1084 54.7962C47.3552 55.2458 46.473 55.4598 45.4186 55.4598ZM29.5452 6.09414C24.2302 6.09414 18.9152 6.09414 13.6002 6.09414C11.2188 6.09414 9.79861 7.4999 9.79861 9.86186C9.79861 14.6643 9.79861 19.4596 9.79861 24.262V33.1033C9.79861 38.7334 9.79861 44.3565 9.79861 49.9867V50.0152C9.79861 50.3006 9.79861 50.5932 9.84882 50.8786C10.1788 52.6769 11.5631 53.7472 13.55 53.7472C18.908 53.7472 24.2733 53.7472 29.6313 53.7472C34.8316 53.7472 40.0318 53.7472 45.2393 53.7472C47.6206 53.7472 49.048 52.3201 49.048 49.9296C49.048 36.5927 49.048 23.2487 49.048 9.91181C49.048 7.52844 47.6206 6.10127 45.2393 6.10127C40.0103 6.09414 34.7742 6.09414 29.5452 6.09414Z" fill="currentColor"/>
    <path d="M21.8202 36.1306C21.1245 36.1306 20.4717 36.1306 19.8405 36.1234C19.5321 36.1234 19.2596 36.0235 19.0802 35.8451C18.9296 35.6953 18.8507 35.4883 18.8507 35.26C18.8579 34.7676 19.238 34.4394 19.8119 34.418C19.9194 34.418 20.0342 34.4108 20.149 34.4108C20.2422 34.4108 20.3355 34.4108 20.4359 34.4108C20.5363 34.4108 20.6439 34.4108 20.7587 34.4108H20.9738V23.2932H16.2685V23.5073C16.2685 23.6 16.2685 23.6999 16.2685 23.7998C16.2685 24.0211 16.2685 24.2423 16.2685 24.4635C16.2542 25.0201 15.917 25.384 15.4078 25.384H15.3934C14.8913 25.3769 14.5686 25.0343 14.5542 24.4849C14.5399 23.7856 14.5399 23.0934 14.5542 22.4369C14.5686 21.8589 14.877 21.5521 15.4508 21.5521C17.5381 21.5449 19.6899 21.5449 21.8346 21.5449C23.9362 21.5449 26.1024 21.5449 28.2757 21.5521C28.8711 21.5521 29.1867 21.8732 29.201 22.4726C29.2153 23.1362 29.2153 23.8141 29.201 24.4777C29.1867 25.0343 28.8495 25.3911 28.3403 25.3911H28.3259C27.8238 25.384 27.5082 25.0486 27.4867 24.492C27.4795 24.2851 27.4795 24.071 27.4867 23.8427C27.4867 23.7285 27.4867 23.6143 27.4867 23.493V23.2789H22.767V34.4251H22.9822C23.0683 34.4251 23.1615 34.4251 23.2548 34.4251C23.348 34.4251 23.4413 34.4251 23.5345 34.4251C23.6421 34.4251 23.7497 34.4251 23.8573 34.4251C24.2446 34.4322 24.8902 34.5535 24.8758 35.2885C24.8687 35.8166 24.4957 36.1306 23.8716 36.1306C23.1902 36.1234 22.5016 36.1306 21.8202 36.1306Z" fill="currentColor"/>
    <path d="M34.9316 29.7077C34.4726 29.7077 34.1928 29.5436 34.035 29.1868C33.9633 29.0155 33.827 28.5945 34.157 28.3305C34.3793 28.1521 34.7021 28.0237 34.9675 28.0165C35.527 28.0023 36.1438 27.9951 36.9113 27.9951C37.2915 27.9951 37.6644 27.9951 38.0446 27.9951C38.4176 27.9951 38.7834 27.9951 39.1564 27.9951H39.2353C39.6298 27.9951 40.0243 27.9951 40.4188 27.9951C40.8133 27.9951 41.2078 27.9951 41.6023 27.9951C42.2837 27.9951 42.8432 27.9951 43.3524 28.0023C43.9406 28.0094 44.2921 28.3162 44.2992 28.8371C44.2992 29.0798 44.2203 29.2867 44.0769 29.4366C43.9047 29.6078 43.6465 29.7006 43.3309 29.7006C42.1618 29.7006 40.9854 29.7006 39.8163 29.7006H37.5066C36.6387 29.7077 35.7852 29.7077 34.9316 29.7077Z" fill="currentColor"/>
    <path d="M43.2806 42.5875C43.2376 42.5875 43.1946 42.5875 43.1515 42.5875C43.1085 42.5875 43.0655 42.5875 43.0152 42.5875C39.9955 42.5875 31.6895 42.5875 31.6895 42.5875H22.3792C20.127 42.5875 17.8819 42.5875 15.6296 42.5875C15.2351 42.5875 14.5752 42.4804 14.5537 41.7669C14.5394 41.2888 14.8406 40.9391 15.314 40.8963C15.4288 40.882 15.5436 40.882 15.6511 40.882H15.8448C20.3637 40.882 24.8897 40.882 29.4085 40.882C33.9274 40.882 38.4534 40.882 42.9722 40.882H43.173C43.2806 40.882 43.3954 40.882 43.5102 40.8963C43.9621 40.9391 44.2705 41.2745 44.2777 41.7169C44.2848 42.1665 43.9764 42.5161 43.5317 42.5803C43.4528 42.5803 43.3524 42.5875 43.2806 42.5875Z" fill="currentColor"/>
    <path d="M43.1659 49.0163C38.3387 49.0163 33.5042 49.0163 28.6769 49.0163C24.3446 49.0163 20.0122 49.0163 15.6799 49.0163C15.2639 49.0163 14.9411 48.9164 14.7546 48.7166C14.6111 48.5668 14.5466 48.3598 14.5538 48.1029C14.5753 47.6891 14.8694 47.368 15.271 47.3251C15.4001 47.3109 15.5293 47.3109 15.6584 47.3109H15.852C18.6996 47.3109 21.54 47.3109 24.3805 47.3109H36.4594C38.7045 47.3109 40.9495 47.3109 43.1946 47.3109C44.2562 47.3109 44.2849 47.9103 44.2921 48.1101C44.3136 48.5739 44.0051 48.945 43.5461 49.0092C43.4744 49.0163 43.4026 49.0235 43.3381 49.0235C43.3022 49.0163 43.1946 49.0163 43.1659 49.0163Z" fill="currentColor"/>
    <path d="M38.9625 23.2699C37.6284 23.2699 36.2871 23.2699 34.9529 23.2699C34.3576 23.2699 33.9846 22.9702 33.9631 22.4636C33.9488 22.2067 34.0205 21.9855 34.1711 21.8356C34.3361 21.6644 34.58 21.5716 34.8884 21.5716C35.4048 21.5645 35.9715 21.5645 36.6672 21.5645C37.0546 21.5645 37.4491 21.5645 37.8364 21.5645C38.2237 21.5645 38.6182 21.5645 39.0056 21.5645H40.1389C40.6266 21.5645 41.1215 21.5645 41.6093 21.5645C42.1329 21.5645 42.6493 21.5645 43.1729 21.5645C43.5961 21.5645 43.9046 21.6572 44.0911 21.8428C44.2273 21.9783 44.2919 22.1781 44.2919 22.4279C44.2847 23.1272 43.6894 23.2699 43.1945 23.2699C41.7814 23.2699 40.3756 23.2699 38.9625 23.2699Z" fill="currentColor"/>
    <path d="M36.5817 36.1503C35.929 36.1503 35.3911 36.1503 34.8818 36.1431C34.5016 36.136 34.1717 35.9505 34.0211 35.6436C33.892 35.3939 33.9135 35.1156 34.0784 34.8872C34.2362 34.6731 34.5805 34.4733 34.8101 34.4662C36.2159 34.4448 37.7509 34.4377 39.5082 34.4377C40.8782 34.4377 42.2554 34.4448 43.4461 34.4448C43.9482 34.4448 44.2853 34.7802 44.2925 35.2726C44.2996 35.7721 43.941 36.1289 43.4246 36.136C42.8938 36.1431 42.3128 36.1431 41.6027 36.1431C41.2082 36.1431 40.8137 36.1431 40.4263 36.1431C40.0318 36.1431 39.6373 36.1431 39.25 36.1431H39.1424C38.7407 36.1431 38.3319 36.1431 37.9302 36.1431C37.4712 36.1503 37.0264 36.1503 36.5817 36.1503Z" fill="currentColor"/>
</svg>
