<svg viewBox="0 0 18 18" fill="none" xmlns="http://www.w3.org/2000/svg">
    <path d="M15.8004 8.89263L15.3725 8.63405V8.63405L15.8004 8.89263ZM9.10737 2.19957L8.84878 1.77163L8.84878 1.77163L9.10737 2.19957ZM16 9C16 12.866 12.866 16 9 16V17C13.4183 17 17 13.4183 17 9H16ZM9 16C5.13401 16 2 12.866 2 9H1C1 13.4183 4.58172 17 9 17V16ZM2 9C2 5.13401 5.13401 2 9 2V1C4.58172 1 1 4.58172 1 9H2ZM11.625 10.75C9.20875 10.75 7.25 8.79125 7.25 6.375H6.25C6.25 9.34353 8.65647 11.75 11.625 11.75V10.75ZM15.3725 8.63405C14.6055 9.90328 13.2139 10.75 11.625 10.75V11.75C13.5784 11.75 15.2879 10.7077 16.2284 9.15122L15.3725 8.63405ZM7.25 6.375C7.25 4.78609 8.09672 3.39446 9.36595 2.62751L8.84878 1.77163C7.29234 2.71212 6.25 4.42159 6.25 6.375H7.25ZM9 2C8.97976 2 8.95156 1.99595 8.92043 1.98268C8.88949 1.9695 8.86379 1.95068 8.84437 1.93046C8.80734 1.89192 8.80084 1.85788 8.79969 1.8494C8.79838 1.83973 8.79921 1.83165 8.80345 1.82152C8.80875 1.80885 8.82246 1.78753 8.84878 1.77163L9.36595 2.62751C9.71787 2.41486 9.83239 2.02431 9.7907 1.71556C9.74744 1.39529 9.49703 1 9 1V2ZM16.2284 9.15122C16.2125 9.17754 16.1911 9.19125 16.1785 9.19655C16.1684 9.20079 16.1603 9.20162 16.1506 9.20031C16.1421 9.19916 16.1081 9.19266 16.0695 9.15563C16.0493 9.13621 16.0305 9.11051 16.0173 9.07957C16.0041 9.04844 16 9.02024 16 9H17C17 8.50297 16.6047 8.25256 16.2844 8.20931C15.9757 8.16761 15.5851 8.28213 15.3725 8.63405L16.2284 9.15122Z" fill="currentColor"/>
</svg>
