<svg viewBox="0 0 24 24" fill="none" xmlns="http://www.w3.org/2000/svg">
    <path d="M16.801.506c.189.114.248.294.253.51.03.66.183 1.29.495 1.866.5.924 1.277 1.392 2.3 1.446.089.006.177 0 .265.018.206.042.324.198.312.396-.018.21-.135.324-.335.354-.277.036-.56.036-.83.102-1.036.252-1.653.96-1.965 1.955-.13.42-.165.876-.247 1.314-.024.126-.053.282-.136.36-.082.072-.241.096-.359.078-.17-.024-.235-.18-.259-.348-.07-.444-.106-.894-.23-1.32-.405-1.367-1.27-2.04-2.659-2.135-.335-.024-.488-.144-.488-.39 0-.246.159-.378.488-.39 1.33-.054 2.26-.762 2.642-2.064.124-.408.177-.846.236-1.272.029-.204.076-.378.259-.486.082.006.17.006.258.006Zm-.147 2.316c-.335.84-.888 1.452-1.653 1.902.788.444 1.318 1.074 1.653 1.89.506-.954.506-.954 1.63-1.896-1.07-.888-1.07-.888-1.63-1.896Zm-2.83 10.71h.247c1.477 0 2.954-.006 4.425 0 .83 0 1.447.564 1.541 1.392.047.414-.088.78-.341 1.122.506.36.776.84.718 1.47-.06.624-.406 1.038-.983 1.295.235.426.318.87.165 1.332a1.524 1.524 0 0 1-.86.942c.066.312.171.606.177.9.018.816-.641 1.5-1.441 1.506-2.372.012-4.743.012-7.114-.006-.718-.006-1.395-.222-2.036-.576-.382-.21-.8-.366-1.206-.522-.165-.066-.277-.018-.36.186-.246.588-.717.9-1.347.918-.606.018-1.218.006-1.83.006-.923 0-1.57-.654-1.576-1.59-.006-1.38 0-2.754 0-4.134v-3.365c0-.984.635-1.632 1.594-1.638h1.718c.695.006 1.195.324 1.46.984.052.132.117.156.229.126.365-.108.753-.168 1.083-.348 1.023-.546 1.93-1.248 2.636-2.202.506-.684.735-1.44.512-2.298a2.595 2.595 0 0 1-.065-.42c-.047-.612.13-1.128.665-1.464.594-.372 1.194-.378 1.783 0 .665.426.994 1.08 1.141 1.842.212 1.092-.018 2.142-.382 3.168-.153.456-.36.906-.553 1.374Zm-6.926 8.07c.665.03 1.224.293 1.76.623a3.36 3.36 0 0 0 1.782.504c2.319.012 4.637.006 6.955.006a.756.756 0 0 0 .765-.762c.006-.438-.323-.762-.777-.768-.335-.006-.676 0-1.012 0-.294 0-.464-.15-.459-.39.006-.234.165-.372.454-.372h1.67c.1 0 .206-.006.306-.03a.75.75 0 0 0 .571-.708.74.74 0 0 0-.512-.75c-.111-.036-.23-.036-.347-.036-.535-.006-1.07 0-1.606 0-.36 0-.53-.132-.53-.39s.17-.378.536-.378h1.188c.418 0 .836.006 1.254-.006.482-.011.806-.372.764-.845-.035-.402-.358-.684-.811-.69-.807-.006-1.613 0-2.425 0-.347 0-.512-.12-.518-.378 0-.252.171-.39.507-.39h1.165c.335 0 .676.006 1.012-.006.364-.018.647-.312.688-.696a.752.752 0 0 0-.524-.786 1.28 1.28 0 0 0-.37-.042h-5.108c-.482 0-.635-.27-.394-.69.547-.978.983-2.004 1.153-3.132.106-.702.083-1.392-.253-2.034-.182-.354-.43-.642-.823-.762-.577-.18-1.1.252-1.042.858.012.126.041.252.053.378.03.366.094.732.07 1.092-.046.69-.346 1.296-.758 1.83-.783 1.026-1.771 1.812-2.901 2.394-.453.234-.977.336-1.495.504.012 2.232.012 4.523.012 6.851Zm-.759-3.468v-3.75c0-.54-.306-.852-.83-.852H3.591c-.53 0-.835.312-.835.852v7.5c0 .54.306.851.835.851h1.695c.559 0 .853-.3.859-.87-.006-1.242-.006-2.49-.006-3.731Z" fill="currentColor"/>
    <path d="M9.14 8.17c0 .21-.135.36-.353.383-.165.018-.341.024-.5.066-.77.204-1.118.792-1.3 1.518a4.22 4.22 0 0 0-.095.666c-.023.27-.158.438-.37.438-.224.006-.342-.174-.389-.45-.07-.402-.135-.816-.282-1.188-.265-.672-.8-1.008-1.506-1.044h-.042c-.258-.018-.4-.15-.406-.378 0-.228.153-.384.418-.39.36-.012.695-.102.989-.318.417-.312.623-.762.747-1.26a4.22 4.22 0 0 0 .094-.666c.024-.27.153-.437.377-.437.217-.006.365.162.382.431.03.438.112.858.3 1.254.306.636.806.972 1.5.996.277.006.436.138.436.378Zm-2.624.941c.259-.306.541-.636.8-.936-.265-.312-.547-.642-.8-.942-.26.3-.541.636-.8.942.264.306.547.636.8.936Zm3.212-5.404c-.023.102-.018.162-.041.186-.259.27-.506.552-.788.792-.13.108-.3.024-.406-.102-.118-.138-.142-.312-.024-.45.206-.24.424-.474.67-.678.083-.066.271-.06.383-.012.094.042.153.192.206.264Zm.677-.689c-.088-.078-.23-.144-.27-.252-.042-.114-.024-.3.046-.39.183-.233.395-.437.612-.635.147-.132.324-.126.483.006.14.12.188.336.064.48-.211.246-.447.467-.676.695-.053.054-.136.054-.26.096Zm1.025 1.35c-.077.096-.142.246-.248.288-.106.042-.294.03-.382-.036a5.67 5.67 0 0 1-.63-.624c-.13-.15-.106-.372.024-.51.135-.138.347-.162.5-.018.217.204.423.414.618.636.053.054.064.144.117.264Zm-1.696-1.71c-.077.09-.148.24-.253.282-.112.042-.295.024-.383-.048-.224-.18-.418-.396-.612-.612-.135-.15-.123-.33.006-.492.118-.144.341-.186.477-.066.235.21.453.444.67.678.047.054.053.138.095.258Zm9.567 6.669c0-.132-.005-.27 0-.402.012-.21.153-.354.348-.366.176-.012.364.108.376.3.024.312.03.63-.006.936-.017.198-.182.3-.382.288-.189-.012-.324-.144-.336-.348-.005-.138 0-.27 0-.408Zm-.759 1.517c-.14 0-.276.012-.417 0-.195-.018-.3-.138-.324-.336-.024-.192.088-.378.277-.396a6.19 6.19 0 0 1 .941 0c.188.018.277.186.277.378a.357.357 0 0 1-.336.354c-.141.012-.282 0-.418 0Zm2.26-.001c-.141 0-.276.012-.418 0a.35.35 0 0 1-.33-.348c-.005-.21.095-.366.29-.384.3-.03.6-.024.9-.006.188.012.311.198.305.378a.366.366 0 0 1-.353.36c-.129.012-.259 0-.394 0Zm-1.501.772c0-.132-.005-.27 0-.402.012-.21.136-.324.336-.354.182-.024.37.09.388.282.024.318.024.642 0 .96-.017.197-.2.3-.388.275-.189-.024-.306-.137-.324-.335-.017-.144-.012-.282-.012-.426Z" fill="currentColor"/>
</svg>
