<svg width="35" height="35" viewBox="0 0 35 35" fill="none" xmlns="http://www.w3.org/2000/svg">
    <path fill-rule="evenodd" clip-rule="evenodd" d="M20.9969 2.68369L20.9969 2.68245C20.9971 2.67749 20.9975 2.66663 20.9987 2.65072C21.0011 2.61865 21.0062 2.56774 21.0171 2.50457C21.0396 2.3748 21.083 2.21265 21.1626 2.05913C21.2403 1.9091 21.3465 1.77792 21.4956 1.68202C21.6412 1.58832 21.8713 1.5 22.2449 1.5C22.619 1.5 22.8536 1.58836 23.0093 1.6933C23.1683 1.80045 23.2984 1.96114 23.4025 2.18779C23.624 2.67011 23.6747 3.3286 23.6747 3.96369H25.1747C25.1747 3.3133 25.1345 2.36495 24.7656 1.56179C24.5746 1.1457 24.2847 0.744 23.8476 0.449442C23.4073 0.152667 22.8699 0 22.2449 0C21.6195 0 21.1003 0.152707 20.684 0.420543C20.2711 0.686183 20.0027 1.03706 19.8307 1.36908C19.6605 1.69762 19.5791 2.01752 19.539 2.24929C19.5187 2.36689 19.5082 2.46662 19.5028 2.54C19.5001 2.57682 19.4986 2.60738 19.4978 2.63067L19.497 2.66015L19.4969 2.67065L19.4969 2.6748L19.4969 2.6766L19.4969 2.67743C19.4969 2.67783 19.4969 2.67822 20.2469 2.67822H19.4969V3.4082H2.63654C1.18042 3.4082 0 4.58862 0 6.04474V31.5163C0 32.9724 1.18042 34.1528 2.63654 34.1528H32.2859C33.742 34.1528 34.9224 32.9724 34.9224 31.5163V6.04474C34.9224 4.58862 33.742 3.4082 32.2859 3.4082H32.1238C32.0941 2.83346 32.0014 2.15767 31.7277 1.56179C31.5367 1.1457 31.2468 0.744 30.8097 0.449442C30.3694 0.152667 29.832 0 29.207 0C28.5816 0 28.0624 0.152707 27.6461 0.420543C27.2332 0.686183 26.9648 1.03706 26.7928 1.36908C26.6226 1.69762 26.5412 2.01752 26.5011 2.24929C26.4808 2.36689 26.4703 2.46662 26.4649 2.54C26.4622 2.57682 26.4607 2.60738 26.4599 2.63067L26.4591 2.66015L26.459 2.67065L26.459 2.6748L26.459 2.6766L26.459 2.67743C26.459 2.67783 26.459 2.67822 27.209 2.67822H26.459V9.62118H20.9969V2.68369ZM27.959 9.62118H33.4224V6.04474C33.4224 5.41705 32.9136 4.9082 32.2859 4.9082H29.5304V3.4082H30.6209C30.5928 2.96026 30.5217 2.52975 30.3646 2.18779C30.2605 1.96114 30.1304 1.80045 29.9714 1.6933C29.8157 1.58836 29.5811 1.5 29.207 1.5C28.8334 1.5 28.6033 1.58832 28.4577 1.68202C28.3086 1.77792 28.2024 1.9091 28.1247 2.05913C28.0451 2.21265 28.0017 2.3748 27.9792 2.50457C27.9683 2.56774 27.9632 2.61865 27.9608 2.65072C27.9601 2.65982 27.9597 2.66727 27.9594 2.67291C27.9592 2.67713 27.9591 2.68033 27.959 2.68245L27.959 2.68369V9.62118ZM2.63654 4.9082H19.4969V9.62118H1.5V6.04474C1.5 5.41705 2.00885 4.9082 2.63654 4.9082ZM1.5 31.5163V11.1212H33.4224V31.5163C33.4224 32.144 32.9136 32.6528 32.2859 32.6528H2.63654C2.00885 32.6528 1.5 32.144 1.5 31.5163ZM6.42773 23.5451V16.7969H17.3537V23.5451H15.8045H15.2728H6.42773ZM18.0723 15.2969H5.70915C5.27758 15.2969 4.92773 15.6467 4.92773 16.0783V24.2637C4.92773 24.6952 5.27758 25.0451 5.70915 25.0451H15.2728H15.8045H18.0727C18.5043 25.0451 18.8537 24.6952 18.8537 24.2637V16.0783C18.8537 15.6467 18.5039 15.2969 18.0723 15.2969ZM5.27348 7.22463C5.27348 7.99374 4.64999 8.61723 3.88088 8.61723C3.11177 8.61723 2.48828 7.99374 2.48828 7.22463C2.48828 6.45552 3.11177 5.83203 3.88088 5.83203C4.64999 5.83203 5.27348 6.45552 5.27348 7.22463ZM8.05758 8.61722C8.82669 8.61722 9.45018 7.99373 9.45018 7.22462C9.45018 6.45551 8.82669 5.83202 8.05758 5.83202C7.28847 5.83202 6.66498 6.45551 6.66498 7.22462C6.66498 7.99373 7.28847 8.61722 8.05758 8.61722ZM13.6753 7.32097C13.6484 8.08961 13.0036 8.69096 12.2349 8.66412C11.4663 8.63728 10.8649 7.99241 10.8918 7.22377C10.9186 6.45513 11.5635 5.85378 12.3321 5.88062C13.1008 5.90746 13.7021 6.55233 13.6753 7.32097ZM20.2471 19.4727H29.9953V17.9727H20.2471V19.4727ZM29.9953 22.2598H20.2471V20.7598H29.9953V22.2598ZM9.10547 29.2207H27.2093V27.7207H9.10547V29.2207Z" fill="currentColor" />
</svg>