<svg viewBox="0 0 22 22" fill="none" xmlns="http://www.w3.org/2000/svg">
    <path d="M13.2917 17.8747H8.70833M13.2917 17.8747C13.2917 17.2206 13.2917 16.8936 13.3266 16.6766C13.4392 15.9768 13.4588 15.9327 13.9051 15.382C14.0435 15.2113 14.5572 14.7513 15.5845 13.8314C16.9903 12.5726 17.875 10.7436 17.875 8.70801C17.875 4.91105 14.797 1.83301 11 1.83301C7.20304 1.83301 4.125 4.91105 4.125 8.70801C4.125 10.7436 5.00968 12.5726 6.41553 13.8314C7.44283 14.7513 7.95655 15.2113 8.09492 15.382C8.54115 15.9327 8.56084 15.9768 8.67342 16.6766C8.70833 16.8936 8.70833 17.2206 8.70833 17.8747M13.2917 17.8747C13.2917 18.7314 13.2917 19.1598 13.1075 19.4788C12.9868 19.6879 12.8132 19.8614 12.6042 19.9821C12.2851 20.1663 11.8567 20.1663 11 20.1663C10.1433 20.1663 9.7149 20.1663 9.39583 19.9821C9.18681 19.8614 9.01323 19.6879 8.89255 19.4788C8.70833 19.1598 8.70833 18.7314 8.70833 17.8747" stroke="currentColor" stroke-width="1.5"/>
    <path d="M11 15.5833V13.75" stroke="currentColor" stroke-width="1.5" stroke-linecap="round"/>
    <path d="M12.5882 12.833C12.2712 13.381 11.6788 13.7497 11.0002 13.7497C10.3216 13.7497 9.7291 13.381 9.41211 12.833" stroke="currentColor" stroke-width="1.5" stroke-linecap="round"/>
</svg>