<svg viewBox="0 0 24 24" fill="none" xmlns="http://www.w3.org/2000/svg">
    <path d="M20.3644 3C20.4668 3.0333 20.5705 3.06147 20.669 3.10117C21.3274 3.36497 21.6825 3.85033 21.746 4.54698C21.7512 4.60332 21.7499 4.66095 21.7499 4.71858C21.7499 8.55145 21.7499 12.383 21.7499 16.2159C21.7499 17.0329 21.2807 17.6745 20.5342 17.8653C20.3631 17.9089 20.1791 17.9255 20.0015 17.9255C18.8001 17.9306 17.6 17.9294 16.3986 17.9255C16.2729 17.9255 16.1874 17.9601 16.1031 18.0549C14.8408 19.4751 13.5746 20.8927 12.3084 22.3103C12.0816 22.5652 11.9209 22.5639 11.6928 22.309C10.4227 20.8863 9.15388 19.4622 7.8786 18.0446C7.82157 17.9806 7.70752 17.9332 7.62069 17.9332C6.4128 17.9255 5.20621 17.9294 3.99833 17.9281C2.94596 17.9255 2.25 17.2378 2.25 16.1954C2.25 12.3946 2.25 8.59371 2.25 4.79285C2.25 3.8324 2.66991 3.28558 3.60822 3.02433C3.61859 3.02177 3.62637 3.00896 3.63674 3C9.2122 3 14.7877 3 20.3644 3ZM11.996 21.7264C12.0595 21.6611 12.1088 21.6124 12.1542 21.5612C13.3439 20.2293 14.5362 18.8988 15.7195 17.5605C15.8724 17.3877 16.0279 17.3095 16.2638 17.3121C17.5028 17.3223 18.7431 17.3172 19.9834 17.3172C20.7169 17.3172 21.1342 16.9087 21.1342 16.189C21.1342 12.3689 21.1342 8.54888 21.1342 4.72882C21.1342 4.02065 20.7156 3.60957 19.9951 3.60957C14.6632 3.60957 9.33273 3.60957 4.00092 3.60957C3.28422 3.60957 2.8682 4.02321 2.8682 4.73395C2.8682 8.55401 2.8682 12.3741 2.8682 16.1941C2.8682 16.9036 3.28681 17.3159 4.00481 17.3172C5.2762 17.3172 6.54888 17.3198 7.82028 17.3147C7.99005 17.3147 8.11188 17.3697 8.22075 17.4939C8.7223 18.0638 9.22905 18.6286 9.73449 19.1946C10.481 20.0321 11.2301 20.8684 11.996 21.7264Z" fill="currentColor" />
    <path d="M11.9965 14.7708C10.3402 14.7708 8.6839 14.7721 7.02759 14.7695C6.41068 14.7683 5.95967 14.3713 5.88969 13.7771C5.82359 13.2238 6.2422 12.6783 6.80208 12.5963C6.89669 12.5823 6.99389 12.5771 7.0898 12.5771C10.3635 12.5759 13.6386 12.5759 16.9123 12.5771C17.559 12.5771 18.0126 12.9395 18.0982 13.5158C18.1954 14.1753 17.7003 14.7631 17.0238 14.7683C15.8431 14.7759 14.6611 14.7708 13.4805 14.7708C12.9854 14.7708 12.4916 14.7708 11.9965 14.7708Z" fill="currentColor" />
    <path d="M10.8388 11.5631C9.56739 11.5631 8.29729 11.5682 7.0259 11.5618C6.14201 11.558 5.59898 10.6615 6.02926 9.92391C6.25347 9.53844 6.60599 9.363 7.05311 9.363C8.95955 9.363 10.866 9.363 12.7724 9.363C13.414 9.363 14.0568 9.35788 14.6983 9.36556C15.2621 9.37197 15.7092 9.76639 15.7857 10.3055C15.8634 10.8421 15.5511 11.3467 15.0301 11.5029C14.8914 11.5452 14.7398 11.5605 14.5946 11.5605C13.3427 11.5644 12.0907 11.5631 10.8388 11.5631Z" fill="currentColor" />
    <path d="M9.49797 8.35336C8.69573 8.35336 7.8935 8.3572 7.08997 8.35207C6.43159 8.34823 5.98317 7.98326 5.89764 7.39546C5.80691 6.76796 6.29292 6.1776 6.93445 6.16223C7.50599 6.14814 8.07754 6.15711 8.64908 6.15711C9.77272 6.15711 10.8964 6.15199 12.02 6.16095C12.4879 6.16479 12.8287 6.39658 13.0141 6.81918C13.1994 7.24179 13.1242 7.64006 12.821 7.98838C12.5773 8.26883 12.2494 8.35592 11.8865 8.35464C11.2126 8.35207 10.5387 8.35336 9.86474 8.35336C9.74162 8.35336 9.61979 8.35336 9.49797 8.35336Z" fill="currentColor" />
</svg>