<svg viewBox="0 0 24 24" fill="none" xmlns="http://www.w3.org/2000/svg">
    <path d="M20.9999 5.81295C20.3012 6.11096 19.5408 6.32545 18.7576 6.40898C19.5708 5.93133 20.1797 5.17672 20.4702 4.28674C19.7071 4.73555 18.8713 5.05026 17.9996 5.21691C17.6352 4.83181 17.1946 4.52502 16.7051 4.31565C16.2157 4.10629 15.6878 3.99884 15.1545 4.00001C12.9967 4.00001 11.2613 5.72941 11.2613 7.85166C11.2613 8.14967 11.2979 8.44769 11.3572 8.73442C8.12628 8.56735 5.24467 7.04114 3.32892 4.70441C2.97985 5.29394 2.79693 5.96518 2.79918 6.6483C2.79918 7.98486 3.48647 9.16338 4.53454 9.8565C3.9169 9.83245 3.31372 9.66459 2.77406 9.36658V9.41399C2.77406 11.2856 4.11212 12.8367 5.89543 13.1934C5.56059 13.2794 5.21614 13.3234 4.8702 13.3243C4.61674 13.3243 4.37699 13.2995 4.13495 13.2656C4.62816 14.7918 6.0644 15.9004 7.77464 15.9365C6.43659 16.9728 4.76059 17.5824 2.94075 17.5824C2.61423 17.5824 2.31282 17.5711 2 17.535C3.72623 18.6299 5.77441 19.2621 7.98014 19.2621C15.1408 19.2621 19.0591 13.3966 19.0591 8.30546C19.0591 8.13838 19.0591 7.97131 19.0476 7.80424C19.8057 7.25562 20.4702 6.57605 20.9999 5.81295Z" fill="currentColor"/>
</svg>
