<svg viewBox="0 0 24 24" fill="none" xmlns="http://www.w3.org/2000/svg">
    <circle cx="12.0643" cy="11.6129" r="11.6129" fill="#1DA1F2"/>
    <path d="M18.0624 8.07037C17.6371 8.25177 17.1742 8.38233 16.6975 8.43318C17.1924 8.14243 17.5631 7.68309 17.7399 7.14134C17.2755 7.41454 16.7666 7.60611 16.236 7.70755C16.0143 7.47313 15.746 7.28638 15.4481 7.15894C15.1501 7.0315 14.8288 6.96609 14.5042 6.9668C13.1907 6.9668 12.1344 8.01952 12.1344 9.31136C12.1344 9.49277 12.1566 9.67418 12.1927 9.84871C10.226 9.74702 8.47191 8.81799 7.30576 7.39558C7.09328 7.75444 6.98193 8.16303 6.9833 8.57886C6.9833 9.39245 7.40167 10.1098 8.03964 10.5317C7.66367 10.5171 7.29651 10.4149 6.96801 10.2335V10.2624C6.96801 11.4017 7.78251 12.3458 8.86804 12.563C8.66422 12.6153 8.45454 12.6421 8.24396 12.6427C8.08968 12.6427 7.94374 12.6276 7.7964 12.6069C8.09663 13.536 8.97089 14.2107 10.0119 14.2327C9.19745 14.8635 8.17724 15.2346 7.06947 15.2346C6.87072 15.2346 6.68725 15.2277 6.49683 15.2057C7.54761 15.8723 8.79437 16.2571 10.137 16.2571C14.4958 16.2571 16.8809 12.6866 16.8809 9.5876C16.8809 9.4859 16.8809 9.3842 16.874 9.2825C17.3355 8.94855 17.7399 8.53488 18.0624 8.07037Z" fill="white"/>
</svg>