<svg viewBox="0 0 30 30" fill="none" xmlns="http://www.w3.org/2000/svg">
    <path d="M3.12 20.36h12.304c.468 0 .735.223.72.61a.558.558 0 0 1-.512.556c-.11.015-.222.007-.333.007H3.142c-.081.846.661 1.685 1.53 1.766.155.015.31.015.474.015h10.746c.141 0 .282.008.416.037a.573.573 0 0 1 .423.557c0 .252-.164.49-.416.556-.111.03-.237.038-.356.038-3.651 0-7.295.007-10.946 0-1.819 0-3.095-1.284-3.095-3.102.007-4.631.007-9.277.007-13.93.008-1.833 1.277-3.11 3.11-3.11h18.694c1.81 0 3.08 1.262 3.087 3.065.008 2.197 0 4.386 0 6.583 0 .245-.044.46-.26.609a.589.589 0 0 1-.92-.46c-.015-.253-.007-.498-.007-.75V7.462c0-1.18-.742-1.922-1.922-1.93H5.042c-1.187 0-1.922.736-1.922 1.923v12.906Z" fill="currentColor"/>
    <path d="M17.932 20.487c.178-2.969 2.523-5.04 5.484-4.846 2.583.163 4.735 2.604 4.586 5.187-.17 2.894-2.53 5.047-5.343 4.854-2.79-.186-4.801-2.501-4.727-5.195Zm8.883.185c0-2.137-1.714-3.866-3.83-3.866a3.839 3.839 0 0 0-3.858 3.866 3.853 3.853 0 0 0 3.858 3.844c2.093 0 3.83-1.736 3.83-3.844Zm-16.288-7.428V9.852c0-1.01.898-1.529 1.773-1.024 1.96 1.12 3.911 2.249 5.863 3.384.89.52.883 1.551-.007 2.063-1.952 1.128-3.904 2.264-5.863 3.384-.876.505-1.766-.015-1.766-1.039-.008-1.113 0-2.241 0-3.376Zm1.202-3.37v6.754c1.96-1.128 3.881-2.242 5.848-3.377-1.967-1.135-3.889-2.249-5.848-3.377Z" fill="currentColor"/>
    <path d="M23.565 20.108v2.516c0 .43-.223.69-.586.698-.371.007-.601-.26-.609-.705V20.04c-.17.164-.29.282-.408.394-.29.274-.645.297-.89.052s-.23-.601.044-.883c.46-.468.92-.935 1.395-1.396.29-.282.609-.289.906 0 .475.468.95.936 1.41 1.41.267.275.274.631.044.869-.237.245-.6.23-.89-.045-.119-.119-.223-.252-.334-.37a.7.7 0 0 0-.082.036Z" fill="currentColor"/>
</svg>
