<svg viewBox="0 0 24 24" fill="none" xmlns="http://www.w3.org/2000/svg">
    <path d="M4.72464 18.7578C3.81402 18.6321 2.92464 18.5198 2.03791 18.3807C1.21755 18.2524 0.636137 17.5811 0.667996 16.7494C0.694545 16.0755 0.713129 15.3802 0.896315 14.7411C1.2441 13.5296 2.06711 12.6766 3.20075 12.1364C3.29898 12.0882 3.39986 12.0428 3.53792 11.9812C2.83968 11.2806 2.47331 10.4703 2.56092 9.49687C2.62464 8.77215 2.92995 8.15172 3.44765 7.64094C4.60783 6.49102 6.01757 6.49369 7.65828 7.66234C7.72465 6.25301 8.28749 5.10576 9.38395 4.24197C10.2255 3.58411 11.176 3.28994 12.2432 3.33808C14.1123 3.42098 16.2043 5.02018 16.3211 7.69443C16.9822 7.07668 17.7256 6.721 18.6096 6.77449C19.4857 6.82797 20.2026 7.21306 20.7601 7.895C21.5035 8.80424 21.9017 10.4409 20.4548 11.9839C20.561 12.0347 20.6592 12.0829 20.7574 12.131C22.4141 12.9547 23.2371 14.2945 23.3274 16.1531C23.407 17.7603 22.6981 18.37 21.4265 18.4797C20.7999 18.5358 20.1787 18.6375 19.5521 18.6909C19.3238 18.7097 19.2335 18.7578 19.1911 19.0092C19.0371 19.9264 18.2698 20.6485 17.3565 20.8143C15.161 21.2128 12.9468 21.4374 10.7167 21.285C9.32023 21.1887 7.92377 21.0042 6.54058 20.7849C5.57686 20.6324 4.94234 19.8863 4.76181 18.8942C4.75385 18.8353 4.73261 18.7845 4.72464 18.7578ZM11.9512 20.2286C12.1185 20.2286 12.2884 20.2313 12.4556 20.2286C14.0964 20.1965 15.7264 20.0495 17.33 19.6697C17.8158 19.5547 18.1211 19.1643 18.1371 18.6722C18.1503 18.2791 18.1503 17.8833 18.1424 17.4875C18.084 15.2813 17.0486 13.6794 15.1105 12.6953C13.876 12.0695 12.5273 11.9331 11.1707 12.0615C9.25121 12.2433 7.66359 13.0429 6.60695 14.7411C5.89013 15.8937 5.74943 17.1693 5.82907 18.493C5.87686 19.2606 6.13704 19.5788 6.89899 19.7366C8.56359 20.0762 10.2494 20.2313 11.9512 20.2286ZM11.9671 10.9115C13.7512 10.9169 15.222 9.45676 15.2247 7.67838C15.2273 5.91873 13.7618 4.43719 12.0096 4.42115C10.2521 4.4051 8.75474 5.90001 8.75209 7.67036C8.74943 9.43536 10.2096 10.9035 11.9671 10.9115ZM6.65474 12.9333C6.64943 12.8985 6.64677 12.8638 6.64146 12.829C6.20872 12.8022 5.77597 12.7327 5.34588 12.7541C4.10606 12.8129 3.02021 13.2061 2.28216 14.2971C1.75118 15.0807 1.68216 15.9605 1.75915 16.8644C1.77242 17.0088 1.94499 17.2335 2.07242 17.2575C2.93791 17.4207 3.81137 17.541 4.72464 17.6801C4.75916 15.7894 5.40164 14.2303 6.65474 12.9333ZM17.2742 12.8825C17.9326 13.5564 18.4663 14.2517 18.7397 15.0861C19.0052 15.9017 19.1645 16.7548 19.3796 17.6293C19.9238 17.5651 20.5265 17.5036 21.1265 17.4207C22.2415 17.2629 22.2627 17.2415 22.2362 16.1023C22.207 14.8507 21.6654 13.8719 20.5742 13.2649C19.5601 12.7006 18.4663 12.6204 17.2742 12.8825ZM5.4919 11.647C6.53527 11.6496 7.39545 10.8073 7.40076 9.77232C7.40872 8.74273 6.53792 7.85756 5.51845 7.85221C4.49898 7.84686 3.62553 8.72936 3.62553 9.75895C3.62818 10.7832 4.47774 11.6416 5.4919 11.647ZM18.453 11.647C19.4911 11.6496 20.3486 10.7939 20.3486 9.75895C20.3486 8.72936 19.4698 7.84953 18.453 7.85488C17.4468 7.86023 16.584 8.72936 16.5733 9.7429C16.568 10.7778 17.4203 11.6443 18.453 11.647ZM15.5273 10.3179C15.1981 10.6361 14.8477 10.9757 14.5503 11.2645C15.0282 11.4892 15.5725 11.7486 16.1194 11.9973C16.2123 12.0401 16.3291 12.0267 16.4884 12.0454C16.2468 11.7085 16.0238 11.4517 15.8645 11.1629C15.7079 10.8714 15.6176 10.5452 15.5273 10.3179ZM8.50253 10.3339C8.22111 10.8527 7.90253 11.4411 7.54678 12.0962C8.22111 11.7994 8.86094 11.5213 9.39457 11.2859C9.10253 10.9731 8.77333 10.6227 8.50253 10.3339Z" fill="currentColor" />
</svg>