<svg viewBox="0 0 47 30" fill="none" xmlns="http://www.w3.org/2000/svg">
    <path d="M23.281 30h-11.04c-.93 0-1.12-.197-1.124-1.145-.015-5.78 4.49-11.066 10.19-11.957 6.65-1.04 12.713 3.235 14.045 9.915.132.67.222 1.356.25 2.042.038.819-.316 1.145-1.133 1.145H23.28Zm.128-30c4.33.076 7.5 3.43 7.419 7.844-.076 3.992-3.636 7.419-7.622 7.333-4.07-.091-7.419-3.566-7.367-7.64.057-4.308 3.376-7.61 7.57-7.538ZM3.325 11.918c-.01-3.163 2.332-5.573 5.43-5.588 3.127-.014 5.511 2.401 5.507 5.574 0 2.985-2.498 5.492-5.469 5.501-2.966.005-5.459-2.497-5.468-5.487Zm40.017-.011c-.005 2.995-2.489 5.492-5.464 5.492-2.965 0-5.468-2.51-5.473-5.492-.01-3.172 2.375-5.592 5.497-5.583 3.102.015 5.45 2.42 5.44 5.583Zm-9.87 7.285c1.526-.887 3.108-1.29 4.784-1.189 4.515.274 7.882 3.547 8.382 8.104.02.173.024.35.029.527.014.81-.284 1.122-1.087 1.122-2.309.005-4.618 0-6.922 0h-1.47c-.297-3.269-1.51-6.12-3.716-8.564ZM9.44 27.756H1.18c-.92 0-1.19-.278-1.18-1.189.038-3.81 2.862-7.313 6.692-8.3 2.007-.518 3.952-.355 5.832.546.212.1.415.23.628.35-2.366 3.125-2.885 3.968-3.712 8.593Z" fill="currentColor"/>
</svg>
