<svg viewBox="0 0 24 24" fill="none" xmlns="http://www.w3.org/2000/svg">
    <path d="M11.3979 11.2347C8.85616 11.2304 6.78866 9.15618 6.79298 6.6098C6.79513 4.06772 8.86694 2 11.4087 2C12.6441 2 13.8039 2.48297 14.6771 3.35836C15.5502 4.23375 16.0288 5.39805 16.0266 6.63351C16.018 9.17127 13.9462 11.2347 11.4087 11.2347H11.3979ZM11.413 3.02416C9.43178 3.02416 7.81702 4.63478 7.81702 6.61411C7.81487 8.59127 9.41884 10.2041 11.3893 10.2127H11.4044C13.3835 10.2127 14.9983 8.60637 15.0047 6.63351C15.0069 5.67188 14.6339 4.76415 13.9548 4.08282C13.2779 3.40148 12.3767 3.02632 11.4195 3.02416H11.413Z" fill="currentColor"/>
    <path d="M17.2297 21.4973C14.8733 21.4973 12.9546 19.5826 12.9524 17.2282C12.9502 14.8693 14.8647 12.9504 17.2211 12.9482H17.2254C19.5796 12.9482 21.4983 14.8629 21.5005 17.2174C21.5026 18.358 21.0585 19.4317 20.2501 20.2424C19.4416 21.0531 18.3701 21.4994 17.2318 21.4994H17.2297V21.4973ZM17.2318 13.9702C15.4446 13.9702 13.9851 15.417 13.9764 17.198C13.9721 18.0712 14.3084 18.8948 14.925 19.5136C15.5373 20.1303 16.3501 20.471 17.2146 20.4731H17.2211C19.0083 20.4731 20.4678 19.0264 20.4764 17.2454C20.4808 16.3722 20.1444 15.5507 19.53 14.9297C18.9177 14.3131 18.105 13.9724 17.2383 13.9702H17.2318Z" fill="currentColor"/>
    <path d="M14.964 20.8181C14.9468 20.8181 14.9317 20.8181 14.9144 20.8181C14.895 20.8181 14.8778 20.8181 14.8584 20.8181H6.19172H2.64959C2.40814 20.8181 2.24213 20.7685 2.14296 20.6693C2.04379 20.5701 1.99852 20.4084 2.00067 20.1734C2.00283 19.9988 2.00067 19.822 2.00067 19.6495C1.99852 19.0177 1.99421 18.3644 2.11925 17.7327C2.62157 15.1885 4.8292 13.1962 7.37099 12.9957C7.9078 12.9526 8.44031 12.9482 8.89089 12.9482C9.07629 12.9482 15.1451 12.9504 15.3284 12.9504C15.5116 12.9526 15.7013 12.9526 15.8889 12.9526C16.0204 12.9526 16.139 12.9526 16.2511 12.9504C16.4085 12.9482 16.5723 12.9482 16.734 12.9482C16.9022 12.9482 17.0768 12.9482 17.2514 12.9504C17.5705 12.9526 17.8012 13.1703 17.799 13.4636C17.7969 13.7568 17.564 13.9702 17.2449 13.9724C16.8526 13.9724 16.458 13.9746 16.0657 13.9746C15.8264 13.9746 8.99437 13.9746 8.75507 13.9746C8.5287 13.9746 8.30017 13.9746 8.07381 13.9746C5.54926 13.9767 3.55291 15.6412 3.10233 18.1143C3.04197 18.4464 3.02903 18.7784 3.01825 19.1277C3.01178 19.2851 3.00747 19.4468 2.99669 19.6085L2.98376 19.7918H7.50896C8.7874 19.7918 13.6576 19.7918 14.936 19.7918C15.1473 19.7918 15.3262 19.8759 15.4297 20.0246C15.5202 20.154 15.5375 20.3114 15.4814 20.4688C15.406 20.6736 15.2594 20.7858 15.033 20.8138C15.0136 20.8159 14.992 20.8181 14.964 20.8181Z" fill="currentColor"/>
    <path d="M16.9409 18.7664C16.8094 18.7664 16.6843 18.7104 16.5765 18.6026C16.1087 18.1325 15.628 17.6409 15.1493 17.1364C14.9467 16.923 14.951 16.6211 15.1558 16.4184C15.2528 16.3236 15.3779 16.2697 15.5072 16.2697C15.6452 16.2697 15.781 16.3279 15.891 16.4357C16.0936 16.6362 16.2963 16.8432 16.4903 17.0437C16.5895 17.145 16.6865 17.2464 16.7857 17.3477C16.8158 17.3779 16.846 17.3908 16.8633 17.3995L16.8676 17.4016L16.8654 17.3995L16.9948 17.227L16.9926 17.3046C17.1435 17.1666 17.2923 17.0265 17.4432 16.8885C17.8097 16.55 18.1891 16.1985 18.56 15.8535C18.6785 15.7436 18.7993 15.6875 18.9265 15.6875C18.976 15.6875 19.0256 15.6961 19.0795 15.7112C19.2692 15.7673 19.3857 15.8902 19.4331 16.0885C19.4762 16.2632 19.4353 16.4163 19.3145 16.5413C18.6354 17.2464 17.9714 17.9342 17.3052 18.6047C17.1996 18.7104 17.0724 18.7664 16.9409 18.7664Z" fill="currentColor"/>
</svg>