<svg viewBox="0 0 24 24" fill="none" xmlns="http://www.w3.org/2000/svg">
    <path fill="currentColor" d="M3.55651 22C3.39489 22 3.24277 21.9285 3.13582 21.8046C3.04075 21.6926 2.99559 21.5615 3.00034 21.3923C3.02648 20.1222 3.28318 18.9378 3.75854 17.8702C4.2339 16.805 4.94219 15.8232 5.86677 14.9533C6.58457 14.2789 7.43784 13.7285 8.40045 13.3162C8.43848 13.2995 8.47175 13.2852 8.5074 13.2661C8.52404 13.259 8.54068 13.2495 8.55969 13.2423L9.05169 13.0088L8.62149 12.6752C7.84427 12.0746 7.26196 11.3883 6.89117 10.6281C6.51088 9.85125 6.34213 8.97667 6.38491 8.02345C6.44909 6.64606 7.00764 5.44024 8.04868 4.44412C9.02317 3.51474 10.309 3 11.6686 3C13.0946 3 14.4352 3.55763 15.4477 4.57043C16.5481 5.67139 17.1067 7.20845 16.9831 8.78603C16.9237 9.53192 16.7193 10.2373 16.3699 10.8807C16.0062 11.5575 15.5023 12.1318 14.8749 12.587L14.4328 12.9087L14.92 13.1541C15.0793 13.2328 15.2385 13.3138 15.393 13.3901C15.7614 13.5712 16.1084 13.7428 16.4531 13.9334C16.6789 14.0597 16.7811 14.3028 16.7121 14.553C16.6432 14.808 16.4341 14.97 16.1845 14.97C16.0728 14.97 15.9587 14.9367 15.8517 14.8723C15.1957 14.4791 14.5065 14.1812 13.8053 13.9906C13.1564 13.8142 12.4886 13.7237 11.8183 13.7237C8.03442 13.7237 4.76393 16.5333 4.21251 20.2604C4.16973 20.5463 4.15309 20.8323 4.13883 21.1111C4.13408 21.2088 4.12695 21.3113 4.11982 21.4114C4.10556 21.6092 4.0295 21.8642 3.73953 21.9666C3.68011 21.9905 3.61831 22 3.55651 22ZM11.6757 4.11288C10.5467 4.11526 9.48903 4.55613 8.69992 5.35445C7.91082 6.15038 7.48062 7.20845 7.48538 8.33563C7.49488 10.6496 9.37494 12.5322 11.6733 12.5322H11.6995C14.0192 12.5179 15.8969 10.6186 15.8826 8.2975C15.8684 5.98834 13.9859 4.11288 11.6852 4.11288H11.6757Z" />
    <path fill="currentColor" d="M18.1028 22C17.9784 22 17.8337 21.9471 17.6709 21.8412C17.2141 21.5458 16.7573 21.2481 16.3006 20.9526C15.9659 20.7343 15.6312 20.5182 15.2965 20.2999C15.0026 20.108 14.9166 19.8082 15.0862 19.5502C15.1857 19.398 15.3395 19.3142 15.5159 19.3142C15.6357 19.3142 15.7624 19.3539 15.88 19.4289C16.2893 19.6935 16.6895 19.9537 17.1124 20.2315C17.2933 20.3506 17.4764 20.4697 17.6619 20.591L17.9197 20.7585L18.0983 20.5094C18.1164 20.4829 18.1345 20.4609 18.1503 20.4366C18.1842 20.3903 18.2159 20.344 18.2475 20.2999C18.5528 19.8545 18.8581 19.409 19.1634 18.9636C19.7649 18.086 20.3867 17.1775 20.9973 16.2845C21.1239 16.1014 21.2912 16 21.4676 16C21.5332 16 21.5988 16.0132 21.6644 16.0375C21.8159 16.0948 21.9244 16.2051 21.9742 16.3506C22.0239 16.5006 22.0013 16.6615 21.9108 16.8049C21.7345 17.0805 21.5423 17.3561 21.3591 17.6229C21.2822 17.7354 21.2053 17.8456 21.1284 17.9581C20.285 19.1907 19.4438 20.4234 18.6003 21.6538C18.3606 22 18.1684 22 18.1028 22Z" />
</svg>