<svg viewBox="0 0 24 24" fill="none" xmlns="http://www.w3.org/2000/svg">
    <path d="M9.927 1.478c.33.07.672.11.988.22 2.127.72 3.348 2.227 3.678 4.428.25 1.674-.233 3.164-1.354 4.442-.013.018-.022.035-.03.044.417.26.835.523 1.252.778.035.022.105.008.15-.014.39-.18.72-.096.966.251.171.246.338.496.545.8.044-.119.074-.18.088-.242.048-.242.087-.488.131-.73.084-.443.427-.68.866-.601.655.118 1.31.237 1.96.36.46.088.694.413.619.874-.035.229-.083.462-.119.69-.013.08 0 .158 0 .299.264-.185.48-.338.699-.488.092-.061.189-.132.29-.171a.672.672 0 0 1 .795.242c.418.597.826 1.203 1.222 1.814.202.312.11.707-.202.94-.211.159-.431.3-.642.457-.044.035-.075.092-.11.14.049.032.097.076.15.084.241.053.487.088.729.14a.762.762 0 0 1 .606.902c-.118.663-.237 1.322-.36 1.981-.092.484-.422.708-.91.62-.237-.04-.474-.093-.711-.128-.044-.008-.097.022-.145.035.013.044.013.093.04.132.149.224.303.444.452.668.233.356.171.76-.176 1.01-.562.405-1.129.805-1.7 1.2-.338.233-.747.158-.993-.18-.163-.224-.312-.457-.466-.685-.022-.036-.035-.08-.053-.12-.026.01-.048.023-.074.032-.022.061-.053.118-.066.18-.049.241-.088.487-.132.73-.084.439-.43.68-.87.597-.66-.119-1.322-.242-1.982-.365-.448-.083-.685-.435-.606-.888.044-.241.092-.487.132-.729.009-.057-.013-.114-.022-.176-.057.018-.119.027-.167.058-.207.136-.404.285-.61.426-.348.237-.73.197-.98-.132-.093-.123-.19-.14-.326-.14-3.506 0-7.012 0-10.514.004-.22 0-.386-.053-.496-.25v-4.122l.079-.5c.351-2.255 1.459-4.03 3.374-5.287.268-.175.558-.32.844-.487a.487.487 0 0 0-.053-.07C4.527 9.188 4.07 7.606 4.408 5.84c.378-1.982 1.525-3.375 3.436-4.087.378-.14.79-.193 1.19-.285.3.009.598.009.893.009ZM5.849 20.546h6.327v-.04c-.189-.28-.378-.562-.567-.847-.246-.37-.18-.756.18-1.028.203-.154.414-.3.616-.453.044-.03.061-.097.092-.145-.044-.026-.088-.066-.136-.075a17.174 17.174 0 0 0-.69-.127c-.457-.084-.703-.413-.624-.87.119-.677.242-1.349.37-2.026.087-.479.43-.703.913-.61.224.044.444.083.668.118.057.01.114-.008.171-.013-.017-.061-.022-.132-.053-.184-.127-.198-.259-.387-.39-.58-.282-.418-.216-.809.197-1.103l1.033-.73c-.409-.215-.782-.408-1.151-.61-.128-.07-.211-.04-.321.04a4.99 4.99 0 0 1-5.95.026c-.131-.097-.232-.115-.377-.044-2.425 1.173-3.735 3.12-3.941 5.782-.088 1.125-.027 2.263-.031 3.396 0 .04.009.08.013.119h2.957c0-.607-.004-1.19 0-1.78 0-.259.15-.417.36-.408.211.009.339.167.339.43-.005.589-.005 1.178-.005 1.762Zm3.634-18.37c-.58.005-1.13.119-1.657.338-2.83 1.191-3.721 4.913-1.77 7.36 1.542 1.933 4.253 2.232 6.173.68 1.63-1.313 2.201-3.659 1.322-5.614-.782-1.745-2.152-2.672-4.068-2.764Zm12.583 12.667c-.395-.593-.777-1.169-1.173-1.762-.32.22-.62.43-.918.642-.171.123-.334.123-.505-.009-.101-.08-.211-.145-.321-.21-.237-.137-.281-.23-.229-.506.062-.352.123-.703.19-1.068-.695-.136-1.367-.268-2.052-.4-.053.264-.106.506-.145.747-.128.76-.141.664-.747.787-.356.07-.409.061-.616-.242l-.57-.843-1.719 1.199c.15.228.273.457.435.65.295.347.352.66.04 1.046-.268.334-.255.373-.69.29-.303-.057-.606-.106-.923-.163-.131.716-.254 1.402-.382 2.083.049.018.066.026.088.03l.83.172c.431.092.449.11.523.54.013.084.031.167.053.247.07.22 0 .382-.189.51-.29.197-.571.408-.865.623l1.177 1.766c.308-.21.593-.417.888-.615a.635.635 0 0 1 .202-.105c.206-.053.865.36.892.571.017.123-.014.25-.035.378-.049.303-.106.606-.163.918.699.136 1.37.268 2.06.4l.163-.852c.101-.554.101-.554.65-.655.035-.005.07-.018.101-.027.312-.083.387-.057.572.211l.597.875c.58-.405 1.142-.8 1.696-1.19-.004-.032-.004-.05-.009-.058-.127-.198-.259-.391-.382-.584-.294-.462-.492-.506-.04-1.073.005-.004.005-.013.01-.017.18-.32.241-.347.614-.277.317.062.633.114.967.176.123-.677.242-1.327.365-1.982.022-.127-.04-.158-.145-.175a24.894 24.894 0 0 1-.791-.145c-.435-.084-.448-.101-.523-.532a2.605 2.605 0 0 0-.062-.268c-.052-.202 0-.356.176-.475.299-.188.589-.404.905-.628Z" fill="currentColor"/>
    <path d="M17.137 19.513c-1.354.008-2.474-1.125-2.483-2.496-.004-1.366 1.112-2.504 2.465-2.513 1.353-.005 2.465 1.112 2.478 2.496.018 1.362-1.107 2.504-2.46 2.513Zm-1.775-2.514c0 .99.795 1.81 1.757 1.815.971 0 1.775-.813 1.775-1.797 0-.993-.79-1.81-1.757-1.814-.967-.005-1.77.812-1.775 1.797Z" fill="currentColor"/>
</svg>
