<svg viewBox="0 0 24 24" fill="none" xmlns="http://www.w3.org/2000/svg">
    <path fill-rule="evenodd" clip-rule="evenodd" d="M12 1.25C9.37669 1.25 7.25004 3.37665 7.25004 6C7.25004 8.62335 9.37669 10.75 12 10.75C14.6234 10.75 16.75 8.62335 16.75 6C16.75 3.37665 14.6234 1.25 12 1.25ZM8.75004 6C8.75004 4.20507 10.2051 2.75 12 2.75C13.795 2.75 15.25 4.20507 15.25 6C15.25 7.79493 13.795 9.25 12 9.25C10.2051 9.25 8.75004 7.79493 8.75004 6Z"  fill="currentColor" />
    <path d="M5.75004 17C5.75004 16.2807 6.26705 15.483 7.4224 14.8228C8.55653 14.1747 10.1734 13.75 12 13.75C13.2006 13.75 14.3161 13.9337 15.2647 14.2472C15.6579 14.3772 16.0821 14.1638 16.2121 13.7705C16.3421 13.3772 16.1287 12.953 15.7354 12.823C14.6248 12.4559 13.3495 12.25 12 12.25C9.96071 12.25 8.07756 12.7208 6.67819 13.5204C5.30004 14.3079 4.25004 15.5101 4.25004 17L4.24996 17.0992C4.24872 18.125 4.2471 19.4551 5.39698 20.4063C5.96397 20.8754 6.75164 21.2043 7.80211 21.4203C8.85553 21.6369 10.2238 21.75 12 21.75C12.357 21.75 12.697 21.7454 13.0209 21.7364C13.435 21.7249 13.7613 21.3799 13.7498 20.9658C13.7382 20.5518 13.3932 20.2255 12.9792 20.237C12.6703 20.2456 12.3443 20.25 12 20.25C10.2762 20.25 9.01956 20.1392 8.10422 19.951C7.18594 19.7622 6.66111 19.5053 6.35311 19.2505C5.79041 18.785 5.75004 18.1711 5.75004 17Z"  fill="currentColor" />
    <path fill-rule="evenodd" clip-rule="evenodd" d="M18 15.25C15.929 15.25 14.25 16.9289 14.25 19C14.25 21.0711 15.929 22.75 18 22.75C20.0711 22.75 21.75 21.0711 21.75 19C21.75 16.9289 20.0711 15.25 18 15.25ZM18.9701 16.9693L15.9693 19.97C15.8287 19.6763 15.75 19.3473 15.75 19C15.75 17.7574 16.7574 16.75 18 16.75C18.3474 16.75 18.6764 16.8287 18.9701 16.9693ZM17.0299 21.0307C17.3237 21.1713 17.6527 21.25 18 21.25C19.2427 21.25 20.25 20.2426 20.25 19C20.25 18.6526 20.1713 18.3237 20.0308 18.0299L17.0299 21.0307Z"  fill="currentColor" />
</svg>