<svg viewBox="0 0 24 24" fill="none" xmlns="http://www.w3.org/2000/svg">
    <path fill="currentColor" d="M6.9954 22C5.9133 22 5.0205 22 4.19081 21.9977C3.65326 21.9977 3.16713 21.8339 2.78617 21.5228C2.40521 21.2139 2.14579 20.7741 2.03828 20.2501C1.94713 19.8173 2.01724 19.3588 2.26498 18.7692C2.66464 17.8124 3.21387 16.9819 3.90334 16.2987C4.58345 15.6273 5.41548 15.0776 6.38307 14.6681C6.42747 14.6494 6.47188 14.6307 6.5233 14.6073L6.60042 14.5746L6.96969 14.4155L6.68456 14.1324C6.17973 13.6294 5.82682 13.0797 5.63284 12.4948C5.43885 11.9029 5.40379 11.2572 5.52766 10.5788C5.7123 9.57516 6.25686 8.75635 7.14264 8.14575C7.75732 7.72231 8.49353 7.49772 9.26946 7.49772C10.0103 7.49772 10.7279 7.70359 11.3425 8.0896C11.9969 8.50368 12.5064 9.1096 12.8103 9.84419L12.9271 10.1249L15.1965 8.88736L14.9721 8.63002C14.9324 8.58557 14.8927 8.53878 14.8483 8.49199C14.7571 8.39139 14.6636 8.28846 14.5772 8.18084C13.7779 7.18657 13.5441 5.85776 13.9485 4.62487C14.3528 3.39432 15.3297 2.46555 16.5591 2.14271C16.7063 2.10528 16.8536 2.07252 17.0102 2.03977C17.0733 2.02573 17.1364 2.01404 17.1995 2H17.9427C18.0268 2.01872 18.1086 2.03743 18.1904 2.05381C18.3844 2.09358 18.5667 2.13335 18.7397 2.19184C19.969 2.60592 20.8735 3.5417 21.2264 4.75588C21.5793 5.97005 21.3105 7.2474 20.4949 8.25336C20.4201 8.3446 20.3383 8.43584 20.2588 8.5224C20.2214 8.56451 20.184 8.60428 20.149 8.64405L19.9199 8.90139C19.9199 8.90139 20.4925 9.21254 20.6257 9.28506C20.9366 9.4535 21.2311 9.61493 21.5326 9.77869C21.8107 9.93075 21.9579 10.1086 22 10.3519V10.3612C21.9907 10.3893 21.979 10.422 21.9696 10.4595C21.9112 10.7191 21.7102 10.8853 21.4625 10.8853C21.3643 10.8853 21.2685 10.8595 21.1773 10.808C21.0628 10.7449 20.9459 10.677 20.8338 10.6115C20.572 10.4595 20.3009 10.3004 20.0157 10.1741C19.2749 9.84185 18.4335 9.66639 17.5804 9.66639C15.9444 9.66639 14.3621 10.2887 13.2403 11.3765C13.1398 11.4725 13.072 11.6058 13.058 11.7275C12.9552 12.6469 12.5695 13.4212 11.8777 14.0973C11.845 14.1301 11.8263 14.1628 11.8146 14.1815C11.8123 14.1862 11.81 14.1909 11.8053 14.1956L11.6417 14.4576L11.9198 14.5886C11.9853 14.619 12.0507 14.6494 12.1138 14.6775C12.254 14.7407 12.3872 14.7992 12.5111 14.8693C12.8523 15.0565 13.1351 15.2179 13.4109 15.3957C13.6844 15.5735 13.7615 15.88 13.5979 16.142C13.4997 16.2964 13.3431 16.383 13.1655 16.383C13.058 16.383 12.9482 16.3479 12.8477 16.2847C12.1278 15.8168 11.4851 15.5244 10.8213 15.363C10.2674 15.2296 9.71586 15.1618 9.18533 15.1618C7.83678 15.1618 6.55368 15.5946 5.36874 16.4485C4.33805 17.1901 3.59483 18.189 3.15778 19.4149C3.01755 19.8056 3.05494 20.1963 3.25828 20.4864C3.46395 20.7765 3.80517 20.9379 4.21885 20.9379C5.18878 20.9379 6.1587 20.9379 7.12862 20.9379H9.46345C9.97763 20.9379 10.4918 20.9379 11.0083 20.9379C11.3355 20.9379 11.5412 21.0642 11.616 21.3145C11.6627 21.4689 11.6393 21.6327 11.5505 21.7661C11.4617 21.8971 11.3192 21.9813 11.1602 21.9953C11.1252 21.9977 11.0854 21.9977 11.0387 21.9977H11.0223C10.3936 21.9977 9.76494 21.9977 9.13625 21.9977C8.41874 22 7.7059 22 6.9954 22ZM9.2531 8.55983C7.74563 8.55983 6.51161 9.79273 6.5046 11.3064C6.49759 12.8059 7.71759 14.0459 9.22272 14.0692C9.23674 14.0692 9.25077 14.0692 9.26479 14.0692C10.7699 14.0692 12.0063 12.8457 12.018 11.3438C12.032 9.82548 10.8026 8.57621 9.28115 8.55983C9.2718 8.55983 9.26245 8.55983 9.2531 8.55983ZM17.5687 3.06679C16.0543 3.06679 14.8156 4.29734 14.8062 5.80629C14.8015 6.54322 15.0867 7.23804 15.6055 7.76442C16.1244 8.29079 16.8185 8.58089 17.5547 8.58557H17.5687C19.0669 8.58557 20.3009 7.35501 20.3219 5.84138C20.3313 5.11615 20.0508 4.42601 19.5343 3.8973C19.0131 3.36624 18.3236 3.06913 17.5898 3.06445L17.5687 3.06679Z" />
    <path fill="currentColor" d="M16.1996 22C15.7119 22 15.2465 21.8099 14.8479 21.4491C14.0433 20.7201 13.2387 19.9623 12.4614 19.2285L12.2113 18.9928C11.9489 18.7474 11.9291 18.425 12.1618 18.1916C12.2732 18.081 12.4069 18.0208 12.548 18.0208C12.699 18.0208 12.8525 18.0882 12.9887 18.2133C13.6274 18.8027 14.2735 19.4066 14.8974 19.9912C15.1054 20.1836 15.3108 20.3785 15.5188 20.571C15.6748 20.7177 15.9174 20.9126 16.2045 20.9126C16.5437 20.9126 16.7739 20.6503 16.92 20.4555C17.2814 19.9647 17.6429 19.4739 18.0043 18.9855C18.955 17.696 19.9378 16.3608 20.9033 15.0472C21.0692 14.8211 21.2227 14.7273 21.4182 14.7273C21.4455 14.7273 21.4752 14.7297 21.5049 14.7321C21.7574 14.7658 21.9257 14.9221 21.9802 15.1723C21.9851 15.2012 21.9926 15.2253 22 15.2517C21.9728 15.3071 21.9455 15.3624 21.9208 15.4153C21.8416 15.5813 21.7673 15.7377 21.6707 15.87C20.6755 17.2341 19.6556 18.6174 18.6678 19.9551C18.3757 20.352 18.0835 20.749 17.7914 21.1459C17.3904 21.6897 16.8111 22 16.1996 22Z" />
</svg>