<svg viewBox="0 0 24 24" fill="none" xmlns="http://www.w3.org/2000/svg">
    <path d="M11.888 22.29c-.648 0-1.281-.268-1.78-.759-.117-.115-.236-.229-.351-.345a49.218 49.218 0 0 1-1.139-1.133 2.65 2.65 0 0 0-1.98-.842h-.072c-.103.002-.224.005-.342.005-.353 0-.769-.018-1.18-.138a3.445 3.445 0 0 1-1.78-1.227 3.36 3.36 0 0 1-.689-2.038c-.005-4.131-.005-7.531 0-10.7a3.374 3.374 0 0 1 .993-2.384 3.427 3.427 0 0 1 2.39-1.01h5.996c.584 0 1.165 0 1.75-.003l1.748-.002c.9 0 1.639.002 2.329.005a3.413 3.413 0 0 1 2.165.768A3.432 3.432 0 0 1 21.2 5.163c.005 4.05.005 7.42.003 10.608a3.423 3.423 0 0 1-3.388 3.437c-.084.003-.175.003-.288.003h-.419a2.55 2.55 0 0 0-1.867.763c-.503.503-1.02 1.013-1.582 1.56-.495.49-1.126.756-1.771.756ZM8.358 2.736c-.957 0-1.74.005-2.467.013-1.237.014-2.286 1.079-2.289 2.323-.01 3.168-.01 6.59 0 10.77.003 1.058.744 2.001 1.764 2.24.4.094.813.096 1.215.099h.084c1.034.007 1.887.36 2.604 1.074.522.52 1.042 1.035 1.532 1.515.325.32.705.49 1.094.49.387 0 .761-.167 1.084-.483.325-.317.653-.643.97-.958.205-.202.407-.404.612-.603.544-.538 1.167-.863 1.855-.966.357-.054.734-.057 1.101-.06.064 0 .128 0 .192-.002 1.43-.017 2.466-1.064 2.469-2.486.002-3.988.002-7.322-.003-10.495a2.8 2.8 0 0 0-.076-.665c-.276-1.094-1.227-1.8-2.424-1.803-.698-.003-1.449-.003-2.365-.003h-3.632v.005l-1.55-.002-1.77-.003Z" fill="currentColor"/>
    <path d="M12.217 11.578a2.775 2.775 0 0 1-1.979-.826 2.77 2.77 0 0 1-.81-1.968 2.769 2.769 0 0 1 .823-1.966 2.782 2.782 0 0 1 1.976-.813h.007a2.795 2.795 0 0 1 2.779 2.786 2.76 2.76 0 0 1-.816 1.966c-.53.53-1.231.823-1.978.823h-.002v-.002Zm.005-4.55c-.974 0-1.767.788-1.772 1.758-.002.468.18.91.513 1.242.335.338.778.522 1.251.525h.005c.973 0 1.767-.789 1.769-1.757a1.741 1.741 0 0 0-.515-1.244 1.75 1.75 0 0 0-1.249-.525h-.002Zm-4.254 9.064c-.158 0-.352-.074-.409-.237a1.553 1.553 0 0 1-.056-.72c.167-1.113.788-1.968 1.899-2.613.771-.449 1.599-.638 2.77-.638h.05a4.456 4.456 0 0 1 3.354 1.66 3.1 3.1 0 0 1 .73 1.99c.002.304-.198.536-.474.553H15.8c-.28 0-.493-.2-.507-.473-.062-1.195-.74-2.025-2.01-2.466a4.52 4.52 0 0 0-1.47-.261c-.871 0-1.684.295-2.413.877-.582.465-.89 1.064-.912 1.783-.007.276-.155.468-.404.527a.364.364 0 0 1-.116.018Z" fill="currentColor"/>
</svg>
