<svg viewBox="0 0 30 30" fill="none" xmlns="http://www.w3.org/2000/svg">
    <path d="M27.7733 20.8082C27.4738 21.385 27.1604 21.4981 26.5447 21.2525C24.3537 20.3805 22.1599 19.5085 19.9689 18.6337C19.8913 18.6033 19.8136 18.5757 19.6972 18.5316C19.6916 18.6337 19.6833 18.7109 19.6833 18.7882C19.6833 19.3732 19.6861 19.9555 19.6833 20.5405C19.675 21.9783 18.6793 22.991 17.2316 22.9938C12.9799 23.0021 8.72553 23.0021 4.47389 22.9938C3.00398 22.991 2 21.97 2 20.5047C2 16.8317 2 13.1614 2 9.48844C2 8.01483 3.00952 7.00483 4.49607 7.00207C8.72553 6.99931 12.9522 6.99931 17.1817 7.00207C18.6738 7.00207 19.675 8.00103 19.6805 9.48293C19.6833 10.0514 19.6805 10.6171 19.6805 11.1856C19.6805 11.2656 19.6805 11.3484 19.6805 11.4671C19.7998 11.4229 19.8857 11.3953 19.9662 11.3622C22.1572 10.4902 24.3509 9.61538 26.5419 8.74336C27.1604 8.49776 27.4738 8.6109 27.7706 9.18765C27.7733 13.0621 27.7733 16.9338 27.7733 20.8082ZM10.8416 8.50328C8.73662 8.50328 6.6316 8.50328 4.52658 8.50328C3.83877 8.50328 3.51151 8.83167 3.51151 9.51604C3.51151 13.1614 3.51151 16.8096 3.51151 20.455C3.51151 21.1725 3.83045 21.4898 4.55431 21.4898C8.74772 21.4898 12.9411 21.4898 17.1317 21.4898C17.8556 21.4898 18.169 21.1752 18.169 20.4495C18.169 16.8123 18.169 13.1725 18.169 9.53536C18.169 8.80959 17.8556 8.50052 17.129 8.50052C15.0323 8.50328 12.9383 8.50328 10.8416 8.50328ZM26.2563 10.4874C26.198 10.5067 26.1675 10.515 26.137 10.5288C24.0375 11.3622 21.9408 12.2011 19.8386 13.029C19.6777 13.0924 19.6805 13.1918 19.6805 13.3187C19.6833 14.4364 19.6861 15.554 19.675 16.6744C19.6722 16.8593 19.7443 16.931 19.9052 16.9945C21.8133 17.7451 23.7158 18.504 25.6212 19.2628C25.8264 19.3456 26.0344 19.4257 26.2563 19.514C26.2563 16.4922 26.2563 13.5064 26.2563 10.4874Z" fill="currentColor" />
</svg>