<svg viewBox="0 0 20 20" fill="none" xmlns="http://www.w3.org/2000/svg">
    <path d="M1.66663 9.99935C1.66663 6.07098 1.66663 4.10679 2.88701 2.8864C4.1074 1.66602 6.07159 1.66602 9.99996 1.66602C13.9283 1.66602 15.8925 1.66602 17.1129 2.8864C18.3333 4.10679 18.3333 6.07098 18.3333 9.99935C18.3333 13.9277 18.3333 15.8919 17.1129 17.1123C15.8925 18.3327 13.9283 18.3327 9.99996 18.3327C6.07159 18.3327 4.1074 18.3327 2.88701 17.1123C1.66663 15.8919 1.66663 13.9277 1.66663 9.99935Z" stroke="currentColor" stroke-width="1.2"/>
    <path d="M17.9167 6.66602H2.08337" stroke="currentColor" stroke-width="1.2" stroke-linecap="round"/>
    <path d="M8.75004 2.08398L5.83337 6.66732" stroke="currentColor" stroke-width="1.2" stroke-linecap="round"/>
    <path d="M14.1667 2.08398L11.25 6.66732" stroke="currentColor" stroke-width="1.2" stroke-linecap="round"/>
    <path d="M12.5 12.084C12.5 11.5562 11.9484 11.2002 10.845 10.4883C9.72659 9.7667 9.16738 9.40588 8.75038 9.67081C8.33337 9.93573 8.33337 10.6518 8.33337 12.084C8.33337 13.5162 8.33337 14.2322 8.75038 14.4972C9.16738 14.7621 9.72659 14.4013 10.845 13.6796C11.9484 12.9677 12.5 12.6118 12.5 12.084Z" stroke="currentColor" stroke-width="1.2" stroke-linecap="round"/>
</svg>