<svg viewBox="0 0 24 24" fill="none" xmlns="http://www.w3.org/2000/svg">
    <path d="M19.977 13.256c-.903-1.5-1.8-3.007-2.709-4.508a.38.38 0 0 1-.03-.372c.238-.612.464-1.23.696-1.843.41-1.08.813-2.167 1.217-3.248.107-.282.018-.546-.226-.612a.886.886 0 0 0-.433.012c-1.64.456-3.278.913-4.918 1.38-.16.049-.26.013-.38-.083-.89-.739-1.787-1.477-2.69-2.215A104.87 104.87 0 0 0 8.93.5h-.267c-.232.15-.309.36-.32.636-.084 1.561-.197 3.122-.28 4.689-.012.246-.03.468-.19.63L6.003 7.62s-.007 0-.007.006l-2.18 1.356c-.178.114-.356.222-.534.33-.184.114-.303.258-.279.493.024.228.172.324.368.402 1.633.642 3.273 1.296 4.912 1.939.154.06.231.15.279.306.428 1.35.867 2.701 1.3 4.052.107.33.214.666.327 1.026H7.695c-.35 0-.51.162-.517.523-.006.312 0 .63 0 .942v.336H6.43c-.452 0-.6.15-.6.607v2.665c-.095 0-.16-.006-.226 0a.449.449 0 0 0-.445.438.449.449 0 0 0 .427.456c.06.006.12 0 .179 0h11.777c.07 0 .148.006.22-.006a.45.45 0 0 0 .385-.45.449.449 0 0 0-.421-.438c-.077-.006-.155 0-.25 0v-2.707c0-.397-.166-.559-.558-.559h-.796v-1.26c0-.39-.154-.547-.534-.547h-2.364l.024-.108c.433-1.224.867-2.449 1.295-3.674.041-.125.1-.15.225-.137 1.568.143 3.142.282 4.71.432.225.018.415-.012.54-.216.149-.21.066-.385-.041-.57ZM8.603 22.591H6.751V20.25h1.852v2.34Zm5.197-.006H9.512v-2.323H13.8v2.323Zm2.768-2.323v2.335H14.72v-2.335h1.847Zm-1.33-1.813v.876h-7.14v-.876h7.14Zm3.355-5.409c-1.36-.12-2.714-.246-4.074-.366-.458-.042-.54.024-.701.468-.493 1.393-.986 2.786-1.473 4.184-.053.15-.113.216-.28.204a4.71 4.71 0 0 0-.712 0c-.172.012-.243-.06-.29-.216-.577-1.807-1.165-3.614-1.74-5.42a.713.713 0 0 0-.446-.487c-.986-.384-1.972-.78-2.952-1.17-.487-.192-.974-.39-1.485-.594.107-.073.19-.12.268-.175l3.54-2.179a1.26 1.26 0 0 0 .255-.156 1.14 1.14 0 0 0 .41-.81c.059-1.075.124-2.155.19-3.23.023-.396.053-.798.082-1.224.078.06.125.09.167.126 1.164.96 2.334 1.915 3.498 2.881.208.174.41.216.671.138 1.063-.312 2.138-.606 3.207-.906.41-.114.82-.228 1.26-.348-.037.108-.06.18-.09.246-.535 1.416-1.057 2.84-1.604 4.256-.112.288-.083.516.078.78.76 1.249 1.508 2.503 2.262 3.758.048.072.084.15.137.246-.065-.006-.125 0-.178-.006Z" fill="currentColor"/>
</svg>
